<svg width="4716" height="6195" viewBox="0 0 4716 6195" fill="none" xmlns="http://www.w3.org/2000/svg">
<g clip-path="url(#clip0_494_702)">
<rect width="4715.85" height="6195" fill="white"/>
<g filter="url(#filter0_f_494_702)">
<circle cx="375.343" cy="1609.01" r="734.047" fill="#AAE6F8"/>
</g>
<g style="mix-blend-mode:multiply" opacity="0.28">
<g filter="url(#filter1_f_494_702)">
<ellipse cx="2577.37" cy="3470.77" rx="2076.63" ry="2137.03" transform="rotate(74.3414 2577.37 3470.77)" fill="url(#paint0_linear_494_702)"/>
</g>
<g filter="url(#filter2_f_494_702)">
<ellipse cx="2577.37" cy="3470.77" rx="2076.63" ry="2137.03" transform="rotate(74.3414 2577.37 3470.77)" fill="url(#paint1_linear_494_702)"/>
</g>
<g filter="url(#filter3_f_494_702)">
<ellipse cx="2577.37" cy="3470.77" rx="2076.63" ry="2137.03" transform="rotate(74.3414 2577.37 3470.77)" fill="white"/>
</g>
<g filter="url(#filter4_f_494_702)">
<ellipse cx="3169.39" cy="3236.51" rx="1519.49" ry="1563.68" transform="rotate(74.3414 3169.39 3236.51)" fill="url(#paint2_linear_494_702)"/>
</g>
</g>
<g opacity="0.5">
<g opacity="0.5">
<path opacity="0.5" d="M-93.7179 2717.75C1621.69 2623.16 892.546 1731.07 1134.54 1438.1C1202.13 1356.26 1335.4 1383.66 1407.33 1450.69C1503.97 1540.75 1443.68 1720 1301.73 1699.7C1158.44 1679.22 1130.83 1455.87 1215.11 1363.5C1256.93 1317.68 1321.7 1298.72 1383.72 1298.1C1613.01 1295.83 1785.23 1497.53 1976.44 1598.63C2116.29 1672.58 2271.75 1724.15 2429.88 1719.47C2606.42 1714.26 2774.66 1630.96 2875.3 1483.95C3119.75 1126.94 3089.32 427.063 3645.84 358.947C4137.51 298.794 4508.65 852.766 4714.91 1222.55" stroke="url(#paint3_linear_494_702)" stroke-width="1.30934" stroke-miterlimit="10"/>
<path opacity="0.5" d="M4712.75 1205.93C4585.59 986.034 4396.34 700.357 4161.57 528.136C4061.65 455.045 3954.92 402.83 3840.53 382.185C3777.29 370.774 3711.4 369.062 3643.02 379.176C3534.81 394.938 3448.54 434.515 3377.7 490.364C3249.2 591.622 3170.82 748.058 3106.58 910.188C3061.59 1023.74 3024.47 1138.67 2985.85 1246.3C2956.83 1327.19 2924.43 1404.56 2881.48 1471.43C2840.38 1535.54 2785.51 1588.63 2722.15 1628.47C2640.67 1679.8 2545.54 1709.29 2447.28 1714.15C2290.43 1722.25 2134.36 1673.62 1993.61 1599.4C1798.11 1496.42 1625.16 1308.16 1404.71 1315.96C1390.22 1316.47 1375.67 1318.12 1361.41 1320.89C1317.49 1329.43 1275.67 1348.44 1246.28 1381.44C1167.6 1469.53 1195.63 1679.59 1328.3 1696.53C1350.4 1699.36 1370.25 1697.16 1387.61 1690.89C1476.61 1659.27 1501.12 1527.16 1420.05 1456.22C1347.99 1393.15 1216.99 1368.57 1149.34 1450.69C1124.17 1481.24 1109.24 1518.2 1100.79 1560C1028.5 1918.52 1401.52 2626.7 -91.7297 2679.75" stroke="url(#paint4_linear_494_702)" stroke-width="1.30934" stroke-miterlimit="10"/>
<path opacity="0.5" d="M4710.6 1189.27C4580.52 972.263 4386.11 690.497 4150.84 527.974C4050.52 459.072 3945.64 412.551 3833.8 396.234C3771.94 387.254 3707.4 387.763 3640.22 399.312C3534.12 417.55 3448.82 458.147 3378.05 514.319C3250.12 615.693 3168.27 770.324 3100.98 924.978C3053.86 1033.3 3015.79 1138.88 2981.87 1240.03C2956.11 1316.84 2927.6 1392.27 2887.66 1458.81C2849.52 1522.69 2796.78 1576.78 2735 1617.7C2655.53 1670.64 2561.9 1701.77 2464.68 1708.76C2309.06 1719.93 2152.41 1674.59 2010.76 1600.11C1810.96 1495.27 1637.21 1320.45 1425.7 1333.81C1411.84 1334.69 1398.02 1336.75 1384.63 1339.83C1343.5 1349.27 1304.65 1368.02 1277.46 1399.35C1204.38 1483.19 1232.82 1679.89 1354.87 1693.34C1375.67 1695.63 1394.25 1693.32 1410.34 1686.98C1493.9 1655.15 1514.17 1528.41 1432.74 1461.73C1360.56 1402.62 1231.78 1380.86 1164.09 1463.26C1138.98 1493.79 1123.8 1530.59 1114.91 1572.13C1038.8 1928.38 1360.37 2620.36 -89.7841 2641.75" stroke="url(#paint5_linear_494_702)" stroke-width="1.30934" stroke-miterlimit="10"/>
<path opacity="0.5" d="M4708.43 1172.6C4575.43 958.492 4375.86 680.638 4140.07 527.836C4039.36 463.146 3936.34 422.272 3827.04 410.329C3766.57 403.779 3703.37 406.441 3637.39 419.518C3533.42 440.117 3449.05 481.87 3378.35 538.344C3251 639.857 3165.7 792.636 3095.35 939.837C3046.11 1042.92 3007.11 1139.14 2977.86 1233.8C2955.39 1306.52 2930.73 1380.03 2893.79 1446.27C2858.64 1509.94 2808.01 1564.98 2747.82 1607.01C2670.36 1661.52 2578.23 1694.43 2482.06 1703.43C2327.68 1717.9 2170.46 1675.64 2027.91 1600.88C1823.82 1494.18 1649.18 1332.79 1446.69 1351.68C1433.45 1352.9 1420.38 1355.38 1407.81 1358.76C1369.49 1369.13 1333.6 1387.57 1308.6 1417.27C1241.12 1496.82 1269.96 1680.15 1381.41 1690.17C1400.94 1691.93 1418.22 1689.5 1433.06 1683.09C1511.21 1651.06 1527.27 1529.68 1445.44 1467.26C1373.15 1412.11 1246.58 1393.18 1178.87 1475.83C1153.86 1506.33 1138.42 1542.97 1129.07 1584.28C1049.14 1938.26 1319.3 2614.04 -87.7958 2603.77" stroke="url(#paint6_linear_494_702)" stroke-width="1.30934" stroke-miterlimit="10"/>
<path opacity="0.5" d="M4706.25 1155.96C4570.34 944.721 4366 670.177 4129.29 527.697C4028.35 466.942 3927.01 431.993 3820.26 424.425C3761.18 420.305 3699.32 425.119 3634.55 439.7C3532.68 462.66 3449.28 505.571 3378.63 562.345C3251.86 663.974 3163.09 814.924 3089.69 954.673C3038.29 1052.53 2998.42 1139.35 2973.82 1227.55C2954.68 1296.2 2933.62 1367.67 2899.9 1433.68C2867.53 1497.03 2819.12 1552.99 2760.61 1596.27C2685.06 1652.19 2594.53 1687.05 2499.42 1698.06C2346.27 1715.79 2188.49 1676.63 2045.01 1601.62C1836.65 1493.05 1661.03 1345.06 1467.63 1369.54C1455.02 1371.14 1442.66 1374.01 1430.98 1377.71C1395.43 1388.99 1362.59 1407.22 1339.73 1435.21C1278.06 1510.64 1307.01 1680.36 1407.93 1687C1426.16 1688.2 1442.18 1685.68 1455.74 1679.2C1528.47 1646.98 1540.34 1530.98 1458.1 1472.79C1385.74 1421.62 1261.37 1405.47 1193.59 1488.42C1168.65 1518.9 1152.96 1555.37 1143.17 1596.43C1059.42 1948.14 1278.13 2607.7 -85.8732 2565.79" stroke="url(#paint7_linear_494_702)" stroke-width="1.30934" stroke-miterlimit="10"/>
<path opacity="0.5" d="M4704.1 1139.3C4565.27 930.95 4355.84 660.156 4118.55 527.559C4017.24 470.947 3917.75 441.715 3813.5 438.497C3755.83 436.808 3695.29 443.751 3631.75 459.883C3532.01 485.181 3449.53 529.272 3378.97 586.347C3252.78 688.092 3160.54 837.214 3084.11 969.487C3030.58 1062.14 2989.85 1139.51 2969.86 1221.3C2954.07 1285.83 2936.76 1355.4 2906.1 1421.11C2876.67 1484.23 2830.38 1541.14 2773.5 1585.56C2699.91 1643.03 2610.93 1679.71 2516.86 1692.72C2364.94 1713.76 2206.58 1677.65 2062.23 1602.36C1849.56 1491.94 1672.87 1357.35 1488.69 1387.41C1476.68 1389.38 1465.09 1392.64 1454.23 1396.67C1421.44 1408.85 1391.64 1426.85 1370.95 1453.17C1314.94 1524.38 1344.61 1673.9 1434.52 1683.85C1451.36 1685.73 1466.2 1681.89 1478.51 1675.34C1545.8 1642.91 1553.56 1532.32 1470.83 1478.35C1398.44 1431.13 1276.21 1417.8 1208.4 1501.01C1183.55 1531.47 1167.6 1567.78 1157.35 1608.59C1069.78 1958.03 1237.05 2601.38 -83.862 2527.81" stroke="url(#paint8_linear_494_702)" stroke-width="1.30934" stroke-miterlimit="10"/>
<path opacity="0.5" d="M4701.92 1122.64C4560.18 917.155 4345.64 650.156 4107.79 527.396C4006.11 474.926 3908.45 451.434 3806.75 452.568C3750.47 453.309 3691.29 462.382 3628.93 480.041C3531.29 507.676 3449.79 552.948 3379.28 610.324C3253.67 712.184 3157.95 859.478 3078.48 984.298C3022.83 1071.72 2981.29 1139.62 2965.86 1215.03C2953.47 1275.44 2939.84 1343.11 2912.26 1408.5C2885.74 1471.38 2841.61 1529.24 2786.32 1574.79C2714.72 1633.81 2627.25 1672.3 2534.22 1687.32C2383.52 1711.65 2224.61 1678.62 2079.33 1603.08C1862.38 1490.78 1684.49 1369.64 1509.64 1405.23C1498.23 1407.55 1487.37 1411.23 1477.4 1415.58C1447.34 1428.68 1420.59 1446.41 1402.07 1471.06C1351.74 1538.04 1381.48 1672.26 1461.04 1680.63C1476.59 1682.28 1490.15 1678.02 1501.19 1671.4C1563.07 1638.77 1566.72 1533.57 1483.49 1483.86C1411.1 1440.6 1290.99 1430.09 1223.14 1513.57C1198.36 1544.01 1182.18 1580.16 1171.47 1620.71C1080.08 1967.88 1195.93 2595.04 -81.9393 2489.8" stroke="url(#paint9_linear_494_702)" stroke-width="1.30934" stroke-miterlimit="10"/>
<path opacity="0.5" d="M4699.77 1105.97C4555.11 903.383 4335.46 640.157 4097.03 527.256C3994.98 478.93 3899.15 461.154 3799.99 466.663C3745.09 469.834 3687.26 481.036 3626.1 500.223C3530.6 530.196 3450.04 576.624 3379.6 634.324C3254.57 736.324 3155.38 881.789 3072.86 999.134C3015.08 1081.32 2972.8 1139.69 2961.85 1208.8C2952.94 1265.04 2942.92 1330.87 2918.41 1395.95C2894.81 1458.6 2852.83 1517.42 2799.17 1564.1C2729.53 1624.67 2643.59 1664.99 2551.62 1682C2402.15 1709.66 2242.66 1679.66 2096.5 1603.84C1875.27 1489.67 1696.06 1382 1530.62 1423.12C1519.82 1425.81 1509.68 1429.88 1500.61 1434.53C1473.23 1448.56 1449.58 1466.01 1433.24 1488.99C1388.6 1551.74 1418.13 1670.38 1487.6 1677.49C1501.86 1678.94 1514.15 1674.22 1523.93 1667.53C1580.4 1634.69 1579.98 1534.91 1496.19 1489.41C1423.82 1450.13 1305.8 1442.43 1237.91 1526.19C1213.21 1556.6 1196.76 1592.59 1185.61 1632.89C1090.4 1977.79 1154.81 2588.75 -79.974 2451.84" stroke="url(#paint10_linear_494_702)" stroke-width="1.30934" stroke-miterlimit="10"/>
<path opacity="0.5" d="M4697.6 1089.33C4550.05 889.636 4325.21 630.182 4086.27 527.118C3983.82 482.935 3889.85 470.877 3793.23 480.736C3739.73 486.337 3683.26 499.669 3623.28 520.407C3529.9 552.694 3450.27 600.326 3379.9 658.327C3255.45 760.442 3152.82 904.079 3067.24 1013.97C3007.32 1090.95 2964.33 1139.69 2957.85 1202.55C2952.48 1254.58 2946.02 1318.6 2924.57 1383.36C2903.91 1445.81 2864.03 1505.57 2812.01 1553.36C2744.37 1615.5 2659.95 1657.65 2569.03 1676.63C2420.76 1707.6 2260.74 1680.66 2113.65 1604.56C1888.11 1488.53 1707.45 1394.38 1551.61 1440.97C1541.39 1444.02 1531.99 1448.51 1523.8 1453.47C1499.06 1468.44 1478.58 1485.62 1464.39 1506.91C1425.45 1565.42 1454.42 1680.52 1514.15 1674.29C1527.11 1672.95 1538.12 1670.38 1546.64 1663.62C1597.69 1630.57 1593.27 1536.19 1508.87 1494.92C1436.58 1459.58 1320.59 1454.69 1252.67 1538.73C1228.05 1569.12 1211.37 1604.95 1199.75 1644.99C1100.73 1987.65 1113.69 2582.38 -78.0055 2413.82" stroke="url(#paint11_linear_494_702)" stroke-width="1.30934" stroke-miterlimit="10"/>
<path opacity="0.5" d="M4695.44 1072.67C4544.98 875.843 4315 620.208 4075.51 526.98C3972.67 486.94 3880.56 480.598 3786.45 494.832C3734.36 502.863 3679.21 518.301 3620.43 540.59C3529.19 575.191 3450.5 624.027 3380.2 682.329C3256.32 784.559 3150.22 926.368 3061.59 1028.81C2999.55 1100.56 2955.93 1139.53 2953.82 1196.31C2952.06 1244.05 2949.08 1306.34 2930.7 1370.8C2912.95 1433.01 2875.23 1493.72 2824.83 1542.65C2759.18 1606.34 2676.26 1650.32 2586.4 1671.29C2439.36 1705.61 2278.76 1681.68 2130.8 1605.32C1900.98 1487.42 1718.69 1406.92 1572.6 1458.84C1562.93 1462.26 1554.3 1467.15 1547.01 1472.42C1524.88 1488.37 1507.57 1505.22 1495.56 1524.87C1462.33 1579.17 1490.61 1680.4 1540.71 1671.15C1552.28 1669.02 1562.12 1666.59 1569.38 1659.76C1615 1626.5 1606.62 1537.48 1521.57 1500.48C1449.4 1469.07 1335.42 1467.03 1267.44 1551.35C1242.91 1581.71 1225.97 1617.38 1213.89 1657.19C1111.05 1997.58 1072.56 2576.09 -76.0402 2375.86" stroke="url(#paint12_linear_494_702)" stroke-width="1.30934" stroke-miterlimit="10"/>
<path opacity="0.5" d="M4693.27 1056C4539.89 862.07 4304.72 610.231 4064.75 526.817C3961.51 490.943 3871.26 490.318 3779.69 508.903C3728.99 519.365 3675.21 536.909 3617.61 560.771C3528.49 597.664 3450.76 647.726 3380.5 706.329C3257.21 808.675 3147.63 948.655 3055.97 1043.64C2991.8 1110.16 2947.57 1139.18 2949.82 1190.08C2951.74 1233.41 2952.18 1294.12 2936.86 1358.23C2922.05 1420.23 2886.48 1481.89 2837.65 1531.93C2773.97 1597.2 2692.58 1643 2603.78 1665.94C2457.95 1703.59 2296.81 1682.72 2147.92 1606.06C1913.82 1486.29 1729.78 1419.61 1593.57 1476.71C1584.45 1480.52 1576.56 1485.82 1570.17 1491.36C1550.62 1508.32 1536.57 1524.8 1526.69 1542.78C1499.2 1592.85 1529.58 1688.5 1567.23 1667.95C1577.69 1667.09 1586.07 1662.77 1592.09 1655.85C1632.28 1622.38 1619.97 1538.73 1534.26 1506.01C1462.24 1478.51 1350.21 1479.34 1282.2 1563.92C1257.76 1594.26 1240.55 1629.74 1228.03 1669.32C1121.37 2007.44 1031.46 2569.74 -74.0945 2337.86" stroke="url(#paint13_linear_494_702)" stroke-width="1.30934" stroke-miterlimit="10"/>
<path opacity="0.5" d="M4691.12 1039.34C4534.82 848.299 4294.47 600.279 4054.01 526.679C3950.38 494.97 3861.98 500.039 3772.96 522.976C3723.64 535.867 3671.2 555.517 3614.83 580.93C3527.84 620.114 3451.04 671.403 3380.87 730.307C3258.18 832.792 3145.11 970.921 3050.39 1058.45C2984.09 1119.77 2939.29 1138.54 2945.86 1183.81C2951.48 1222.55 2955.32 1281.83 2943.06 1345.64C2931.19 1407.43 2897.75 1470.04 2850.54 1521.19C2788.84 1588.03 2708.96 1635.69 2621.21 1660.57C2476.6 1701.6 2314.88 1683.71 2165.11 1606.8C1926.71 1485.18 1740.82 1432.48 1614.6 1494.55C1606.02 1498.76 1598.89 1504.48 1593.43 1510.29C1576.42 1528.34 1565.64 1544.38 1557.91 1560.7C1536.2 1606.5 1566.75 1689.43 1593.84 1664.78C1603.01 1663.51 1610.11 1658.95 1614.86 1651.96C1649.64 1618.28 1633.44 1539.96 1547.01 1511.54C1475.18 1487.91 1365.07 1491.63 1297.01 1576.51C1272.64 1606.83 1255.19 1642.14 1242.21 1681.47C1131.73 2017.32 990.386 2563.43 -72.0834 2299.87" stroke="url(#paint14_linear_494_702)" stroke-width="1.30934" stroke-miterlimit="10"/>
<path opacity="0.5" d="M4688.94 1022.7C4529.73 834.528 4284.2 590.349 4043.23 526.539C3939.18 498.997 3852.66 509.759 3766.18 537.07C3718.25 552.392 3667.18 574.148 3611.99 601.135C3527.13 642.61 3451.27 695.103 3381.15 754.331C3259.03 856.932 3142.49 993.255 3044.74 1073.31C2976.31 1129.39 2930.86 1137.56 2941.83 1177.6C2951.14 1211.51 2958.4 1269.63 2949.19 1333.09C2940.26 1394.68 2908.95 1458.23 2863.36 1510.5C2803.66 1578.94 2725.28 1628.42 2638.59 1655.24C2495.18 1699.66 2332.94 1684.75 2182.24 1607.57C1939.56 1484.06 1751.65 1445.64 1635.57 1512.44C1627.52 1517.07 1621.15 1523.23 1616.62 1529.27C1602.13 1548.5 1594.66 1563.98 1589.06 1578.68C1573.18 1620.23 1603.87 1690.4 1620.39 1661.66C1628.26 1659.97 1634.09 1655.17 1637.58 1648.09C1666.93 1614.21 1646.91 1541.19 1559.69 1517.09C1488.07 1497.3 1379.88 1503.97 1311.78 1589.12C1287.5 1619.42 1269.8 1654.57 1256.35 1693.64C1142.06 2027.23 949.265 2557.13 -70.1149 2261.92" stroke="url(#paint15_linear_494_702)" stroke-width="1.30934" stroke-miterlimit="10"/>
<path opacity="0.5" d="M4686.79 1006.03C4524.66 820.757 4273.92 580.421 4032.49 526.401C3928.03 503.025 3843.33 519.319 3759.42 551.166C3712.86 568.826 3663.15 592.758 3609.16 621.318C3526.43 665.062 3451.5 718.804 3381.45 778.333C3259.91 881.05 3139.92 1015.54 3039.1 1088.13C2968.54 1138.98 2915.29 1140.04 2937.81 1171.33C2944.33 1202.14 2961.48 1257.36 2955.3 1320.5C2949.31 1381.88 2920.13 1446.39 2876.16 1499.76C2818.44 1569.77 2741.57 1621.11 2655.94 1649.88C2513.74 1697.67 2350.96 1685.75 2199.36 1608.31C1952.4 1482.95 1762.43 1459.12 1656.53 1530.31C1648.99 1535.38 1643.41 1541.97 1639.78 1548.22C1627.84 1568.71 1623.67 1583.57 1620.18 1596.62C1610.18 1633.84 1640.94 1691.35 1646.91 1658.49C1653.5 1656.38 1658.04 1651.36 1660.26 1644.2C1684.19 1610.14 1660.38 1542.34 1572.35 1522.62C1500.98 1506.63 1394.64 1516.28 1326.51 1601.69C1302.31 1631.96 1284.35 1666.96 1270.47 1705.77C1152.35 2037.09 908.141 2550.79 -68.1725 2223.91" stroke="url(#paint16_linear_494_702)" stroke-width="1.30934" stroke-miterlimit="10"/>
<path opacity="0.5" d="M4684.62 989.368C4519.57 806.987 4263.63 570.516 4021.73 526.239C3916.85 507.052 3834.01 529.017 3752.66 565.216C3707.49 585.305 3659.15 611.32 3606.34 641.455C3525.74 687.467 3451.76 742.459 3381.78 802.288C3260.82 905.121 3137.36 1037.79 3033.5 1102.92C2960.81 1148.56 2906.24 1140.13 2933.83 1165.04C2943.34 1191.68 2964.63 1245.07 2961.48 1307.86C2958.43 1369.04 2931.4 1434.51 2889 1488.97C2833.3 1560.58 2757.93 1613.75 2673.35 1644.46C2532.37 1695.66 2369.01 1686.7 2216.51 1608.98C1965.24 1481.75 1773.24 1472.91 1677.5 1548.08C1670.47 1553.62 1665.72 1560.65 1662.97 1567.06C1653.62 1588.89 1652.74 1602.96 1651.33 1614.44C1647.28 1647.21 1678.06 1692.16 1673.45 1655.2C1678.75 1652.68 1681.99 1647.42 1682.99 1640.2C1701.5 1605.92 1673.89 1543.34 1585.03 1528.06C1513.94 1515.84 1409.46 1528.5 1341.26 1614.19C1317.14 1644.41 1298.93 1679.27 1284.58 1717.83C1162.65 2046.88 866.998 2544.35 -66.2498 2185.84" stroke="url(#paint17_linear_494_702)" stroke-width="1.30934" stroke-miterlimit="10"/>
<path opacity="0.5" d="M4682.46 972.703C4514.5 793.192 4253.33 560.633 4010.97 526.1C3905.67 511.103 3824.7 538.761 3745.9 579.31C3702.12 601.83 3655.12 629.928 3603.52 661.66C3525.04 709.917 3452.01 766.182 3382.07 826.312C3261.69 929.284 3134.76 1060.1 3027.87 1117.78C2953.06 1158.19 2897.17 1140.3 2929.85 1158.83C2942.34 1181.31 2967.75 1232.9 2967.66 1295.34C2967.57 1356.33 2942.64 1422.73 2901.87 1478.3C2848.16 1551.49 2774.29 1606.53 2690.77 1639.16C2551.02 1693.78 2387.11 1687.76 2233.7 1609.79C1978.15 1480.69 1784.16 1487.21 1698.54 1566.02C1692.01 1572.02 1688.1 1579.49 1686.2 1586.09C1679.54 1609.3 1681.85 1622.47 1682.52 1632.45C1684.4 1660.61 1715.2 1693.18 1700.04 1652.1C1704.04 1649.16 1706.01 1643.67 1705.73 1636.38C1718.83 1601.9 1687.47 1544.45 1597.76 1533.67C1526.94 1525.15 1424.29 1540.86 1356.07 1626.82C1332.02 1657.03 1313.58 1691.72 1298.77 1730.05C1173.02 2056.83 825.919 2538.11 -64.2386 2147.93" stroke="url(#paint18_linear_494_702)" stroke-width="1.30934" stroke-miterlimit="10"/>
<path opacity="0.5" d="M4680.29 956.062C4509.43 779.444 4243.01 550.796 4000.21 525.961C3894.5 515.153 3815.4 548.481 3739.15 593.406C3696.75 618.379 3651.1 648.537 3600.69 681.842C3524.33 732.344 3452.24 789.882 3382.4 850.313C3262.6 953.401 3132.2 1082.41 3022.25 1132.61C2945.31 1167.79 2888.1 1140.41 2925.84 1152.59C2941.32 1170.89 2970.88 1220.65 2973.82 1282.75C2976.68 1343.53 2953.89 1410.88 2914.71 1467.56C2863.01 1542.34 2790.63 1599.23 2708.15 1633.79C2569.63 1691.84 2405.14 1688.76 2250.85 1610.51C1991.02 1479.55 1795.2 1501.82 1719.53 1583.84C1713.53 1590.35 1710.48 1598.24 1709.41 1605C1705.55 1629.62 1710.89 1641.8 1713.7 1650.36C1721.33 1673.67 1752.32 1694.08 1726.61 1648.93C1729.32 1645.57 1730.01 1639.85 1728.48 1632.49C1736.14 1597.8 1701.06 1545.45 1610.48 1539.2C1539.97 1534.34 1439.12 1553.18 1370.86 1639.41C1346.9 1669.59 1328.18 1704.13 1312.93 1742.2C1183.36 2066.71 784.822 2531.79 -62.2471 2109.95" stroke="url(#paint19_linear_494_702)" stroke-width="1.30934" stroke-miterlimit="10"/>
<path opacity="0.5" d="M4678.14 939.397C4504.37 765.671 4232.71 540.935 3989.47 525.821C3883.34 519.225 3806.12 558.224 3732.39 607.477C3691.39 634.88 3647.07 667.098 3597.89 702.023C3523.63 754.747 3452.52 813.558 3382.73 874.313C3263.5 977.516 3129.63 1104.7 3016.65 1147.45C2937.58 1177.4 2879.05 1140.55 2921.86 1146.33C2940.33 1160.48 2974.05 1208.41 2980 1270.18C2985.83 1330.75 2965.16 1399.08 2927.58 1456.85C2877.87 1533.22 2807.01 1591.99 2725.58 1628.44C2588.28 1689.94 2423.24 1689.78 2268.03 1611.25C2003.89 1478.42 1806.49 1516.81 1740.54 1601.71C1735.06 1608.75 1732.9 1617.03 1732.65 1623.93C1731.7 1649.97 1739.8 1661.08 1744.89 1668.27C1757.87 1686.63 1789.48 1694.98 1753.18 1645.73C1754.59 1641.96 1754.01 1636.01 1751.21 1628.58C1753.45 1593.68 1714.62 1546.35 1623.17 1544.7C1552.96 1543.45 1453.93 1565.46 1385.62 1651.98C1361.74 1682.14 1342.79 1716.51 1327.07 1754.33C1193.69 2076.57 743.724 2525.44 -60.2786 2071.94" stroke="url(#paint20_linear_494_702)" stroke-width="1.30934" stroke-miterlimit="10"/>
<path opacity="0.5" d="M4675.96 922.733C4499.27 751.877 4222.41 531.122 3978.69 525.66C3872.12 523.276 3796.79 567.945 3725.61 621.549C3685.99 651.383 3643.02 685.66 3595.05 722.183C3522.89 777.128 3452.73 837.236 3383.02 898.292C3264.38 1001.61 3127.06 1126.96 3011 1162.26C2929.78 1187 2869.96 1140.66 2917.84 1140.09C2939.29 1150.06 2977.15 1196.17 2986.13 1257.59C2994.94 1317.98 2976.38 1387.25 2940.38 1446.11C2892.68 1524.08 2823.33 1584.72 2742.93 1623.07C2606.86 1688.02 2441.24 1690.79 2285.15 1611.99C2016.73 1477.28 1818.06 1532.11 1761.51 1619.58C1756.6 1627.17 1755.28 1635.8 1755.81 1642.88C1757.85 1670.29 1768.52 1680.5 1776.02 1686.21C1793.97 1699.89 1826.56 1695.93 1779.69 1642.56C1779.83 1638.35 1777.96 1632.19 1773.91 1624.69C1770.74 1589.58 1728.16 1547.2 1635.85 1550.26C1565.94 1552.57 1468.72 1577.78 1400.36 1664.57C1376.57 1694.71 1357.36 1728.91 1341.19 1766.48C1203.98 2086.46 702.577 2519.13 -58.3591 2033.94" stroke="url(#paint21_linear_494_702)" stroke-width="1.30934" stroke-miterlimit="10"/>
<path opacity="0.5" d="M4673.78 906.069C4494.18 738.107 4212.09 521.309 3967.92 525.521C3860.94 527.373 3787.49 577.667 3718.85 635.644C3680.62 667.908 3638.99 704.223 3592.22 742.389C3522.17 799.533 3452.98 860.96 3383.32 922.317C3265.26 1025.75 3124.46 1149.28 3005.38 1177.12C2922.02 1196.63 2860.88 1140.83 2913.83 1133.86C2938.27 1139.67 2980.29 1183.95 2992.28 1245.05C3004.08 1305.23 2987.63 1375.45 2953.22 1435.41C2907.56 1514.99 2839.69 1577.5 2760.33 1617.75C2625.51 1686.17 2459.31 1691.84 2302.3 1612.75C2029.6 1476.2 1830.03 1547.62 1782.49 1637.45C1778.17 1645.62 1777.73 1654.57 1779.02 1661.84C1784.14 1690.54 1797.23 1700.08 1807.18 1704.15C1830.09 1713.52 1863.7 1696.86 1806.26 1639.39C1805.1 1634.76 1801.95 1628.37 1796.63 1620.81C1788.02 1585.49 1741.69 1547.99 1648.53 1555.79C1578.92 1561.62 1483.53 1590.09 1415.12 1677.16C1391.4 1707.27 1371.94 1741.32 1355.33 1778.63C1214.3 2096.36 661.453 2512.78 -56.3939 1995.96" stroke="url(#paint22_linear_494_702)" stroke-width="1.30934" stroke-miterlimit="10"/>
<path opacity="0.5" d="M4671.63 889.428C4489.12 724.358 4201.81 511.542 3957.16 525.382C3849.76 531.469 3778.3 587.549 3712.1 649.716C3675.35 684.503 3634.94 722.785 3589.4 762.548C3521.43 821.914 3453.24 884.636 3383.65 946.294C3266.16 1049.87 3121.9 1171.54 2999.76 1191.93C2914.27 1206.21 2851.54 1115.62 2909.83 1127.61C2936.72 1133.14 2983.46 1171.7 2998.44 1232.46C3013.22 1292.43 2998.88 1363.62 2966.06 1424.68C2922.42 1505.87 2856.05 1570.23 2777.74 1612.38C2644.17 1684.27 2477.39 1692.83 2319.47 1613.49C2042.47 1475.06 1842.41 1563.17 1803.48 1655.31C1799.78 1664.06 1800.17 1673.3 1802.21 1680.8C1810.43 1710.72 1826 1719.77 1838.33 1722.11C1866.38 1727.41 1900.79 1697.83 1832.8 1636.27C1830.35 1631.22 1825.93 1624.6 1819.36 1616.96C1805.34 1581.44 1755.21 1548.78 1661.23 1561.37C1591.88 1570.67 1498.34 1602.45 1429.89 1689.8C1406.26 1719.89 1386.54 1753.77 1369.47 1790.83C1224.62 2106.29 620.355 2506.51 -54.4253 1958.03" stroke="url(#paint23_linear_494_702)" stroke-width="1.30934" stroke-miterlimit="10"/>
<path opacity="0.5" d="M4669.45 872.762C4484.02 710.563 4191.49 501.773 3946.4 525.242C3838.58 535.565 3769 597.269 3705.31 663.81C3669.95 701.027 3630.87 741.346 3586.55 782.752C3520.67 844.317 3453.44 908.359 3383.93 970.317C3267.04 1074.01 3119.28 1193.87 2994.11 1206.79C2906.49 1215.86 2840.93 1134.04 2905.8 1121.38C2935.75 1115.55 2986.59 1159.48 3004.57 1219.91C3022.34 1279.67 3010.1 1351.84 2978.86 1413.98C2937.23 1496.77 2872.36 1563.03 2795.09 1607.06C2662.79 1682.44 2495.39 1693.87 2336.57 1614.25C2055.28 1473.95 1855.06 1578.73 1824.42 1673.18C1821.39 1682.53 1822.55 1692.02 1825.37 1699.73C1836.71 1730.81 1854.93 1738.33 1869.46 1740.02C1902.64 1743.86 1928.19 1708.82 1859.32 1633.07C1854.88 1628.16 1849.88 1620.76 1842.06 1613.05C1822.62 1577.31 1768.68 1549.42 1673.91 1566.88C1604.79 1579.61 1513.13 1614.72 1444.65 1702.34C1421.09 1732.41 1401.12 1766.13 1383.6 1802.93C1234.94 2116.13 579.231 2500.15 -52.46 1920" stroke="url(#paint24_linear_494_702)" stroke-width="1.30934" stroke-miterlimit="10"/>
<path opacity="0.5" d="M4665.13 839.436C4473.87 683.024 4170.95 482.288 3924.88 524.944C3816.26 543.784 3750.42 616.69 3691.8 691.957C3659.22 734.035 3622.75 778.426 3580.93 823.073C3519.17 889.013 3453.98 955.693 3384.58 1018.28C3268.85 1122.2 3114.17 1238.41 2982.89 1236.39C2891.02 1235.01 2822.7 1136.57 2897.82 1108.84C2933.43 1095.7 2992.93 1134.93 3016.88 1194.71C3040.65 1254.03 3032.64 1328.16 3004.55 1392.48C2966.99 1478.47 2905.13 1548.53 2829.88 1596.3C2700.12 1678.69 2531.49 1695.84 2370.87 1615.69C2081 1471.66 1881.38 1609.23 1866.41 1708.87C1864.83 1719.36 1867.45 1729.38 1871.78 1737.6C1889.34 1770.85 1912.67 1778.82 1931.78 1775.88C1976.17 1769.03 2006.48 1707.62 1912.44 1626.71C1905.68 1620.88 1897.86 1613.1 1887.51 1605.23C1857.22 1569.1 1795.52 1550.58 1699.3 1577.92C1630.57 1597.43 1542.75 1639.32 1474.18 1727.48C1450.79 1757.5 1430.33 1790.9 1411.89 1827.21C1255.59 2135.87 497.013 2487.49 -48.5458 1844.02" stroke="url(#paint25_linear_494_702)" stroke-width="1.30934" stroke-miterlimit="10"/>
<path opacity="0.5" d="M4662.98 822.793C4468.82 669.251 4160.71 472.589 3914.14 524.804C3805.12 547.902 3741.14 626.433 3685.07 706.051C3653.89 750.559 3618.7 796.987 3578.13 843.277C3518.4 911.392 3454.23 979.415 3384.9 1042.3C3269.75 1146.36 3111.6 1260.72 2977.29 1251.25C2883.29 1244.65 2813.79 1137.63 2893.84 1102.61C2932.44 1085.74 2996.12 1122.68 3023.06 1182.14C3049.83 1241.25 3043.93 1316.36 3017.41 1381.76C2981.89 1469.37 2921.54 1541.3 2847.3 1590.95C2718.84 1676.86 2549.59 1696.86 2388.06 1616.45C2093.91 1470.57 1894.92 1624.14 1887.44 1726.74C1886.63 1737.76 1889.92 1748.06 1895.03 1756.53C1915.7 1790.8 1941.68 1798.46 1963 1793.79C2012.96 1782.84 2044.96 1707.27 1939.05 1623.54C1931.09 1617.24 1921.9 1609.28 1910.28 1601.34C1874.57 1565 1808.94 1551.14 1712.03 1583.45C1643.46 1606.32 1557.58 1651.63 1488.99 1740.07C1465.69 1770.07 1444.95 1803.3 1426.07 1839.36C1265.95 2145.75 455.935 2481.15 -46.5347 1806.03" stroke="url(#paint26_linear_494_702)" stroke-width="1.30934" stroke-miterlimit="10"/>
<path opacity="0.5" d="M4660.8 806.13C4463.73 655.48 4150.47 462.869 3903.38 524.665C3793.97 552.023 3731.84 636.154 3678.29 720.147C3648.5 767.084 3614.6 815.55 3575.28 863.46C3517.59 933.751 3454.46 1003.12 3385.2 1066.3C3270.63 1170.48 3109.01 1283.01 2971.64 1266.09C2875.51 1254.26 2804.91 1138.56 2889.81 1096.39C2931.44 1075.7 2999.27 1110.44 3029.19 1169.6C3058.98 1228.48 3055.18 1304.55 3030.21 1371.05C2996.75 1460.25 2937.88 1534.1 2864.66 1585.6C2737.5 1675.06 2567.59 1697.88 2405.16 1617.19C2106.73 1469.44 1908.48 1638.77 1908.39 1744.61C1908.39 1756.16 1912.3 1766.73 1918.17 1775.48C1941.92 1810.78 1970.59 1818.12 1994.1 1811.73C2049.66 1796.64 2083.03 1707.11 1965.54 1620.37C1956.36 1613.58 1945.83 1605.48 1932.96 1597.45C1891.84 1560.91 1822.21 1551.65 1724.69 1588.98C1656.21 1615.2 1572.37 1663.92 1503.71 1752.66C1480.5 1782.63 1459.51 1815.71 1440.16 1851.51C1276.23 2155.64 414.768 2474.83 -44.612 1768.05" stroke="url(#paint27_linear_494_702)" stroke-width="1.30934" stroke-miterlimit="10"/>
<path opacity="0.5" d="M4658.65 789.467C4458.66 641.687 4140.23 453.172 3892.62 524.504C3782.82 556.143 3722.56 645.853 3671.53 734.197C3643.13 783.565 3610.53 834.043 3572.46 883.62C3516.8 956.109 3454.69 1026.79 3385.5 1090.28C3271.51 1194.57 3106.41 1305.3 2966.02 1280.9C2867.76 1263.84 2796.09 1139.35 2885.81 1090.12C2930.49 1065.58 3002.44 1098.13 3035.35 1156.98C3068.14 1215.63 3066.45 1292.7 3043.05 1360.29C3011.63 1451.08 2954.28 1526.84 2882.06 1580.23C2756.22 1673.21 2585.66 1698.87 2422.33 1617.94C2119.6 1468.3 1922.18 1653.12 1929.37 1762.45C1930.16 1774.49 1934.72 1785.39 1941.38 1794.42C1968.18 1830.71 1999.56 1837.74 2025.27 1829.64C2086.46 1810.41 2120.96 1707.04 1992.11 1617.17C1981.7 1609.91 1969.82 1601.64 1955.68 1593.54C1909.12 1556.79 1835.44 1552.11 1737.37 1594.49C1668.99 1624.05 1587.16 1676.22 1518.47 1765.21C1495.33 1795.16 1474.11 1828.07 1454.3 1863.62C1286.55 2165.47 373.644 2468.46 -42.6467 1730.03" stroke="url(#paint28_linear_494_702)" stroke-width="1.30934" stroke-miterlimit="10"/>
<path opacity="0.5" d="M4656.48 772.824C4453.57 627.938 4130.01 443.496 3881.86 524.388C3771.66 560.309 3713.25 655.619 3664.77 748.314C3637.77 800.112 3606.43 852.628 3569.64 903.824C3516 978.49 3454.95 1050.49 3385.83 1114.3C3272.41 1218.71 3103.85 1327.61 2960.39 1295.76C2860.01 1273.49 2787.27 1140.09 2881.81 1083.89C2929.59 1055.49 3005.61 1085.88 3041.51 1144.44C3077.31 1202.83 3077.72 1280.92 3055.9 1349.59C3026.53 1442.01 2970.69 1519.66 2899.44 1574.91C2774.94 1671.42 2603.69 1699.94 2439.46 1618.7C2132.44 1467.22 1935.85 1667.21 1950.34 1780.34C1951.94 1792.86 1957.12 1804.09 1964.57 1813.39C1994.4 1850.66 2028.51 1857.39 2056.42 1847.63C2123.23 1824.2 2158.75 1707.16 2018.65 1614.05C2007.01 1606.32 1993.8 1597.87 1978.41 1589.7C1926.44 1552.74 1848.66 1552.64 1750.07 1600.09C1681.72 1632.98 1601.99 1688.6 1533.24 1777.87C1510.19 1807.79 1488.69 1840.54 1468.44 1875.84C1296.87 2175.43 332.547 2462.21 -40.701 1692.09" stroke="url(#paint29_linear_494_702)" stroke-width="1.30934" stroke-miterlimit="10"/>
<path opacity="0.5" d="M4654.32 756.16C4448.5 614.166 4119.82 433.821 3871.1 524.225C3760.53 564.428 3703.95 665.316 3658.01 762.386C3632.42 816.614 3602.34 871.166 3566.81 924.006C3515.16 1000.85 3455.2 1074.19 3386.13 1138.3C3273.29 1242.85 3101.28 1349.89 2954.77 1310.59C2852.25 1283.1 2778.48 1140.73 2877.82 1077.66C2928.71 1045.35 3008.8 1073.61 3047.68 1131.87C3086.49 1190.03 3089.15 1269.14 3068.76 1338.88C3041.62 1432.94 2987.12 1512.46 2916.86 1569.56C2793.7 1669.62 2621.79 1700.96 2456.65 1619.44C2145.35 1466.08 1949.6 1681.07 1971.37 1798.21C1973.78 1811.17 1979.57 1822.74 1987.8 1832.33C2020.64 1870.56 2057.53 1877 2087.61 1865.54C2160.05 1837.95 2196.45 1707.27 2045.24 1610.85C2032.35 1602.64 2017.82 1594.03 2001.16 1585.79C1943.77 1548.62 1861.85 1553.11 1762.8 1605.6C1694.46 1641.82 1616.82 1700.86 1548.05 1790.41C1525.07 1820.29 1503.34 1852.9 1482.63 1887.97C1307.24 2185.28 291.469 2455.87 -38.6899 1654.09" stroke="url(#paint30_linear_494_702)" stroke-width="1.30934" stroke-miterlimit="10"/>
<path opacity="0.5" d="M4652.15 739.495C4443.41 600.372 4109.78 424.494 3860.34 524.086C3749.47 568.733 3694.65 675.037 3651.23 776.458C3627.03 833.116 3598.19 889.706 3563.99 944.165C3514.33 1023.21 3455.43 1097.87 3386.45 1162.28C3274.19 1266.94 3098.71 1372.16 2949.15 1325.41C2844.5 1292.68 2769.66 1141.29 2873.82 1071.39C2927.83 1035.15 3012.07 1061.26 3053.84 1119.28C3095.72 1177.12 3100.4 1257.29 3081.59 1328.14C3056.45 1423.77 3003.53 1505.24 2934.24 1564.19C2812.43 1667.81 2639.84 1701.95 2473.78 1620.18C2158.17 1464.95 1963.21 1694.73 1992.34 1816.05C1995.56 1829.46 2001.97 1841.4 2010.99 1851.26C2046.84 1890.47 2086.5 1896.67 2118.76 1883.45C2196.87 1851.79 2234.03 1707.46 2071.79 1607.68C2057.65 1598.98 2041.79 1590.21 2023.88 1581.9C1961.05 1544.52 1874.97 1553.57 1775.48 1611.13C1707.12 1650.68 1631.61 1713.18 1562.81 1803C1539.93 1832.86 1517.94 1865.28 1496.77 1900.12C1317.56 2195.17 250.348 2449.53 -36.7214 1616.11" stroke="url(#paint31_linear_494_702)" stroke-width="1.30934" stroke-miterlimit="10"/>
<path opacity="0.5" d="M4649.99 722.832C4438.34 586.601 4099.55 414.635 3849.6 523.925C3738.34 572.761 3685.39 684.736 3644.5 790.531C3621.68 849.619 3594.03 908.199 3561.19 964.325C3513.43 1045.49 3455.71 1121.55 3386.77 1186.26C3275.09 1291.04 3096.14 1394.45 2943.54 1340.2C2836.77 1302.24 2760.89 1141.78 2869.84 1065.1C2926.95 1024.9 3015.21 1048.94 3060.02 1106.64C3104.86 1164.27 3111.67 1245.4 3094.45 1317.35C3071.33 1414.56 3020.05 1498.05 2951.67 1558.78C2831.33 1666.08 2657.91 1702.9 2490.97 1620.85C2171.08 1463.77 1976.84 1708.15 2013.38 1833.85C2017.4 1847.67 2024.41 1859.98 2034.23 1870.15C2073.08 1910.32 2115.5 1916.18 2149.96 1901.32C2233.66 1865.38 2271.61 1707.67 2098.35 1604.44C2082.96 1595.28 2065.79 1586.32 2046.61 1577.94C1978.36 1540.38 1888.04 1553.99 1788.19 1616.59C1719.76 1659.48 1646.45 1725.42 1577.58 1815.52C1554.76 1845.36 1532.52 1877.62 1510.91 1912.2C1327.88 2205.01 209.247 2443.14 -34.7561 1578.06" stroke="url(#paint32_linear_494_702)" stroke-width="1.30934" stroke-miterlimit="10"/>
<path opacity="0.5" d="M4647.82 706.19C4433.25 572.853 4089.3 404.798 3838.82 523.809C3727.16 576.857 3676.07 694.502 3637.72 804.648C3585.35 955.043 3503.59 1100.28 3387.05 1210.31C3275.97 1315.2 3093.53 1416.78 2937.88 1355.08C2828.97 1311.91 2752.03 1142.33 2865.79 1058.92C2926.03 1014.73 3018.29 1036.74 3066.13 1094.14C3113.96 1151.54 3122.85 1233.64 3107.25 1306.71C3048.82 1580.16 2770.89 1750.53 2508.07 1621.66C2148.48 1445.34 1949.58 1783.12 2057.39 1889.15C2210.29 2039.52 2408.42 1714.4 2069.33 1574.12C1928.73 1502 1711.89 1633.88 1525.05 1924.42C1338.2 2214.96 168.127 2436.89 -32.8104 1540.15" stroke="url(#paint33_linear_494_702)" stroke-width="1.30934" stroke-miterlimit="10"/>
<path opacity="0.5" d="M4641.39 692.812C4433.76 563.779 4100.57 413.291 3853.17 538.343C3744.47 593.289 3693.44 709.291 3654.96 818.743C3602.43 968.096 3521.09 1112.31 3405.68 1222.06C3295.36 1327.03 3115.56 1428.26 2961.11 1370.61C2852.95 1330.31 2775.45 1167.21 2882.17 1086.88C2906.38 1068.64 2936.26 1062.13 2965.99 1065.05C3005.63 1068.87 3044.95 1089.35 3070.18 1120.97C3114.63 1176.35 3121.02 1255.56 3104.1 1326.19C3040.81 1590.25 2765.29 1757.47 2504.27 1635.04C2150.7 1469.18 1953.23 1798.7 2054.06 1905.62C2196.68 2056.9 2386 1743.36 2052.95 1609.65C1911.37 1542.18 1699.3 1673.64 1508.41 1952.22C1313.7 2236.32 159.702 2439.02 -35.5193 1552.71" stroke="url(#paint34_linear_494_702)" stroke-width="1.30934" stroke-miterlimit="10"/>
<path opacity="0.5" d="M4634.95 679.456C4434.25 554.705 4111.89 421.692 3867.51 552.923C3761.8 609.697 3710.84 724.149 3672.18 832.906C3619.48 981.219 3538.56 1124.44 3424.26 1233.87C3314.73 1338.88 3137.52 1439.76 2984.27 1386.16C2876.87 1348.74 2798.82 1192.11 2898.51 1114.88C2921.07 1097.34 2949.12 1091.13 2976.98 1093.96C3014.2 1097.64 3050.94 1117.43 3074.2 1147.84C3115.14 1201.35 3119.17 1277.47 3100.91 1345.73C3032.78 1600.34 2759.73 1764.46 2500.46 1648.46C2153.03 1493.02 1956.77 1814.18 2050.7 1922.15C2182.96 2074.16 2363.55 1772.33 2036.54 1645.24C1893.99 1582.41 1686.32 1713.48 1491.72 1980.06C1288.86 2257.96 151.255 2441.2 -38.2969 1565.35" stroke="url(#paint35_linear_494_702)" stroke-width="1.30934" stroke-miterlimit="10"/>
<path opacity="0.5" d="M4628.54 666.08C4434.76 545.634 4123.3 429.956 3881.89 567.459C3779.14 625.993 3728.27 738.963 3689.44 847.026C3636.56 994.297 3556.08 1136.52 3442.89 1245.63C3334.15 1350.7 3159.55 1451.25 3007.49 1401.67C2900.83 1367.11 2822.22 1216.97 2914.87 1142.84C2935.79 1126.01 2961.99 1120.09 2988 1122.84C3022.78 1126.41 3057.03 1145.46 3078.25 1174.66C3115.74 1226.23 3117.36 1299.35 3097.76 1365.22C3024.82 1610.37 2754.32 1771.43 2496.66 1661.84C2155.49 1516.75 1960.22 1829.46 2047.4 1938.65C2169.19 2091.22 2341.18 1801.31 2020.18 1680.8C1876.63 1622.61 1672.99 1753.24 1475.11 2007.88C1263.8 2279.78 142.856 2443.33 -41.0024 1577.94" stroke="url(#paint36_linear_494_702)" stroke-width="1.30934" stroke-miterlimit="10"/>
<path opacity="0.5" d="M4622.11 652.703C4435.24 536.562 4134.7 438.081 3896.23 582.019C3796.45 642.242 3745.65 753.8 3706.68 861.146C3653.64 1007.38 3573.57 1148.58 3461.5 1257.41C3353.54 1362.53 3181.53 1462.75 3030.67 1417.2C2924.78 1385.52 2845.59 1241.86 2931.23 1170.82C2950.51 1154.69 2974.86 1149.04 2999.02 1151.73C3031.39 1155.15 3063.09 1173.49 3082.3 1201.49C3116.34 1251.11 3115.56 1321.2 3094.59 1384.71C3016.88 1620.32 2748.97 1778.38 2492.84 1675.22C2158.06 1540.38 1963.53 1844.55 2044.04 1955.13C2155.35 2108.03 2318.73 1830.27 2003.77 1716.35C1859.25 1662.81 1659.22 1792.96 1458.42 2035.68C1238.35 2301.75 134.409 2445.46 -43.78 1590.51" stroke="url(#paint37_linear_494_702)" stroke-width="1.30934" stroke-miterlimit="10"/>
<path opacity="0.5" d="M4615.68 639.347C4435.73 527.511 4146.14 446.111 3910.58 596.575C3813.76 658.418 3763.06 768.611 3723.92 875.286C3670.72 1020.45 3591.05 1160.68 3480.13 1269.19C3372.96 1374.36 3203.56 1474.25 3053.91 1432.73C2948.75 1403.91 2869.19 1266.94 2947.62 1198.78C2965.3 1183.41 2987.77 1178 3010.06 1180.61C3040 1183.9 3069.18 1201.49 3086.4 1228.34C3116.97 1276.02 3113.8 1343.07 3091.49 1404.22C3009.06 1630.25 2743.79 1785.32 2489.12 1688.6C2160.84 1563.94 1966.86 1859.43 2040.8 1971.61C2141.6 2124.58 2296.4 1859.22 1987.48 1751.9C1841.99 1702.99 1645.15 1832.56 1441.88 2063.5C1212.69 2323.88 126.079 2447.61 -46.4167 1603.12" stroke="url(#paint38_linear_494_702)" stroke-width="1.30934" stroke-miterlimit="10"/>
<path opacity="0.5" d="M4609.24 625.971C4436.21 518.44 4157.61 453.981 3924.93 611.135C3831.07 674.528 3780.43 783.448 3741.14 889.428C3687.77 1033.55 3608.52 1172.79 3498.71 1280.97C3392.3 1386.21 3225.52 1485.76 3077.07 1448.26C2972.68 1422.32 2892.59 1291.87 2963.96 1226.76C2980.02 1212.11 3000.61 1206.95 3021.02 1209.5C3048.56 1212.65 3075.2 1229.52 3090.4 1255.16C3117.5 1300.87 3111.97 1364.89 3088.3 1423.7C3001.19 1640.11 2738.63 1792.24 2485.28 1701.97C2163.61 1587.38 1970.03 1874.1 2037.42 1988.09C2127.74 2140.85 2273.95 1888.17 1971.07 1787.43C1824.61 1743.17 1630.55 1872.04 1425.19 2091.29C1186.53 2346.1 117.609 2449.74 -49.1714 1615.69" stroke="url(#paint39_linear_494_702)" stroke-width="1.30934" stroke-miterlimit="10"/>
<path opacity="0.5" d="M4602.81 612.615C4436.7 509.389 4169.07 461.734 3939.3 625.692C3848.38 690.567 3797.86 798.283 3758.4 903.546C3704.85 1046.63 3626.03 1184.85 3517.34 1292.73C3411.72 1398.01 3247.62 1496.91 3100.28 1463.79C2996.68 1440.48 2916.05 1316.8 2980.32 1254.75C2994.73 1240.81 3013.48 1235.93 3032.04 1238.41C3057.15 1241.41 3081.24 1257.55 3094.45 1282.03C3118.06 1325.78 3110.19 1386.74 3085.13 1443.24C2993.42 1649.97 2733.61 1799.18 2481.48 1715.4C2166.57 1610.76 1973.18 1888.57 2034.09 2004.62C2114 2156.86 2251.52 1917.17 1954.69 1823.02C1807.26 1783.42 1615.58 1911.43 1408.55 2119.14C1160.08 2368.43 109.207 2451.91 -51.9032 1628.3" stroke="url(#paint40_linear_494_702)" stroke-width="1.30934" stroke-miterlimit="10"/>
<path opacity="0.5" d="M4596.37 599.238C4437.18 500.317 4180.52 469.349 3953.64 640.25C3865.64 706.537 3815.24 813.119 3775.64 917.688C3721.93 1059.73 3643.53 1196.95 3535.96 1304.53C3431.13 1409.89 3269.63 1508.41 3123.49 1479.34C3020.65 1458.88 2939.52 1341.75 2996.7 1282.73C3009.5 1269.51 3026.37 1264.91 3043.08 1267.29C3065.78 1270.16 3087.3 1285.55 3098.52 1308.86C3118.63 1350.64 3108.47 1408.52 3082 1462.73C2985.78 1659.73 2728.72 1806.03 2477.71 1728.78C2169.67 1633.97 1976.37 1902.76 2030.8 2021.12C2100.43 2172.56 2229.15 1946.15 1938.35 1858.57C1789.94 1823.6 1600.23 1950.62 1391.94 2146.96C1133.28 2390.74 100.806 2454.04 -54.612 1640.92" stroke="url(#paint41_linear_494_702)" stroke-width="1.30934" stroke-miterlimit="10"/>
<path opacity="0.5" d="M4589.94 585.885C4437.67 491.246 4191.96 476.827 3967.99 654.811C3882.88 722.44 3832.64 827.934 3792.88 931.831C3739.01 1072.83 3661.02 1209.06 3554.57 1316.31C3450.53 1421.72 3291.64 1519.87 3146.68 1494.88C3044.58 1477.26 2962.96 1366.68 3013.04 1310.71C3024.22 1298.21 3039.24 1293.86 3054.07 1296.2C3074.34 1298.96 3093.32 1313.58 3102.55 1335.73C3119.14 1375.52 3106.72 1430.35 3078.83 1482.26C2978.19 1669.5 2723.91 1812.89 2473.89 1742.2C2172.89 1657.1 1979.54 1916.74 2027.45 2037.65C2087.01 2187.95 2206.7 1975.15 1921.95 1894.17C1772.57 1863.85 1584.45 1989.64 1375.28 2174.8C1106.09 2413.08 92.3847 2456.22 -57.3634 1653.53" stroke="url(#paint42_linear_494_702)" stroke-width="1.30934" stroke-miterlimit="10"/>
<path opacity="0.5" d="M4583.51 572.505C4438.16 482.171 4203.34 484.139 3982.34 669.344C3900.1 738.269 3850.04 842.745 3810.12 945.925C3756.09 1085.86 3678.52 1221.09 3573.18 1328.05C3469.92 1433.49 3313.62 1531.3 3169.89 1510.36C3068.56 1495.59 2986.45 1391.56 3029.42 1338.65C3038.98 1326.87 3052.13 1322.79 3065.11 1325.06C3082.97 1327.68 3099.36 1341.54 3106.62 1362.53C3119.68 1400.33 3105.05 1452.08 3075.68 1501.73C2970.71 1679.18 2719.24 1819.62 2470.12 1755.55C2176.27 1679.99 1982.85 1930.41 2024.14 2054.1C2073.84 2202.97 2184.32 2004.08 1905.58 1929.67C1755.23 1904.01 1568.34 2028.36 1358.64 2202.57C1078.56 2435.25 83.96 2458.32 -60.0722 1666.08" stroke="url(#paint43_linear_494_702)" stroke-width="1.30934" stroke-miterlimit="10"/>
<path opacity="0.5" d="M4577.07 559.15C4438.64 473.12 4214.68 491.335 3996.69 683.923C3917.29 754.075 3867.42 857.603 3827.34 960.088C3773.12 1098.98 3695.99 1233.22 3591.76 1339.87C3489.27 1445.39 3335.58 1542.81 3193.06 1525.93C3092.46 1514.04 3009.94 1416.53 3045.74 1366.65C3053.67 1355.59 3064.94 1351.79 3076.08 1353.97C3091.51 1356.44 3105.33 1369.52 3110.63 1389.4C3120.14 1425.16 3103.34 1473.88 3072.49 1521.26C2963.31 1688.92 2714.61 1826.33 2466.28 1768.95C2179.69 1702.74 1986.23 1943.91 2020.78 2070.6C2060.91 2217.76 2161.87 2033.06 1889.18 1965.25C1737.85 1944.23 1551.84 2066.92 1341.97 2230.42C1050.65 2457.35 75.5357 2460.5 -62.8269 1678.69" stroke="url(#paint44_linear_494_702)" stroke-width="1.30934" stroke-miterlimit="10"/>
<path opacity="0.5" d="M4570.67 545.773C4439.15 464.049 4225.98 498.396 4011.06 698.46C3934.46 769.769 3884.85 872.417 3844.6 974.208C3790.22 1112.06 3713.51 1245.3 3610.41 1351.63C3508.71 1457.19 3357.62 1554.26 3216.29 1541.46C3116.44 1532.42 3033.5 1441.43 3062.12 1394.63C3068.46 1384.29 3077.86 1380.75 3087.09 1382.88C3100.12 1385.21 3111.35 1397.48 3114.68 1416.25C3120.65 1449.93 3101.7 1495.66 3069.34 1540.77C2956.09 1698.62 2710.17 1832.95 2462.51 1782.36C2183.33 1725.33 1989.84 1957.19 2017.47 2087.1C2048.37 2232.34 2139.48 2062.04 1872.82 2000.82C1720.52 1984.43 1535.09 2105.23 1325.34 2258.24C1022.39 2479.27 67.1144 2462.65 -65.5554 1691.3" stroke="url(#paint45_linear_494_702)" stroke-width="1.30934" stroke-miterlimit="10"/>
<path opacity="0.5" d="M4564.23 532.417C4439.66 454.997 4237.17 505.314 4025.41 713.04C3951.56 785.46 3902.23 887.274 3861.84 988.347C3807.3 1125.16 3730.98 1257.38 3629.02 1363.41C3528.1 1469.04 3379.6 1565.74 3239.48 1556.99C3140.39 1550.79 3057.03 1466.29 3078.48 1422.61C3083.23 1412.96 3090.73 1409.72 3098.11 1411.76C3108.71 1413.96 3117.36 1425.39 3118.73 1443.1C3121.16 1474.64 3100.1 1517.42 3066.17 1560.28C2948.96 1708.34 2705.79 1839.45 2458.69 1795.76C2187.03 1747.71 1993.66 1970.31 2014.14 2103.63C2036.12 2246.73 2117.07 2091.04 1856.43 2036.39C1703.17 2024.66 1518.01 2143.25 1308.7 2286.08C993.812 2500.96 58.6899 2464.8 -68.2871 1703.92" stroke="url(#paint46_linear_494_702)" stroke-width="1.30934" stroke-miterlimit="10"/>
<path opacity="0.5" d="M4557.8 519.04C4440.15 445.925 4248.26 512.096 4039.75 727.575C3968.64 801.06 3919.63 902.064 3879.08 1002.47C3824.38 1138.23 3748.47 1269.47 3647.62 1375.19C3547.49 1480.87 3401.58 1577.22 3262.69 1572.52C3164.34 1569.19 3080.63 1491.12 3094.84 1450.57C3097.99 1441.62 3103.59 1438.68 3109.12 1440.64C3117.29 1442.7 3123.4 1453.26 3122.77 1469.92C3121.69 1499.27 3098.55 1539.17 3063.02 1579.77C2942.02 1718.06 2701.53 1845.82 2454.91 1809.13C2190.87 1769.86 1997.78 1983.3 2010.83 2120.11C2024.25 2260.94 2094.67 2119.97 1840.09 2071.94C1685.85 2064.86 1500.72 2181 1292.08 2313.9C964.907 2522.3 50.3114 2466.96 -70.996 1716.51" stroke="url(#paint47_linear_494_702)" stroke-width="1.30934" stroke-miterlimit="10"/>
<path opacity="0.5" d="M4551.37 505.687C4440.64 436.855 4259.23 518.788 4054.1 742.159C3985.67 816.662 3937.03 916.925 3896.33 1016.63C3841.43 1151.34 3765.97 1281.6 3666.23 1387C3566.88 1492.75 3423.57 1588.75 3285.88 1588.08C3188.27 1587.62 3104.22 1515.89 3111.21 1478.58C3112.76 1470.3 3116.46 1467.66 3120.14 1469.55C3125.9 1471.5 3129.47 1481.13 3126.83 1496.77C3122.27 1523.88 3097.02 1560.95 3059.86 1599.28C2935.19 1727.85 2697.35 1852.07 2451.1 1822.54C2194.78 1791.8 2002.2 1996.24 2007.48 2136.61C2012.71 2275.11 2072.23 2148.95 1823.69 2107.5C1668.48 2105.04 1483.14 2218.45 1275.42 2341.7C935.681 2543.29 41.867 2469.09 -73.7244 1729.1" stroke="url(#paint48_linear_494_702)" stroke-width="1.30934" stroke-miterlimit="10"/>
<path opacity="0.5" d="M4544.93 492.307C4441.12 427.779 4270.08 525.312 4068.45 756.691C4002.68 832.166 3954.41 931.735 3913.54 1030.75C3858.49 1164.41 3783.44 1293.65 3684.84 1398.75C3586.25 1504.55 3445.55 1600.23 3309.06 1603.58C3212.19 1605.99 3127.77 1540.49 3127.54 1506.54C3127.5 1498.9 3129.33 1496.61 3131.13 1498.44C3134.46 1500.24 3135.55 1508.92 3130.85 1523.62C3122.94 1548.45 3095.52 1582.75 3056.68 1618.79C2928.5 1737.73 2693.25 1858.13 2447.28 1835.93C2198.76 1813.51 2006.92 2009.17 2004.14 2153.11C2001.5 2289.27 2049.82 2177.92 1807.3 2143.07C1651.12 2145.27 1465.39 2255.67 1258.76 2369.54C906.129 2563.89 33.4427 2471.26 -76.4791 1741.71" stroke="url(#paint49_linear_494_702)" stroke-width="1.30934" stroke-miterlimit="10"/>
<path opacity="0.5" d="M4538.5 478.954C4441.61 418.731 4280.8 531.77 4082.8 771.273C4019.62 847.698 3971.81 946.596 3930.78 1044.89C3875.57 1177.51 3800.93 1305.76 3703.44 1410.53C3605.64 1516.38 3467.54 1611.71 3332.25 1619.14C3236.12 1624.42 3151.19 1565.05 3143.9 1534.52C3142.24 1527.51 3142.19 1525.59 3142.14 1527.32C3143.07 1528.99 3141.71 1536.74 3134.9 1550.44C3123.72 1572.99 3094.06 1604.58 3053.54 1638.28C2921.95 1747.69 2689.24 1863.99 2443.51 1849.29C2202.88 1834.92 2012.08 2022.09 2000.83 2169.59C1990.63 2303.44 2027.42 2206.88 1790.94 2178.62C1633.79 2185.47 1447.5 2292.56 1242.14 2397.34C876.391 2583.95 25.0411 2473.39 -79.1879 1754.28" stroke="url(#paint50_linear_494_702)" stroke-width="1.30934" stroke-miterlimit="10"/>
<path opacity="0.5" d="M4532.07 465.577C4442.09 409.659 4291.35 538.09 4097.15 785.809C4036.54 863.136 3989.19 961.386 3948.02 1059.01C3892.62 1190.59 3818.43 1317.84 3722.05 1422.32C3625.04 1528.23 3489.52 1623.21 3355.44 1634.67C3260.05 1642.82 3174.41 1589.56 3160.24 1562.5C3156.89 1556.12 3155.04 1554.54 3153.12 1556.23C3151.61 1557.76 3147.89 1564.61 3138.91 1577.32C3124.58 1597.61 3092.6 1626.45 3050.32 1657.79C2915.48 1757.78 2685.24 1869.64 2439.64 1862.69C2206.96 1856.12 2017.47 2035.17 1997.43 2186.1C1979.96 2317.74 2004.93 2235.86 1774.49 2214.17C1616.36 2225.65 1429.4 2329.2 1225.44 2425.16C846.31 2603.51 16.5741 2475.52 -81.9852 1766.9" stroke="url(#paint51_linear_494_702)" stroke-width="1.30934" stroke-miterlimit="10"/>
<path opacity="0.5" d="M4525.63 452.222C4442.58 400.609 4301.74 544.315 4111.49 800.39C4053.39 878.596 4006.59 976.244 3965.26 1073.18C3909.7 1203.71 3835.93 1329.94 3740.68 1434.12C3644.45 1540.08 3511.53 1634.76 3378.67 1650.22C3284.03 1661.24 3197.52 1614.23 3176.65 1590.51C3171.6 1584.77 3167.97 1583.54 3164.18 1585.14C3160.27 1586.53 3154.2 1592.52 3143.02 1604.16C3125.6 1622.31 3091.28 1648.37 3047.24 1677.3C2909.23 1768.01 2681.4 1875.05 2435.94 1876.09C2211.21 1877.04 2023.4 2048.41 1994.21 2202.6C1969.69 2332.19 1982.64 2264.83 1758.22 2249.74C1599.12 2265.88 1411.42 2365.56 1208.89 2453C816.201 2622.51 8.24135 2477.7 -84.6252 1779.51" stroke="url(#paint52_linear_494_702)" stroke-width="1.30934" stroke-miterlimit="10"/>
<path opacity="0.5" d="M4519.22 438.843C4443.09 391.535 4311.99 550.448 4125.86 814.924C4070.21 893.987 4024.02 991.056 3982.5 1087.27C3926.78 1216.74 3853.42 1342 3759.28 1445.85C3663.84 1551.88 3533.51 1646.22 3401.86 1665.71C3307.95 1679.62 3220.57 1639 3192.99 1618.42C3186.21 1613.37 3180.81 1612.45 3175.17 1613.98C3168.83 1615.23 3160.47 1620.43 3147.05 1630.96C3126.55 1647.05 3089.91 1670.29 3044.07 1696.77C2902.95 1778.33 2677.46 1880.12 2432.12 1889.45C2215.35 1897.69 2029.53 2061.78 1990.86 2219.05C1959.48 2346.74 1960.2 2293.76 1741.81 2285.25C1581.74 2306.03 1393.25 2401.62 1192.22 2480.75C785.792 2640.75 -0.206338 2479.78 -87.3569 1792.03" stroke="url(#paint53_linear_494_702)" stroke-width="1.30934" stroke-miterlimit="10"/>
<path opacity="0.5" d="M4512.79 425.491C4443.57 382.488 4322.01 556.514 4140.21 829.507C4086.99 909.426 4041.4 1005.92 3999.74 1101.44C3943.86 1229.87 3870.89 1354.13 3777.89 1457.68C3683.22 1563.75 3555.5 1657.79 3425.05 1681.28C3331.91 1698.06 3243.67 1663.99 3209.35 1646.45C3200.88 1642.12 3193.68 1641.45 3186.19 1642.93C3177.44 1644.04 3166.77 1648.51 3151.1 1657.86C3127.52 1671.96 3088.57 1692.35 3040.9 1716.33C2896.71 1788.91 2673.51 1884.98 2428.3 1902.9C2219.5 1918.13 2035.96 2075.49 1987.53 2235.6C1949.41 2361.58 1937.77 2322.79 1725.43 2320.87C1564.39 2346.3 1375.09 2437.52 1175.57 2508.64C755.294 2658.46 -8.62738 2482 -90.1083 1804.72" stroke="url(#paint54_linear_494_702)" stroke-width="1.30934" stroke-miterlimit="10"/>
<path opacity="0.5" d="M4506.36 412.112C4444.06 373.39 4331.87 562.507 4154.56 844.041C4103.69 924.793 4058.8 1020.71 4016.98 1115.55C3960.91 1242.94 3888.39 1366.19 3796.49 1469.44C3702.61 1575.58 3577.48 1669.29 3448.24 1696.81C3355.83 1716.49 3266.85 1688.97 3225.69 1674.43C3215.53 1670.84 3206.53 1670.43 3197.18 1671.82C3186 1672.81 3172.99 1676.56 3155.13 1684.71C3128.4 1696.88 3087.21 1714.4 3037.73 1735.84C2890.48 1799.6 2669.48 1889.47 2424.51 1916.27C2223.59 1938.26 2042.65 2089.4 1984.2 2252.1C1939.46 2376.6 1915.37 2351.77 1709.07 2356.44C1547.05 2386.51 1356.97 2473.11 1158.95 2536.46C724.746 2675.35 -17.029 2484.15 -92.8171 1817.31" stroke="url(#paint55_linear_494_702)" stroke-width="1.30934" stroke-miterlimit="10"/>
<path opacity="0.5" d="M4499.92 398.733C4444.55 364.316 4341.52 568.431 4168.91 858.575C4120.38 940.16 4076.18 1035.52 4034.23 1129.65C3977.99 1256 3905.88 1378.25 3815.12 1481.17C3722.03 1587.36 3599.49 1680.77 3471.47 1712.3C3379.81 1734.86 3290.16 1713.94 3242.1 1702.34C3230.27 1699.5 3219.46 1699.33 3208.24 1700.65C3194.66 1701.51 3179.27 1704.59 3159.23 1711.49C3129.33 1721.79 3085.91 1736.48 3034.63 1755.28C2884.31 1810.38 2665.43 1893.5 2420.76 1929.6C2227.67 1958.09 2049.59 2103.51 1980.91 2268.54C1929.63 2391.76 1893 2380.67 1692.73 2391.92C1529.75 2426.64 1338.94 2508.41 1142.34 2564.21C694.202 2691.42 -25.4042 2486.21 -95.5227 1829.83" stroke="url(#paint56_linear_494_702)" stroke-width="1.30934" stroke-miterlimit="10"/>
<path opacity="0.5" d="M4493.49 385.381C4445.03 355.269 4350.99 574.335 4183.26 873.159C4137 955.554 4093.58 1050.38 4051.47 1143.81C3995.07 1269.12 3923.38 1390.38 3833.73 1493C3741.42 1599.24 3621.5 1692.35 3494.66 1727.87C3403.76 1753.33 3313.46 1738.98 3258.43 1730.37C3244.94 1728.27 3232.31 1728.34 3219.21 1729.59C3203.19 1730.31 3185.42 1732.71 3163.23 1738.38C3130.09 1746.81 3084.52 1758.7 3031.42 1774.84C2877.96 1821.45 2661.13 1897.27 2416.92 1943.05C2231.53 1977.82 2056.58 2118.05 1977.55 2285.09C1919.75 2407.27 1870.55 2409.7 1676.32 2427.54C1512.34 2466.91 1320.94 2543.62 1125.67 2592.1C663.631 2706.81 -33.8519 2488.44 -98.2545 1842.51" stroke="url(#paint57_linear_494_702)" stroke-width="1.30934" stroke-miterlimit="10"/>
<path opacity="0.5" d="M4487.06 372.003C4445.54 346.196 4360.22 580.191 4197.6 887.693C4153.59 970.922 4110.96 1065.19 4068.68 1157.93C4012.12 1282.17 3940.85 1402.43 3852.31 1504.76C3760.76 1611.06 3643.46 1703.87 3517.82 1743.38C3427.66 1771.73 3336.77 1763.96 3274.77 1758.33C3259.63 1756.97 3245.15 1757.29 3230.2 1758.47C3211.76 1759.05 3191.58 1760.81 3167.25 1765.21C3130.85 1771.78 3083.14 1780.92 3028.24 1794.32C2871.6 1832.56 2656.66 1900.53 2413.1 1956.43C2235.26 1997.23 2063.71 2132.77 1974.2 2301.57C1909.84 2422.91 1848.12 2438.65 1659.91 2463.07C1494.96 2507.07 1303.03 2578.52 1108.99 2619.88C633.106 2721.3 -42.2991 2490.54 -101.032 1855.06" stroke="url(#paint58_linear_494_702)" stroke-width="1.30934" stroke-miterlimit="10"/>
<path opacity="0.5" d="M4480.62 358.647C4446.02 337.145 4369.26 586.045 4211.95 902.273C4170.13 986.335 4128.36 1080.03 4085.92 1172.07C4029.18 1295.27 3958.34 1414.54 3870.94 1516.54C3780.18 1622.89 3665.49 1715.42 3541.03 1758.91C3451.64 1790.16 3360.11 1788.95 3291.13 1786.29C3274.35 1785.64 3258.04 1786.24 3241.21 1787.33C3220.36 1787.77 3197.75 1788.88 3171.3 1792.03C3131.62 1796.75 3081.75 1803.19 3025.1 1813.81C2865.16 1843.78 2651.96 1903.38 2409.32 1969.81C2238.87 2016.47 2070.95 2147.77 1970.89 2318.04C1899.96 2438.77 1825.72 2467.58 1643.55 2498.62C1477.63 2547.27 1285.32 2613.28 1092.37 2647.7C602.813 2735 -50.7008 2492.69 -103.741 1867.64" stroke="url(#paint59_linear_494_702)" stroke-width="1.30934" stroke-miterlimit="10"/>
<path opacity="0.5" d="M4474.19 345.268C4446.51 328.072 4378.11 591.877 4226.3 916.807C4186.63 1001.73 4145.77 1094.84 4103.16 1186.19C4046.26 1308.35 3975.84 1426.62 3889.55 1528.29C3799.57 1634.71 3687.57 1727.13 3564.22 1774.44C3475.64 1808.74 3383.49 1813.92 3307.49 1814.27C3289.05 1814.36 3270.91 1815.2 3252.23 1816.24C3228.95 1816.54 3203.89 1816.98 3175.35 1818.88C3132.33 1821.72 3080.31 1825.52 3021.93 1833.32C2858.59 1855.12 2646.92 1905.79 2405.51 1983.21C2242.18 2035.58 2078.17 2163 1967.56 2334.57C1890.01 2454.85 1803.3 2496.58 1627.17 2534.22C1460.27 2587.52 1267.76 2647.9 1075.71 2675.56C572.685 2747.96 -59.145 2494.89 -106.492 1880.3" stroke="url(#paint60_linear_494_702)" stroke-width="1.30934" stroke-miterlimit="10"/>
<path opacity="0.5" d="M4467.78 331.916C4447.02 319.001 4386.76 597.711 4240.67 931.391C4203.11 1017.17 4163.17 1109.7 4120.43 1200.36C4063.36 1321.47 3993.36 1438.73 3908.17 1540.12C3818.99 1646.59 3709.6 1738.68 3587.46 1790.02C3499.63 1827.19 3406.91 1838.92 3323.88 1842.3C3303.81 1843.11 3283.79 1844.22 3263.27 1845.17C3237.58 1845.36 3210.07 1845.1 3179.43 1845.75C3133.07 1846.72 3078.88 1847.9 3018.8 1852.86C2851.98 1866.58 2641.55 1907.83 2401.74 1996.61C2245.28 2054.54 2085.42 2178.46 1964.25 2351.07C1880.01 2471.08 1780.92 2525.56 1610.81 2569.77C1442.94 2627.7 1250.43 2682.34 1059.09 2703.36C542.878 2760.07 -67.5234 2497 -109.201 1892.87" stroke="url(#paint61_linear_494_702)" stroke-width="1.30934" stroke-miterlimit="10"/>
<path opacity="0.5" d="M4461.34 318.536C4447.51 309.926 4395.21 603.565 4255.02 945.924C4219.54 1032.58 4180.57 1124.51 4137.64 1214.45C4080.41 1334.53 4010.83 1450.78 3926.75 1551.86C3838.35 1658.39 3731.56 1750.14 3610.62 1805.5C3523.54 1845.54 3430.26 1863.96 3340.21 1870.21C3318.51 1871.79 3296.64 1873.13 3274.26 1874.01C3246.14 1874.06 3216.15 1873.13 3183.45 1872.55C3133.74 1871.65 3077.37 1870.26 3015.61 1872.32C2845.15 1878.01 2635.65 1909.37 2397.92 2009.96C2248.05 2073.38 2092.59 2194.03 1960.91 2367.53C1869.92 2487.42 1758.5 2554.49 1594.45 2605.29C1425.61 2667.88 1233.3 2716.62 1042.45 2731.16C513.325 2771.43 -75.9481 2499.13 -111.91 1905.44" stroke="url(#paint62_linear_494_702)" stroke-width="1.30934" stroke-miterlimit="10"/>
<path opacity="0.5" d="M4454.91 305.181C4447.99 300.876 4403.45 609.443 4269.37 960.505C4235.93 1048.06 4197.95 1139.35 4154.89 1228.61C4097.47 1347.63 4028.3 1462.91 3945.39 1563.66C3857.75 1670.24 3753.59 1761.66 3633.83 1821.05C3547.52 1863.96 3453.65 1888.87 3356.58 1898.22C3333.23 1900.49 3309.53 1902.11 3285.25 1902.92C3254.73 1902.82 3222.26 1901.23 3187.48 1899.4C3134.42 1896.62 3075.8 1892.66 3012.44 1891.83C2838.21 1889.54 2629.29 1910.58 2394.1 2023.36C2250.51 2092.22 2099.7 2209.84 1957.56 2384.03C1859.72 2503.94 1736.05 2583.47 1578.04 2640.84C1408.23 2708.08 1216.36 2750.83 1025.79 2758.95C484.123 2782.1 -84.3692 2501.26 -114.661 1918.01" stroke="url(#paint63_linear_494_702)" stroke-width="1.30934" stroke-miterlimit="10"/>
<path opacity="0.5" d="M4448.48 291.805C4448.48 291.805 4264.25 1904.35 3296.27 1931.83C2992.33 1929.7 2518.9 1753.56 1954.25 2400.56C1389.6 3047.57 -76.803 2875.9 -117.393 1930.67" stroke="url(#paint64_linear_494_702)" stroke-width="1.30934" stroke-miterlimit="10"/>
</g>
</g>
</g>
<defs>
<filter id="filter0_f_494_702" x="-3129.16" y="-1895.5" width="7009.01" height="7009.01" filterUnits="userSpaceOnUse" color-interpolation-filters="sRGB">
<feFlood flood-opacity="0" result="BackgroundImageFix"/>
<feBlend mode="normal" in="SourceGraphic" in2="BackgroundImageFix" result="shape"/>
<feGaussianBlur stdDeviation="1385.23" result="effect1_foregroundBlur_494_702"/>
</filter>
<filter id="filter1_f_494_702" x="-556.717" y="388.266" width="6268.18" height="6165" filterUnits="userSpaceOnUse" color-interpolation-filters="sRGB">
<feFlood flood-opacity="0" result="BackgroundImageFix"/>
<feBlend mode="normal" in="SourceGraphic" in2="BackgroundImageFix" result="shape"/>
<feGaussianBlur stdDeviation="500.434" result="effect1_foregroundBlur_494_702"/>
</filter>
<filter id="filter2_f_494_702" x="-556.717" y="388.266" width="6268.18" height="6165" filterUnits="userSpaceOnUse" color-interpolation-filters="sRGB">
<feFlood flood-opacity="0" result="BackgroundImageFix"/>
<feBlend mode="normal" in="SourceGraphic" in2="BackgroundImageFix" result="shape"/>
<feGaussianBlur stdDeviation="500.434" result="effect1_foregroundBlur_494_702"/>
</filter>
<filter id="filter3_f_494_702" x="-556.717" y="388.266" width="6268.18" height="6165" filterUnits="userSpaceOnUse" color-interpolation-filters="sRGB">
<feFlood flood-opacity="0" result="BackgroundImageFix"/>
<feBlend mode="normal" in="SourceGraphic" in2="BackgroundImageFix" result="shape"/>
<feGaussianBlur stdDeviation="500.434" result="effect1_foregroundBlur_494_702"/>
</filter>
<filter id="filter4_f_494_702" x="1108.07" y="1212.93" width="4122.65" height="4047.16" filterUnits="userSpaceOnUse" color-interpolation-filters="sRGB">
<feFlood flood-opacity="0" result="BackgroundImageFix"/>
<feBlend mode="normal" in="SourceGraphic" in2="BackgroundImageFix" result="shape"/>
<feGaussianBlur stdDeviation="250.217" result="effect1_foregroundBlur_494_702"/>
</filter>
<linearGradient id="paint0_linear_494_702" x1="2577.37" y1="1333.74" x2="2577.37" y2="5607.79" gradientUnits="userSpaceOnUse">
<stop stop-color="#B57BFF"/>
<stop offset="1" stop-color="#BDFFF3" stop-opacity="0.46"/>
</linearGradient>
<linearGradient id="paint1_linear_494_702" x1="2577.37" y1="1333.74" x2="2577.37" y2="5607.79" gradientUnits="userSpaceOnUse">
<stop stop-color="#B57BFF"/>
<stop offset="1" stop-color="#BDFFF3" stop-opacity="0.46"/>
</linearGradient>
<linearGradient id="paint2_linear_494_702" x1="3169.39" y1="1672.83" x2="3169.39" y2="4800.18" gradientUnits="userSpaceOnUse">
<stop stop-color="#98ADEB"/>
<stop offset="0.9999" stop-color="#85EEFC" stop-opacity="0"/>
<stop offset="1" stop-color="#3563E9"/>
</linearGradient>
<linearGradient id="paint3_linear_494_702" x1="1495.38" y1="1074.11" x2="3185.67" y2="2757.95" gradientUnits="userSpaceOnUse">
<stop stop-color="#1BA4E5" stop-opacity="0.5"/>
<stop offset="1" stop-color="#B40FE7"/>
</linearGradient>
<linearGradient id="paint4_linear_494_702" x1="1510.08" y1="1071.11" x2="3185.07" y2="2739.7" gradientUnits="userSpaceOnUse">
<stop stop-color="#1BA4E5" stop-opacity="0.5"/>
<stop offset="1" stop-color="#B40FE7"/>
</linearGradient>
<linearGradient id="paint5_linear_494_702" x1="1501.2" y1="1044.03" x2="3184.77" y2="2721.17" gradientUnits="userSpaceOnUse">
<stop stop-color="#1BA4E5" stop-opacity="0.5"/>
<stop offset="1" stop-color="#B40FE7"/>
</linearGradient>
<linearGradient id="paint6_linear_494_702" x1="1492.59" y1="1016.66" x2="3184.74" y2="2702.35" gradientUnits="userSpaceOnUse">
<stop stop-color="#1BA4E5" stop-opacity="0.5"/>
<stop offset="1" stop-color="#B40FE7"/>
</linearGradient>
<linearGradient id="paint7_linear_494_702" x1="1484.39" y1="988.9" x2="3185.11" y2="2683.13" gradientUnits="userSpaceOnUse">
<stop stop-color="#1BA4E5" stop-opacity="0.5"/>
<stop offset="1" stop-color="#B40FE7"/>
</linearGradient>
<linearGradient id="paint8_linear_494_702" x1="1476.39" y1="960.936" x2="3185.69" y2="2663.71" gradientUnits="userSpaceOnUse">
<stop stop-color="#1BA4E5" stop-opacity="0.5"/>
<stop offset="1" stop-color="#B40FE7"/>
</linearGradient>
<linearGradient id="paint9_linear_494_702" x1="1468.67" y1="932.684" x2="3186.55" y2="2644" gradientUnits="userSpaceOnUse">
<stop stop-color="#1BA4E5" stop-opacity="0.5"/>
<stop offset="1" stop-color="#B40FE7"/>
</linearGradient>
<linearGradient id="paint10_linear_494_702" x1="1461.24" y1="904.144" x2="3187.69" y2="2624" gradientUnits="userSpaceOnUse">
<stop stop-color="#1BA4E5" stop-opacity="0.5"/>
<stop offset="1" stop-color="#B40FE7"/>
</linearGradient>
<linearGradient id="paint11_linear_494_702" x1="1454.1" y1="875.318" x2="3189.13" y2="2603.72" gradientUnits="userSpaceOnUse">
<stop stop-color="#1BA4E5" stop-opacity="0.5"/>
<stop offset="1" stop-color="#B40FE7"/>
</linearGradient>
<linearGradient id="paint12_linear_494_702" x1="1447.25" y1="846.203" x2="3190.85" y2="2583.14" gradientUnits="userSpaceOnUse">
<stop stop-color="#1BA4E5" stop-opacity="0.5"/>
<stop offset="1" stop-color="#B40FE7"/>
</linearGradient>
<linearGradient id="paint13_linear_494_702" x1="1440.7" y1="816.796" x2="3192.87" y2="2562.27" gradientUnits="userSpaceOnUse">
<stop stop-color="#1BA4E5" stop-opacity="0.5"/>
<stop offset="1" stop-color="#B40FE7"/>
</linearGradient>
<linearGradient id="paint14_linear_494_702" x1="1434.43" y1="787.1" x2="3195.17" y2="2541.12" gradientUnits="userSpaceOnUse">
<stop stop-color="#1BA4E5" stop-opacity="0.5"/>
<stop offset="1" stop-color="#B40FE7"/>
</linearGradient>
<linearGradient id="paint15_linear_494_702" x1="1428.46" y1="757.113" x2="3197.76" y2="2519.66" gradientUnits="userSpaceOnUse">
<stop stop-color="#1BA4E5" stop-opacity="0.5"/>
<stop offset="1" stop-color="#B40FE7"/>
</linearGradient>
<linearGradient id="paint16_linear_494_702" x1="1422.77" y1="726.836" x2="3200.65" y2="2497.92" gradientUnits="userSpaceOnUse">
<stop stop-color="#1BA4E5" stop-opacity="0.5"/>
<stop offset="1" stop-color="#B40FE7"/>
</linearGradient>
<linearGradient id="paint17_linear_494_702" x1="1417.38" y1="696.27" x2="3203.82" y2="2475.89" gradientUnits="userSpaceOnUse">
<stop stop-color="#1BA4E5" stop-opacity="0.5"/>
<stop offset="1" stop-color="#B40FE7"/>
</linearGradient>
<linearGradient id="paint18_linear_494_702" x1="1412.28" y1="665.416" x2="3207.28" y2="2453.57" gradientUnits="userSpaceOnUse">
<stop stop-color="#1BA4E5" stop-opacity="0.5"/>
<stop offset="1" stop-color="#B40FE7"/>
</linearGradient>
<linearGradient id="paint19_linear_494_702" x1="1407.46" y1="634.279" x2="3211.03" y2="2430.96" gradientUnits="userSpaceOnUse">
<stop stop-color="#1BA4E5" stop-opacity="0.5"/>
<stop offset="1" stop-color="#B40FE7"/>
</linearGradient>
<linearGradient id="paint20_linear_494_702" x1="1402.92" y1="602.864" x2="3215.05" y2="2408.08" gradientUnits="userSpaceOnUse">
<stop stop-color="#1BA4E5" stop-opacity="0.5"/>
<stop offset="1" stop-color="#B40FE7"/>
</linearGradient>
<linearGradient id="paint21_linear_494_702" x1="1398.55" y1="571.29" x2="3219.25" y2="2385.04" gradientUnits="userSpaceOnUse">
<stop stop-color="#1BA4E5" stop-opacity="0.5"/>
<stop offset="1" stop-color="#B40FE7"/>
</linearGradient>
<linearGradient id="paint22_linear_494_702" x1="1394.17" y1="539.715" x2="3223.45" y2="2362.01" gradientUnits="userSpaceOnUse">
<stop stop-color="#1BA4E5" stop-opacity="0.5"/>
<stop offset="1" stop-color="#B40FE7"/>
</linearGradient>
<linearGradient id="paint23_linear_494_702" x1="1389.8" y1="508.141" x2="3227.66" y2="2338.98" gradientUnits="userSpaceOnUse">
<stop stop-color="#1BA4E5" stop-opacity="0.5"/>
<stop offset="1" stop-color="#B40FE7"/>
</linearGradient>
<linearGradient id="paint24_linear_494_702" x1="1385.43" y1="476.565" x2="3231.86" y2="2315.94" gradientUnits="userSpaceOnUse">
<stop stop-color="#1BA4E5" stop-opacity="0.5"/>
<stop offset="1" stop-color="#B40FE7"/>
</linearGradient>
<linearGradient id="paint25_linear_494_702" x1="1375.04" y1="414.931" x2="3238.69" y2="2271.46" gradientUnits="userSpaceOnUse">
<stop stop-color="#1BA4E5" stop-opacity="0.5"/>
<stop offset="1" stop-color="#B40FE7"/>
</linearGradient>
<linearGradient id="paint26_linear_494_702" x1="1367.71" y1="386.214" x2="3239.98" y2="2251.34" gradientUnits="userSpaceOnUse">
<stop stop-color="#1BA4E5" stop-opacity="0.5"/>
<stop offset="1" stop-color="#B40FE7"/>
</linearGradient>
<linearGradient id="paint27_linear_494_702" x1="1359.23" y1="358.654" x2="3240.13" y2="2232.37" gradientUnits="userSpaceOnUse">
<stop stop-color="#1BA4E5" stop-opacity="0.5"/>
<stop offset="1" stop-color="#B40FE7"/>
</linearGradient>
<linearGradient id="paint28_linear_494_702" x1="1349.81" y1="332.037" x2="3239.34" y2="2214.35" gradientUnits="userSpaceOnUse">
<stop stop-color="#1BA4E5" stop-opacity="0.5"/>
<stop offset="1" stop-color="#B40FE7"/>
</linearGradient>
<linearGradient id="paint29_linear_494_702" x1="1339.62" y1="306.198" x2="3237.78" y2="2197.11" gradientUnits="userSpaceOnUse">
<stop stop-color="#1BA4E5" stop-opacity="0.5"/>
<stop offset="1" stop-color="#B40FE7"/>
</linearGradient>
<linearGradient id="paint30_linear_494_702" x1="1328.78" y1="281.012" x2="3235.56" y2="2180.51" gradientUnits="userSpaceOnUse">
<stop stop-color="#1BA4E5" stop-opacity="0.5"/>
<stop offset="1" stop-color="#B40FE7"/>
</linearGradient>
<linearGradient id="paint31_linear_494_702" x1="1317.39" y1="256.379" x2="3232.8" y2="2164.47" gradientUnits="userSpaceOnUse">
<stop stop-color="#1BA4E5" stop-opacity="0.5"/>
<stop offset="1" stop-color="#B40FE7"/>
</linearGradient>
<linearGradient id="paint32_linear_494_702" x1="1305.53" y1="232.218" x2="3229.56" y2="2148.9" gradientUnits="userSpaceOnUse">
<stop stop-color="#1BA4E5" stop-opacity="0.5"/>
<stop offset="1" stop-color="#B40FE7"/>
</linearGradient>
<linearGradient id="paint33_linear_494_702" x1="1293.28" y1="208.463" x2="3225.93" y2="2133.73" gradientUnits="userSpaceOnUse">
<stop stop-color="#1BA4E5" stop-opacity="0.5"/>
<stop offset="1" stop-color="#B40FE7"/>
</linearGradient>
<linearGradient id="paint34_linear_494_702" x1="1295.81" y1="215.774" x2="3213.62" y2="2126.26" gradientUnits="userSpaceOnUse">
<stop stop-color="#1BA4E5" stop-opacity="0.5"/>
<stop offset="1" stop-color="#B40FE7"/>
</linearGradient>
<linearGradient id="paint35_linear_494_702" x1="1298.32" y1="223.114" x2="3201.29" y2="2118.82" gradientUnits="userSpaceOnUse">
<stop stop-color="#1BA4E5" stop-opacity="0.5"/>
<stop offset="1" stop-color="#B40FE7"/>
</linearGradient>
<linearGradient id="paint36_linear_494_702" x1="1300.79" y1="230.486" x2="3188.93" y2="2111.41" gradientUnits="userSpaceOnUse">
<stop stop-color="#1BA4E5" stop-opacity="0.5"/>
<stop offset="1" stop-color="#B40FE7"/>
</linearGradient>
<linearGradient id="paint37_linear_494_702" x1="1303.24" y1="237.891" x2="3176.53" y2="2104.03" gradientUnits="userSpaceOnUse">
<stop stop-color="#1BA4E5" stop-opacity="0.5"/>
<stop offset="1" stop-color="#B40FE7"/>
</linearGradient>
<linearGradient id="paint38_linear_494_702" x1="1305.65" y1="245.326" x2="3164.1" y2="2096.69" gradientUnits="userSpaceOnUse">
<stop stop-color="#1BA4E5" stop-opacity="0.5"/>
<stop offset="1" stop-color="#B40FE7"/>
</linearGradient>
<linearGradient id="paint39_linear_494_702" x1="1308.02" y1="252.801" x2="3151.64" y2="2089.38" gradientUnits="userSpaceOnUse">
<stop stop-color="#1BA4E5" stop-opacity="0.5"/>
<stop offset="1" stop-color="#B40FE7"/>
</linearGradient>
<linearGradient id="paint40_linear_494_702" x1="1310.35" y1="260.311" x2="3139.13" y2="2082.11" gradientUnits="userSpaceOnUse">
<stop stop-color="#1BA4E5" stop-opacity="0.5"/>
<stop offset="1" stop-color="#B40FE7"/>
</linearGradient>
<linearGradient id="paint41_linear_494_702" x1="1312.65" y1="267.862" x2="3126.59" y2="2074.88" gradientUnits="userSpaceOnUse">
<stop stop-color="#1BA4E5" stop-opacity="0.5"/>
<stop offset="1" stop-color="#B40FE7"/>
</linearGradient>
<linearGradient id="paint42_linear_494_702" x1="1314.91" y1="275.455" x2="3114.01" y2="2067.69" gradientUnits="userSpaceOnUse">
<stop stop-color="#1BA4E5" stop-opacity="0.5"/>
<stop offset="1" stop-color="#B40FE7"/>
</linearGradient>
<linearGradient id="paint43_linear_494_702" x1="1317.12" y1="283.087" x2="3101.38" y2="2060.54" gradientUnits="userSpaceOnUse">
<stop stop-color="#1BA4E5" stop-opacity="0.5"/>
<stop offset="1" stop-color="#B40FE7"/>
</linearGradient>
<linearGradient id="paint44_linear_494_702" x1="1319.29" y1="290.763" x2="3088.71" y2="2053.43" gradientUnits="userSpaceOnUse">
<stop stop-color="#1BA4E5" stop-opacity="0.5"/>
<stop offset="1" stop-color="#B40FE7"/>
</linearGradient>
<linearGradient id="paint45_linear_494_702" x1="1321.41" y1="298.488" x2="3076" y2="2046.37" gradientUnits="userSpaceOnUse">
<stop stop-color="#1BA4E5" stop-opacity="0.5"/>
<stop offset="1" stop-color="#B40FE7"/>
</linearGradient>
<linearGradient id="paint46_linear_494_702" x1="1323.49" y1="306.257" x2="3063.24" y2="2039.36" gradientUnits="userSpaceOnUse">
<stop stop-color="#1BA4E5" stop-opacity="0.5"/>
<stop offset="1" stop-color="#B40FE7"/>
</linearGradient>
<linearGradient id="paint47_linear_494_702" x1="1325.52" y1="314.076" x2="3050.43" y2="2032.4" gradientUnits="userSpaceOnUse">
<stop stop-color="#1BA4E5" stop-opacity="0.5"/>
<stop offset="1" stop-color="#B40FE7"/>
</linearGradient>
<linearGradient id="paint48_linear_494_702" x1="1327.5" y1="321.945" x2="3037.57" y2="2025.49" gradientUnits="userSpaceOnUse">
<stop stop-color="#1BA4E5" stop-opacity="0.5"/>
<stop offset="1" stop-color="#B40FE7"/>
</linearGradient>
<linearGradient id="paint49_linear_494_702" x1="1329.43" y1="329.859" x2="3046.87" y2="2040.74" gradientUnits="userSpaceOnUse">
<stop stop-color="#1BA4E5" stop-opacity="0.5"/>
<stop offset="1" stop-color="#B40FE7"/>
</linearGradient>
<linearGradient id="paint50_linear_494_702" x1="1331.31" y1="337.827" x2="3059.15" y2="2059.07" gradientUnits="userSpaceOnUse">
<stop stop-color="#1BA4E5" stop-opacity="0.5"/>
<stop offset="1" stop-color="#B40FE7"/>
</linearGradient>
<linearGradient id="paint51_linear_494_702" x1="1333.14" y1="345.843" x2="3071.4" y2="2077.46" gradientUnits="userSpaceOnUse">
<stop stop-color="#1BA4E5" stop-opacity="0.5"/>
<stop offset="1" stop-color="#B40FE7"/>
</linearGradient>
<linearGradient id="paint52_linear_494_702" x1="1334.92" y1="353.907" x2="3083.62" y2="2095.92" gradientUnits="userSpaceOnUse">
<stop stop-color="#1BA4E5" stop-opacity="0.5"/>
<stop offset="1" stop-color="#B40FE7"/>
</linearGradient>
<linearGradient id="paint53_linear_494_702" x1="1336.66" y1="362.019" x2="3095.8" y2="2114.45" gradientUnits="userSpaceOnUse">
<stop stop-color="#1BA4E5" stop-opacity="0.5"/>
<stop offset="1" stop-color="#B40FE7"/>
</linearGradient>
<linearGradient id="paint54_linear_494_702" x1="1338.35" y1="370.18" x2="3107.96" y2="2133.04" gradientUnits="userSpaceOnUse">
<stop stop-color="#1BA4E5" stop-opacity="0.5"/>
<stop offset="1" stop-color="#B40FE7"/>
</linearGradient>
<linearGradient id="paint55_linear_494_702" x1="1339.99" y1="378.383" x2="3120.1" y2="2151.7" gradientUnits="userSpaceOnUse">
<stop stop-color="#1BA4E5" stop-opacity="0.5"/>
<stop offset="1" stop-color="#B40FE7"/>
</linearGradient>
<linearGradient id="paint56_linear_494_702" x1="1341.6" y1="386.627" x2="3132.23" y2="2170.42" gradientUnits="userSpaceOnUse">
<stop stop-color="#1BA4E5" stop-opacity="0.5"/>
<stop offset="1" stop-color="#B40FE7"/>
</linearGradient>
<linearGradient id="paint57_linear_494_702" x1="1343.16" y1="394.915" x2="3144.34" y2="2189.22" gradientUnits="userSpaceOnUse">
<stop stop-color="#1BA4E5" stop-opacity="0.5"/>
<stop offset="1" stop-color="#B40FE7"/>
</linearGradient>
<linearGradient id="paint58_linear_494_702" x1="1344.68" y1="403.235" x2="3156.44" y2="2208.07" gradientUnits="userSpaceOnUse">
<stop stop-color="#1BA4E5" stop-opacity="0.5"/>
<stop offset="1" stop-color="#B40FE7"/>
</linearGradient>
<linearGradient id="paint59_linear_494_702" x1="1346.18" y1="411.588" x2="3168.55" y2="2227" gradientUnits="userSpaceOnUse">
<stop stop-color="#1BA4E5" stop-opacity="0.5"/>
<stop offset="1" stop-color="#B40FE7"/>
</linearGradient>
<linearGradient id="paint60_linear_494_702" x1="1347.64" y1="419.969" x2="3180.68" y2="2246.01" gradientUnits="userSpaceOnUse">
<stop stop-color="#1BA4E5" stop-opacity="0.5"/>
<stop offset="1" stop-color="#B40FE7"/>
</linearGradient>
<linearGradient id="paint61_linear_494_702" x1="1349.08" y1="428.381" x2="3192.81" y2="2265.07" gradientUnits="userSpaceOnUse">
<stop stop-color="#1BA4E5" stop-opacity="0.5"/>
<stop offset="1" stop-color="#B40FE7"/>
</linearGradient>
<linearGradient id="paint62_linear_494_702" x1="1350.49" y1="436.812" x2="3204.97" y2="2284.2" gradientUnits="userSpaceOnUse">
<stop stop-color="#1BA4E5" stop-opacity="0.5"/>
<stop offset="1" stop-color="#B40FE7"/>
</linearGradient>
<linearGradient id="paint63_linear_494_702" x1="1351.89" y1="445.268" x2="3217.16" y2="2303.42" gradientUnits="userSpaceOnUse">
<stop stop-color="#1BA4E5" stop-opacity="0.5"/>
<stop offset="1" stop-color="#B40FE7"/>
</linearGradient>
<linearGradient id="paint64_linear_494_702" x1="1353.17" y1="453.83" x2="3229.3" y2="2322.8" gradientUnits="userSpaceOnUse">
<stop stop-color="#1BA4E5" stop-opacity="0.5"/>
<stop offset="1" stop-color="#B40FE7"/>
</linearGradient>
<clipPath id="clip0_494_702">
<rect width="4715.85" height="6195" fill="white"/>
</clipPath>
</defs>
</svg>
