<svg width="17" height="20" viewBox="0 0 17 20" fill="none" xmlns="http://www.w3.org/2000/svg">
<path d="M3.5364 19.5226H13.4636C15.4086 19.5226 17 17.9312 17 15.9862V5.90747C17 3.96245 15.4086 2.37106 13.4636 2.37106H12.8068V0.981763C12.8068 0.703903 12.5795 0.476562 12.3016 0.476562C12.0238 0.476562 11.7964 0.703903 11.7964 0.981763V2.37106H5.20357V0.981763C5.20357 0.703903 4.97623 0.476562 4.69837 0.476562C4.42051 0.476562 4.19317 0.703903 4.19317 0.981763V2.37106H3.5364C1.59138 2.37106 0 3.96245 0 5.90747V15.961C0 17.9312 1.59138 19.5226 3.5364 19.5226ZM3.5364 3.38147H4.19317V5.27597C4.19317 5.55383 4.42051 5.78117 4.69837 5.78117C4.97623 5.78117 5.20357 5.55383 5.20357 5.27597V3.38147H11.8217V5.27597C11.8217 5.55383 12.049 5.78117 12.3269 5.78117C12.6048 5.78117 12.8321 5.55383 12.8321 5.27597V3.38147H13.4889C14.8782 3.38147 16.0149 4.51817 16.0149 5.90747V7.95353H1.0104V5.90747C1.0104 4.51817 2.1471 3.38147 3.5364 3.38147ZM1.0104 8.96393H15.9896V15.961C15.9896 17.3503 14.8529 18.487 13.4636 18.487H3.5364C2.1471 18.487 1.0104 17.3503 1.0104 15.961V8.96393Z" fill="black"/>
</svg>
