<svg width="359" height="106" viewBox="0 0 359 106" fill="none" xmlns="http://www.w3.org/2000/svg">
<rect width="358.762" height="105.325" rx="9.87418" fill="white"/>
<path d="M19.7969 14.5151V21.697H18.4854L15.3608 17.1767H15.3082V21.697H13.7897V14.5151H15.1223L18.2224 19.0319H18.2855V14.5151H19.7969ZM27.6513 18.1061C27.6513 18.8892 27.5028 19.5555 27.2059 20.1049C26.9114 20.6543 26.5092 21.074 25.9996 21.3639C25.4923 21.6514 24.9218 21.7952 24.2883 21.7952C23.65 21.7952 23.0772 21.6503 22.5699 21.3604C22.0626 21.0705 21.6617 20.6508 21.3671 20.1014C21.0725 19.552 20.9252 18.8869 20.9252 18.1061C20.9252 17.3229 21.0725 16.6566 21.3671 16.1072C21.6617 15.5578 22.0626 15.1393 22.5699 14.8517C23.0772 14.5618 23.65 14.4169 24.2883 14.4169C24.9218 14.4169 25.4923 14.5618 25.9996 14.8517C26.5092 15.1393 26.9114 15.5578 27.2059 16.1072C27.5028 16.6566 27.6513 17.3229 27.6513 18.1061ZM26.1118 18.1061C26.1118 17.5987 26.0358 17.1709 25.8839 16.8226C25.7342 16.4742 25.5227 16.21 25.2491 16.03C24.9756 15.85 24.6553 15.76 24.2883 15.76C23.9212 15.76 23.6009 15.85 23.3274 16.03C23.0539 16.21 22.8411 16.4742 22.6892 16.8226C22.5395 17.1709 22.4647 17.5987 22.4647 18.1061C22.4647 18.6134 22.5395 19.0412 22.6892 19.3895C22.8411 19.7379 23.0539 20.0021 23.3274 20.1821C23.6009 20.3621 23.9212 20.4521 24.2883 20.4521C24.6553 20.4521 24.9756 20.3621 25.2491 20.1821C25.5227 20.0021 25.7342 19.7379 25.8839 19.3895C26.0358 19.0412 26.1118 18.6134 26.1118 18.1061ZM28.1747 15.767V14.5151H34.0731V15.767H31.8744V21.697H30.3735V15.767H28.1747ZM35.0445 21.697V14.5151H37.878C38.4204 14.5151 38.8833 14.6121 39.2667 14.8061C39.6525 14.9978 39.9459 15.2702 40.1469 15.6232C40.3503 15.9739 40.452 16.3865 40.452 16.8611C40.452 17.3381 40.3492 17.7484 40.1434 18.092C39.9377 18.4334 39.6396 18.6952 39.2492 18.8776C38.8611 19.0599 38.3912 19.1511 37.8395 19.1511H35.9423V17.9307H37.594C37.8839 17.9307 38.1247 17.891 38.3164 17.8115C38.5081 17.732 38.6507 17.6128 38.7442 17.4538C38.8401 17.2948 38.888 17.0973 38.888 16.8611C38.888 16.6227 38.8401 16.4216 38.7442 16.258C38.6507 16.0943 38.5069 15.9704 38.3129 15.8862C38.1212 15.7997 37.8792 15.7565 37.587 15.7565H36.563V21.697H35.0445ZM38.9231 18.4287L40.708 21.697H39.0318L37.2854 18.4287H38.9231ZM41.5251 21.697V14.5151H46.3645V15.767H43.0436V17.4783H46.1155V18.7303H43.0436V20.4451H46.3785V21.697H41.5251ZM17.6858 31.5806C17.6578 31.2977 17.5374 31.0779 17.3246 30.9213C17.1119 30.7647 16.8231 30.6864 16.4584 30.6864C16.2106 30.6864 16.0014 30.7214 15.8307 30.7916C15.66 30.8594 15.5291 30.954 15.4379 31.0756C15.3491 31.1972 15.3047 31.3351 15.3047 31.4894C15.3 31.618 15.3269 31.7302 15.3853 31.8261C15.4461 31.9219 15.5291 32.0049 15.6343 32.0751C15.7395 32.1428 15.8611 32.2025 15.999 32.2539C16.137 32.303 16.2843 32.3451 16.4409 32.3801L17.0861 32.5344C17.3994 32.6046 17.687 32.6981 17.9488 32.815C18.2107 32.9319 18.4374 33.0757 18.6291 33.2463C18.8208 33.417 18.9693 33.618 19.0745 33.8495C19.182 34.0809 19.237 34.3463 19.2393 34.6455C19.237 35.0851 19.1248 35.4661 18.9027 35.7888C18.6829 36.1091 18.365 36.358 17.9488 36.5357C17.535 36.7111 17.0359 36.7987 16.4514 36.7987C15.8716 36.7987 15.3666 36.7099 14.9365 36.5322C14.5086 36.3545 14.1743 36.0915 13.9335 35.7432C13.6951 35.3925 13.57 34.9588 13.5583 34.4421H15.0276C15.044 34.6829 15.113 34.884 15.2345 35.0453C15.3585 35.2043 15.5233 35.3247 15.729 35.4065C15.9371 35.486 16.172 35.5258 16.4339 35.5258C16.691 35.5258 16.9143 35.4883 17.1037 35.4135C17.2954 35.3387 17.4438 35.2347 17.549 35.1014C17.6542 34.9682 17.7068 34.815 17.7068 34.642C17.7068 34.4807 17.6589 34.3451 17.5631 34.2352C17.4696 34.1254 17.3316 34.0319 17.1493 33.9547C16.9693 33.8776 16.7483 33.8074 16.4865 33.7443L15.7045 33.5479C15.099 33.4006 14.6209 33.1703 14.2702 32.8571C13.9195 32.5438 13.7453 32.1218 13.7477 31.5911C13.7453 31.1563 13.861 30.7764 14.0948 30.4514C14.331 30.1264 14.6548 29.8728 15.0662 29.6904C15.4777 29.5081 15.9453 29.4169 16.4689 29.4169C17.002 29.4169 17.4672 29.5081 17.8647 29.6904C18.2644 29.8728 18.5754 30.1264 18.7975 30.4514C19.0196 30.7764 19.1341 31.1528 19.1411 31.5806H17.6858ZM26.8605 33.1061C26.8605 33.8892 26.7121 34.5555 26.4151 35.1049C26.1206 35.6543 25.7185 36.074 25.2088 36.3639C24.7015 36.6514 24.131 36.7952 23.4975 36.7952C22.8592 36.7952 22.2865 36.6503 21.7791 36.3604C21.2718 36.0705 20.8709 35.6508 20.5763 35.1014C20.2817 34.552 20.1344 33.8869 20.1344 33.1061C20.1344 32.3229 20.2817 31.6566 20.5763 31.1072C20.8709 30.5578 21.2718 30.1393 21.7791 29.8517C22.2865 29.5618 22.8592 29.4169 23.4975 29.4169C24.131 29.4169 24.7015 29.5618 25.2088 29.8517C25.7185 30.1393 26.1206 30.5578 26.4151 31.1072C26.7121 31.6566 26.8605 32.3229 26.8605 33.1061ZM25.321 33.1061C25.321 32.5987 25.245 32.1709 25.0931 31.8226C24.9434 31.4742 24.7319 31.21 24.4583 31.03C24.1848 30.85 23.8645 30.76 23.4975 30.76C23.1304 30.76 22.8101 30.85 22.5366 31.03C22.2631 31.21 22.0503 31.4742 21.8984 31.8226C21.7487 32.1709 21.6739 32.5987 21.6739 33.1061C21.6739 33.6134 21.7487 34.0412 21.8984 34.3895C22.0503 34.7379 22.2631 35.0021 22.5366 35.1821C22.8101 35.3621 23.1304 35.4521 23.4975 35.4521C23.8645 35.4521 24.1848 35.3621 24.4583 35.1821C24.7319 35.0021 24.9434 34.7379 25.0931 34.3895C25.245 34.0412 25.321 33.6134 25.321 33.1061ZM27.9853 36.697V29.5151H29.5038V35.4451H32.5827V36.697H27.9853ZM38.0244 29.5151H39.5429V34.1791C39.5429 34.7028 39.4178 35.161 39.1677 35.5538C38.9199 35.9466 38.5727 36.2528 38.1261 36.4726C37.6796 36.69 37.1594 36.7987 36.5656 36.7987C35.9695 36.7987 35.4481 36.69 35.0016 36.4726C34.555 36.2528 34.2079 35.9466 33.96 35.5538C33.7122 35.161 33.5883 34.7028 33.5883 34.1791V29.5151H35.1068V34.0494C35.1068 34.3229 35.1664 34.5661 35.2856 34.7788C35.4072 34.9915 35.5779 35.1587 35.7976 35.2803C36.0174 35.4018 36.2734 35.4626 36.5656 35.4626C36.8602 35.4626 37.1162 35.4018 37.3336 35.2803C37.5534 35.1587 37.7229 34.9915 37.8421 34.7788C37.9637 34.5661 38.0244 34.3229 38.0244 34.0494V29.5151ZM40.5187 30.767V29.5151H46.4171V30.767H44.2184V36.697H42.7174V30.767H40.5187ZM48.907 29.5151V36.697H47.3885V29.5151H48.907ZM56.7561 33.1061C56.7561 33.8892 56.6076 34.5555 56.3107 35.1049C56.0161 35.6543 55.614 36.074 55.1044 36.3639C54.5971 36.6514 54.0266 36.7952 53.3931 36.7952C52.7548 36.7952 52.182 36.6503 51.6747 36.3604C51.1674 36.0705 50.7664 35.6508 50.4719 35.1014C50.1773 34.552 50.03 33.8869 50.03 33.1061C50.03 32.3229 50.1773 31.6566 50.4719 31.1072C50.7664 30.5578 51.1674 30.1393 51.6747 29.8517C52.182 29.5618 52.7548 29.4169 53.3931 29.4169C54.0266 29.4169 54.5971 29.5618 55.1044 29.8517C55.614 30.1393 56.0161 30.5578 56.3107 31.1072C56.6076 31.6566 56.7561 32.3229 56.7561 33.1061ZM55.2166 33.1061C55.2166 32.5987 55.1406 32.1709 54.9887 31.8226C54.839 31.4742 54.6274 31.21 54.3539 31.03C54.0804 30.85 53.7601 30.76 53.3931 30.76C53.026 30.76 52.7057 30.85 52.4322 31.03C52.1587 31.21 51.9459 31.4742 51.7939 31.8226C51.6443 32.1709 51.5695 32.5987 51.5695 33.1061C51.5695 33.6134 51.6443 34.0412 51.7939 34.3895C51.9459 34.7379 52.1587 35.0021 52.4322 35.1821C52.7057 35.3621 53.026 35.4521 53.3931 35.4521C53.7601 35.4521 54.0804 35.3621 54.3539 35.1821C54.6274 35.0021 54.839 34.7379 54.9887 34.3895C55.1406 34.0412 55.2166 33.6134 55.2166 33.1061ZM63.8881 29.5151V36.697H62.5765L59.4519 32.1767H59.3993V36.697H57.8809V29.5151H59.2135L62.3135 34.0319H62.3766V29.5151H63.8881ZM69.0387 31.5806C69.0106 31.2977 68.8902 31.0779 68.6775 30.9213C68.4647 30.7647 68.176 30.6864 67.8113 30.6864C67.5635 30.6864 67.3543 30.7214 67.1836 30.7916C67.0129 30.8594 66.882 30.954 66.7908 31.0756C66.702 31.1972 66.6576 31.3351 66.6576 31.4894C66.6529 31.618 66.6798 31.7302 66.7382 31.8261C66.799 31.9219 66.882 32.0049 66.9872 32.0751C67.0924 32.1428 67.214 32.2025 67.3519 32.2539C67.4899 32.303 67.6371 32.3451 67.7938 32.3801L68.439 32.5344C68.7523 32.6046 69.0399 32.6981 69.3017 32.815C69.5635 32.9319 69.7903 33.0757 69.982 33.2463C70.1737 33.417 70.3222 33.618 70.4274 33.8495C70.5349 34.0809 70.5899 34.3463 70.5922 34.6455C70.5899 35.0851 70.4777 35.4661 70.2556 35.7888C70.0358 36.1091 69.7178 36.358 69.3017 36.5357C68.8879 36.7111 68.3888 36.7987 67.8043 36.7987C67.2245 36.7987 66.7195 36.7099 66.2894 36.5322C65.8615 36.3545 65.5272 36.0915 65.2864 35.7432C65.0479 35.3925 64.9229 34.9588 64.9112 34.4421H66.3805C66.3969 34.6829 66.4659 34.884 66.5874 35.0453C66.7113 35.2043 66.8762 35.3247 67.0819 35.4065C67.29 35.486 67.5249 35.5258 67.7868 35.5258C68.0439 35.5258 68.2672 35.4883 68.4566 35.4135C68.6483 35.3387 68.7967 35.2347 68.9019 35.1014C69.0071 34.9682 69.0597 34.815 69.0597 34.642C69.0597 34.4807 69.0118 34.3451 68.916 34.2352C68.8224 34.1254 68.6845 34.0319 68.5022 33.9547C68.3221 33.8776 68.1012 33.8074 67.8394 33.7443L67.0573 33.5479C66.4518 33.4006 65.9737 33.1703 65.6231 32.8571C65.2724 32.5438 65.0982 32.1218 65.1005 31.5911C65.0982 31.1563 65.2139 30.7764 65.4477 30.4514C65.6838 30.1264 66.0076 29.8728 66.4191 29.6904C66.8306 29.5081 67.2981 29.4169 67.8218 29.4169C68.3549 29.4169 68.8201 29.5081 69.2175 29.6904C69.6173 29.8728 69.9283 30.1264 70.1504 30.4514C70.3725 30.7764 70.487 31.1528 70.494 31.5806H69.0387Z" fill="#0B0B0B"/>
<rect x="13.3712" y="48.8029" width="54.308" height="16.8684" rx="8.43419" stroke="#0B0B0B" stroke-opacity="0.2" stroke-width="0.411424"/>
<path d="M20.4383 59.7371V55.548H23.1628V56.1842H21.1972V57.3214H23.0217V57.9575H21.1972V59.1009H23.1792V59.7371H20.4383ZM25.8086 57.3378V57.9473H23.9227V57.3378H25.8086ZM26.6201 59.7371V55.548H28.191C28.5128 55.548 28.7828 55.608 29.001 55.728C29.2206 55.848 29.3862 56.013 29.4981 56.223C29.6112 56.4317 29.6678 56.6689 29.6678 56.9348C29.6678 57.2035 29.6112 57.4421 29.4981 57.6507C29.3849 57.8594 29.2178 58.0237 28.9969 58.1437C28.776 58.2623 28.504 58.3216 28.1808 58.3216H27.1397V57.6978H28.0785C28.2667 57.6978 28.4208 57.665 28.5408 57.5996C28.6608 57.5341 28.7494 57.4441 28.8067 57.3296C28.8653 57.2151 28.8947 57.0835 28.8947 56.9348C28.8947 56.7862 28.8653 56.6553 28.8067 56.5421C28.7494 56.4289 28.6601 56.341 28.5387 56.2782C28.4187 56.2142 28.264 56.1821 28.0744 56.1821H27.379V59.7371H26.6201ZM30.398 59.7371H29.5881L31.0628 55.548H31.9996L33.4764 59.7371H32.6664L31.5476 56.4071H31.5148L30.398 59.7371ZM30.4246 58.0946H32.6337V58.7041H30.4246V58.0946ZM34.0282 59.7371V55.548H35.5991C35.9209 55.548 36.1909 55.6039 36.4091 55.7157C36.6286 55.8276 36.7943 55.9844 36.9061 56.1862C37.0193 56.3867 37.0759 56.6205 37.0759 56.8878C37.0759 57.1564 37.0186 57.3896 36.904 57.5873C36.7909 57.7837 36.6238 57.9357 36.4029 58.0435C36.182 58.1498 35.9107 58.203 35.5888 58.203H34.47V57.573H35.4866C35.6747 57.573 35.8288 57.5471 35.9488 57.4953C36.0688 57.4421 36.1575 57.365 36.2147 57.2641C36.2734 57.1619 36.3027 57.0364 36.3027 56.8878C36.3027 56.7391 36.2734 56.6123 36.2147 56.5073C36.1561 56.401 36.0668 56.3205 35.9468 56.266C35.8268 56.2101 35.672 56.1821 35.4825 56.1821H34.787V59.7371H34.0282ZM36.1922 57.8389L37.2293 59.7371H36.3825L35.3638 57.8389H36.1922ZM38.3123 59.7371H37.5023L38.9771 55.548H39.9139L41.3907 59.7371H40.5807L39.4619 56.4071H39.4291L38.3123 59.7371ZM38.3389 58.0946H40.548V58.7041H38.3389V58.0946ZM41.9425 59.7371V55.548H43.5134C43.8352 55.548 44.1052 55.608 44.3233 55.728C44.5429 55.848 44.7086 56.013 44.8204 56.223C44.9336 56.4317 44.9902 56.6689 44.9902 56.9348C44.9902 57.2035 44.9336 57.4421 44.8204 57.6507C44.7072 57.8594 44.5402 58.0237 44.3193 58.1437C44.0983 58.2623 43.8263 58.3216 43.5031 58.3216H42.462V57.6978H43.4009C43.589 57.6978 43.7431 57.665 43.8631 57.5996C43.9831 57.5341 44.0718 57.4441 44.129 57.3296C44.1877 57.2151 44.217 57.0835 44.217 56.9348C44.217 56.7862 44.1877 56.6553 44.129 56.5421C44.0718 56.4289 43.9824 56.341 43.8611 56.2782C43.7411 56.2142 43.5863 56.1821 43.3968 56.1821H42.7013V59.7371H41.9425ZM45.6493 59.7371V55.548H46.4081V57.3214H48.3493V55.548H49.1102V59.7371H48.3493V57.9575H46.4081V59.7371H45.6493ZM49.9355 59.7371V55.548H52.66V56.1842H50.6944V57.3214H52.5189V57.9575H50.6944V59.1009H52.6764V59.7371H49.9355ZM56.0749 55.548H56.8337V58.2848C56.8337 58.5848 56.7628 58.8487 56.621 59.0764C56.4805 59.3041 56.2828 59.4821 56.0278 59.6103C55.7728 59.7371 55.4749 59.8005 55.134 59.8005C54.7917 59.8005 54.4931 59.7371 54.2381 59.6103C53.9831 59.4821 53.7853 59.3041 53.6449 59.0764C53.5044 58.8487 53.4342 58.5848 53.4342 58.2848V55.548H54.1931V58.2214C54.1931 58.3959 54.2312 58.5514 54.3076 58.6878C54.3853 58.8241 54.4944 58.9312 54.6349 59.0089C54.7753 59.0853 54.9417 59.1234 55.134 59.1234C55.3262 59.1234 55.4926 59.0853 55.633 59.0089C55.7749 58.9312 55.884 58.8241 55.9603 58.6878C56.0367 58.5514 56.0749 58.3959 56.0749 58.2214V55.548ZM57.6585 59.7371V55.548H59.2294C59.5512 55.548 59.8212 55.6039 60.0394 55.7157C60.259 55.8276 60.4246 55.9844 60.5365 56.1862C60.6496 56.3867 60.7062 56.6205 60.7062 56.8878C60.7062 57.1564 60.649 57.3896 60.5344 57.5873C60.4212 57.7837 60.2542 57.9357 60.0333 58.0435C59.8124 58.1498 59.541 58.203 59.2192 58.203H58.1003V57.573H59.1169C59.3051 57.573 59.4592 57.5471 59.5792 57.4953C59.6992 57.4421 59.7878 57.365 59.8451 57.2641C59.9037 57.1619 59.9331 57.0364 59.9331 56.8878C59.9331 56.7391 59.9037 56.6123 59.8451 56.5073C59.7865 56.401 59.6971 56.3205 59.5771 56.266C59.4572 56.2101 59.3024 56.1821 59.1128 56.1821H58.4174V59.7371H57.6585ZM59.8226 57.8389L60.8596 59.7371H60.0128L58.9942 57.8389H59.8226Z" fill="#0B0B0B"/>
<rect x="71.382" y="48.8029" width="121.37" height="16.8684" rx="8.43419" stroke="#0B0B0B" stroke-opacity="0.2" stroke-width="0.411424"/>
<path d="M82.6978 59.7371V55.548H84.2687C84.5906 55.548 84.8605 55.608 85.0787 55.728C85.2983 55.848 85.464 56.013 85.5758 56.223C85.6889 56.4317 85.7455 56.6689 85.7455 56.9348C85.7455 57.2035 85.6889 57.4421 85.5758 57.6507C85.4626 57.8594 85.2955 58.0237 85.0746 58.1437C84.8537 58.2623 84.5817 58.3216 84.2585 58.3216H83.2174V57.6978H84.1562C84.3444 57.6978 84.4985 57.6651 84.6185 57.5996C84.7385 57.5342 84.8271 57.4442 84.8844 57.3296C84.943 57.2151 84.9724 57.0835 84.9724 56.9348C84.9724 56.7862 84.943 56.6553 84.8844 56.5421C84.8271 56.4289 84.7378 56.341 84.6165 56.2783C84.4965 56.2142 84.3417 56.1821 84.1521 56.1821H83.4567V59.7371H82.6978ZM86.4047 59.7371V55.548H87.1635V59.101H89.0085V59.7371H86.4047ZM90.3626 59.7371H89.5526L91.0274 55.548H91.9642L93.441 59.7371H92.631L91.5121 56.4071H91.4794L90.3626 59.7371ZM90.3892 58.0946H92.5982V58.7041H90.3892V58.0946ZM93.3024 56.1842V55.548H96.6446V56.1842H95.3499V59.7371H94.5971V56.1842H93.3024ZM97.2889 59.7371V55.548H100.013V56.1842H98.0478V57.3214H99.8723V57.9576H98.0478V59.101H100.03V59.7371H97.2889ZM100.788 59.7371V55.548H103.471V56.1842H101.546V57.3214H103.287V57.9576H101.546V59.7371H100.788ZM107.906 57.6426C107.906 58.0939 107.821 58.4805 107.652 58.8023C107.484 59.1228 107.255 59.3682 106.965 59.5387C106.676 59.7091 106.348 59.7944 105.981 59.7944C105.614 59.7944 105.286 59.7091 104.995 59.5387C104.706 59.3669 104.477 59.1207 104.308 58.8003C104.14 58.4785 104.056 58.0926 104.056 57.6426C104.056 57.1912 104.14 56.8053 104.308 56.4848C104.477 56.163 104.706 55.9169 104.995 55.7464C105.286 55.576 105.614 55.4908 105.981 55.4908C106.348 55.4908 106.676 55.576 106.965 55.7464C107.255 55.9169 107.484 56.163 107.652 56.4848C107.821 56.8053 107.906 57.1912 107.906 57.6426ZM107.143 57.6426C107.143 57.3248 107.093 57.0569 106.993 56.8387C106.895 56.6192 106.759 56.4535 106.584 56.3417C106.41 56.2285 106.209 56.1719 105.981 56.1719C105.753 56.1719 105.552 56.2285 105.378 56.3417C105.203 56.4535 105.066 56.6192 104.966 56.8387C104.868 57.0569 104.819 57.3248 104.819 57.6426C104.819 57.9603 104.868 58.2289 104.966 58.4485C105.066 58.6666 105.203 58.8323 105.378 58.9455C105.552 59.0573 105.753 59.1132 105.981 59.1132C106.209 59.1132 106.41 59.0573 106.584 58.9455C106.759 58.8323 106.895 58.6666 106.993 58.4485C107.093 58.2289 107.143 57.9603 107.143 57.6426ZM108.623 59.7371V55.548H110.194C110.516 55.548 110.786 55.6039 111.004 55.7158C111.224 55.8276 111.389 55.9844 111.501 56.1862C111.614 56.3867 111.671 56.6205 111.671 56.8878C111.671 57.1564 111.614 57.3896 111.499 57.5873C111.386 57.7837 111.219 57.9357 110.998 58.0435C110.777 58.1498 110.506 58.203 110.184 58.203H109.065V57.573H110.082C110.27 57.573 110.424 57.5471 110.544 57.4953C110.664 57.4421 110.752 57.3651 110.81 57.2642C110.868 57.1619 110.898 57.0364 110.898 56.8878C110.898 56.7392 110.868 56.6123 110.81 56.5073C110.751 56.401 110.662 56.3205 110.542 56.266C110.422 56.2101 110.267 56.1821 110.077 56.1821H109.382V59.7371H108.623ZM110.787 57.8389L111.824 59.7371H110.977L109.959 57.8389H110.787ZM112.369 55.548H113.298L114.542 58.5835H114.591L115.834 55.548H116.763V59.7371H116.035V56.8592H115.996L114.838 59.7248H114.294L113.136 56.853H113.098V59.7371H112.369V55.548ZM117.589 59.7371V55.548H120.314V56.1842H118.348V57.3214H120.173V57.9576H118.348V59.101H120.33V59.7371H117.589ZM123.365 56.6996C123.346 56.521 123.265 56.3819 123.123 56.2823C122.983 56.1828 122.8 56.133 122.575 56.133C122.417 56.133 122.281 56.1569 122.168 56.2046C122.055 56.2523 121.968 56.3171 121.908 56.3989C121.848 56.4808 121.818 56.5742 121.816 56.6792C121.816 56.7664 121.836 56.8421 121.876 56.9062C121.916 56.9703 121.972 57.0248 122.041 57.0698C122.111 57.1135 122.188 57.1503 122.272 57.1803C122.357 57.2103 122.442 57.2355 122.528 57.256L122.921 57.3542C123.079 57.391 123.231 57.4407 123.377 57.5035C123.524 57.5662 123.656 57.6453 123.772 57.7407C123.889 57.8362 123.982 57.9514 124.05 58.0864C124.118 58.2214 124.152 58.3796 124.152 58.561C124.152 58.8064 124.089 59.0225 123.964 59.2094C123.838 59.3948 123.657 59.54 123.42 59.645C123.184 59.7487 122.898 59.8005 122.563 59.8005C122.237 59.8005 121.954 59.75 121.714 59.6491C121.475 59.5482 121.288 59.401 121.153 59.2073C121.02 59.0137 120.948 58.7778 120.937 58.4996H121.683C121.694 58.6455 121.739 58.7669 121.818 58.8637C121.897 58.9605 122 59.0328 122.127 59.0805C122.255 59.1282 122.398 59.1521 122.557 59.1521C122.722 59.1521 122.866 59.1275 122.99 59.0785C123.116 59.028 123.214 58.9585 123.285 58.8698C123.356 58.7798 123.392 58.6748 123.393 58.5548C123.392 58.4457 123.36 58.3557 123.297 58.2848C123.234 58.2126 123.146 58.1526 123.033 58.1048C122.921 58.0557 122.791 58.0121 122.641 57.9739L122.164 57.8512C121.819 57.7626 121.546 57.6282 121.346 57.4482C121.147 57.2669 121.047 57.0262 121.047 56.7262C121.047 56.4794 121.114 56.2633 121.248 56.0778C121.383 55.8924 121.566 55.7485 121.798 55.6462C122.03 55.5426 122.292 55.4908 122.585 55.4908C122.883 55.4908 123.143 55.5426 123.367 55.6462C123.592 55.7485 123.768 55.891 123.896 56.0737C124.025 56.2551 124.091 56.4637 124.095 56.6996H123.365ZM127.677 59.7371H126.257V55.548H127.706C128.121 55.548 128.479 55.6319 128.777 55.7996C129.077 55.966 129.308 56.2053 129.469 56.5176C129.63 56.8298 129.71 57.2035 129.71 57.6385C129.71 58.0748 129.629 58.4498 129.467 58.7635C129.306 59.0771 129.073 59.3178 128.769 59.4855C128.466 59.6532 128.102 59.7371 127.677 59.7371ZM127.016 59.0805H127.64C127.932 59.0805 128.175 59.0273 128.37 58.921C128.565 58.8132 128.712 58.653 128.81 58.4403C128.908 58.2262 128.957 57.9589 128.957 57.6385C128.957 57.318 128.908 57.0521 128.81 56.8408C128.712 56.628 128.567 56.4692 128.374 56.3642C128.183 56.2578 127.946 56.2046 127.663 56.2046H127.016V59.0805ZM130.431 59.7371V55.548H133.156V56.1842H131.19V57.3214H133.014V57.9576H131.19V59.101H133.172V59.7371H130.431ZM135.359 59.7371V55.548H136.929C137.251 55.548 137.521 55.6039 137.739 55.7158C137.959 55.8276 138.125 55.9844 138.236 56.1862C138.35 56.3867 138.406 56.6205 138.406 56.8878C138.406 57.1564 138.349 57.3896 138.234 57.5873C138.121 57.7837 137.954 57.9357 137.733 58.0435C137.512 58.1498 137.241 58.203 136.919 58.203H135.8V57.573H136.817C137.005 57.573 137.159 57.5471 137.279 57.4953C137.399 57.4421 137.488 57.3651 137.545 57.2642C137.604 57.1619 137.633 57.0364 137.633 56.8878C137.633 56.7392 137.604 56.6123 137.545 56.5073C137.486 56.401 137.397 56.3205 137.277 56.266C137.157 56.2101 137.002 56.1821 136.813 56.1821H136.117V59.7371H135.359ZM137.523 57.8389L138.56 59.7371H137.713L136.694 57.8389H137.523ZM139.105 59.7371V55.548H141.829V56.1842H139.864V57.3214H141.688V57.9576H139.864V59.101H141.846V59.7371H139.105ZM140.185 55.1349L140.643 54.2001H141.367L140.739 55.1349H140.185ZM146.189 56.9614H145.424C145.402 56.836 145.362 56.7248 145.303 56.628C145.245 56.5298 145.172 56.4467 145.085 56.3785C144.997 56.3103 144.898 56.2592 144.786 56.2251C144.675 56.1896 144.556 56.1719 144.428 56.1719C144.2 56.1719 143.998 56.2292 143.823 56.3437C143.647 56.4569 143.509 56.6233 143.409 56.8428C143.31 57.061 143.26 57.3276 143.26 57.6426C143.26 57.963 143.31 58.233 143.409 58.4526C143.51 58.6707 143.648 58.8357 143.823 58.9475C143.998 59.058 144.2 59.1132 144.426 59.1132C144.551 59.1132 144.669 59.0969 144.778 59.0641C144.888 59.03 144.987 58.9803 145.074 58.9148C145.163 58.8494 145.237 58.7689 145.297 58.6735C145.359 58.578 145.401 58.4689 145.424 58.3462L146.189 58.3503C146.16 58.5494 146.098 58.7362 146.003 58.9107C145.909 59.0853 145.785 59.2394 145.633 59.373C145.48 59.5053 145.301 59.6089 145.097 59.6839C144.892 59.7575 144.665 59.7944 144.416 59.7944C144.048 59.7944 143.719 59.7091 143.43 59.5387C143.141 59.3682 142.913 59.1221 142.747 58.8003C142.58 58.4785 142.497 58.0926 142.497 57.6426C142.497 57.1912 142.581 56.8053 142.749 56.4848C142.916 56.163 143.145 55.9169 143.434 55.7464C143.723 55.576 144.05 55.4908 144.416 55.4908C144.649 55.4908 144.866 55.5235 145.066 55.5889C145.267 55.6544 145.445 55.7505 145.602 55.8774C145.759 56.0028 145.888 56.1569 145.989 56.3396C146.091 56.521 146.158 56.7283 146.189 56.9614ZM146.884 59.7371V55.548H147.643V59.101H149.488V59.7371H146.884ZM150.842 59.7371H150.032L151.507 55.548H152.443L153.92 59.7371H153.11L151.991 56.4071H151.959L150.842 59.7371ZM150.869 58.0946H153.078V58.7041H150.869V58.0946ZM154.472 55.548H155.401L156.644 58.5835H156.693L157.937 55.548H158.866V59.7371H158.137V56.8592H158.099L156.941 59.7248H156.397L155.239 56.853H155.2V59.7371H154.472V55.548ZM160.23 59.7371H159.42L160.895 55.548H161.832L163.308 59.7371H162.498L161.379 56.4071H161.347L160.23 59.7371ZM160.257 58.0946H162.466V58.7041H160.257V58.0946ZM163.17 56.1842V55.548H166.512V56.1842H165.217V59.7371H164.464V56.1842H163.17ZM167.915 55.548V59.7371H167.156V55.548H167.915ZM172.48 57.6426C172.48 58.0939 172.395 58.4805 172.226 58.8023C172.059 59.1228 171.83 59.3682 171.539 59.5387C171.25 59.7091 170.922 59.7944 170.555 59.7944C170.188 59.7944 169.86 59.7091 169.569 59.5387C169.28 59.3669 169.051 59.1207 168.882 58.8003C168.714 58.4785 168.631 58.0926 168.631 57.6426C168.631 57.1912 168.714 56.8053 168.882 56.4848C169.051 56.163 169.28 55.9169 169.569 55.7464C169.86 55.576 170.188 55.4908 170.555 55.4908C170.922 55.4908 171.25 55.576 171.539 55.7464C171.83 55.9169 172.059 56.163 172.226 56.4848C172.395 56.8053 172.48 57.1912 172.48 57.6426ZM171.717 57.6426C171.717 57.3248 171.667 57.0569 171.568 56.8387C171.47 56.6192 171.333 56.4535 171.159 56.3417C170.984 56.2285 170.783 56.1719 170.555 56.1719C170.328 56.1719 170.126 56.2285 169.952 56.3417C169.777 56.4535 169.64 56.6192 169.541 56.8387C169.443 57.0569 169.393 57.3248 169.393 57.6426C169.393 57.9603 169.443 58.2289 169.541 58.4485C169.64 58.6666 169.777 58.8323 169.952 58.9455C170.126 59.0573 170.328 59.1132 170.555 59.1132C170.783 59.1132 170.984 59.0573 171.159 58.9455C171.333 58.8323 171.47 58.6666 171.568 58.4485C171.667 58.2289 171.717 57.9603 171.717 57.6426ZM176.64 55.548V59.7371H175.965L173.991 56.8837H173.956V59.7371H173.197V55.548H173.877L175.848 58.4035H175.885V55.548H176.64ZM179.743 56.6996C179.724 56.521 179.644 56.3819 179.502 56.2823C179.362 56.1828 179.179 56.133 178.954 56.133C178.796 56.133 178.66 56.1569 178.547 56.2046C178.434 56.2523 178.347 56.3171 178.287 56.3989C178.227 56.4808 178.196 56.5742 178.195 56.6792C178.195 56.7664 178.215 56.8421 178.254 56.9062C178.295 56.9703 178.35 57.0248 178.42 57.0698C178.49 57.1135 178.567 57.1503 178.651 57.1803C178.736 57.2103 178.821 57.2355 178.907 57.256L179.299 57.3542C179.458 57.391 179.61 57.4407 179.756 57.5035C179.903 57.5662 180.034 57.6453 180.15 57.7407C180.268 57.8362 180.36 57.9514 180.429 58.0864C180.497 58.2214 180.531 58.3796 180.531 58.561C180.531 58.8064 180.468 59.0225 180.343 59.2094C180.217 59.3948 180.036 59.54 179.799 59.645C179.563 59.7487 179.277 59.8005 178.942 59.8005C178.616 59.8005 178.333 59.75 178.093 59.6491C177.854 59.5482 177.667 59.401 177.532 59.2073C177.399 59.0137 177.326 58.7778 177.315 58.4996H178.062C178.073 58.6455 178.118 58.7669 178.197 58.8637C178.276 58.9605 178.379 59.0328 178.506 59.0805C178.634 59.1282 178.777 59.1521 178.935 59.1521C179.1 59.1521 179.245 59.1275 179.369 59.0785C179.494 59.028 179.593 58.9585 179.664 58.8698C179.734 58.7798 179.771 58.6748 179.772 58.5548C179.771 58.4457 179.739 58.3557 179.676 58.2848C179.613 58.2126 179.525 58.1526 179.412 58.1048C179.3 58.0557 179.169 58.0121 179.019 57.9739L178.543 57.8512C178.198 57.7626 177.925 57.6282 177.725 57.4482C177.525 57.2669 177.426 57.0262 177.426 56.7262C177.426 56.4794 177.493 56.2633 177.626 56.0778C177.761 55.8924 177.945 55.7485 178.177 55.6462C178.408 55.5426 178.671 55.4908 178.964 55.4908C179.261 55.4908 179.522 55.5426 179.745 55.6462C179.97 55.7485 180.147 55.891 180.275 56.0737C180.403 56.2551 180.469 56.4637 180.474 56.6996H179.743Z" fill="#0B0B0B"/>
<rect x="196.455" y="48.8029" width="42.3767" height="16.8684" rx="8.43419" stroke="#0B0B0B" stroke-opacity="0.2" stroke-width="0.411424"/>
<path d="M207.438 59.7371L206.256 55.548H207.072L207.826 58.6264H207.865L208.671 55.548H209.414L210.222 58.6285H210.258L211.013 55.548H211.829L210.647 59.7371H209.898L209.06 56.7978H209.027L208.186 59.7371H207.438ZM212.5 59.7371H211.69L213.165 55.548H214.101L215.578 59.7371H214.768L213.649 56.4071H213.617L212.5 59.7371ZM212.526 58.0946H214.735V58.7041H212.526V58.0946ZM215.44 56.1842V55.548H218.782V56.1842H217.487V59.7371H216.734V56.1842H215.44ZM220.185 55.548V59.7371H219.426V55.548H220.185ZM222.567 58.3298H223.255L223.662 58.8575L223.952 59.2012L224.65 60.0971H223.913L223.439 59.4957L223.236 59.2094L222.567 58.3298ZM224.75 57.6426C224.75 58.0939 224.665 58.4805 224.496 58.8023C224.328 59.1228 224.099 59.3682 223.809 59.5387C223.52 59.7091 223.192 59.7944 222.825 59.7944C222.458 59.7944 222.13 59.7091 221.839 59.5387C221.55 59.3669 221.321 59.1207 221.152 58.8003C220.984 58.4785 220.9 58.0926 220.9 57.6426C220.9 57.1912 220.984 56.8053 221.152 56.4848C221.321 56.163 221.55 55.9169 221.839 55.7464C222.13 55.576 222.458 55.4908 222.825 55.4908C223.192 55.4908 223.52 55.576 223.809 55.7464C224.099 55.9169 224.328 56.163 224.496 56.4848C224.665 56.8053 224.75 57.1912 224.75 57.6426ZM223.987 57.6426C223.987 57.3248 223.937 57.0569 223.838 56.8387C223.739 56.6192 223.603 56.4535 223.428 56.3417C223.254 56.2285 223.053 56.1719 222.825 56.1719C222.597 56.1719 222.396 56.2285 222.222 56.3417C222.047 56.4535 221.91 56.6192 221.811 56.8387C221.712 57.0569 221.663 57.3248 221.663 57.6426C221.663 57.9603 221.712 58.2289 221.811 58.4485C221.91 58.6666 222.047 58.8323 222.222 58.9455C222.396 59.0573 222.597 59.1132 222.825 59.1132C223.053 59.1132 223.254 59.0573 223.428 58.9455C223.603 58.8323 223.739 58.6666 223.838 58.4485C223.937 58.2289 223.987 57.9603 223.987 57.6426ZM225.786 59.7371H224.976L226.451 55.548H227.387L228.864 59.7371H228.054L226.935 56.4071H226.903L225.786 59.7371ZM225.812 58.0946H228.022V58.7041H225.812V58.0946Z" fill="#0B0B0B"/>
<rect x="242.534" y="48.8029" width="101.21" height="16.8684" rx="8.43419" stroke="#0B0B0B" stroke-opacity="0.2" stroke-width="0.411424"/>
<path d="M252.368 56.1842V55.548H255.711V56.1842H254.416V59.7371H253.663V56.1842H252.368ZM256.355 59.7371V55.548H257.926C258.248 55.548 258.518 55.6039 258.736 55.7157C258.955 55.8276 259.121 55.9844 259.233 56.1862C259.346 56.3867 259.403 56.6205 259.403 56.8878C259.403 57.1564 259.345 57.3896 259.231 57.5873C259.118 57.7837 258.951 57.9357 258.73 58.0435C258.509 58.1498 258.238 58.203 257.916 58.203H256.797V57.573H257.813C258.002 57.573 258.156 57.5471 258.276 57.4953C258.396 57.4421 258.484 57.365 258.542 57.2641C258.6 57.1619 258.63 57.0364 258.63 56.8878C258.63 56.7391 258.6 56.6123 258.542 56.5073C258.483 56.401 258.394 56.3205 258.274 56.266C258.154 56.2101 257.999 56.1821 257.809 56.1821H257.114V59.7371H256.355ZM258.519 57.8389L259.556 59.7371H258.709L257.691 57.8389H258.519ZM260.639 59.7371H259.829L261.304 55.548H262.241L263.718 59.7371H262.908L261.789 56.4071H261.756L260.639 59.7371ZM260.666 58.0946H262.875V58.7041H260.666V58.0946ZM267.712 55.548V59.7371H267.037L265.063 56.8837H265.028V59.7371H264.269V55.548H264.948L266.92 58.4034H266.957V55.548H267.712ZM270.815 56.6996C270.796 56.521 270.716 56.3819 270.574 56.2823C270.433 56.1828 270.251 56.133 270.026 56.133C269.868 56.133 269.732 56.1569 269.619 56.2046C269.505 56.2523 269.419 56.3171 269.359 56.3989C269.299 56.4807 269.268 56.5741 269.267 56.6791C269.267 56.7664 269.287 56.8421 269.326 56.9062C269.367 56.9703 269.422 57.0248 269.492 57.0698C269.561 57.1135 269.638 57.1503 269.723 57.1803C269.808 57.2103 269.893 57.2355 269.979 57.256L270.371 57.3541C270.53 57.391 270.682 57.4407 270.827 57.5035C270.975 57.5662 271.106 57.6453 271.222 57.7407C271.34 57.8362 271.432 57.9514 271.5 58.0864C271.569 58.2214 271.603 58.3796 271.603 58.5609C271.603 58.8064 271.54 59.0225 271.415 59.2093C271.289 59.3948 271.108 59.54 270.87 59.645C270.635 59.7487 270.349 59.8005 270.013 59.8005C269.688 59.8005 269.405 59.75 269.165 59.6491C268.926 59.5482 268.739 59.4009 268.604 59.2073C268.47 59.0137 268.398 58.7778 268.387 58.4996H269.134C269.145 58.6455 269.19 58.7669 269.269 58.8637C269.348 58.9605 269.451 59.0328 269.578 59.0805C269.706 59.1282 269.849 59.1521 270.007 59.1521C270.172 59.1521 270.317 59.1275 270.441 59.0784C270.566 59.028 270.665 58.9584 270.735 58.8698C270.806 58.7798 270.842 58.6748 270.844 58.5548C270.842 58.4457 270.81 58.3557 270.748 58.2848C270.685 58.2125 270.597 58.1525 270.484 58.1048C270.372 58.0557 270.241 58.0121 270.091 57.9739L269.615 57.8512C269.27 57.7625 268.997 57.6282 268.796 57.4482C268.597 57.2669 268.498 57.0262 268.498 56.7262C268.498 56.4794 268.565 56.2632 268.698 56.0778C268.833 55.8923 269.017 55.7485 269.248 55.6462C269.48 55.5426 269.743 55.4908 270.036 55.4908C270.333 55.4908 270.594 55.5426 270.817 55.6462C271.042 55.7485 271.219 55.891 271.347 56.0737C271.475 56.2551 271.541 56.4637 271.545 56.6996H270.815ZM272.279 59.7371V55.548H274.963V56.1842H273.038V57.3214H274.779V57.9575H273.038V59.7371H272.279ZM279.397 57.6425C279.397 58.0939 279.313 58.4805 279.144 58.8023C278.976 59.1228 278.747 59.3682 278.456 59.5387C278.167 59.7091 277.839 59.7943 277.473 59.7943C277.106 59.7943 276.777 59.7091 276.487 59.5387C276.198 59.3668 275.969 59.1207 275.799 58.8003C275.632 58.4784 275.548 58.0925 275.548 57.6425C275.548 57.1912 275.632 56.8053 275.799 56.4848C275.969 56.163 276.198 55.9169 276.487 55.7464C276.777 55.576 277.106 55.4908 277.473 55.4908C277.839 55.4908 278.167 55.576 278.456 55.7464C278.747 55.9169 278.976 56.163 279.144 56.4848C279.313 56.8053 279.397 57.1912 279.397 57.6425ZM278.634 57.6425C278.634 57.3248 278.585 57.0569 278.485 56.8387C278.387 56.6191 278.251 56.4535 278.076 56.3417C277.901 56.2285 277.7 56.1719 277.473 56.1719C277.245 56.1719 277.044 56.2285 276.869 56.3417C276.695 56.4535 276.558 56.6191 276.458 56.8387C276.36 57.0569 276.311 57.3248 276.311 57.6425C276.311 57.9603 276.36 58.2289 276.458 58.4484C276.558 58.6666 276.695 58.8323 276.869 58.9455C277.044 59.0573 277.245 59.1132 277.473 59.1132C277.7 59.1132 277.901 59.0573 278.076 58.9455C278.251 58.8323 278.387 58.6666 278.485 58.4484C278.585 58.2289 278.634 57.9603 278.634 57.6425ZM280.115 59.7371V55.548H281.686C282.007 55.548 282.277 55.6039 282.496 55.7157C282.715 55.8276 282.881 55.9844 282.993 56.1862C283.106 56.3867 283.162 56.6205 283.162 56.8878C283.162 57.1564 283.105 57.3896 282.991 57.5873C282.877 57.7837 282.71 57.9357 282.49 58.0435C282.269 58.1498 281.997 58.203 281.675 58.203H280.557V57.573H281.573C281.761 57.573 281.915 57.5471 282.035 57.4953C282.155 57.4421 282.244 57.365 282.301 57.2641C282.36 57.1619 282.389 57.0364 282.389 56.8878C282.389 56.7391 282.36 56.6123 282.301 56.5073C282.243 56.401 282.153 56.3205 282.033 56.266C281.913 56.2101 281.759 56.1821 281.569 56.1821H280.874V59.7371H280.115ZM282.279 57.8389L283.316 59.7371H282.469L281.45 57.8389H282.279ZM283.861 55.548H284.79L286.033 58.5834H286.082L287.326 55.548H288.255V59.7371H287.526V56.8591H287.488L286.33 59.7248H285.786L284.628 56.853H284.589V59.7371H283.861V55.548ZM289.619 59.7371H288.809L290.284 55.548H291.22L292.697 59.7371H291.887L290.768 56.4071H290.736L289.619 59.7371ZM289.645 58.0946H291.855V58.7041H289.645V58.0946ZM292.559 56.1842V55.548H295.901V56.1842H294.606V59.7371H293.853V56.1842H292.559ZM297.304 55.548V59.7371H296.545V55.548H297.304ZM301.869 57.6425C301.869 58.0939 301.784 58.4805 301.615 58.8023C301.448 59.1228 301.219 59.3682 300.928 59.5387C300.639 59.7091 300.311 59.7943 299.944 59.7943C299.577 59.7943 299.249 59.7091 298.958 59.5387C298.669 59.3668 298.44 59.1207 298.271 58.8003C298.103 58.4784 298.019 58.0925 298.019 57.6425C298.019 57.1912 298.103 56.8053 298.271 56.4848C298.44 56.163 298.669 55.9169 298.958 55.7464C299.249 55.576 299.577 55.4908 299.944 55.4908C300.311 55.4908 300.639 55.576 300.928 55.7464C301.219 55.9169 301.448 56.163 301.615 56.4848C301.784 56.8053 301.869 57.1912 301.869 57.6425ZM301.106 57.6425C301.106 57.3248 301.056 57.0569 300.957 56.8387C300.859 56.6191 300.722 56.4535 300.548 56.3417C300.373 56.2285 300.172 56.1719 299.944 56.1719C299.716 56.1719 299.515 56.2285 299.341 56.3417C299.166 56.4535 299.029 56.6191 298.93 56.8387C298.831 57.0569 298.782 57.3248 298.782 57.6425C298.782 57.9603 298.831 58.2289 298.93 58.4484C299.029 58.6666 299.166 58.8323 299.341 58.9455C299.515 59.0573 299.716 59.1132 299.944 59.1132C300.172 59.1132 300.373 59.0573 300.548 58.9455C300.722 58.8323 300.859 58.6666 300.957 58.4484C301.056 58.2289 301.106 57.9603 301.106 57.6425ZM306.029 55.548V59.7371H305.354L303.38 56.8837H303.345V59.7371H302.586V55.548H303.265L305.237 58.4034H305.274V55.548H306.029ZM309.704 59.7371H308.284V55.548H309.733C310.149 55.548 310.506 55.6319 310.804 55.7996C311.104 55.966 311.335 56.2053 311.496 56.5176C311.657 56.8298 311.737 57.2035 311.737 57.6385C311.737 58.0748 311.656 58.4498 311.494 58.7634C311.333 59.0771 311.1 59.3178 310.796 59.4855C310.494 59.6532 310.129 59.7371 309.704 59.7371ZM309.043 59.0805H309.667C309.959 59.0805 310.202 59.0273 310.397 58.9209C310.592 58.8132 310.739 58.653 310.837 58.4403C310.935 58.2262 310.984 57.9589 310.984 57.6385C310.984 57.318 310.935 57.0521 310.837 56.8407C310.739 56.628 310.594 56.4692 310.401 56.3642C310.211 56.2578 309.973 56.2046 309.69 56.2046H309.043V59.0805ZM313.217 55.548V59.7371H312.458V55.548H313.217ZM316.845 56.8857C316.811 56.7753 316.764 56.6764 316.704 56.5891C316.645 56.5005 316.574 56.4248 316.491 56.3621C316.409 56.2994 316.315 56.2523 316.209 56.221C316.103 56.1882 315.987 56.1719 315.861 56.1719C315.636 56.1719 315.436 56.2285 315.26 56.3417C315.084 56.4548 314.946 56.6212 314.845 56.8407C314.745 57.0589 314.695 57.3248 314.695 57.6385C314.695 57.9548 314.745 58.2228 314.845 58.4423C314.944 58.6619 315.083 58.8289 315.26 58.9434C315.437 59.0566 315.643 59.1132 315.878 59.1132C316.09 59.1132 316.274 59.0723 316.43 58.9905C316.587 58.9087 316.707 58.7928 316.792 58.6428C316.876 58.4914 316.919 58.3141 316.919 58.1109L317.091 58.1375H315.953V57.5444H317.653V58.0475C317.653 58.4062 317.577 58.7164 317.424 58.9782C317.271 59.24 317.061 59.4418 316.794 59.5837C316.527 59.7241 316.22 59.7943 315.874 59.7943C315.488 59.7943 315.149 59.7078 314.857 59.5346C314.566 59.36 314.339 59.1125 314.176 58.7921C314.014 58.4703 313.932 58.0885 313.932 57.6466C313.932 57.3085 313.98 57.0064 314.076 56.7405C314.172 56.4746 314.307 56.2489 314.481 56.0635C314.654 55.8767 314.857 55.7348 315.09 55.638C315.323 55.5398 315.577 55.4908 315.851 55.4908C316.083 55.4908 316.299 55.5248 316.499 55.593C316.7 55.6598 316.878 55.7553 317.033 55.8794C317.19 56.0035 317.319 56.1507 317.42 56.3212C317.521 56.4916 317.587 56.6798 317.618 56.8857H316.845ZM319.146 55.548V59.7371H318.387V55.548H319.146ZM319.783 56.1842V55.548H323.126V56.1842H321.831V59.7371H321.078V56.1842H319.783ZM323.802 59.7371H322.992L324.466 55.548H325.403L326.88 59.7371H326.07L324.951 56.4071H324.918L323.802 59.7371ZM323.828 58.0946H326.037V58.7041H323.828V58.0946ZM327.432 59.7371V55.548H328.191V59.1009H330.036V59.7371H327.432ZM330.694 59.7371V55.548H333.419V56.1842H331.453V57.3214H333.278V57.9575H331.453V59.1009H333.435V59.7371H330.694Z" fill="#0B0B0B"/>
<rect x="13.3712" y="72.0078" width="59.6565" height="16.8684" rx="8.43419" stroke="#0B0B0B" stroke-opacity="0.2" stroke-width="0.411424"/>
<path d="M26.1126 82.942V78.753H28.7962V79.3891H26.8715V80.5263H28.6122V81.1625H26.8715V82.942H26.1126ZM33.2307 80.8475C33.2307 81.2988 33.1462 81.6854 32.9771 82.0072C32.8094 82.3277 32.5803 82.5731 32.2898 82.7436C32.0008 82.914 31.6728 82.9993 31.306 82.9993C30.9392 82.9993 30.6105 82.914 30.3201 82.7436C30.031 82.5718 29.8019 82.3256 29.6328 82.0052C29.4651 81.6834 29.3812 81.2975 29.3812 80.8475C29.3812 80.3961 29.4651 80.0102 29.6328 79.6898C29.8019 79.368 30.031 79.1218 30.3201 78.9514C30.6105 78.7809 30.9392 78.6957 31.306 78.6957C31.6728 78.6957 32.0008 78.7809 32.2898 78.9514C32.5803 79.1218 32.8094 79.368 32.9771 79.6898C33.1462 80.0102 33.2307 80.3961 33.2307 80.8475ZM32.4678 80.8475C32.4678 80.5298 32.418 80.2618 32.3185 80.0436C32.2203 79.8241 32.0839 79.6584 31.9094 79.5466C31.7349 79.4334 31.5337 79.3768 31.306 79.3768C31.0783 79.3768 30.8771 79.4334 30.7026 79.5466C30.528 79.6584 30.391 79.8241 30.2915 80.0436C30.1933 80.2618 30.1442 80.5298 30.1442 80.8475C30.1442 81.1652 30.1933 81.4338 30.2915 81.6534C30.391 81.8716 30.528 82.0372 30.7026 82.1504C30.8771 82.2622 31.0783 82.3181 31.306 82.3181C31.5337 82.3181 31.7349 82.2622 31.9094 82.1504C32.0839 82.0372 32.2203 81.8716 32.3185 81.6534C32.418 81.4338 32.4678 81.1652 32.4678 80.8475ZM33.9482 82.942V78.753H35.5191C35.8409 78.753 36.1109 78.8089 36.3291 78.9207C36.5486 79.0325 36.7143 79.1893 36.8261 79.3911C36.9393 79.5916 36.9959 79.8254 36.9959 80.0927C36.9959 80.3613 36.9386 80.5945 36.8241 80.7923C36.7109 80.9886 36.5438 81.1407 36.3229 81.2484C36.102 81.3547 35.8307 81.4079 35.5088 81.4079H34.39V80.7779H35.4066C35.5948 80.7779 35.7488 80.752 35.8688 80.7002C35.9888 80.647 36.0775 80.57 36.1347 80.4691C36.1934 80.3668 36.2227 80.2413 36.2227 80.0927C36.2227 79.9441 36.1934 79.8173 36.1347 79.7123C36.0761 79.6059 35.9868 79.5254 35.8668 79.4709C35.7468 79.415 35.592 79.387 35.4025 79.387H34.707V82.942H33.9482ZM36.1122 81.0438L37.1493 82.942H36.3025L35.2838 81.0438H36.1122ZM37.6944 78.753H38.623L39.8666 81.7884H39.9157L41.1593 78.753H42.088V82.942H41.3598V80.0641H41.3209L40.1632 82.9297H39.6191L38.4614 80.0579H38.4226V82.942H37.6944V78.753ZM43.4523 82.942H42.6423L44.117 78.753H45.0538L46.5307 82.942H45.7207L44.6018 79.612H44.5691L43.4523 82.942ZM43.4789 81.2995H45.6879V81.9091H43.4789V81.2995ZM46.3921 79.3891V78.753H49.7343V79.3891H48.4396V82.942H47.6868V79.3891H46.3921ZM51.1375 78.753V82.942H50.3786V78.753H51.1375ZM55.7024 80.8475C55.7024 81.2988 55.6178 81.6854 55.4487 82.0072C55.281 82.3277 55.0519 82.5731 54.7615 82.7436C54.4724 82.914 54.1444 82.9993 53.7776 82.9993C53.4108 82.9993 53.0822 82.914 52.7917 82.7436C52.5026 82.5718 52.2735 82.3256 52.1045 82.0052C51.9367 81.6834 51.8529 81.2975 51.8529 80.8475C51.8529 80.3961 51.9367 80.0102 52.1045 79.6898C52.2735 79.368 52.5026 79.1218 52.7917 78.9514C53.0822 78.7809 53.4108 78.6957 53.7776 78.6957C54.1444 78.6957 54.4724 78.7809 54.7615 78.9514C55.0519 79.1218 55.281 79.368 55.4487 79.6898C55.6178 80.0102 55.7024 80.3961 55.7024 80.8475ZM54.9394 80.8475C54.9394 80.5298 54.8896 80.2618 54.7901 80.0436C54.6919 79.8241 54.5556 79.6584 54.381 79.5466C54.2065 79.4334 54.0053 79.3768 53.7776 79.3768C53.5499 79.3768 53.3488 79.4334 53.1742 79.5466C52.9997 79.6584 52.8626 79.8241 52.7631 80.0436C52.6649 80.2618 52.6158 80.5298 52.6158 80.8475C52.6158 81.1652 52.6649 81.4338 52.7631 81.6534C52.8626 81.8716 52.9997 82.0372 53.1742 82.1504C53.3488 82.2622 53.5499 82.3181 53.7776 82.3181C54.0053 82.3181 54.2065 82.2622 54.381 82.1504C54.5556 82.0372 54.6919 81.8716 54.7901 81.6534C54.8896 81.4338 54.9394 81.1652 54.9394 80.8475ZM59.8623 78.753V82.942H59.1873L57.2134 80.0886H57.1787V82.942H56.4198V78.753H57.0989L59.0707 81.6084H59.1075V78.753H59.8623Z" fill="#0B0B0B"/>
<rect x="76.7304" y="72.0078" width="16.8684" height="16.8684" rx="8.43419" stroke="#0B0B0B" stroke-opacity="0.2" stroke-width="0.411424"/>
<path d="M89.3418 80.505V78.1284L85.2275 75.7517L81.1133 78.1284V80.505L85.2275 78.1284L89.3418 80.505Z" fill="#0B0B0B"/>
<path d="M85.2275 82.8814L81.1133 80.505V82.8814L85.2275 85.2581L89.3418 82.8814V80.505L85.2275 82.8814Z" fill="#0B0B0B"/>
<rect x="97.3017" y="72.0078" width="44.0224" height="16.8684" rx="8.43419" stroke="#0B0B0B" stroke-opacity="0.2" stroke-width="0.411424"/>
<path d="M107.502 79.9045C107.483 79.7259 107.403 79.5868 107.261 79.4873C107.121 79.3877 106.938 79.338 106.713 79.338C106.555 79.338 106.419 79.3618 106.306 79.4095C106.193 79.4573 106.106 79.522 106.046 79.6039C105.986 79.6857 105.955 79.7791 105.954 79.8841C105.954 79.9714 105.974 80.047 106.013 80.1111C106.054 80.1752 106.11 80.2298 106.179 80.2748C106.249 80.3184 106.326 80.3552 106.41 80.3852C106.495 80.4152 106.58 80.4404 106.666 80.4609L107.059 80.5591C107.217 80.5959 107.369 80.6457 107.515 80.7084C107.662 80.7711 107.794 80.8502 107.91 80.9457C108.027 81.0411 108.12 81.1563 108.188 81.2913C108.256 81.4263 108.29 81.5845 108.29 81.7659C108.29 82.0113 108.227 82.2275 108.102 82.4143C107.976 82.5997 107.795 82.745 107.558 82.85C107.322 82.9536 107.036 83.0054 106.701 83.0054C106.375 83.0054 106.092 82.955 105.852 82.854C105.613 82.7531 105.426 82.6059 105.291 82.4122C105.158 82.2186 105.085 81.9827 105.075 81.7045H105.821C105.832 81.8504 105.877 81.9718 105.956 82.0686C106.035 82.1654 106.138 82.2377 106.265 82.2854C106.393 82.3331 106.536 82.357 106.695 82.357C106.86 82.357 107.004 82.3325 107.128 82.2834C107.254 82.2329 107.352 82.1634 107.423 82.0747C107.494 81.9847 107.53 81.8797 107.531 81.7597C107.53 81.6507 107.498 81.5607 107.435 81.4897C107.372 81.4175 107.284 81.3575 107.171 81.3097C107.059 81.2607 106.928 81.217 106.778 81.1788L106.302 81.0561C105.957 80.9675 105.684 80.8332 105.484 80.6532C105.285 80.4718 105.185 80.2311 105.185 79.9311C105.185 79.6843 105.252 79.4682 105.385 79.2827C105.52 79.0973 105.704 78.9534 105.936 78.8511C106.168 78.7475 106.43 78.6957 106.723 78.6957C107.02 78.6957 107.281 78.7475 107.505 78.8511C107.73 78.9534 107.906 79.0959 108.034 79.2786C108.162 79.46 108.229 79.6686 108.233 79.9045H107.502ZM108.967 82.942V78.753H111.691V79.3891H109.725V80.5263H111.55V81.1625H109.725V82.3059H111.707V82.942H108.967ZM116.051 80.1664H115.286C115.264 80.0409 115.224 79.9298 115.165 79.8329C115.107 79.7348 115.034 79.6516 114.946 79.5834C114.859 79.5152 114.76 79.4641 114.648 79.43C114.537 79.3945 114.418 79.3768 114.29 79.3768C114.062 79.3768 113.86 79.4341 113.684 79.5486C113.508 79.6618 113.371 79.8282 113.271 80.0477C113.172 80.2659 113.122 80.5325 113.122 80.8475C113.122 81.1679 113.172 81.4379 113.271 81.6575C113.372 81.8756 113.51 82.0406 113.684 82.1525C113.86 82.2629 114.061 82.3181 114.288 82.3181C114.413 82.3181 114.53 82.3018 114.64 82.2691C114.75 82.235 114.849 82.1852 114.936 82.1197C115.025 82.0543 115.099 81.9738 115.159 81.8784C115.22 81.7829 115.263 81.6738 115.286 81.5511L116.051 81.5552C116.022 81.7543 115.96 81.9411 115.865 82.1156C115.771 82.2902 115.647 82.4443 115.495 82.5779C115.342 82.7102 115.163 82.8138 114.959 82.8888C114.754 82.9625 114.527 82.9993 114.277 82.9993C113.909 82.9993 113.581 82.914 113.292 82.7436C113.002 82.5731 112.775 82.327 112.608 82.0052C112.442 81.6834 112.359 81.2975 112.359 80.8475C112.359 80.3961 112.443 80.0102 112.61 79.6898C112.778 79.368 113.007 79.1218 113.296 78.9514C113.585 78.7809 113.912 78.6957 114.277 78.6957C114.511 78.6957 114.727 78.7284 114.928 78.7939C115.128 78.8593 115.307 78.9555 115.464 79.0823C115.621 79.2077 115.749 79.3618 115.85 79.5445C115.953 79.7259 116.019 79.9332 116.051 80.1664ZM119.386 78.753H120.145V81.4897C120.145 81.7897 120.074 82.0536 119.933 82.2813C119.792 82.5091 119.594 82.687 119.339 82.8152C119.084 82.942 118.786 83.0054 118.446 83.0054C118.103 83.0054 117.805 82.942 117.55 82.8152C117.295 82.687 117.097 82.5091 116.956 82.2813C116.816 82.0536 116.746 81.7897 116.746 81.4897V78.753H117.505V81.4263C117.505 81.6009 117.543 81.7563 117.619 81.8927C117.697 82.0291 117.806 82.1361 117.946 82.2138C118.087 82.2902 118.253 82.3284 118.446 82.3284C118.638 82.3284 118.804 82.2902 118.945 82.2138C119.086 82.1361 119.196 82.0291 119.272 81.8927C119.348 81.7563 119.386 81.6009 119.386 81.4263V78.753ZM120.97 82.942V78.753H122.541C122.863 78.753 123.133 78.8089 123.351 78.9207C123.571 79.0325 123.736 79.1893 123.848 79.3911C123.961 79.5916 124.018 79.8254 124.018 80.0927C124.018 80.3613 123.961 80.5945 123.846 80.7923C123.733 80.9886 123.566 81.1407 123.345 81.2484C123.124 81.3547 122.853 81.4079 122.531 81.4079H121.412V80.7779H122.429C122.617 80.7779 122.771 80.752 122.891 80.7002C123.011 80.647 123.099 80.57 123.157 80.4691C123.215 80.3668 123.245 80.2413 123.245 80.0927C123.245 79.9441 123.215 79.8173 123.157 79.7123C123.098 79.6059 123.009 79.5254 122.889 79.4709C122.769 79.415 122.614 79.387 122.424 79.387H121.729V82.942H120.97ZM123.134 81.0438L124.171 82.942H123.324L122.306 81.0438H123.134ZM125.475 78.753V82.942H124.716V78.753H125.475ZM126.113 79.3891V78.753H129.455V79.3891H128.16V82.942H127.408V79.3891H126.113ZM129.813 78.753H130.67L131.695 80.6061H131.736L132.761 78.753H133.618L132.094 81.3793V82.942H131.337V81.3793L129.813 78.753Z" fill="#0B0B0B"/>
<rect x="145.027" y="72.0078" width="116.844" height="16.8684" rx="8.43419" stroke="#0B0B0B" stroke-opacity="0.2" stroke-width="0.411424"/>
<path d="M166.862 82.942V78.753H168.466C168.768 78.753 169.02 78.8007 169.221 78.8961C169.422 78.9902 169.573 79.1191 169.673 79.2827C169.773 79.4464 169.824 79.6318 169.824 79.8391C169.824 80.0095 169.791 80.1554 169.726 80.2768C169.66 80.3968 169.572 80.4943 169.462 80.5693C169.351 80.6443 169.228 80.6982 169.092 80.7309V80.7718C169.24 80.78 169.383 80.8257 169.519 80.9088C169.657 80.9907 169.769 81.1066 169.857 81.2566C169.944 81.4066 169.988 81.5879 169.988 81.8007C169.988 82.0175 169.935 82.2125 169.83 82.3856C169.725 82.5575 169.567 82.6931 169.356 82.7927C169.144 82.8922 168.878 82.942 168.558 82.942H166.862ZM167.621 82.3079H168.437C168.713 82.3079 168.911 82.2554 169.032 82.1504C169.155 82.0441 169.216 81.9077 169.216 81.7413C169.216 81.6172 169.186 81.5054 169.124 81.4059C169.063 81.305 168.976 81.2259 168.863 81.1686C168.749 81.11 168.614 81.0807 168.458 81.0807H167.621V82.3079ZM167.621 80.5345H168.372C168.503 80.5345 168.621 80.5107 168.726 80.4629C168.831 80.4138 168.913 80.345 168.973 80.2563C169.034 80.1664 169.065 80.06 169.065 79.9373C169.065 79.775 169.008 79.6414 168.893 79.5364C168.78 79.4314 168.612 79.3789 168.388 79.3789H167.621V80.5345ZM173.288 78.753H174.047V81.4897C174.047 81.7897 173.976 82.0536 173.835 82.2813C173.694 82.5091 173.496 82.687 173.241 82.8152C172.986 82.942 172.688 83.0054 172.347 83.0054C172.005 83.0054 171.707 82.942 171.452 82.8152C171.197 82.687 170.999 82.5091 170.858 82.2813C170.718 82.0536 170.648 81.7897 170.648 81.4897V78.753H171.407V81.4263C171.407 81.6009 171.445 81.7563 171.521 81.8927C171.599 82.0291 171.708 82.1361 171.848 82.2138C171.989 82.2902 172.155 82.3284 172.347 82.3284C172.54 82.3284 172.706 82.2902 172.847 82.2138C172.988 82.1361 173.097 82.0291 173.174 81.8927C173.25 81.7563 173.288 81.6009 173.288 81.4263V78.753ZM174.872 82.942V78.753H176.443C176.765 78.753 177.035 78.8089 177.253 78.9207C177.472 79.0325 177.638 79.1893 177.75 79.3911C177.863 79.5916 177.92 79.8254 177.92 80.0927C177.92 80.3613 177.862 80.5945 177.748 80.7923C177.635 80.9886 177.468 81.1407 177.247 81.2484C177.026 81.3547 176.755 81.4079 176.433 81.4079H175.314V80.7779H176.33C176.519 80.7779 176.673 80.752 176.793 80.7002C176.913 80.647 177.001 80.57 177.059 80.4691C177.117 80.3668 177.147 80.2413 177.147 80.0927C177.147 79.9441 177.117 79.8173 177.059 79.7123C177 79.6059 176.911 79.5254 176.791 79.4709C176.671 79.415 176.516 79.387 176.326 79.387H175.631V82.942H174.872ZM177.036 81.0438L178.073 82.942H177.226L176.208 81.0438H177.036ZM178.618 82.942V78.753H181.343V79.3891H179.377V80.5263H181.202V81.1625H179.377V82.3059H181.359V82.942H178.618ZM182.655 82.942H181.845L183.32 78.753H184.257L185.733 82.942H184.923L183.804 79.612H183.772L182.655 82.942ZM182.682 81.2995H184.891V81.9091H182.682V81.2995ZM188.926 78.753H189.685V81.4897C189.685 81.7897 189.614 82.0536 189.472 82.2813C189.331 82.5091 189.134 82.687 188.879 82.8152C188.624 82.942 188.326 83.0054 187.985 83.0054C187.643 83.0054 187.344 82.942 187.089 82.8152C186.834 82.687 186.636 82.5091 186.496 82.2813C186.355 82.0536 186.285 81.7897 186.285 81.4897V78.753H187.044V81.4263C187.044 81.6009 187.082 81.7563 187.158 81.8927C187.236 82.0291 187.345 82.1361 187.486 82.2138C187.626 82.2902 187.793 82.3284 187.985 82.3284C188.177 82.3284 188.343 82.2902 188.484 82.2138C188.626 82.1361 188.735 82.0291 188.811 81.8927C188.888 81.7563 188.926 81.6009 188.926 81.4263V78.753ZM193.358 82.942H191.938V78.753H193.386C193.802 78.753 194.159 78.8368 194.458 79.0045C194.758 79.1709 194.989 79.4102 195.149 79.7225C195.31 80.0348 195.391 80.4084 195.391 80.8434C195.391 81.2797 195.31 81.6547 195.147 81.9684C194.986 82.282 194.754 82.5227 194.45 82.6904C194.147 82.8581 193.783 82.942 193.358 82.942ZM192.697 82.2854H193.321C193.613 82.2854 193.856 82.2322 194.051 82.1259C194.246 82.0181 194.393 81.8579 194.491 81.6452C194.589 81.4311 194.638 81.1638 194.638 80.8434C194.638 80.5229 194.589 80.257 194.491 80.0457C194.393 79.8329 194.247 79.6741 194.055 79.5691C193.864 79.4627 193.627 79.4095 193.343 79.4095H192.697V82.2854ZM196.59 78.753V80.2952H196.026V78.753H196.59ZM201.081 80.8475C201.081 81.2988 200.997 81.6854 200.828 82.0072C200.66 82.3277 200.431 82.5731 200.14 82.7436C199.851 82.914 199.523 82.9993 199.156 82.9993C198.79 82.9993 198.461 82.914 198.171 82.7436C197.881 82.5718 197.652 82.3256 197.483 82.0052C197.316 81.6834 197.232 81.2975 197.232 80.8475C197.232 80.3961 197.316 80.0102 197.483 79.6898C197.652 79.368 197.881 79.1218 198.171 78.9514C198.461 78.7809 198.79 78.6957 199.156 78.6957C199.523 78.6957 199.851 78.7809 200.14 78.9514C200.431 79.1218 200.66 79.368 200.828 79.6898C200.997 80.0102 201.081 80.3961 201.081 80.8475ZM200.318 80.8475C200.318 80.5298 200.268 80.2618 200.169 80.0436C200.071 79.8241 199.934 79.6584 199.76 79.5466C199.585 79.4334 199.384 79.3768 199.156 79.3768C198.929 79.3768 198.728 79.4334 198.553 79.5466C198.379 79.6584 198.241 79.8241 198.142 80.0436C198.044 80.2618 197.995 80.5298 197.995 80.8475C197.995 81.1652 198.044 81.4338 198.142 81.6534C198.241 81.8716 198.379 82.0372 198.553 82.1504C198.728 82.2622 198.929 82.3181 199.156 82.3181C199.384 82.3181 199.585 82.2622 199.76 82.1504C199.934 82.0372 200.071 81.8716 200.169 81.6534C200.268 81.4338 200.318 81.1652 200.318 80.8475ZM201.799 82.942V78.753H203.37C203.691 78.753 203.961 78.8089 204.18 78.9207C204.399 79.0325 204.565 79.1893 204.677 79.3911C204.79 79.5916 204.846 79.8254 204.846 80.0927C204.846 80.3613 204.789 80.5945 204.675 80.7923C204.561 80.9886 204.394 81.1407 204.173 81.2484C203.952 81.3547 203.681 81.4079 203.359 81.4079H202.24V80.7779H203.257C203.445 80.7779 203.599 80.752 203.719 80.7002C203.839 80.647 203.928 80.57 203.985 80.4691C204.044 80.3668 204.073 80.2413 204.073 80.0927C204.073 79.9441 204.044 79.8173 203.985 79.7123C203.927 79.6059 203.837 79.5254 203.717 79.4709C203.597 79.415 203.442 79.387 203.253 79.387H202.557V82.942H201.799ZM203.963 81.0438L205 82.942H204.153L203.134 81.0438H203.963ZM206.964 82.942H205.545V78.753H206.993C207.409 78.753 207.766 78.8368 208.065 79.0045C208.365 79.1709 208.595 79.4102 208.756 79.7225C208.917 80.0348 208.998 80.4084 208.998 80.8434C208.998 81.2797 208.916 81.6547 208.754 81.9684C208.593 82.282 208.361 82.5227 208.057 82.6904C207.754 82.8581 207.39 82.942 206.964 82.942ZM206.304 82.2854H206.928C207.219 82.2854 207.463 82.2322 207.658 82.1259C207.853 82.0181 207.999 81.8579 208.098 81.6452C208.196 81.4311 208.245 81.1638 208.245 80.8434C208.245 80.5229 208.196 80.257 208.098 80.0457C207.999 79.8329 207.854 79.6741 207.662 79.5691C207.471 79.4627 207.234 79.4095 206.95 79.4095H206.304V82.2854ZM209.719 82.942V78.753H211.289C211.611 78.753 211.881 78.8089 212.099 78.9207C212.319 79.0325 212.485 79.1893 212.596 79.3911C212.71 79.5916 212.766 79.8254 212.766 80.0927C212.766 80.3613 212.709 80.5945 212.594 80.7923C212.481 80.9886 212.314 81.1407 212.093 81.2484C211.872 81.3547 211.601 81.4079 211.279 81.4079H210.16V80.7779H211.177C211.365 80.7779 211.519 80.752 211.639 80.7002C211.759 80.647 211.848 80.57 211.905 80.4691C211.964 80.3668 211.993 80.2413 211.993 80.0927C211.993 79.9441 211.964 79.8173 211.905 79.7123C211.846 79.6059 211.757 79.5254 211.637 79.4709C211.517 79.415 211.362 79.387 211.173 79.387H210.477V82.942H209.719ZM211.883 81.0438L212.92 82.942H212.073L211.054 81.0438H211.883ZM213.465 82.942V78.753H216.189V79.3891H214.224V80.5263H216.048V81.1625H214.224V82.3059H216.206V82.942H213.465ZM219.812 82.942H218.392V78.753H219.84C220.256 78.753 220.614 78.8368 220.912 79.0045C221.212 79.1709 221.443 79.4102 221.604 79.7225C221.764 80.0348 221.845 80.4084 221.845 80.8434C221.845 81.2797 221.764 81.6547 221.601 81.9684C221.441 82.282 221.208 82.5227 220.904 82.6904C220.601 82.8581 220.237 82.942 219.812 82.942ZM219.151 82.2854H219.775C220.067 82.2854 220.31 82.2322 220.505 82.1259C220.7 82.0181 220.847 81.8579 220.945 81.6452C221.043 81.4311 221.092 81.1638 221.092 80.8434C221.092 80.5229 221.043 80.257 220.945 80.0457C220.847 79.8329 220.701 79.6741 220.509 79.5691C220.318 79.4627 220.081 79.4095 219.797 79.4095H219.151V82.2854ZM223.325 78.753V82.942H222.566V78.753H223.325ZM226.953 80.0907C226.919 79.9802 226.872 79.8814 226.812 79.7941C226.753 79.7054 226.682 79.6298 226.599 79.567C226.517 79.5043 226.423 79.4573 226.317 79.4259C226.21 79.3932 226.094 79.3768 225.969 79.3768C225.744 79.3768 225.544 79.4334 225.368 79.5466C225.192 79.6598 225.053 79.8261 224.952 80.0457C224.853 80.2638 224.803 80.5298 224.803 80.8434C224.803 81.1597 224.853 81.4277 224.952 81.6472C225.052 81.8668 225.19 82.0338 225.368 82.1484C225.545 82.2616 225.751 82.3181 225.985 82.3181C226.198 82.3181 226.382 82.2772 226.538 82.1954C226.694 82.1136 226.815 81.9977 226.9 81.8477C226.984 81.6963 227.026 81.5191 227.026 81.3159L227.198 81.3425H226.061V80.7493H227.761V81.2525C227.761 81.6111 227.684 81.9213 227.532 82.1831C227.379 82.445 227.169 82.6468 226.902 82.7886C226.634 82.929 226.328 82.9993 225.981 82.9993C225.595 82.9993 225.257 82.9127 224.965 82.7395C224.674 82.565 224.447 82.3175 224.284 81.997C224.121 81.6752 224.04 81.2934 224.04 80.8516C224.04 80.5134 224.088 80.2113 224.183 79.9454C224.28 79.6795 224.415 79.4539 224.588 79.2684C224.762 79.0816 224.965 78.9398 225.198 78.843C225.431 78.7448 225.685 78.6957 225.959 78.6957C226.191 78.6957 226.407 78.7298 226.607 78.798C226.808 78.8648 226.986 78.9602 227.141 79.0843C227.298 79.2084 227.427 79.3557 227.528 79.5261C227.629 79.6966 227.695 79.8848 227.726 80.0907H226.953ZM229.253 78.753V82.942H228.495V78.753H229.253ZM229.891 79.3891V78.753H233.233V79.3891H231.939V82.942H231.186V79.3891H229.891ZM233.909 82.942H233.099L234.574 78.753H235.511L236.988 82.942H236.178L235.059 79.612H235.026L233.909 82.942ZM233.936 81.2995H236.145V81.9091H233.936V81.2995ZM237.539 82.942V78.753H238.298V82.3059H240.143V82.942H237.539Z" fill="#0B0B0B"/>
<rect x="265.574" y="72.0078" width="74.8792" height="16.8684" rx="8.43419" stroke="#0B0B0B" stroke-opacity="0.2" stroke-width="0.411424"/>
<path d="M280.233 80.0907C280.199 79.9802 280.152 79.8814 280.092 79.7941C280.033 79.7054 279.962 79.6298 279.879 79.567C279.797 79.5043 279.703 79.4573 279.597 79.4259C279.49 79.3932 279.375 79.3768 279.249 79.3768C279.024 79.3768 278.824 79.4334 278.648 79.5466C278.472 79.6598 278.333 79.8261 278.233 80.0457C278.133 80.2638 278.083 80.5298 278.083 80.8434C278.083 81.1597 278.133 81.4277 278.233 81.6472C278.332 81.8668 278.47 82.0338 278.648 82.1484C278.825 82.2616 279.031 82.3181 279.265 82.3181C279.478 82.3181 279.662 82.2772 279.818 82.1954C279.975 82.1136 280.095 81.9977 280.18 81.8477C280.264 81.6963 280.307 81.5191 280.307 81.3159L280.478 81.3425H279.341V80.7493H281.041V81.2525C281.041 81.6111 280.965 81.9213 280.812 82.1831C280.659 82.445 280.449 82.6468 280.182 82.7886C279.915 82.929 279.608 82.9993 279.261 82.9993C278.875 82.9993 278.537 82.9127 278.245 82.7395C277.954 82.565 277.727 82.3175 277.564 81.997C277.401 81.6752 277.32 81.2934 277.32 80.8516C277.32 80.5134 277.368 80.2113 277.463 79.9454C277.56 79.6795 277.695 79.4539 277.868 79.2684C278.042 79.0816 278.245 78.9398 278.478 78.843C278.711 78.7448 278.965 78.6957 279.239 78.6957C279.471 78.6957 279.687 78.7298 279.887 78.798C280.088 78.8648 280.266 78.9602 280.421 79.0843C280.578 79.2084 280.707 79.3557 280.808 79.5261C280.909 79.6966 280.975 79.8848 281.006 80.0907H280.233ZM281.775 82.942V78.753H284.499V79.3891H282.534V80.5263H284.358V81.1625H282.534V82.3059H284.516V82.942H281.775ZM287.55 79.9045C287.531 79.7259 287.45 79.5868 287.309 79.4873C287.168 79.3877 286.985 79.338 286.76 79.338C286.602 79.338 286.467 79.3618 286.353 79.4095C286.24 79.4573 286.154 79.522 286.094 79.6039C286.034 79.6857 286.003 79.7791 286.002 79.8841C286.002 79.9714 286.021 80.047 286.061 80.1111C286.102 80.1752 286.157 80.2298 286.227 80.2748C286.296 80.3184 286.373 80.3552 286.458 80.3852C286.542 80.4152 286.627 80.4404 286.713 80.4609L287.106 80.5591C287.264 80.5959 287.416 80.6457 287.562 80.7084C287.71 80.7711 287.841 80.8502 287.957 80.9457C288.074 81.0411 288.167 81.1563 288.235 81.2913C288.303 81.4263 288.337 81.5845 288.337 81.7659C288.337 82.0113 288.275 82.2275 288.149 82.4143C288.024 82.5997 287.842 82.745 287.605 82.85C287.369 82.9536 287.084 83.0054 286.748 83.0054C286.422 83.0054 286.139 82.955 285.899 82.854C285.661 82.7531 285.474 82.6059 285.339 82.4122C285.205 82.2186 285.133 81.9827 285.122 81.7045H285.869C285.88 81.8504 285.925 81.9718 286.004 82.0686C286.083 82.1654 286.186 82.2377 286.312 82.2854C286.441 82.3331 286.584 82.357 286.742 82.357C286.907 82.357 287.052 82.3325 287.176 82.2834C287.301 82.2329 287.399 82.1634 287.47 82.0747C287.541 81.9847 287.577 81.8797 287.579 81.7597C287.577 81.6507 287.545 81.5607 287.482 81.4897C287.42 81.4175 287.332 81.3575 287.219 81.3097C287.107 81.2607 286.976 81.217 286.826 81.1788L286.349 81.0561C286.004 80.9675 285.732 80.8332 285.531 80.6532C285.332 80.4718 285.232 80.2311 285.232 79.9311C285.232 79.6843 285.299 79.4682 285.433 79.2827C285.568 79.0973 285.751 78.9534 285.983 78.8511C286.215 78.7475 286.477 78.6957 286.771 78.6957C287.068 78.6957 287.328 78.7475 287.552 78.8511C287.777 78.9534 287.954 79.0959 288.082 79.2786C288.21 79.46 288.276 79.6686 288.28 79.9045H287.55ZM288.83 79.3891V78.753H292.172V79.3891H290.877V82.942H290.125V79.3891H288.83ZM293.575 78.753V82.942H292.816V78.753H293.575ZM298.14 80.8475C298.14 81.2988 298.056 81.6854 297.887 82.0072C297.719 82.3277 297.49 82.5731 297.199 82.7436C296.91 82.914 296.582 82.9993 296.215 82.9993C295.849 82.9993 295.52 82.914 295.23 82.7436C294.94 82.5718 294.711 82.3256 294.542 82.0052C294.375 81.6834 294.291 81.2975 294.291 80.8475C294.291 80.3961 294.375 80.0102 294.542 79.6898C294.711 79.368 294.94 79.1218 295.23 78.9514C295.52 78.7809 295.849 78.6957 296.215 78.6957C296.582 78.6957 296.91 78.7809 297.199 78.9514C297.49 79.1218 297.719 79.368 297.887 79.6898C298.056 80.0102 298.14 80.3961 298.14 80.8475ZM297.377 80.8475C297.377 80.5298 297.327 80.2618 297.228 80.0436C297.13 79.8241 296.993 79.6584 296.819 79.5466C296.644 79.4334 296.443 79.3768 296.215 79.3768C295.988 79.3768 295.787 79.4334 295.612 79.5466C295.437 79.6584 295.3 79.8241 295.201 80.0436C295.103 80.2618 295.054 80.5298 295.054 80.8475C295.054 81.1652 295.103 81.4338 295.201 81.6534C295.3 81.8716 295.437 82.0372 295.612 82.1504C295.787 82.2622 295.988 82.3181 296.215 82.3181C296.443 82.3181 296.644 82.2622 296.819 82.1504C296.993 82.0372 297.13 81.8716 297.228 81.6534C297.327 81.4338 297.377 81.1652 297.377 80.8475ZM302.3 78.753V82.942H301.625L299.651 80.0886H299.616V82.942H298.858V78.753H299.537L301.508 81.6084H301.545V78.753H302.3ZM305.975 82.942H304.556V78.753H306.004C306.42 78.753 306.777 78.8368 307.076 79.0045C307.376 79.1709 307.606 79.4102 307.767 79.7225C307.928 80.0348 308.008 80.4084 308.008 80.8434C308.008 81.2797 307.927 81.6547 307.765 81.9684C307.604 82.282 307.372 82.5227 307.067 82.6904C306.765 82.8581 306.401 82.942 305.975 82.942ZM305.315 82.2854H305.938C306.23 82.2854 306.474 82.2322 306.669 82.1259C306.864 82.0181 307.01 81.8579 307.108 81.6452C307.207 81.4311 307.256 81.1638 307.256 80.8434C307.256 80.5229 307.207 80.257 307.108 80.0457C307.01 79.8329 306.865 79.6741 306.673 79.5691C306.482 79.4627 306.245 79.4095 305.961 79.4095H305.315V82.2854ZM308.729 82.942V78.753H311.454V79.3891H309.488V80.5263H311.313V81.1625H309.488V82.3059H311.47V82.942H308.729ZM314.505 79.9045C314.486 79.7259 314.405 79.5868 314.263 79.4873C314.123 79.3877 313.94 79.338 313.715 79.338C313.557 79.338 313.421 79.3618 313.308 79.4095C313.195 79.4573 313.108 79.522 313.048 79.6039C312.988 79.6857 312.958 79.7791 312.956 79.8841C312.956 79.9714 312.976 80.047 313.016 80.1111C313.056 80.1752 313.112 80.2298 313.181 80.2748C313.251 80.3184 313.328 80.3552 313.412 80.3852C313.497 80.4152 313.582 80.4404 313.668 80.4609L314.061 80.5591C314.219 80.5959 314.371 80.6457 314.517 80.7084C314.664 80.7711 314.796 80.8502 314.912 80.9457C315.029 81.0411 315.122 81.1563 315.19 81.2913C315.258 81.4263 315.292 81.5845 315.292 81.7659C315.292 82.0113 315.229 82.2275 315.104 82.4143C314.979 82.5997 314.797 82.745 314.56 82.85C314.324 82.9536 314.038 83.0054 313.703 83.0054C313.377 83.0054 313.094 82.955 312.854 82.854C312.615 82.7531 312.429 82.6059 312.294 82.4122C312.16 82.2186 312.088 81.9827 312.077 81.7045H312.823C312.834 81.8504 312.879 81.9718 312.958 82.0686C313.037 82.1654 313.14 82.2377 313.267 82.2854C313.395 82.3331 313.539 82.357 313.697 82.357C313.862 82.357 314.006 82.3325 314.13 82.2834C314.256 82.2329 314.354 82.1634 314.425 82.0747C314.496 81.9847 314.532 81.8797 314.533 81.7597C314.532 81.6507 314.5 81.5607 314.437 81.4897C314.374 81.4175 314.286 81.3575 314.173 81.3097C314.061 81.2607 313.931 81.217 313.781 81.1788L313.304 81.0561C312.959 80.9675 312.686 80.8332 312.486 80.6532C312.287 80.4718 312.187 80.2311 312.187 79.9311C312.187 79.6843 312.254 79.4682 312.388 79.2827C312.523 79.0973 312.706 78.9534 312.938 78.8511C313.17 78.7475 313.432 78.6957 313.725 78.6957C314.023 78.6957 314.283 78.7475 314.507 78.8511C314.732 78.9534 314.908 79.0959 315.036 79.2786C315.165 79.46 315.231 79.6686 315.235 79.9045H314.505ZM317.397 82.942V78.753H318.968C319.29 78.753 319.56 78.8089 319.778 78.9207C319.998 79.0325 320.164 79.1893 320.275 79.3911C320.389 79.5916 320.445 79.8254 320.445 80.0927C320.445 80.3613 320.388 80.5945 320.273 80.7923C320.16 80.9886 319.993 81.1407 319.772 81.2484C319.551 81.3547 319.28 81.4079 318.958 81.4079H317.839V80.7779H318.856C319.044 80.7779 319.198 80.752 319.318 80.7002C319.438 80.647 319.527 80.57 319.584 80.4691C319.643 80.3668 319.672 80.2413 319.672 80.0927C319.672 79.9441 319.643 79.8173 319.584 79.7123C319.525 79.6059 319.436 79.5254 319.316 79.4709C319.196 79.415 319.041 79.387 318.852 79.387H318.156V82.942H317.397ZM319.561 81.0438L320.599 82.942H319.752L318.733 81.0438H319.561ZM322.563 82.942H321.144V78.753H322.592C323.008 78.753 323.365 78.8368 323.664 79.0045C323.964 79.1709 324.194 79.4102 324.355 79.7225C324.516 80.0348 324.596 80.4084 324.596 80.8434C324.596 81.2797 324.515 81.6547 324.353 81.9684C324.192 82.282 323.959 82.5227 323.655 82.6904C323.353 82.8581 322.989 82.942 322.563 82.942ZM321.902 82.2854H322.526C322.818 82.2854 323.062 82.2322 323.257 82.1259C323.452 82.0181 323.598 81.8579 323.696 81.6452C323.794 81.4311 323.844 81.1638 323.844 80.8434C323.844 80.5229 323.794 80.257 323.696 80.0457C323.598 79.8329 323.453 79.6741 323.261 79.5691C323.07 79.4627 322.832 79.4095 322.549 79.4095H321.902V82.2854ZM325.653 78.753L326.743 82.0502H326.786L327.874 78.753H328.709L327.232 82.942H326.295L324.82 78.753H325.653Z" fill="#0B0B0B"/>
<path d="M336.728 15.8291C337.068 15.8291 337.343 16.8207 337.343 18.0439C337.343 19.267 337.068 20.2586 336.728 20.2586C336.388 20.2586 336.113 19.267 336.113 18.0439C336.113 16.8207 336.388 15.8291 336.728 15.8291Z" fill="#282828"/>
<path d="M336.359 20.8748C335.813 21.4052 335.118 21.7654 334.363 21.9101C333.607 22.0548 332.825 21.9775 332.115 21.6879C331.404 21.3983 330.797 20.9094 330.37 20.2828C329.943 19.6562 329.715 18.92 329.715 18.1669C329.715 17.4138 329.943 16.6776 330.37 16.051C330.797 15.4244 331.404 14.9355 332.115 14.6459C332.825 14.3563 333.607 14.279 334.363 14.4237C335.118 14.5684 335.813 14.9286 336.359 15.459C335.755 16.2381 335.428 17.1891 335.428 18.1669C335.428 19.1447 335.755 20.0957 336.359 20.8748Z" fill="#506DE2"/>
<path d="M342.848 20.8633C342.119 21.577 341.13 21.979 340.098 21.9812C339.067 21.9834 338.076 21.5855 337.344 20.8748C337.948 20.0951 338.275 19.1434 338.275 18.1649C338.275 17.1864 337.948 16.2347 337.344 15.455C338.078 14.7451 339.07 14.3487 340.102 14.3526C341.134 14.3566 342.123 14.7606 342.851 15.4762C343.58 16.1917 343.988 17.1605 343.988 18.1702C343.988 19.18 343.578 20.1484 342.849 20.8633H342.848Z" fill="#282828"/>
</svg>
