<svg width="1237" height="182" viewBox="0 0 1237 182" fill="none" xmlns="http://www.w3.org/2000/svg">
<rect width="1243" height="182" fill="#D9D9D9"/>
<g filter="url(#filter0_b_138_265)">
<rect x="-9.98962" y="-138.039" width="1249.13" height="463.805" rx="30" transform="rotate(-0.433365 -9.98962 -138.039)" fill="white" fill-opacity="0.33"/>
</g>
<g filter="url(#filter1_b_138_265)">
<rect x="-95" y="-138.344" width="1392.9" height="466" rx="30" transform="rotate(-0.433365 -95 -138.344)" fill="#EAF6FF"/>
</g>
<g style="mix-blend-mode:overlay" opacity="0.78">
<path d="M90.9435 409.653C-2.94225 410.363 -79.6273 334.829 -80.3374 240.943C-81.0476 147.058 -5.51384 70.3727 88.3719 69.6625C182.258 68.9524 258.943 144.486 259.653 238.372C260.363 332.258 184.829 408.943 90.9435 409.653Z" fill="url(#paint0_linear_138_265)"/>
<path d="M90.9435 409.653C-2.94225 410.363 -79.6273 334.829 -80.3374 240.943C-81.0476 147.058 -5.51384 70.3727 88.3719 69.6625C182.258 68.9524 258.943 144.486 259.653 238.372C260.363 332.258 184.829 408.943 90.9435 409.653Z" stroke="#3563E9" stroke-width="100"/>
</g>
<g style="mix-blend-mode:screen" opacity="0.78">
<path d="M1280.18 19.2861C1259.29 110.819 1168.14 168.081 1076.61 147.184C985.077 126.286 927.815 35.1434 948.713 -56.3898C969.61 -147.923 1060.75 -205.185 1152.29 -184.287C1243.82 -163.39 1301.08 -72.2471 1280.18 19.2861Z" fill="url(#paint1_linear_138_265)"/>
<path d="M1280.18 19.2861C1259.29 110.819 1168.14 168.081 1076.61 147.184C985.077 126.286 927.815 35.1434 948.713 -56.3898C969.61 -147.923 1060.75 -205.185 1152.29 -184.287C1243.82 -163.39 1301.08 -72.2471 1280.18 19.2861Z" stroke="#3563E9" stroke-width="100"/>
</g>
<g style="mix-blend-mode:multiply" opacity="0.56">
<g filter="url(#filter2_f_138_265)">
<ellipse cx="736.087" cy="49.4088" rx="124.12" ry="127.729" transform="rotate(46.5762 736.087 49.4088)" fill="url(#paint2_linear_138_265)"/>
</g>
<g filter="url(#filter3_f_138_265)">
<ellipse cx="760.875" cy="20.5352" rx="90.8192" ry="93.4604" transform="rotate(46.5762 760.875 20.5352)" fill="url(#paint3_linear_138_265)"/>
</g>
</g>
<g style="mix-blend-mode:color-burn" opacity="0.42">
<g filter="url(#filter4_f_138_265)">
<ellipse cx="288.789" cy="47.4592" rx="179.224" ry="150.592" transform="rotate(172.032 288.789 47.4592)" fill="url(#paint4_linear_138_265)"/>
</g>
<g filter="url(#filter5_f_138_265)">
<ellipse cx="90.148" cy="126.304" rx="131.14" ry="110.189" transform="rotate(172.032 90.148 126.304)" fill="url(#paint5_linear_138_265)"/>
</g>
</g>
<g style="mix-blend-mode:overlay">
<path d="M0 -2H1225C1231.63 -2 1237 3.37258 1237 10V170C1237 176.627 1231.63 182 1225 182H0V-2Z" fill="#3563E9"/>
</g>
<defs>
<filter id="filter0_b_138_265" x="-273.464" y="-410.96" width="1779.55" height="1000.19" filterUnits="userSpaceOnUse" color-interpolation-filters="sRGB">
<feFlood flood-opacity="0" result="BackgroundImageFix"/>
<feGaussianBlur in="BackgroundImageFix" stdDeviation="131.85"/>
<feComposite in2="SourceAlpha" operator="in" result="effect1_backgroundBlur_138_265"/>
<feBlend mode="normal" in="SourceGraphic" in2="effect1_backgroundBlur_138_265" result="shape"/>
</filter>
<filter id="filter1_b_138_265" x="-358.474" y="-412.353" width="1923.34" height="1003.47" filterUnits="userSpaceOnUse" color-interpolation-filters="sRGB">
<feFlood flood-opacity="0" result="BackgroundImageFix"/>
<feGaussianBlur in="BackgroundImageFix" stdDeviation="131.85"/>
<feComposite in2="SourceAlpha" operator="in" result="effect1_backgroundBlur_138_265"/>
<feBlend mode="normal" in="SourceGraphic" in2="effect1_backgroundBlur_138_265" result="shape"/>
</filter>
<filter id="filter2_f_138_265" x="550.228" y="-136.251" width="371.717" height="371.319" filterUnits="userSpaceOnUse" color-interpolation-filters="sRGB">
<feFlood flood-opacity="0" result="BackgroundImageFix"/>
<feBlend mode="normal" in="SourceGraphic" in2="BackgroundImageFix" result="shape"/>
<feGaussianBlur stdDeviation="29.9108" result="effect1_foregroundBlur_138_265"/>
</filter>
<filter id="filter3_f_138_265" x="638.742" y="-101.452" width="244.266" height="243.975" filterUnits="userSpaceOnUse" color-interpolation-filters="sRGB">
<feFlood flood-opacity="0" result="BackgroundImageFix"/>
<feBlend mode="normal" in="SourceGraphic" in2="BackgroundImageFix" result="shape"/>
<feGaussianBlur stdDeviation="14.9554" result="effect1_foregroundBlur_138_265"/>
</filter>
<filter id="filter4_f_138_265" x="52.4754" y="-161.337" width="472.628" height="417.593" filterUnits="userSpaceOnUse" color-interpolation-filters="sRGB">
<feFlood flood-opacity="0" result="BackgroundImageFix"/>
<feBlend mode="normal" in="SourceGraphic" in2="BackgroundImageFix" result="shape"/>
<feGaussianBlur stdDeviation="28.7897" result="effect1_foregroundBlur_138_265"/>
</filter>
<filter id="filter5_f_138_265" x="-69.4232" y="-13.1324" width="319.142" height="278.873" filterUnits="userSpaceOnUse" color-interpolation-filters="sRGB">
<feFlood flood-opacity="0" result="BackgroundImageFix"/>
<feBlend mode="normal" in="SourceGraphic" in2="BackgroundImageFix" result="shape"/>
<feGaussianBlur stdDeviation="14.3948" result="effect1_foregroundBlur_138_265"/>
</filter>
<linearGradient id="paint0_linear_138_265" x1="309.651" y1="237.994" x2="-130.336" y2="241.322" gradientUnits="userSpaceOnUse">
<stop stop-color="white" stop-opacity="0.25"/>
<stop offset="0.648866" stop-color="white" stop-opacity="0"/>
</linearGradient>
<linearGradient id="paint1_linear_138_265" x1="1163.41" y1="-233.033" x2="1065.48" y2="195.93" gradientUnits="userSpaceOnUse">
<stop stop-color="white" stop-opacity="0.25"/>
<stop offset="0.648866" stop-color="white" stop-opacity="0"/>
</linearGradient>
<linearGradient id="paint2_linear_138_265" x1="736.087" y1="-78.3204" x2="736.087" y2="177.138" gradientUnits="userSpaceOnUse">
<stop stop-color="#DAC6F3"/>
<stop offset="1" stop-color="#BDFFF3" stop-opacity="0.46"/>
</linearGradient>
<linearGradient id="paint3_linear_138_265" x1="760.875" y1="-72.9252" x2="760.875" y2="113.996" gradientUnits="userSpaceOnUse">
<stop stop-color="#B8CAFF"/>
<stop offset="0.9999" stop-color="#85EEFC" stop-opacity="0"/>
<stop offset="1" stop-color="#C6BCE9"/>
</linearGradient>
<linearGradient id="paint4_linear_138_265" x1="288.789" y1="-103.133" x2="288.789" y2="198.051" gradientUnits="userSpaceOnUse">
<stop stop-color="#FF7BCA"/>
<stop offset="1" stop-color="#FFC56F" stop-opacity="0.46"/>
</linearGradient>
<linearGradient id="paint5_linear_138_265" x1="90.148" y1="16.1146" x2="90.148" y2="236.494" gradientUnits="userSpaceOnUse">
<stop stop-color="#F22FB0"/>
<stop offset="1" stop-color="#F58A25" stop-opacity="0"/>
<stop offset="1" stop-color="#7061A3"/>
</linearGradient>
</defs>
</svg>
