<svg width="1419" height="763" viewBox="0 0 1419 763" fill="none" xmlns="http://www.w3.org/2000/svg">
<g opacity="0.5">
<g opacity="0.5">
<path opacity="0.5" d="M8.22412 741.297C531.693 712.432 309.19 440.202 383.035 350.801C403.663 325.827 444.332 334.189 466.28 354.643C495.77 382.124 477.374 436.826 434.057 430.632C390.33 424.381 381.905 356.225 407.624 328.037C420.385 314.053 440.151 308.268 459.077 308.078C529.045 307.386 581.599 368.938 639.95 399.789C682.624 422.354 730.065 438.09 778.319 436.664C832.193 435.074 883.532 409.655 914.244 364.792C988.837 255.848 979.551 42.2753 1149.38 21.4894C1299.41 3.13312 1412.67 172.182 1475.61 285.025" stroke="url(#paint0_linear_198_898)" stroke-width="0.399556" stroke-miterlimit="10"/>
<path opacity="0.5" d="M1474.96 279.953C1436.15 212.849 1378.4 125.673 1306.76 73.1184C1276.27 50.814 1243.7 34.8802 1208.79 28.5802C1189.49 25.0982 1169.39 24.5756 1148.52 27.662C1115.5 32.4718 1089.17 44.5492 1067.56 61.5918C1028.34 92.4917 1004.42 140.229 984.819 189.704C971.091 224.355 959.764 259.429 947.978 292.271C939.123 316.955 929.236 340.566 916.129 360.971C903.588 380.535 886.844 396.737 867.509 408.892C842.644 424.558 813.613 433.556 783.629 435.039C735.764 437.511 688.14 422.672 645.19 400.021C585.532 368.599 532.752 311.15 465.482 313.53C461.061 313.685 456.619 314.187 452.269 315.034C438.866 317.641 426.105 323.439 417.137 333.511C393.127 360.392 401.679 424.494 442.164 429.664C448.908 430.526 454.967 429.855 460.263 427.941C487.423 418.293 494.901 377.978 470.164 356.331C448.173 337.085 408.197 329.584 387.555 354.643C379.872 363.966 375.317 375.245 372.739 388C350.678 497.404 464.507 713.512 8.83154 729.7" stroke="url(#paint1_linear_198_898)" stroke-width="0.399556" stroke-miterlimit="10"/>
<path opacity="0.5" d="M1474.3 274.868C1434.61 208.647 1375.28 122.664 1303.48 73.0689C1272.87 52.0428 1240.87 37.8466 1206.74 32.8673C1187.86 30.1269 1168.16 30.2823 1147.66 33.8066C1115.29 39.3721 1089.26 51.7604 1067.66 68.9019C1028.62 99.8371 1003.65 147.024 983.11 194.218C968.733 227.272 957.116 259.492 946.763 290.357C938.904 313.798 930.204 336.816 918.015 357.122C906.377 376.615 890.283 393.121 871.428 405.608C847.178 421.761 818.606 431.26 788.94 433.393C741.449 436.805 693.648 422.969 650.423 400.24C589.451 368.246 536.432 314.9 471.887 318.975C467.657 319.244 463.441 319.872 459.352 320.812C446.803 323.693 434.947 329.414 426.649 338.977C404.348 364.559 413.027 424.586 450.271 428.689C456.619 429.389 462.29 428.682 467.198 426.747C492.698 417.036 498.884 378.36 474.034 358.012C452.008 339.973 412.709 333.334 392.053 358.478C384.391 367.794 379.759 379.024 377.047 391.701C353.821 500.412 451.951 711.577 9.4248 718.103" stroke="url(#paint2_linear_198_898)" stroke-width="0.399556" stroke-miterlimit="10"/>
<path opacity="0.5" d="M1473.64 269.783C1433.05 204.445 1372.15 119.655 1300.2 73.0266C1269.47 53.286 1238.03 40.8131 1204.67 37.1686C1186.22 35.1699 1166.94 35.9821 1146.8 39.9726C1115.07 46.2585 1089.33 58.9999 1067.75 76.2332C1028.89 107.211 1002.86 153.832 981.394 198.752C966.367 230.21 954.468 259.57 945.542 288.457C938.685 310.648 931.157 333.08 919.886 353.294C909.159 372.724 893.708 389.519 875.34 402.345C851.705 418.978 823.592 429.021 794.243 431.769C747.134 436.183 699.156 423.286 655.655 400.473C593.378 367.914 540.082 318.665 478.292 324.428C474.252 324.802 470.262 325.558 466.428 326.589C454.734 329.753 443.781 335.382 436.154 344.444C415.562 368.719 424.361 424.664 458.37 427.722C464.331 428.259 469.606 427.517 474.132 425.561C497.98 415.786 502.881 378.748 477.91 359.7C455.849 342.869 417.228 337.092 396.566 362.313C388.932 371.622 384.222 382.802 381.369 395.409C356.977 503.428 439.417 709.649 10.032 706.513" stroke="url(#paint3_linear_198_898)" stroke-width="0.399556" stroke-miterlimit="10"/>
<path opacity="0.5" d="M1472.97 264.705C1431.5 200.242 1369.14 116.463 1296.91 72.9842C1266.1 54.4442 1235.18 43.7794 1202.6 41.4698C1184.58 40.2126 1165.7 41.6817 1145.93 46.1313C1114.85 53.1376 1089.4 66.2322 1067.84 83.5573C1029.15 114.57 1002.06 160.634 979.664 203.279C963.98 233.141 951.813 259.634 944.306 286.55C938.466 307.498 932.04 329.308 921.751 349.452C911.871 368.783 897.098 385.86 879.246 399.068C856.189 416.132 828.563 426.768 799.539 430.13C752.804 435.54 704.657 423.59 660.874 400.699C597.29 367.568 543.698 322.408 484.683 329.88C480.834 330.368 477.063 331.244 473.497 332.374C462.65 335.813 452.629 341.379 445.652 349.918C426.833 372.935 435.667 424.727 466.463 426.754C472.028 427.121 476.915 426.352 481.053 424.374C503.248 414.543 506.871 379.144 481.773 361.388C459.691 345.772 421.741 340.842 401.057 366.155C393.444 375.457 388.657 386.588 385.669 399.117C360.113 506.444 426.854 707.714 10.6182 694.923" stroke="url(#paint4_linear_198_898)" stroke-width="0.399556" stroke-miterlimit="10"/>
<path opacity="0.5" d="M1472.32 259.619C1429.95 196.04 1366.04 113.405 1293.63 72.9418C1262.71 55.6661 1232.36 46.7457 1200.54 45.764C1182.94 45.2484 1164.47 47.3673 1145.08 52.29C1114.64 60.0097 1089.47 73.4644 1067.94 90.8814C1029.44 121.93 1001.29 167.435 977.962 207.799C961.628 236.072 949.2 259.683 943.098 284.643C938.282 304.334 933 325.565 923.643 345.616C914.66 364.877 900.537 382.244 883.179 395.798C860.723 413.335 833.57 424.529 804.864 428.499C758.503 434.919 710.179 423.901 666.128 400.925C601.23 367.229 547.314 326.158 491.109 335.333C487.444 335.933 483.906 336.929 480.594 338.158C470.587 341.873 461.492 347.368 455.179 355.398C438.089 377.131 447.142 422.757 474.577 425.794C479.718 426.366 484.245 425.193 488.002 423.195C508.537 413.3 510.903 379.553 485.657 363.083C463.568 348.675 426.268 344.606 405.577 369.997C397.992 379.292 393.127 390.374 389.998 402.825C363.276 509.46 414.319 705.785 11.2324 683.333" stroke="url(#paint5_linear_198_898)" stroke-width="0.399556" stroke-miterlimit="10"/>
<path opacity="0.5" d="M1471.65 254.534C1428.4 191.83 1362.93 110.354 1290.35 72.8924C1259.32 56.881 1229.52 49.7122 1198.48 50.0583C1181.31 50.2843 1163.25 53.053 1144.22 58.4419C1114.42 66.8749 1089.55 80.6898 1068.04 98.1986C1029.7 129.282 1000.5 174.23 976.246 212.32C959.263 238.996 946.587 259.718 941.876 282.729C938.098 301.163 933.939 321.815 925.521 341.767C917.429 360.957 903.962 378.614 887.091 392.514C865.242 410.524 838.549 422.269 810.16 426.853C764.174 434.276 715.681 424.198 671.347 401.144C605.142 366.876 550.859 329.909 497.5 340.771C494.018 341.478 490.706 342.601 487.663 343.928C478.489 347.926 470.326 353.336 464.677 360.858C449.317 381.298 458.392 422.255 482.67 424.812C487.416 425.313 491.554 424.014 494.922 421.994C513.805 412.035 514.921 379.935 489.52 364.764C467.431 351.563 430.78 348.357 410.075 373.833C402.512 383.12 397.576 394.152 394.306 406.526C366.419 512.469 401.77 703.85 11.8186 671.736" stroke="url(#paint6_linear_198_898)" stroke-width="0.399556" stroke-miterlimit="10"/>
<path opacity="0.5" d="M1470.99 249.449C1426.85 187.628 1359.82 107.303 1287.06 72.8502C1255.92 58.103 1226.68 52.6787 1196.42 54.3596C1179.67 55.3272 1162.02 58.7456 1143.36 64.6007C1114.21 73.7471 1089.63 87.9152 1068.13 105.523C1029.98 136.649 999.713 181.039 974.53 216.847C956.897 241.927 943.995 259.74 940.655 280.829C937.936 297.992 934.878 318.079 927.4 337.939C920.197 357.058 907.387 375.005 891.011 389.251C869.762 407.734 843.534 420.038 815.471 425.229C769.859 433.669 721.189 424.515 676.587 401.378C609.076 366.537 554.39 333.68 503.905 346.231C500.607 347.05 497.514 348.293 494.746 349.713C486.392 353.993 479.175 359.318 474.189 366.332C460.567 385.479 469.578 421.683 490.777 423.852C495.127 424.296 498.877 422.856 501.864 420.814C519.095 410.792 518.968 380.344 493.397 366.459C471.315 354.473 435.3 352.121 414.58 377.682C407.046 386.962 402.025 397.945 398.621 410.241C369.569 515.492 389.222 701.929 12.4189 660.153" stroke="url(#paint7_linear_198_898)" stroke-width="0.399556" stroke-miterlimit="10"/>
<path opacity="0.5" d="M1470.33 244.371C1425.31 183.433 1356.69 104.259 1283.78 72.8079C1252.52 59.325 1223.84 55.6453 1194.36 58.6541C1178.03 60.3633 1160.8 64.4315 1142.5 70.7598C1114 80.6124 1089.7 95.1477 1068.23 112.847C1030.25 144.008 998.929 187.84 972.814 221.375C954.532 244.866 941.411 259.74 939.433 278.923C937.795 294.8 935.825 314.336 929.279 334.097C922.972 353.153 910.805 371.389 894.93 385.974C874.288 404.937 848.527 417.799 820.781 423.59C775.536 433.04 726.704 424.819 681.82 401.597C612.995 366.191 557.864 337.459 510.31 351.677C507.189 352.609 504.322 353.979 501.822 355.491C494.273 360.06 488.023 365.301 483.694 371.799C471.809 389.654 480.651 424.777 498.877 422.877C502.832 422.467 506.193 421.683 508.792 419.621C524.37 409.535 523.021 380.733 497.267 368.14C475.206 357.355 439.812 355.865 419.086 381.51C411.572 390.784 406.481 401.717 402.936 413.935C372.718 518.501 376.673 699.987 13.0193 648.549" stroke="url(#paint8_linear_198_898)" stroke-width="0.399556" stroke-miterlimit="10"/>
<path opacity="0.5" d="M1469.67 239.286C1423.76 179.224 1353.58 101.215 1280.5 72.7655C1249.11 60.5468 1221.01 58.6116 1192.29 62.9552C1176.39 65.406 1159.56 70.117 1141.63 76.9185C1113.78 87.4774 1089.77 102.38 1068.32 120.171C1030.52 151.368 998.138 194.642 971.091 225.902C952.159 247.797 938.847 259.69 938.204 277.015C937.668 291.586 936.757 310.592 931.15 330.262C925.733 349.247 914.223 367.773 898.842 382.704C878.808 402.141 853.505 415.56 826.085 421.959C781.214 432.433 732.205 425.13 687.052 401.83C616.922 365.852 561.296 341.287 516.715 357.129C513.763 358.174 511.129 359.665 508.905 361.275C502.153 366.141 496.871 371.283 493.206 377.279C483.066 393.849 491.695 424.742 506.984 421.916C510.515 421.267 513.516 420.525 515.733 418.442C529.652 408.292 527.096 381.129 501.144 369.835C479.118 360.251 444.339 359.629 423.591 385.359C416.106 394.626 410.936 405.509 407.25 417.658C375.868 521.531 364.124 698.066 13.6194 636.965" stroke="url(#paint9_linear_198_898)" stroke-width="0.399556" stroke-miterlimit="10"/>
<path opacity="0.5" d="M1469.01 234.2C1422.2 175.021 1350.44 98.1704 1277.21 72.716C1245.71 61.7686 1218.17 61.5779 1190.23 67.2493C1174.75 70.4417 1158.34 75.7954 1140.76 83.0772C1113.57 94.3353 1089.85 109.612 1068.41 127.495C1030.78 158.727 997.347 201.443 969.375 230.429C949.793 250.728 936.298 259.584 936.983 275.115C937.569 288.337 937.703 306.863 933.028 326.427C928.509 345.348 917.655 364.164 902.754 379.433C883.32 399.351 858.484 413.328 831.388 420.327C786.885 431.818 737.713 425.448 692.278 402.056C620.841 365.506 564.679 345.158 523.113 362.582C520.331 363.747 517.923 365.364 515.973 367.052C510.006 372.229 505.72 377.258 502.704 382.746C494.315 398.023 503.587 427.213 515.077 420.942C518.269 420.68 520.825 419.36 522.661 417.248C534.927 407.035 531.17 381.51 505.014 371.523C483.037 363.132 448.851 363.387 428.097 389.194C420.639 398.454 415.385 409.281 411.565 421.358C379.017 524.539 351.582 696.131 14.2126 625.368" stroke="url(#paint10_linear_198_898)" stroke-width="0.399556" stroke-miterlimit="10"/>
<path opacity="0.5" d="M1468.35 229.115C1420.66 170.819 1347.31 95.1335 1273.94 72.6737C1242.31 62.9977 1215.34 64.5444 1188.17 71.5437C1173.12 75.4777 1157.12 81.474 1139.92 89.229C1113.37 101.186 1089.93 116.838 1068.52 134.812C1031.08 166.087 996.577 208.238 967.673 234.949C947.441 253.659 933.77 259.387 935.775 273.202C937.491 285.025 938.663 303.113 934.921 322.585C931.298 341.443 921.094 360.548 906.688 376.156C887.861 396.554 863.484 411.096 836.705 418.689C792.576 431.211 743.229 425.752 697.525 402.282C624.774 365.167 568.047 349.085 529.532 368.027C526.912 369.312 524.737 371.057 523.07 372.83C517.88 378.339 514.589 383.233 512.231 388.213C505.607 402.19 514.928 427.496 523.198 419.974C525.994 419.586 528.162 418.194 529.61 416.061C540.224 405.785 535.28 381.884 508.904 373.211C486.985 366 453.385 367.137 432.616 393.037C425.18 402.289 419.855 413.067 415.894 425.066C382.181 527.555 339.047 694.203 14.8269 613.778" stroke="url(#paint11_linear_198_898)" stroke-width="0.399556" stroke-miterlimit="10"/>
<path opacity="0.5" d="M1467.69 224.037C1419.1 166.616 1344.18 92.1032 1270.64 72.631C1238.9 64.2262 1212.49 67.5105 1186.1 75.8446C1171.48 80.5202 1155.89 87.1592 1139.05 95.3945C1113.15 108.051 1090 124.07 1068.61 142.143C1031.34 173.453 995.779 215.053 965.95 239.483C945.069 256.596 931.199 259.09 934.547 271.308C937.385 281.655 939.603 299.39 936.792 318.756C934.066 337.551 924.512 356.945 910.6 372.893C892.381 393.778 868.462 408.878 842.009 417.064C798.247 430.618 748.737 426.069 702.75 402.515C628.694 364.827 571.352 353.103 535.93 373.486C533.473 374.899 531.531 376.778 530.146 378.621C525.726 384.49 523.445 389.215 521.736 393.7C516.891 406.378 526.255 427.792 531.298 419.02C533.699 418.505 535.478 417.043 536.544 414.882C545.499 404.542 539.39 382.258 512.774 374.906C490.918 368.867 457.904 370.901 437.122 396.886C429.714 406.131 424.311 416.859 420.209 428.781C385.33 530.578 326.499 692.281 15.4272 602.195" stroke="url(#paint12_linear_198_898)" stroke-width="0.399556" stroke-miterlimit="10"/>
<path opacity="0.5" d="M1467.03 218.952C1417.56 162.414 1341.04 89.0734 1267.37 72.5887C1235.49 65.4553 1209.65 70.4274 1184.04 80.1459C1169.83 85.5348 1154.66 92.8378 1138.19 101.553C1112.94 114.902 1090.08 131.302 1068.7 149.468C1031.61 180.812 994.995 221.854 964.227 244.004C942.696 259.521 926.447 259.846 933.318 269.394C935.309 278.795 940.542 295.647 938.657 314.914C936.828 333.645 927.923 353.329 914.505 369.616C896.893 390.981 873.434 406.646 847.305 415.425C803.911 430.01 754.238 426.373 707.976 402.741C632.613 364.488 574.643 357.214 542.328 378.939C540.026 380.486 538.324 382.499 537.215 384.406C533.572 390.656 532.3 395.19 531.234 399.174C528.183 410.531 537.569 428.082 539.39 418.053C541.403 417.41 542.787 415.877 543.465 413.695C550.767 403.299 543.5 382.612 516.637 376.594C494.859 371.714 462.41 374.659 441.62 400.721C434.233 409.959 428.753 420.638 424.516 432.482C388.473 533.587 313.95 690.346 16.0205 590.598" stroke="url(#paint13_linear_198_898)" stroke-width="0.399556" stroke-miterlimit="10"/>
<path opacity="0.5" d="M1466.37 213.866C1416 158.211 1337.9 86.0504 1264.08 72.5392C1232.08 66.6841 1206.8 73.3868 1181.98 84.4331C1168.19 90.5636 1153.44 98.5022 1137.33 107.698C1112.73 121.739 1090.15 138.52 1068.8 156.778C1031.89 188.158 994.211 228.642 962.518 248.517C940.337 262.445 923.685 259.874 932.103 267.473C935.005 275.603 941.502 291.897 940.542 311.058C939.61 329.725 931.362 349.706 918.424 366.325C901.427 388.177 878.427 404.4 852.616 413.773C809.595 429.396 759.746 426.662 713.209 402.945C636.532 364.121 577.94 361.423 548.726 384.363C546.579 386.051 545.132 388.198 544.291 390.155C541.438 396.815 541.17 401.109 540.739 404.612C539.503 414.613 548.895 428.329 547.49 417.05C549.107 416.28 550.096 414.677 550.4 412.473C556.049 402.013 547.624 382.915 520.507 378.254C498.813 374.525 466.929 378.388 446.118 404.535C438.76 413.759 433.202 424.395 428.824 436.162C391.615 536.574 301.394 688.383 16.6064 578.979" stroke="url(#paint14_linear_198_898)" stroke-width="0.399556" stroke-miterlimit="10"/>
<path opacity="0.5" d="M1465.71 208.782C1414.46 154.002 1334.76 83.035 1260.8 72.4973C1228.67 67.9206 1203.96 76.3606 1179.92 88.7347C1166.55 95.6068 1152.21 104.181 1136.46 113.864C1112.52 128.59 1090.23 145.76 1068.89 164.109C1032.15 195.532 993.421 235.451 960.802 253.051C937.971 265.383 920.917 259.924 930.889 265.581C934.702 272.439 942.456 288.182 942.427 307.237C942.399 325.848 934.794 346.111 922.351 363.069C905.96 385.402 883.419 402.197 857.933 412.156C815.287 428.824 765.269 426.988 718.456 403.193C640.473 363.797 581.274 365.788 555.145 389.837C553.154 391.666 551.96 393.948 551.381 395.961C549.347 403.045 550.054 407.063 550.258 410.108C550.83 418.703 560.23 428.64 555.604 416.104C556.826 415.207 557.426 413.533 557.341 411.308C561.338 400.785 551.77 383.255 524.391 379.963C502.782 377.364 471.456 382.16 450.638 408.391C443.301 417.608 437.672 428.195 433.153 439.891C394.779 539.612 288.859 686.476 17.2209 567.411" stroke="url(#paint15_linear_198_898)" stroke-width="0.399556" stroke-miterlimit="10"/>
<path opacity="0.5" d="M1465.05 203.703C1412.91 149.807 1331.61 80.0329 1257.52 72.4545C1225.26 69.1561 1201.12 79.3266 1177.85 93.0356C1164.92 100.656 1150.98 109.859 1135.6 120.023C1112.3 135.434 1090.3 152.992 1068.99 171.433C1032.43 202.891 992.637 242.259 959.086 257.578C935.606 268.314 918.149 259.958 929.667 263.673C934.391 269.26 943.409 284.445 944.306 303.395C945.181 321.942 938.226 342.495 926.27 359.792C910.494 382.612 888.405 399.972 863.236 410.517C820.965 428.23 770.77 427.291 723.689 403.412C644.399 363.45 584.642 370.245 561.55 395.275C559.721 397.26 558.789 399.668 558.464 401.731C557.285 409.246 558.916 412.961 559.77 415.574C562.101 422.686 571.557 428.915 563.711 415.136C564.537 414.112 564.749 412.367 564.283 410.121C566.62 399.534 555.915 383.558 528.275 381.651C506.758 380.168 475.983 385.917 455.15 412.233C447.841 421.443 442.128 431.981 437.475 443.599C397.936 542.627 276.318 684.547 17.8281 555.82" stroke="url(#paint16_linear_198_898)" stroke-width="0.399556" stroke-miterlimit="10"/>
<path opacity="0.5" d="M1464.39 198.618C1411.37 145.604 1328.47 77.0241 1254.24 72.4121C1221.86 70.3992 1198.29 82.3001 1175.79 97.3298C1163.28 105.692 1149.75 115.524 1134.75 126.181C1112.09 142.271 1090.39 160.217 1069.09 178.757C1032.71 210.25 991.853 249.061 957.377 262.106C933.247 271.245 915.388 260.001 928.452 261.767C934.087 266.082 944.376 280.709 946.191 299.56C947.971 318.043 941.665 338.893 930.196 356.521C915.028 379.829 893.404 397.761 868.554 408.885C826.657 427.651 776.292 427.602 728.929 403.638C648.325 363.104 588.088 374.821 567.962 400.728C566.289 402.875 565.632 405.403 565.554 407.508C565.265 415.454 567.736 418.844 569.29 421.04C573.251 426.641 582.898 429.191 571.818 414.161C572.249 413.01 572.072 411.195 571.218 408.928C571.903 398.277 560.053 383.833 532.145 383.332C510.719 382.951 480.502 389.667 459.656 416.068C452.368 425.271 446.584 435.759 441.789 447.3C401.085 545.636 263.776 682.612 18.4285 544.223" stroke="url(#paint17_linear_198_898)" stroke-width="0.399556" stroke-miterlimit="10"/>
<path opacity="0.5" d="M1463.73 193.533C1409.81 141.395 1325.32 74.0296 1250.95 72.3628C1218.43 71.6353 1195.44 85.2666 1173.72 101.624C1161.63 110.728 1148.52 121.188 1133.88 132.333C1111.86 149.1 1090.45 167.443 1069.18 186.074C1032.97 217.603 991.069 255.855 955.654 266.626C930.867 274.176 912.613 260.036 927.223 259.86C933.77 262.904 945.323 276.973 948.063 295.718C950.753 314.145 945.09 335.284 934.102 353.244C919.547 377.039 898.383 395.544 873.851 407.247C832.327 427.065 781.786 427.913 734.154 403.864C652.245 362.758 591.619 379.49 574.36 406.18C572.863 408.497 572.461 411.131 572.623 413.293C573.245 421.655 576.5 424.77 578.788 426.514C584.268 430.688 594.211 429.481 579.911 413.194C579.953 411.908 579.381 410.03 578.145 407.741C577.178 397.027 564.184 384.095 536.015 385.027C514.681 385.733 485.015 393.425 464.154 419.911C456.895 429.106 451.033 439.545 446.097 451.008C404.228 548.652 251.22 680.684 19.0146 532.626" stroke="url(#paint18_linear_198_898)" stroke-width="0.399556" stroke-miterlimit="10"/>
<path opacity="0.5" d="M1463.06 188.448C1408.26 137.193 1322.17 71.0353 1247.67 72.3207C1215.02 72.8857 1192.6 88.2332 1171.66 105.926C1159.99 115.771 1147.29 126.853 1133.02 138.499C1111.64 155.937 1090.53 174.682 1069.27 193.406C1033.24 224.97 990.278 262.664 953.938 271.161C928.502 277.114 909.844 260.086 926.002 257.96C933.459 259.733 946.283 273.244 949.941 291.89C953.542 310.253 948.522 331.682 938.021 349.982C924.088 374.264 903.376 393.34 879.161 405.623C838.019 426.5 787.301 428.231 739.387 404.097C656.171 362.426 595.27 384.222 580.765 411.633C579.445 414.126 579.31 416.86 579.706 419.077C581.267 427.835 585.264 430.745 588.3 431.988C595.291 434.849 605.545 429.763 588.018 412.226C587.665 410.814 586.704 408.864 585.08 406.555C582.453 395.777 568.315 384.335 539.884 386.715C518.643 388.495 489.534 397.183 468.659 423.753C461.421 432.942 455.482 443.331 450.412 454.716C407.377 551.675 238.671 678.749 19.6147 521.036" stroke="url(#paint19_linear_198_898)" stroke-width="0.399556" stroke-miterlimit="10"/>
<path opacity="0.5" d="M1462.41 183.369C1406.71 132.997 1319.04 68.0543 1244.38 72.2779C1211.61 74.1354 1189.8 91.2487 1169.6 110.219C1158.38 120.835 1146.05 132.517 1132.16 144.651C1111.42 162.767 1090.6 181.907 1069.37 200.723C1033.52 232.329 989.494 269.458 952.222 275.68C926.136 280.038 906.991 252.394 924.78 256.053C932.986 257.741 947.251 269.507 951.82 288.047C956.332 306.347 951.954 328.072 941.94 346.704C928.622 371.481 908.369 391.122 884.471 403.984C843.711 425.921 792.817 428.534 744.627 404.323C660.097 362.08 599.048 388.968 587.17 417.085C586.04 419.755 586.16 422.573 586.782 424.861C589.289 433.994 594.041 436.755 597.805 437.469C606.364 439.086 616.865 430.06 596.118 411.273C595.369 409.733 594.02 407.713 592.015 405.382C587.735 394.541 572.44 384.575 543.762 388.417C522.597 391.256 494.054 400.954 473.165 427.609C465.955 436.791 459.938 447.13 454.727 458.438C410.527 554.704 226.13 676.835 20.2151 509.46" stroke="url(#paint20_linear_198_898)" stroke-width="0.399556" stroke-miterlimit="10"/>
<path opacity="0.5" d="M1461.74 178.284C1405.16 128.788 1315.89 65.0742 1241.1 72.2359C1208.2 75.3859 1186.96 94.2154 1167.53 114.521C1156.74 125.878 1144.81 138.182 1131.29 150.817C1111.18 169.604 1090.67 189.147 1069.45 208.054C1033.79 239.696 988.696 276.274 950.499 280.215C923.763 282.984 903.757 258.017 923.551 254.153C932.689 252.373 948.204 265.779 953.691 284.22C959.115 302.456 955.379 324.478 945.845 343.441C933.141 368.705 913.347 388.926 889.768 402.36C849.396 425.363 798.311 428.852 749.846 404.556C664.01 361.741 602.911 393.715 593.561 422.538C592.636 425.391 592.989 428.287 593.851 430.639C597.311 440.124 602.869 442.42 607.304 442.935C617.43 444.108 625.226 433.415 604.211 410.298C602.855 408.801 601.329 406.541 598.942 404.189C593.01 393.284 576.55 384.773 547.632 390.098C526.538 393.983 498.566 404.697 477.67 431.437C470.482 440.612 464.387 450.902 459.041 462.132C413.677 557.706 213.581 674.893 20.8154 497.856" stroke="url(#paint21_linear_198_898)" stroke-width="0.399556" stroke-miterlimit="10"/>
<path opacity="0.5" d="M1460.42 168.114C1402.06 120.383 1309.62 59.127 1234.53 72.1438C1201.38 77.893 1181.29 100.141 1163.4 123.109C1153.46 135.949 1142.33 149.496 1129.57 163.12C1110.72 183.242 1090.83 203.59 1069.65 222.688C1034.34 254.4 987.136 289.863 947.074 289.248C919.039 288.824 898.192 258.786 921.115 250.325C931.983 246.313 950.139 258.285 957.448 276.528C964.7 294.63 962.257 317.252 953.684 336.88C942.223 363.118 923.347 384.497 900.382 399.075C860.786 424.219 809.327 429.452 760.311 404.994C671.855 361.042 610.94 403.023 606.371 433.429C605.891 436.628 606.689 439.686 608.01 442.194C613.37 452.343 620.488 454.773 626.321 453.876C639.865 451.785 649.116 433.047 620.417 408.356C618.355 406.576 615.968 404.203 612.812 401.801C603.568 390.776 584.741 385.126 555.378 393.467C534.405 399.421 507.605 412.205 486.681 439.107C479.542 448.268 473.299 458.459 467.671 469.541C419.976 563.731 188.49 671.029 22.0088 474.669" stroke="url(#paint22_linear_198_898)" stroke-width="0.399556" stroke-miterlimit="10"/>
<path opacity="0.5" d="M1459.77 163.035C1400.52 116.181 1306.5 56.1676 1231.25 72.1014C1197.99 79.1501 1178.46 103.114 1161.35 127.41C1151.84 140.992 1141.1 155.16 1128.72 169.286C1110.49 190.072 1090.91 210.83 1069.75 230.019C1034.61 261.774 986.352 296.671 945.365 293.782C916.68 291.769 895.474 259.111 919.901 248.425C931.68 243.276 951.114 254.548 959.334 272.693C967.504 290.731 965.703 313.65 957.61 333.61C946.771 360.342 928.353 382.294 905.699 397.444C866.499 423.661 814.849 429.763 765.558 405.227C675.796 360.71 615.072 407.572 612.791 438.881C612.544 442.243 613.546 445.386 615.107 447.971C621.413 458.431 629.343 460.769 635.847 459.342C651.094 456.001 660.86 432.941 628.538 407.388C626.109 405.467 623.306 403.037 619.761 400.615C608.864 389.526 588.837 385.295 559.262 395.155C538.338 402.133 512.132 415.962 491.201 442.949C484.09 452.103 477.762 462.245 472 473.249C423.139 566.747 175.956 669.094 22.6233 463.078" stroke="url(#paint23_linear_198_898)" stroke-width="0.399556" stroke-miterlimit="10"/>
<path opacity="0.5" d="M1459.1 157.95C1398.96 111.978 1303.37 53.2013 1227.97 72.059C1194.58 80.4073 1175.62 106.081 1159.28 131.712C1150.19 146.035 1139.85 160.825 1127.85 175.445C1110.24 196.895 1090.98 218.062 1069.84 237.343C1034.88 269.133 985.561 303.473 943.642 298.31C914.308 294.701 892.762 259.393 918.672 246.525C931.376 240.211 952.074 250.812 961.205 268.865C970.293 286.833 969.135 310.048 961.516 330.34C951.304 357.56 933.339 380.097 910.996 395.812C872.191 423.11 820.344 430.074 770.777 405.453C679.708 360.364 619.21 412.035 619.182 444.334C619.182 447.858 620.375 451.086 622.169 453.755C629.414 464.526 638.164 466.765 645.338 464.816C662.294 460.211 672.477 432.892 636.624 406.42C633.821 404.351 630.608 401.879 626.681 399.428C614.132 388.276 592.883 385.451 563.125 396.843C542.229 404.845 516.644 419.713 495.692 446.791C488.609 455.938 482.204 466.031 476.301 476.957C426.275 569.762 163.393 667.166 23.2095 451.488" stroke="url(#paint24_linear_198_898)" stroke-width="0.399556" stroke-miterlimit="10"/>
<path opacity="0.5" d="M1458.45 152.865C1397.42 107.769 1300.25 50.2419 1224.69 72.0095C1191.18 81.6644 1172.79 109.04 1157.22 135.999C1148.55 151.064 1138.6 166.468 1126.99 181.596C1110 203.717 1091.05 225.287 1069.94 244.66C1035.15 276.486 984.77 310.274 941.926 302.83C911.942 297.625 890.071 259.634 917.45 244.611C931.086 237.124 953.041 247.055 963.083 265.015C973.09 282.913 972.574 306.432 965.435 327.055C955.845 354.763 938.346 377.879 916.306 394.173C877.904 422.545 825.859 430.377 776.017 405.679C683.634 360.018 623.39 416.414 625.587 449.779C625.827 453.452 627.218 456.778 629.252 459.533C637.429 470.607 647.005 472.754 654.85 470.282C673.522 464.413 684.051 432.871 644.731 405.446C641.553 403.228 637.93 400.706 633.616 398.235C619.407 387.019 596.923 385.592 566.995 398.524C546.127 407.543 521.157 423.463 500.197 450.62C493.136 459.759 486.66 469.802 480.615 480.651C429.424 572.764 150.844 665.224 23.8096 439.884" stroke="url(#paint25_linear_198_898)" stroke-width="0.399556" stroke-miterlimit="10"/>
<path opacity="0.5" d="M1457.78 147.787C1395.86 103.573 1297.13 47.2897 1221.4 71.9743C1187.78 82.9358 1169.95 112.021 1155.16 140.307C1146.92 156.114 1137.35 172.139 1126.13 187.762C1109.76 210.547 1091.13 232.52 1070.03 251.992C1035.42 283.852 983.986 317.083 940.21 307.364C909.576 300.57 887.381 259.86 916.228 242.711C930.811 234.045 954.009 243.319 964.962 261.188C975.886 279.007 976.013 302.837 969.354 323.792C960.393 351.994 943.353 375.69 921.609 392.549C883.617 422.001 831.36 430.702 781.242 405.912C687.554 359.686 627.564 420.716 631.985 455.239C632.472 459.06 634.054 462.485 636.328 465.324C645.43 476.696 655.839 478.751 664.356 475.77C684.743 468.623 695.583 432.906 652.831 404.492C649.279 402.133 645.247 399.555 640.55 397.062C624.69 385.783 600.955 385.755 570.872 400.233C550.011 410.27 525.684 427.242 504.703 454.483C497.669 463.615 491.109 473.609 484.93 484.38C432.574 575.801 138.302 663.317 24.4028 428.308" stroke="url(#paint26_linear_198_898)" stroke-width="0.399556" stroke-miterlimit="10"/>
<path opacity="0.5" d="M1457.13 142.702C1394.32 99.3711 1294.02 44.3374 1218.12 71.9248C1184.38 84.193 1167.11 114.98 1153.09 144.601C1145.28 161.15 1136.1 177.797 1125.26 193.921C1109.5 217.37 1091.21 239.752 1070.13 259.316C1035.69 291.219 983.202 323.884 938.494 311.892C907.21 303.501 884.697 260.057 915.014 240.811C930.542 230.951 954.983 239.575 966.847 257.352C978.69 275.101 979.502 299.242 973.28 320.522C964.997 349.226 948.366 373.494 926.927 390.918C889.344 421.45 836.882 431.013 786.489 406.138C691.494 359.34 631.758 424.946 638.403 460.691C639.138 464.646 640.903 468.178 643.417 471.102C653.438 482.77 664.695 484.733 673.875 481.237C695.978 472.818 707.086 432.941 660.945 403.518C657.011 401.01 652.576 398.383 647.492 395.869C629.979 384.526 604.98 385.896 574.756 401.914C553.902 412.968 530.21 430.985 509.222 458.311C502.21 467.429 495.579 477.381 489.259 488.081C435.737 578.81 125.768 661.381 25.0171 416.711" stroke="url(#paint27_linear_198_898)" stroke-width="0.399556" stroke-miterlimit="10"/>
<path opacity="0.5" d="M1456.46 137.616C1392.76 95.1618 1290.95 41.4914 1214.84 71.8827C1181 85.5069 1164.27 117.946 1151.03 148.896C1143.64 166.186 1134.84 183.454 1124.4 200.073C1109.25 224.193 1091.28 246.977 1070.22 266.633C1035.97 298.571 982.418 330.679 936.778 316.412C904.845 306.425 882.007 260.227 913.792 238.897C930.274 227.837 955.979 235.804 968.726 253.51C981.507 271.16 982.934 295.626 977.193 317.245C969.524 346.429 953.373 371.29 932.23 389.279C895.057 420.899 842.39 431.317 791.715 406.364C695.406 358.994 635.911 429.113 644.802 466.137C645.783 470.226 647.739 473.871 650.493 476.879C661.432 488.844 673.536 490.737 683.38 486.704C707.214 477.042 718.555 432.998 669.045 402.55C664.73 399.895 659.893 397.218 654.427 394.682C635.254 383.276 608.984 386.037 578.626 403.603C557.765 415.673 534.723 434.743 513.728 462.153C506.744 471.264 500.035 481.16 493.573 491.789C438.887 581.826 113.219 659.446 25.6174 405.121" stroke="url(#paint28_linear_198_898)" stroke-width="0.399556" stroke-miterlimit="10"/>
<path opacity="0.5" d="M1455.8 132.531C1391.22 90.9593 1287.83 38.4824 1211.56 71.8331C1177.61 86.7356 1161.45 120.906 1148.97 153.19C1142.01 171.221 1133.57 189.097 1123.55 206.225C1108.97 230.994 1091.36 254.202 1070.32 273.95C1036.24 305.923 981.634 337.48 935.069 320.925C902.486 309.342 879.33 260.375 912.577 236.976C930.006 224.708 956.939 232.046 970.611 249.654C984.297 267.24 986.373 291.996 981.119 313.954C974.064 343.618 958.415 369.093 937.548 387.626C900.826 420.37 847.905 431.607 796.962 406.569C699.347 358.633 640.07 433.21 651.221 471.568C652.449 475.785 654.589 479.542 657.583 482.643C669.44 494.904 682.384 496.69 692.899 492.156C718.442 481.188 730.023 433.062 677.151 401.561C672.455 398.764 667.216 396.031 661.361 393.474C640.536 382.011 612.974 386.164 582.502 405.269C561.621 418.357 539.249 438.479 518.233 465.974C511.27 475.078 504.484 484.924 497.888 495.476C442.036 584.828 100.677 657.497 26.2175 393.51" stroke="url(#paint29_linear_198_898)" stroke-width="0.399556" stroke-miterlimit="10"/>
<path opacity="0.5" d="M1455.14 127.453C1389.66 86.7638 1284.71 35.4806 1208.27 71.7977C1174.2 87.9857 1158.6 123.886 1146.9 157.498C1130.92 203.392 1105.97 247.712 1070.41 281.288C1036.51 313.297 980.836 344.296 933.339 325.466C900.106 312.294 876.626 260.545 911.341 235.09C929.723 221.607 957.879 228.324 972.475 245.84C987.072 263.356 989.784 288.408 985.024 310.705C967.193 394.152 882.381 446.142 802.18 406.816C692.447 353.011 631.751 456.086 664.652 488.441C711.309 534.328 771.772 435.117 668.296 392.309C625.389 370.301 559.22 410.545 502.203 499.205C445.186 587.864 88.1283 655.59 26.8108 381.941" stroke="url(#paint30_linear_198_898)" stroke-width="0.399556" stroke-miterlimit="10"/>
<path opacity="0.5" d="M1453.18 123.371C1389.82 83.9954 1288.14 38.0729 1212.65 76.2333C1179.48 93.0005 1163.91 128.399 1152.16 161.799C1136.13 207.376 1111.31 251.384 1076.09 284.876C1042.43 316.906 987.559 347.799 940.429 330.206C907.422 317.909 883.772 268.137 916.341 243.622C923.728 238.057 932.845 236.072 941.919 236.962C954.016 238.127 966.014 244.378 973.711 254.026C987.277 270.927 989.226 295.096 984.064 316.652C964.75 397.232 880.672 448.261 801.022 410.898C693.125 360.286 632.867 460.84 663.635 493.47C707.157 539.633 764.93 443.952 663.296 403.15C620.092 382.562 555.378 422.679 497.126 507.687C437.708 594.383 85.5578 656.24 25.9846 385.776" stroke="url(#paint31_linear_198_898)" stroke-width="0.399556" stroke-miterlimit="10"/>
<path opacity="0.5" d="M1451.21 119.296C1389.97 81.2269 1291.6 40.6368 1217.02 80.683C1184.77 98.0081 1169.22 132.934 1157.42 166.122C1141.34 211.381 1116.64 255.085 1081.76 288.478C1048.34 320.523 994.261 351.309 947.498 334.952C914.724 323.531 890.905 275.737 921.327 252.169C928.212 246.815 936.771 244.922 945.273 245.784C956.629 246.907 967.843 252.945 974.94 262.226C987.432 278.555 988.661 301.785 983.089 322.613C962.299 400.311 878.977 450.394 799.857 414.995C693.839 367.561 633.948 465.565 662.611 498.513C702.969 544.902 758.08 452.795 658.29 414.013C614.789 394.838 551.417 434.834 492.034 516.184C430.13 600.987 82.9803 656.904 25.1372 389.632" stroke="url(#paint32_linear_198_898)" stroke-width="0.399556" stroke-miterlimit="10"/>
<path opacity="0.5" d="M1449.26 115.213C1390.12 78.4582 1295.08 43.1582 1221.41 85.1185C1190.06 102.98 1174.53 137.454 1162.68 170.43C1146.55 215.371 1121.99 258.772 1087.45 292.066C1054.27 324.132 1000.98 354.813 954.581 339.684C922.033 329.139 898.044 283.323 926.32 260.7C932.704 255.566 940.697 253.758 948.635 254.598C959.249 255.686 969.7 261.499 976.176 270.412C987.616 286.148 988.11 308.459 982.129 328.56C959.87 403.37 877.325 452.52 798.699 419.077C694.587 374.8 635 470.226 661.602 503.549C698.768 550.107 751.251 461.638 653.297 424.862C609.493 407.106 547.349 446.968 486.964 524.674C422.483 607.648 80.4169 657.554 24.311 393.475" stroke="url(#paint33_linear_198_898)" stroke-width="0.399556" stroke-miterlimit="10"/>
<path opacity="0.5" d="M1447.3 111.131C1390.27 75.6895 1298.56 45.6372 1225.79 89.561C1195.34 107.938 1179.84 141.981 1167.95 174.739C1151.76 219.362 1127.33 262.452 1093.13 295.661C1060.18 327.741 1007.69 358.323 961.657 344.423C929.342 334.754 905.176 290.915 931.312 269.239C937.195 264.316 944.624 262.593 951.996 263.412C961.875 264.458 971.55 270.051 977.411 278.598C987.799 293.74 987.559 315.126 981.161 334.507C957.448 406.406 875.693 454.639 797.534 423.16C695.371 382.011 636.009 474.831 660.577 508.577C694.545 555.234 744.401 470.473 648.29 435.71C604.189 419.374 543.147 459.088 481.872 533.156C414.714 614.35 77.8391 658.203 23.4634 397.31" stroke="url(#paint34_linear_198_898)" stroke-width="0.399556" stroke-miterlimit="10"/>
<path opacity="0.5" d="M1445.33 107.056C1390.42 72.9281 1302.05 48.0881 1230.17 94.0036C1200.62 112.875 1185.15 146.502 1173.21 179.054C1156.97 223.352 1132.66 266.146 1098.81 299.256C1066.11 331.35 1014.42 361.833 968.747 349.162C936.658 340.369 912.38 298.571 936.312 277.771C941.707 273.082 948.564 271.429 955.365 272.227C964.503 273.23 973.408 278.598 978.661 286.791C987.99 301.34 987.023 321.801 980.215 340.461C955.061 409.437 874.112 456.758 796.397 427.242C696.218 389.202 637.026 479.373 659.589 513.606C690.35 560.284 737.586 479.309 643.319 446.559C598.921 431.635 538.854 471.173 476.823 541.646C406.883 621.102 75.297 658.86 22.6584 401.159" stroke="url(#paint35_linear_198_898)" stroke-width="0.399556" stroke-miterlimit="10"/>
<path opacity="0.5" d="M1443.37 102.973C1390.57 70.1592 1305.55 50.4892 1234.55 98.4458C1205.9 117.791 1190.45 151.029 1178.46 183.369C1162.18 227.349 1137.99 269.839 1104.48 302.851C1072.01 334.966 1021.12 365.343 975.816 353.901C943.96 345.984 919.519 306.178 941.298 286.31C946.198 281.839 952.483 280.264 958.712 281.041C967.115 282.002 975.244 287.15 979.883 294.976C988.152 308.925 986.465 328.461 979.241 346.408C952.66 412.445 872.537 458.869 795.225 431.324C697.066 396.356 637.994 483.85 658.558 518.635C686.12 565.249 730.736 488.144 638.312 457.4C593.618 443.896 534.398 483.222 471.731 550.128C398.903 627.883 72.7124 659.51 21.8181 404.994" stroke="url(#paint36_linear_198_898)" stroke-width="0.399556" stroke-miterlimit="10"/>
<path opacity="0.5" d="M1441.41 98.8981C1390.72 67.3979 1309.05 52.8555 1238.93 102.889C1211.18 122.686 1195.77 155.556 1183.73 187.678C1167.39 231.34 1143.34 273.519 1110.17 306.439C1077.94 338.568 1027.86 368.748 982.899 358.641C951.283 351.528 926.68 313.785 946.29 294.849C950.69 290.597 956.41 289.107 962.073 289.863C969.735 290.781 977.087 295.704 981.119 303.176C988.322 316.525 985.921 335.129 978.273 352.369C950.287 415.454 871.005 460.988 794.066 435.421C697.97 403.49 638.954 488.265 657.541 523.678C681.925 570.137 723.894 496.994 633.312 468.263C588.321 456.178 529.829 495.243 466.654 558.625C390.832 634.698 70.149 660.174 20.9849 408.843" stroke="url(#paint37_linear_198_898)" stroke-width="0.399556" stroke-miterlimit="10"/>
<path opacity="0.5" d="M1439.44 94.8155C1390.86 64.629 1312.54 55.1789 1243.31 107.331C1216.45 127.559 1201.07 160.083 1188.99 191.993C1172.6 235.338 1148.67 277.213 1115.85 310.041C1083.86 342.191 1034.58 372.258 989.982 363.387C958.599 357.143 933.84 321.398 951.29 303.388C955.195 299.355 960.343 297.95 965.442 298.677C972.37 299.553 978.937 304.25 982.362 311.362C988.499 324.11 985.398 341.774 977.32 358.316C947.957 418.434 869.515 463.079 792.915 439.503C698.916 410.573 639.929 492.594 656.538 528.713C677.787 574.925 717.065 505.837 628.327 479.111C583.039 468.439 525.147 507.2 461.584 567.114C382.654 641.507 67.5856 660.824 20.1587 412.692" stroke="url(#paint38_linear_198_898)" stroke-width="0.399556" stroke-miterlimit="10"/>
<path opacity="0.5" d="M1437.48 90.7402C1391.01 61.8603 1316.03 57.4601 1247.69 111.773C1221.71 132.411 1206.38 164.603 1194.25 196.308C1177.81 239.335 1154.01 280.907 1121.53 313.636C1089.78 345.8 1041.29 375.754 997.057 368.126C965.901 362.751 940.994 329.005 956.276 311.927C959.687 308.113 964.27 306.785 968.796 307.498C974.982 308.339 980.773 312.803 983.591 319.562C988.654 331.703 984.862 348.435 976.352 364.277C945.641 421.415 868.046 465.169 791.75 443.599C699.898 417.629 640.897 496.86 655.514 533.756C673.691 579.622 710.215 514.686 623.32 489.974C577.736 480.721 520.331 519.108 456.499 575.61C374.357 648.322 65.0152 661.487 19.3184 416.541" stroke="url(#paint39_linear_198_898)" stroke-width="0.399556" stroke-miterlimit="10"/>
<path opacity="0.5" d="M1435.52 86.6579C1391.16 59.0917 1319.51 59.6921 1252.07 116.209C1226.97 137.242 1211.69 169.124 1199.51 200.61C1183.02 243.311 1159.35 284.58 1127.21 317.217C1095.7 349.395 1048 379.243 1004.14 372.851C973.217 368.345 948.162 336.597 961.275 320.452C964.192 316.857 968.203 315.614 972.165 316.306C977.616 317.104 982.616 321.335 984.833 327.741C988.816 339.274 984.353 355.067 975.392 370.216C943.36 424.367 866.619 467.224 790.599 447.674C700.929 424.614 641.906 501.034 654.504 538.778C669.673 584.206 703.386 523.515 618.327 500.808C572.446 492.975 515.415 530.924 451.422 584.086C365.953 655.088 62.4445 662.13 18.4919 420.37" stroke="url(#paint40_linear_198_898)" stroke-width="0.399556" stroke-miterlimit="10"/>
<path opacity="0.5" d="M1433.55 82.5828C1391.31 56.3303 1322.97 61.8886 1256.44 120.658C1232.21 142.066 1217 173.658 1204.77 204.932C1188.22 247.316 1164.68 288.281 1132.88 320.826C1101.6 353.026 1054.7 382.753 1011.21 377.604C980.511 373.974 955.329 344.218 966.254 328.998C968.676 325.622 972.115 324.463 975.512 325.127C980.222 325.883 984.438 329.874 986.055 335.941C988.957 346.853 983.831 361.72 974.417 376.177C941.1 427.341 865.207 469.273 789.427 451.764C701.974 431.557 642.937 505.152 653.48 543.814C665.726 588.719 696.536 532.358 613.32 511.664C567.143 505.251 510.38 542.691 446.337 592.583C357.436 661.834 59.874 662.794 17.6516 424.219" stroke="url(#paint41_linear_198_898)" stroke-width="0.399556" stroke-miterlimit="10"/>
<path opacity="0.5" d="M1431.6 78.5007C1391.46 53.5618 1326.41 64.043 1260.83 125.094C1237.45 146.855 1222.31 178.178 1210.03 209.241C1193.44 251.307 1170.03 291.968 1138.57 324.414C1107.53 356.628 1061.43 386.249 1018.3 382.344C987.828 379.582 962.518 351.818 971.254 337.537C973.189 334.38 976.056 333.299 978.873 333.949C982.849 334.662 986.274 338.406 987.291 344.134C989.113 354.41 983.329 368.366 973.457 382.132C938.897 430.3 863.851 471.293 788.276 455.854C703.082 438.451 644.039 509.206 652.471 548.85C661.898 593.169 689.7 541.201 608.327 522.519C561.854 517.519 505.268 554.38 441.26 601.072C348.814 668.522 57.3036 663.451 16.8184 428.068" stroke="url(#paint42_linear_198_898)" stroke-width="0.399556" stroke-miterlimit="10"/>
<path opacity="0.5" d="M1429.63 74.4249C1391.62 50.7998 1329.83 66.1544 1265.21 129.543C1242.67 151.643 1227.62 182.712 1215.29 213.556C1198.65 255.304 1175.36 295.654 1144.25 328.009C1113.45 360.244 1068.13 389.752 1025.38 387.082C995.137 385.189 969.7 359.403 976.246 346.075C977.694 343.13 979.982 342.141 982.235 342.763C985.469 343.434 988.11 346.923 988.527 352.326C989.268 361.953 982.842 375.005 972.489 388.085C936.722 433.266 862.516 473.277 787.111 459.942C704.212 445.28 645.204 513.21 651.454 553.892C658.163 597.562 682.865 550.05 603.328 533.375C556.558 529.794 500.056 565.984 436.182 609.568C340.093 675.14 54.7331 664.108 15.9851 431.917" stroke="url(#paint43_linear_198_898)" stroke-width="0.399556" stroke-miterlimit="10"/>
<path opacity="0.5" d="M1427.67 70.3427C1391.77 48.0312 1333.21 68.2238 1269.59 133.979C1247.88 156.403 1232.93 187.225 1220.56 217.864C1203.86 259.294 1180.7 299.341 1149.92 331.604C1119.37 363.853 1074.84 393.255 1032.46 391.821C1002.45 390.804 976.903 366.981 981.239 354.607C982.199 351.874 983.908 350.977 985.596 351.577C988.089 352.206 989.953 355.427 989.763 360.512C989.431 369.468 982.369 381.644 971.529 394.032C934.603 436.233 861.217 475.219 785.96 464.025C705.385 452.039 646.461 517.173 650.444 558.921C654.54 601.898 676.029 558.879 598.342 544.223C551.275 542.062 494.781 577.503 431.112 618.058C331.273 681.652 52.1768 664.764 15.1589 435.759" stroke="url(#paint44_linear_198_898)" stroke-width="0.399556" stroke-miterlimit="10"/>
<path opacity="0.5" d="M1425.71 66.2676C1391.92 45.2628 1336.56 70.2652 1273.96 138.429C1253.08 161.164 1238.24 191.76 1225.82 222.187C1209.07 263.292 1186.04 303.042 1155.6 335.206C1125.29 367.476 1081.55 396.773 1039.53 396.568C1009.75 396.427 984.099 374.539 986.232 363.154C986.705 360.625 987.835 359.82 988.958 360.399C990.716 360.992 991.804 363.931 990.998 368.705C989.607 376.976 981.903 388.29 970.562 399.986C932.52 439.22 859.939 477.127 784.794 468.114C706.578 458.735 647.81 521.121 649.42 563.957C651.016 606.221 669.179 567.722 593.335 555.072C545.972 554.323 489.414 588.931 426.028 626.541C322.354 688.058 49.5993 665.415 14.3257 439.602" stroke="url(#paint45_linear_198_898)" stroke-width="0.399556" stroke-miterlimit="10"/>
<path opacity="0.5" d="M1423.74 62.1855C1392.07 42.4943 1339.87 72.2571 1278.34 142.864C1258.27 165.896 1243.54 196.28 1231.07 226.495C1214.27 267.283 1191.37 306.722 1161.28 338.794C1131.2 371.078 1088.26 400.276 1046.61 401.3C1017.05 402.035 991.288 382.047 991.217 371.686C991.203 369.355 991.761 368.656 992.312 369.214C993.329 369.765 993.661 372.413 992.227 376.898C989.812 384.476 981.444 394.944 969.594 405.94C930.479 442.236 858.689 478.977 783.629 472.204C707.793 465.36 649.251 525.069 648.403 568.993C647.598 610.543 662.343 576.564 588.336 565.928C540.676 566.599 483.998 600.288 420.943 635.037C313.336 694.344 47.0288 666.078 13.4854 443.451" stroke="url(#paint46_linear_198_898)" stroke-width="0.399556" stroke-miterlimit="10"/>
<path opacity="0.5" d="M1421.78 58.1102C1392.21 39.7327 1343.14 74.2275 1282.72 147.314C1263.44 170.635 1248.85 200.815 1236.33 230.81C1219.48 271.281 1196.71 310.416 1166.96 342.389C1137.11 374.687 1094.97 403.779 1053.69 406.046C1024.35 407.657 998.434 389.54 996.21 380.225C995.702 378.085 995.687 377.498 995.673 378.028C995.956 378.537 995.539 380.903 993.463 385.084C990.052 391.963 980.999 401.604 968.634 411.887C928.48 445.273 857.467 480.764 782.478 476.279C709.05 471.893 650.825 529.01 647.393 574.022C644.279 614.866 655.507 585.4 583.343 576.776C535.386 578.867 478.539 611.546 415.873 643.52C304.261 700.467 44.4652 666.728 12.6589 447.286" stroke="url(#paint47_linear_198_898)" stroke-width="0.399556" stroke-miterlimit="10"/>
<path opacity="0.5" d="M1419.82 54.0279C1392.36 36.9641 1346.36 76.1557 1287.1 151.749C1268.6 175.346 1254.16 205.328 1241.59 235.119C1224.69 275.271 1202.05 314.102 1172.63 345.984C1143.03 378.303 1101.68 407.289 1060.76 410.785C1031.65 413.272 1005.52 397.02 1001.2 388.764C1000.17 386.814 999.607 386.334 999.021 386.849C998.561 387.316 997.425 389.406 994.685 393.284C990.313 399.478 980.554 408.278 967.652 417.841C926.503 448.353 856.245 482.487 781.299 480.368C710.292 478.363 652.471 533.001 646.355 579.057C641.023 619.231 648.643 594.242 578.322 587.625C530.069 591.128 473.017 622.727 410.774 652.009C295.081 706.435 41.8806 667.378 11.8044 451.135" stroke="url(#paint48_linear_198_898)" stroke-width="0.399556" stroke-miterlimit="10"/>
<path opacity="0.5" d="M1417.85 49.9525C1392.51 34.2024 1349.53 78.0555 1291.48 156.199C1273.75 180.064 1259.47 209.862 1246.85 239.441C1229.9 279.275 1207.39 317.796 1178.32 349.586C1148.96 381.92 1108.39 410.814 1067.85 415.532C1038.97 418.893 1012.57 404.549 1006.2 397.309C1004.66 395.558 1003.55 395.184 1002.4 395.671C1001.2 396.095 999.353 397.924 995.942 401.477C990.624 407.014 980.152 414.967 966.713 423.795C924.597 451.474 855.073 484.14 780.169 484.458C711.592 484.747 654.278 537.04 645.374 584.093C637.888 623.638 641.843 603.085 573.358 598.48C524.808 603.403 467.53 633.822 405.725 660.506C285.894 712.234 39.3384 668.042 10.9995 454.984" stroke="url(#paint49_linear_198_898)" stroke-width="0.399556" stroke-miterlimit="10"/>
<path opacity="0.5" d="M1415.9 45.8701C1392.67 31.4337 1352.66 79.9272 1295.86 160.634C1278.88 184.761 1264.78 214.382 1252.11 243.742C1235.11 283.252 1212.72 321.476 1184 353.167C1154.87 385.522 1115.1 414.31 1074.93 420.257C1046.27 424.501 1019.61 412.106 1011.19 405.827C1009.12 404.288 1007.47 404.005 1005.75 404.471C1003.82 404.853 1001.27 406.442 997.17 409.655C990.914 414.564 979.735 421.655 965.746 429.735C922.683 454.624 853.873 485.687 779.004 488.533C712.856 491.047 656.15 541.123 644.35 589.115C634.774 628.08 634.993 611.913 568.351 609.314C519.504 615.657 461.986 644.826 400.64 668.974C276.614 717.799 36.7609 668.677 10.1663 458.806" stroke="url(#paint50_linear_198_898)" stroke-width="0.399556" stroke-miterlimit="10"/>
<path opacity="0.5" d="M1413.94 41.7948C1392.81 28.6721 1355.72 81.7774 1300.24 165.083C1284 189.471 1270.09 218.916 1257.38 248.065C1240.32 287.256 1218.06 325.177 1189.67 356.776C1160.78 389.145 1121.81 417.841 1082 425.01C1053.58 430.13 1026.65 419.734 1016.18 414.38C1013.6 413.059 1011.4 412.855 1009.11 413.307C1006.44 413.646 1003.19 415.009 998.406 417.862C991.21 422.163 979.325 428.386 964.778 435.703C920.776 457.852 852.665 487.17 777.839 492.636C714.12 497.284 658.113 545.304 643.333 594.164C631.702 632.607 628.15 620.77 563.351 620.184C514.208 627.946 456.443 655.781 395.556 677.485C267.307 723.202 34.1905 669.355 9.32593 462.676" stroke="url(#paint51_linear_198_898)" stroke-width="0.399556" stroke-miterlimit="10"/>
<path opacity="0.5" d="M1411.97 37.7127C1392.96 25.8966 1358.73 83.6069 1304.62 169.519C1289.1 194.161 1275.4 223.43 1262.64 252.373C1245.53 291.247 1223.39 328.857 1195.35 360.364C1166.7 392.754 1128.52 421.351 1089.08 429.749C1060.88 435.752 1033.73 427.355 1021.17 422.919C1018.07 421.825 1015.32 421.697 1012.47 422.121C1009.06 422.425 1005.09 423.569 999.635 426.055C991.479 429.77 978.909 435.117 963.81 441.657C918.876 461.115 851.436 488.54 776.68 496.719C715.37 503.429 660.154 549.549 642.316 599.2C628.665 637.191 621.314 629.613 558.358 631.04C508.919 640.214 450.913 666.643 390.486 685.974C257.985 728.358 31.6269 670.012 8.49951 466.518" stroke="url(#paint52_linear_198_898)" stroke-width="0.399556" stroke-miterlimit="10"/>
<path opacity="0.5" d="M1410.01 33.6302C1393.11 23.1278 1361.67 85.4149 1309 173.955C1294.19 198.851 1280.7 227.95 1267.9 256.674C1250.74 295.23 1228.73 332.536 1201.04 363.945C1172.63 396.349 1135.24 424.854 1096.17 434.474C1068.2 441.36 1040.84 434.975 1026.17 431.437C1022.56 430.568 1019.27 430.519 1015.84 430.921C1011.7 431.183 1007 432.122 1000.88 434.227C991.761 437.37 978.513 441.855 962.864 447.59C916.991 464.406 850.201 489.769 775.536 500.787C716.613 509.481 662.272 553.857 641.313 604.215C625.664 641.817 614.485 638.434 553.373 641.867C503.636 652.461 445.412 677.414 385.415 694.443C248.664 733.26 29.0705 670.641 7.67334 470.339" stroke="url(#paint53_linear_198_898)" stroke-width="0.399556" stroke-miterlimit="10"/>
<path opacity="0.5" d="M1408.05 29.555C1393.26 20.3663 1364.56 87.216 1313.38 178.404C1299.26 203.548 1286.01 232.484 1273.16 260.997C1255.95 299.235 1234.07 336.237 1206.71 367.554C1178.55 399.972 1141.95 428.386 1103.25 439.227C1075.51 446.996 1047.95 442.617 1031.16 439.99C1027.04 439.347 1023.19 439.369 1019.19 439.75C1014.3 439.969 1008.88 440.704 1002.11 442.434C991.994 445.005 978.089 448.635 961.883 453.558C915.056 467.782 848.887 490.92 774.364 504.89C717.792 515.499 664.405 558.293 640.289 609.265C622.649 646.55 607.635 647.291 548.366 652.737C498.326 664.751 439.918 688.157 380.331 702.953C239.335 737.957 26.493 671.319 6.84009 474.21" stroke="url(#paint54_linear_198_898)" stroke-width="0.399556" stroke-miterlimit="10"/>
<path opacity="0.5" d="M1406.08 25.4727C1393.41 17.5977 1367.38 89.0029 1317.75 182.84C1304.32 208.238 1291.31 237.005 1278.41 265.305C1261.15 303.219 1239.4 339.917 1212.39 371.142C1184.45 403.581 1148.65 431.903 1110.31 443.959C1082.8 452.611 1055.06 450.238 1036.14 448.522C1031.53 448.105 1027.11 448.204 1022.54 448.564C1016.92 448.741 1010.76 449.278 1003.34 450.62C992.227 452.626 977.666 455.415 960.915 459.505C913.114 471.173 847.524 491.916 773.199 508.973C718.929 521.425 666.58 562.785 639.265 614.294C619.626 651.324 600.792 656.127 543.359 663.578C493.023 677.005 434.452 698.808 375.239 711.429C230.021 742.378 23.9155 671.962 5.99268 478.038" stroke="url(#paint55_linear_198_898)" stroke-width="0.399556" stroke-miterlimit="10"/>
<path opacity="0.5" d="M1404.12 21.3977C1393.56 14.8364 1370.14 90.79 1322.13 187.289C1309.37 212.942 1296.63 241.532 1283.67 269.621C1266.36 307.216 1244.74 343.611 1218.07 374.737C1190.37 407.191 1155.38 435.428 1117.4 448.699C1090.12 458.234 1062.19 457.866 1041.14 457.054C1036.02 456.856 1031.04 457.04 1025.9 457.372C1019.54 457.506 1012.64 457.845 1004.57 458.806C992.46 460.247 977.242 462.21 959.955 465.452C911.151 474.598 846.091 492.785 772.048 513.055C720.031 527.294 668.791 567.361 638.255 619.323C616.611 656.162 593.957 664.956 538.366 674.427C487.733 689.273 429.05 709.416 370.169 719.919C220.777 746.56 21.3521 672.619 5.1665 481.88" stroke="url(#paint56_linear_198_898)" stroke-width="0.399556" stroke-miterlimit="10"/>
<path opacity="0.5" d="M1402.16 17.3151C1393.71 12.0674 1372.84 92.5695 1326.51 191.725C1314.41 217.638 1301.94 246.052 1288.94 273.929C1271.57 311.206 1250.08 347.297 1223.75 378.325C1196.29 410.799 1162.11 439.001 1124.47 453.438C1097.44 463.905 1069.32 465.487 1046.13 465.593C1040.5 465.621 1034.97 465.875 1029.27 466.193C1022.16 466.285 1014.51 466.419 1005.81 466.998C992.679 467.867 976.804 469.025 958.988 471.405C909.145 478.059 844.551 493.519 770.883 517.144C721.041 533.128 670.994 572.008 637.239 624.365C613.574 661.071 587.114 673.805 533.367 685.289C482.437 701.555 423.69 719.982 365.084 728.422C211.582 750.514 18.7746 673.289 4.32617 485.743" stroke="url(#paint57_linear_198_898)" stroke-width="0.399556" stroke-miterlimit="10"/>
<path opacity="0.5" d="M1400.2 13.2401C1393.87 9.29903 1375.48 94.3496 1330.9 196.174C1319.44 222.349 1307.25 250.586 1294.2 278.252C1276.79 315.211 1255.43 350.992 1229.43 381.934C1202.22 414.423 1168.84 442.526 1131.56 458.191C1104.76 469.534 1076.47 473.115 1051.13 474.146C1045.01 474.393 1038.9 474.732 1032.63 475.022C1024.8 475.078 1016.4 475.001 1007.05 475.198C992.905 475.495 976.367 475.855 958.034 477.367C907.126 481.555 842.913 494.141 769.732 521.234C721.987 538.912 673.204 576.727 636.229 629.401C610.524 666.022 580.285 682.648 528.374 696.138C477.148 713.816 418.401 730.491 360.014 736.905C202.487 754.208 16.2183 673.932 3.5 489.578" stroke="url(#paint58_linear_198_898)" stroke-width="0.399556" stroke-miterlimit="10"/>
<path opacity="0.5" d="M1398.24 9.15743C1394.01 6.53006 1378.05 96.1362 1335.27 200.61C1324.45 227.053 1312.56 255.106 1299.46 282.553C1281.99 319.195 1260.76 354.671 1235.1 385.514C1208.13 418.025 1175.54 446.022 1138.63 462.916C1112.06 475.135 1083.59 480.757 1056.11 482.664C1049.49 483.144 1042.82 483.554 1035.99 483.822C1027.41 483.836 1018.26 483.554 1008.28 483.377C993.11 483.102 975.907 482.678 957.059 483.306C905.042 485.044 841.112 494.614 768.566 525.309C722.834 544.661 675.393 581.48 635.212 634.423C607.445 671.008 573.442 691.476 523.381 706.979C471.858 726.077 413.175 740.951 354.936 745.387C193.469 757.676 13.6476 674.582 2.67358 493.413" stroke="url(#paint59_linear_198_898)" stroke-width="0.399556" stroke-miterlimit="10"/>
<path opacity="0.5" d="M1396.27 5.08243C1394.16 3.76875 1380.57 97.9304 1339.65 205.059C1329.45 231.778 1317.86 259.634 1304.72 286.875C1287.2 323.192 1266.09 358.372 1240.79 389.117C1214.04 421.641 1182.26 449.539 1145.71 467.662C1119.37 480.757 1090.73 488.357 1061.11 491.21C1053.98 491.902 1046.75 492.396 1039.34 492.644C1030.03 492.615 1020.12 492.128 1009.51 491.57C993.315 490.723 975.427 489.515 956.092 489.261C902.924 488.561 839.17 494.982 767.401 529.399C723.583 550.411 677.561 586.304 634.188 639.459C604.33 676.051 566.592 700.319 518.374 717.828C466.555 738.345 408.006 751.39 349.852 753.87C184.557 760.932 11.0771 675.232 1.83325 497.249" stroke="url(#paint60_linear_198_898)" stroke-width="0.399556" stroke-miterlimit="10"/>
<path opacity="0.5" d="M1394.31 1C1394.31 1 1338.09 493.081 1042.7 501.465C949.955 500.815 805.485 447.067 633.178 644.501C460.87 841.943 13.3864 789.558 1 501.112" stroke="url(#paint61_linear_198_898)" stroke-width="0.399556" stroke-miterlimit="10"/>
</g>
</g>
<defs>
<linearGradient id="paint0_linear_198_898" x1="493.149" y1="239.728" x2="1008.95" y2="753.564" gradientUnits="userSpaceOnUse">
<stop stop-color="#1BA4E5" stop-opacity="0.5"/>
<stop offset="1" stop-color="#B40FE7"/>
</linearGradient>
<linearGradient id="paint1_linear_198_898" x1="497.637" y1="238.811" x2="1008.77" y2="747.996" gradientUnits="userSpaceOnUse">
<stop stop-color="#1BA4E5" stop-opacity="0.5"/>
<stop offset="1" stop-color="#B40FE7"/>
</linearGradient>
<linearGradient id="paint2_linear_198_898" x1="494.925" y1="230.547" x2="1008.68" y2="742.34" gradientUnits="userSpaceOnUse">
<stop stop-color="#1BA4E5" stop-opacity="0.5"/>
<stop offset="1" stop-color="#B40FE7"/>
</linearGradient>
<linearGradient id="paint3_linear_198_898" x1="492.3" y1="222.197" x2="1008.67" y2="736.597" gradientUnits="userSpaceOnUse">
<stop stop-color="#1BA4E5" stop-opacity="0.5"/>
<stop offset="1" stop-color="#B40FE7"/>
</linearGradient>
<linearGradient id="paint4_linear_198_898" x1="489.796" y1="213.724" x2="1008.78" y2="730.731" gradientUnits="userSpaceOnUse">
<stop stop-color="#1BA4E5" stop-opacity="0.5"/>
<stop offset="1" stop-color="#B40FE7"/>
</linearGradient>
<linearGradient id="paint5_linear_198_898" x1="487.354" y1="205.19" x2="1008.96" y2="724.805" gradientUnits="userSpaceOnUse">
<stop stop-color="#1BA4E5" stop-opacity="0.5"/>
<stop offset="1" stop-color="#B40FE7"/>
</linearGradient>
<linearGradient id="paint6_linear_198_898" x1="484.999" y1="196.569" x2="1009.22" y2="718.791" gradientUnits="userSpaceOnUse">
<stop stop-color="#1BA4E5" stop-opacity="0.5"/>
<stop offset="1" stop-color="#B40FE7"/>
</linearGradient>
<linearGradient id="paint7_linear_198_898" x1="482.733" y1="187.86" x2="1009.57" y2="712.688" gradientUnits="userSpaceOnUse">
<stop stop-color="#1BA4E5" stop-opacity="0.5"/>
<stop offset="1" stop-color="#B40FE7"/>
</linearGradient>
<linearGradient id="paint8_linear_198_898" x1="480.554" y1="179.064" x2="1010.01" y2="706.498" gradientUnits="userSpaceOnUse">
<stop stop-color="#1BA4E5" stop-opacity="0.5"/>
<stop offset="1" stop-color="#B40FE7"/>
</linearGradient>
<linearGradient id="paint9_linear_198_898" x1="478.464" y1="170.179" x2="1010.54" y2="700.219" gradientUnits="userSpaceOnUse">
<stop stop-color="#1BA4E5" stop-opacity="0.5"/>
<stop offset="1" stop-color="#B40FE7"/>
</linearGradient>
<linearGradient id="paint10_linear_198_898" x1="476.463" y1="161.205" x2="1011.15" y2="693.851" gradientUnits="userSpaceOnUse">
<stop stop-color="#1BA4E5" stop-opacity="0.5"/>
<stop offset="1" stop-color="#B40FE7"/>
</linearGradient>
<linearGradient id="paint11_linear_198_898" x1="474.551" y1="152.143" x2="1011.85" y2="687.395" gradientUnits="userSpaceOnUse">
<stop stop-color="#1BA4E5" stop-opacity="0.5"/>
<stop offset="1" stop-color="#B40FE7"/>
</linearGradient>
<linearGradient id="paint12_linear_198_898" x1="472.728" y1="142.992" x2="1012.65" y2="680.848" gradientUnits="userSpaceOnUse">
<stop stop-color="#1BA4E5" stop-opacity="0.5"/>
<stop offset="1" stop-color="#B40FE7"/>
</linearGradient>
<linearGradient id="paint13_linear_198_898" x1="470.994" y1="133.753" x2="1013.53" y2="674.214" gradientUnits="userSpaceOnUse">
<stop stop-color="#1BA4E5" stop-opacity="0.5"/>
<stop offset="1" stop-color="#B40FE7"/>
</linearGradient>
<linearGradient id="paint14_linear_198_898" x1="469.348" y1="124.425" x2="1014.49" y2="667.49" gradientUnits="userSpaceOnUse">
<stop stop-color="#1BA4E5" stop-opacity="0.5"/>
<stop offset="1" stop-color="#B40FE7"/>
</linearGradient>
<linearGradient id="paint15_linear_198_898" x1="467.791" y1="115.01" x2="1015.55" y2="660.679" gradientUnits="userSpaceOnUse">
<stop stop-color="#1BA4E5" stop-opacity="0.5"/>
<stop offset="1" stop-color="#B40FE7"/>
</linearGradient>
<linearGradient id="paint16_linear_198_898" x1="466.321" y1="105.509" x2="1016.69" y2="653.78" gradientUnits="userSpaceOnUse">
<stop stop-color="#1BA4E5" stop-opacity="0.5"/>
<stop offset="1" stop-color="#B40FE7"/>
</linearGradient>
<linearGradient id="paint17_linear_198_898" x1="464.936" y1="95.9224" x2="1017.92" y2="646.797" gradientUnits="userSpaceOnUse">
<stop stop-color="#1BA4E5" stop-opacity="0.5"/>
<stop offset="1" stop-color="#B40FE7"/>
</linearGradient>
<linearGradient id="paint18_linear_198_898" x1="463.601" y1="86.2872" x2="1019.2" y2="639.768" gradientUnits="userSpaceOnUse">
<stop stop-color="#1BA4E5" stop-opacity="0.5"/>
<stop offset="1" stop-color="#B40FE7"/>
</linearGradient>
<linearGradient id="paint19_linear_198_898" x1="462.266" y1="76.6521" x2="1020.48" y2="632.739" gradientUnits="userSpaceOnUse">
<stop stop-color="#1BA4E5" stop-opacity="0.5"/>
<stop offset="1" stop-color="#B40FE7"/>
</linearGradient>
<linearGradient id="paint20_linear_198_898" x1="460.933" y1="67.0165" x2="1021.77" y2="625.71" gradientUnits="userSpaceOnUse">
<stop stop-color="#1BA4E5" stop-opacity="0.5"/>
<stop offset="1" stop-color="#B40FE7"/>
</linearGradient>
<linearGradient id="paint21_linear_198_898" x1="459.6" y1="57.3818" x2="1023.05" y2="618.681" gradientUnits="userSpaceOnUse">
<stop stop-color="#1BA4E5" stop-opacity="0.5"/>
<stop offset="1" stop-color="#B40FE7"/>
</linearGradient>
<linearGradient id="paint22_linear_198_898" x1="456.428" y1="38.5724" x2="1025.13" y2="605.106" gradientUnits="userSpaceOnUse">
<stop stop-color="#1BA4E5" stop-opacity="0.5"/>
<stop offset="1" stop-color="#B40FE7"/>
</linearGradient>
<linearGradient id="paint23_linear_198_898" x1="454.191" y1="29.8097" x2="1025.53" y2="598.966" gradientUnits="userSpaceOnUse">
<stop stop-color="#1BA4E5" stop-opacity="0.5"/>
<stop offset="1" stop-color="#B40FE7"/>
</linearGradient>
<linearGradient id="paint24_linear_198_898" x1="451.603" y1="21.3995" x2="1025.57" y2="593.179" gradientUnits="userSpaceOnUse">
<stop stop-color="#1BA4E5" stop-opacity="0.5"/>
<stop offset="1" stop-color="#B40FE7"/>
</linearGradient>
<linearGradient id="paint25_linear_198_898" x1="448.729" y1="13.2768" x2="1025.33" y2="587.679" gradientUnits="userSpaceOnUse">
<stop stop-color="#1BA4E5" stop-opacity="0.5"/>
<stop offset="1" stop-color="#B40FE7"/>
</linearGradient>
<linearGradient id="paint26_linear_198_898" x1="445.619" y1="5.39213" x2="1024.86" y2="582.417" gradientUnits="userSpaceOnUse">
<stop stop-color="#1BA4E5" stop-opacity="0.5"/>
<stop offset="1" stop-color="#B40FE7"/>
</linearGradient>
<linearGradient id="paint27_linear_198_898" x1="442.311" y1="-2.29356" x2="1024.18" y2="577.354" gradientUnits="userSpaceOnUse">
<stop stop-color="#1BA4E5" stop-opacity="0.5"/>
<stop offset="1" stop-color="#B40FE7"/>
</linearGradient>
<linearGradient id="paint28_linear_198_898" x1="438.835" y1="-9.81027" x2="1023.34" y2="572.459" gradientUnits="userSpaceOnUse">
<stop stop-color="#1BA4E5" stop-opacity="0.5"/>
<stop offset="1" stop-color="#B40FE7"/>
</linearGradient>
<linearGradient id="paint29_linear_198_898" x1="435.217" y1="-17.1835" x2="1022.35" y2="567.707" gradientUnits="userSpaceOnUse">
<stop stop-color="#1BA4E5" stop-opacity="0.5"/>
<stop offset="1" stop-color="#B40FE7"/>
</linearGradient>
<linearGradient id="paint30_linear_198_898" x1="431.477" y1="-24.4325" x2="1021.24" y2="563.079" gradientUnits="userSpaceOnUse">
<stop stop-color="#1BA4E5" stop-opacity="0.5"/>
<stop offset="1" stop-color="#B40FE7"/>
</linearGradient>
<linearGradient id="paint31_linear_198_898" x1="432.251" y1="-22.2011" x2="1017.48" y2="560.799" gradientUnits="userSpaceOnUse">
<stop stop-color="#1BA4E5" stop-opacity="0.5"/>
<stop offset="1" stop-color="#B40FE7"/>
</linearGradient>
<linearGradient id="paint32_linear_198_898" x1="433.015" y1="-19.9609" x2="1013.72" y2="558.528" gradientUnits="userSpaceOnUse">
<stop stop-color="#1BA4E5" stop-opacity="0.5"/>
<stop offset="1" stop-color="#B40FE7"/>
</linearGradient>
<linearGradient id="paint33_linear_198_898" x1="433.771" y1="-17.7116" x2="1009.95" y2="556.267" gradientUnits="userSpaceOnUse">
<stop stop-color="#1BA4E5" stop-opacity="0.5"/>
<stop offset="1" stop-color="#B40FE7"/>
</linearGradient>
<linearGradient id="paint34_linear_198_898" x1="434.516" y1="-15.4525" x2="1006.17" y2="554.015" gradientUnits="userSpaceOnUse">
<stop stop-color="#1BA4E5" stop-opacity="0.5"/>
<stop offset="1" stop-color="#B40FE7"/>
</linearGradient>
<linearGradient id="paint35_linear_198_898" x1="435.251" y1="-13.1828" x2="1002.37" y2="551.774" gradientUnits="userSpaceOnUse">
<stop stop-color="#1BA4E5" stop-opacity="0.5"/>
<stop offset="1" stop-color="#B40FE7"/>
</linearGradient>
<linearGradient id="paint36_linear_198_898" x1="435.976" y1="-10.9025" x2="998.569" y2="549.543" gradientUnits="userSpaceOnUse">
<stop stop-color="#1BA4E5" stop-opacity="0.5"/>
<stop offset="1" stop-color="#B40FE7"/>
</linearGradient>
<linearGradient id="paint37_linear_198_898" x1="436.688" y1="-8.61025" x2="994.754" y2="547.325" gradientUnits="userSpaceOnUse">
<stop stop-color="#1BA4E5" stop-opacity="0.5"/>
<stop offset="1" stop-color="#B40FE7"/>
</linearGradient>
<linearGradient id="paint38_linear_198_898" x1="437.389" y1="-6.30643" x2="990.927" y2="545.118" gradientUnits="userSpaceOnUse">
<stop stop-color="#1BA4E5" stop-opacity="0.5"/>
<stop offset="1" stop-color="#B40FE7"/>
</linearGradient>
<linearGradient id="paint39_linear_198_898" x1="438.077" y1="-3.99004" x2="987.087" y2="542.923" gradientUnits="userSpaceOnUse">
<stop stop-color="#1BA4E5" stop-opacity="0.5"/>
<stop offset="1" stop-color="#B40FE7"/>
</linearGradient>
<linearGradient id="paint40_linear_198_898" x1="438.753" y1="-1.66044" x2="983.234" y2="540.742" gradientUnits="userSpaceOnUse">
<stop stop-color="#1BA4E5" stop-opacity="0.5"/>
<stop offset="1" stop-color="#B40FE7"/>
</linearGradient>
<linearGradient id="paint41_linear_198_898" x1="439.415" y1="0.682648" x2="979.368" y2="538.574" gradientUnits="userSpaceOnUse">
<stop stop-color="#1BA4E5" stop-opacity="0.5"/>
<stop offset="1" stop-color="#B40FE7"/>
</linearGradient>
<linearGradient id="paint42_linear_198_898" x1="440.063" y1="3.03969" x2="975.488" y2="536.421" gradientUnits="userSpaceOnUse">
<stop stop-color="#1BA4E5" stop-opacity="0.5"/>
<stop offset="1" stop-color="#B40FE7"/>
</linearGradient>
<linearGradient id="paint43_linear_198_898" x1="440.696" y1="5.41045" x2="971.593" y2="534.281" gradientUnits="userSpaceOnUse">
<stop stop-color="#1BA4E5" stop-opacity="0.5"/>
<stop offset="1" stop-color="#B40FE7"/>
</linearGradient>
<linearGradient id="paint44_linear_198_898" x1="441.316" y1="7.79632" x2="967.685" y2="532.156" gradientUnits="userSpaceOnUse">
<stop stop-color="#1BA4E5" stop-opacity="0.5"/>
<stop offset="1" stop-color="#B40FE7"/>
</linearGradient>
<linearGradient id="paint45_linear_198_898" x1="441.92" y1="10.1973" x2="963.761" y2="530.046" gradientUnits="userSpaceOnUse">
<stop stop-color="#1BA4E5" stop-opacity="0.5"/>
<stop offset="1" stop-color="#B40FE7"/>
</linearGradient>
<linearGradient id="paint46_linear_198_898" x1="442.509" y1="12.6132" x2="966.6" y2="534.703" gradientUnits="userSpaceOnUse">
<stop stop-color="#1BA4E5" stop-opacity="0.5"/>
<stop offset="1" stop-color="#B40FE7"/>
</linearGradient>
<linearGradient id="paint47_linear_198_898" x1="443.083" y1="15.0441" x2="970.347" y2="540.296" gradientUnits="userSpaceOnUse">
<stop stop-color="#1BA4E5" stop-opacity="0.5"/>
<stop offset="1" stop-color="#B40FE7"/>
</linearGradient>
<linearGradient id="paint48_linear_198_898" x1="443.642" y1="17.4901" x2="974.085" y2="545.908" gradientUnits="userSpaceOnUse">
<stop stop-color="#1BA4E5" stop-opacity="0.5"/>
<stop offset="1" stop-color="#B40FE7"/>
</linearGradient>
<linearGradient id="paint49_linear_198_898" x1="444.186" y1="19.951" x2="977.813" y2="551.54" gradientUnits="userSpaceOnUse">
<stop stop-color="#1BA4E5" stop-opacity="0.5"/>
<stop offset="1" stop-color="#B40FE7"/>
</linearGradient>
<linearGradient id="paint50_linear_198_898" x1="444.715" y1="22.4266" x2="981.532" y2="557.193" gradientUnits="userSpaceOnUse">
<stop stop-color="#1BA4E5" stop-opacity="0.5"/>
<stop offset="1" stop-color="#B40FE7"/>
</linearGradient>
<linearGradient id="paint51_linear_198_898" x1="445.231" y1="24.9164" x2="985.242" y2="562.866" gradientUnits="userSpaceOnUse">
<stop stop-color="#1BA4E5" stop-opacity="0.5"/>
<stop offset="1" stop-color="#B40FE7"/>
</linearGradient>
<linearGradient id="paint52_linear_198_898" x1="445.732" y1="27.42" x2="988.947" y2="568.56" gradientUnits="userSpaceOnUse">
<stop stop-color="#1BA4E5" stop-opacity="0.5"/>
<stop offset="1" stop-color="#B40FE7"/>
</linearGradient>
<linearGradient id="paint53_linear_198_898" x1="446.221" y1="29.9361" x2="992.646" y2="574.274" gradientUnits="userSpaceOnUse">
<stop stop-color="#1BA4E5" stop-opacity="0.5"/>
<stop offset="1" stop-color="#B40FE7"/>
</linearGradient>
<linearGradient id="paint54_linear_198_898" x1="446.698" y1="32.4644" x2="996.341" y2="580.009" gradientUnits="userSpaceOnUse">
<stop stop-color="#1BA4E5" stop-opacity="0.5"/>
<stop offset="1" stop-color="#B40FE7"/>
</linearGradient>
<linearGradient id="paint55_linear_198_898" x1="447.164" y1="35.0035" x2="1000.04" y2="585.764" gradientUnits="userSpaceOnUse">
<stop stop-color="#1BA4E5" stop-opacity="0.5"/>
<stop offset="1" stop-color="#B40FE7"/>
</linearGradient>
<linearGradient id="paint56_linear_198_898" x1="447.62" y1="37.553" x2="1003.73" y2="591.54" gradientUnits="userSpaceOnUse">
<stop stop-color="#1BA4E5" stop-opacity="0.5"/>
<stop offset="1" stop-color="#B40FE7"/>
</linearGradient>
<linearGradient id="paint57_linear_198_898" x1="448.067" y1="40.1107" x2="1007.43" y2="597.34" gradientUnits="userSpaceOnUse">
<stop stop-color="#1BA4E5" stop-opacity="0.5"/>
<stop offset="1" stop-color="#B40FE7"/>
</linearGradient>
<linearGradient id="paint58_linear_198_898" x1="448.506" y1="42.6772" x2="1011.13" y2="603.157" gradientUnits="userSpaceOnUse">
<stop stop-color="#1BA4E5" stop-opacity="0.5"/>
<stop offset="1" stop-color="#B40FE7"/>
</linearGradient>
<linearGradient id="paint59_linear_198_898" x1="448.938" y1="45.2503" x2="1014.84" y2="608.996" gradientUnits="userSpaceOnUse">
<stop stop-color="#1BA4E5" stop-opacity="0.5"/>
<stop offset="1" stop-color="#B40FE7"/>
</linearGradient>
<linearGradient id="paint60_linear_198_898" x1="449.362" y1="47.8311" x2="1018.56" y2="614.859" gradientUnits="userSpaceOnUse">
<stop stop-color="#1BA4E5" stop-opacity="0.5"/>
<stop offset="1" stop-color="#B40FE7"/>
</linearGradient>
<linearGradient id="paint61_linear_198_898" x1="449.755" y1="50.4432" x2="1022.27" y2="620.773" gradientUnits="userSpaceOnUse">
<stop stop-color="#1BA4E5" stop-opacity="0.5"/>
<stop offset="1" stop-color="#B40FE7"/>
</linearGradient>
</defs>
</svg>
