<svg width="134" height="34" viewBox="0 0 134 34" fill="none" xmlns="http://www.w3.org/2000/svg">
<g clip-path="url(#clip0_218_1260)">
<g clip-path="url(#clip1_218_1260)">
<path fill-rule="evenodd" clip-rule="evenodd" d="M23.5939 28.5659L22.0001 32.5884H22.3942L22.873 31.3256H24.7203L25.1879 32.5884H25.5822L24.0278 28.5659H23.5939ZM23.7967 28.89L24.5908 31.0018H23.0026L23.7967 28.89Z" fill="white"/>
<mask id="mask0_218_1260" style="mask-type:luminance" maskUnits="userSpaceOnUse" x="25" y="29" width="4" height="5">
<path d="M25.875 29.6161H28.556V33.7728H25.875V29.6161Z" fill="white"/>
</mask>
<g mask="url(#mask0_218_1260)">
<path fill-rule="evenodd" clip-rule="evenodd" d="M28.218 31.1526C28.218 30.9776 28.1964 30.8146 28.1532 30.6637C28.1101 30.5129 28.0471 30.3824 27.9645 30.2726C27.8818 30.1629 27.7788 30.0763 27.6547 30.0129C27.5308 29.9497 27.3901 29.9179 27.2324 29.9179C27.0896 29.9179 26.9583 29.9431 26.8381 29.9934C26.718 30.0435 26.6128 30.1172 26.5228 30.2139C26.4325 30.311 26.3621 30.429 26.3114 30.5687C26.2607 30.7085 26.2355 30.8697 26.2355 31.052C26.2279 31.2344 26.2429 31.405 26.2804 31.5632C26.3181 31.7216 26.3781 31.8604 26.4607 31.9794C26.5432 32.0987 26.6485 32.1927 26.7761 32.2616C26.9037 32.3306 27.0558 32.3649 27.2324 32.3649C27.3862 32.3649 27.5243 32.3323 27.6463 32.2671C27.7684 32.2019 27.8716 32.1146 27.9561 32.0046C28.0406 31.8946 28.1054 31.7662 28.1504 31.619C28.1955 31.4719 28.218 31.3166 28.218 31.1526ZM28.218 29.6944H28.556V32.3089C28.556 32.5027 28.5363 32.688 28.4967 32.8649C28.4574 33.0417 28.387 33.1974 28.2856 33.3313C28.1842 33.4656 28.0453 33.5726 27.8688 33.6525C27.6922 33.7327 27.4651 33.7728 27.1873 33.7728C26.9733 33.7728 26.7893 33.7456 26.6353 33.6916C26.4814 33.6376 26.3556 33.5696 26.2579 33.4879C26.1603 33.4057 26.0862 33.3154 26.0355 33.2169C25.9848 33.1181 25.9576 33.026 25.9539 32.9404H26.3144C26.3406 33.0483 26.3818 33.1368 26.4383 33.2058C26.4945 33.2747 26.5612 33.3287 26.6381 33.3676C26.7152 33.4068 26.8006 33.4339 26.8944 33.4488C26.9882 33.4635 27.0859 33.4711 27.1873 33.4711C27.4162 33.4711 27.6003 33.4319 27.7392 33.3538C27.8781 33.2755 27.9832 33.173 28.0547 33.0465C28.1259 32.9198 28.1719 32.7763 28.1927 32.6162C28.2133 32.4561 28.2217 32.2923 28.218 32.1245C28.1091 32.3034 27.9598 32.4384 27.7702 32.5298C27.5806 32.621 27.3824 32.6666 27.1761 32.6666C26.9544 32.6666 26.7622 32.6246 26.5987 32.5408C26.4353 32.457 26.3003 32.3454 26.1933 32.2058C26.0862 32.0659 26.0063 31.9031 25.9539 31.7169C25.9012 31.5306 25.875 31.337 25.875 31.1359C25.875 30.9235 25.8993 30.7243 25.9482 30.5381C25.997 30.3519 26.0748 30.1907 26.182 30.0547C26.289 29.919 26.4251 29.8118 26.5902 29.7336C26.7555 29.6554 26.9564 29.6161 27.1928 29.6161C27.2868 29.6161 27.3824 29.6292 27.4801 29.6554C27.5778 29.6815 27.6725 29.7187 27.7646 29.7672C27.8566 29.8154 27.9411 29.877 28.0181 29.9514C28.095 30.026 28.158 30.1098 28.2066 30.2028H28.218V29.6944Z" fill="white"/>
</g>
<path fill-rule="evenodd" clip-rule="evenodd" d="M31.4058 30.9403C31.4058 30.7987 31.3861 30.6657 31.3468 30.5408C31.3072 30.4161 31.2489 30.3079 31.172 30.2167C31.0951 30.1256 30.9984 30.053 30.8819 29.999C30.7655 29.945 30.6321 29.9178 30.4821 29.9178C30.3318 29.9178 30.1994 29.9459 30.085 30.0016C29.9704 30.0576 29.8729 30.132 29.7922 30.225C29.7114 30.3182 29.6466 30.4262 29.5979 30.5492C29.5489 30.6721 29.5171 30.8025 29.5021 30.9403H31.4058ZM29.5021 31.2196C29.5021 31.376 29.5227 31.5241 29.5641 31.6637C29.6053 31.8035 29.6662 31.9246 29.747 32.0268C29.8278 32.1294 29.9301 32.2112 30.054 32.2725C30.1779 32.3341 30.3207 32.3648 30.4821 32.3648C30.7036 32.3648 30.8933 32.3072 31.0509 32.1917C31.2086 32.0763 31.3137 31.9122 31.3665 31.7H31.7436C31.7024 31.8378 31.648 31.9653 31.5804 32.0826C31.5128 32.2001 31.4283 32.3026 31.3269 32.3901C31.2255 32.4776 31.1053 32.5455 30.9664 32.594C30.8275 32.6422 30.6661 32.6666 30.4821 32.6666C30.2492 32.6666 30.0484 32.6273 29.8794 32.5492C29.7104 32.4711 29.5715 32.3641 29.4627 32.2279C29.3537 32.092 29.2731 31.9319 29.2205 31.7475C29.1678 31.5631 29.1416 31.3649 29.1416 31.1525C29.1416 30.9403 29.1726 30.741 29.2346 30.5548C29.2965 30.3685 29.3847 30.2057 29.4993 30.0659C29.6139 29.9262 29.7537 29.8164 29.9188 29.7363C30.0841 29.6562 30.2719 29.6162 30.4821 29.6162C30.8838 29.6162 31.1993 29.7531 31.4283 30.0268C31.6573 30.3006 31.77 30.6983 31.7663 31.2196H29.5021Z" fill="white"/>
<path fill-rule="evenodd" clip-rule="evenodd" d="M32.6505 32.5883H32.3125V29.6944H32.6505V30.0967C32.7857 29.9552 32.9254 29.8397 33.07 29.7504C33.2147 29.6609 33.3883 29.6161 33.591 29.6161C33.7713 29.6161 33.9384 29.6469 34.0924 29.7084C34.2463 29.7697 34.3758 29.8769 34.4809 30.0296C34.5522 30.1339 34.5946 30.2411 34.6077 30.3509C34.6207 30.4607 34.6274 30.5753 34.6274 30.6945V32.5883H34.2894V30.7C34.2894 30.4393 34.2313 30.2437 34.1149 30.1133C33.9984 29.983 33.8051 29.9178 33.5347 29.9178C33.4296 29.9178 33.3339 29.9339 33.2474 29.9654C33.161 29.9972 33.0832 30.0389 33.0138 30.091C32.9443 30.1433 32.8851 30.2028 32.8362 30.2699C32.7876 30.3369 32.7499 30.4076 32.7237 30.4821C32.6899 30.5753 32.6693 30.6648 32.6618 30.7503C32.6542 30.8359 32.6505 30.929 32.6505 31.0295V32.5883Z" fill="white"/>
<path fill-rule="evenodd" clip-rule="evenodd" d="M37.3986 30.605C37.3385 30.3891 37.2354 30.2205 37.0889 30.0995C36.9423 29.9785 36.7564 29.9179 36.5313 29.9179C36.3584 29.9179 36.2102 29.9533 36.0864 30.024C35.9623 30.0947 35.8609 30.1889 35.7822 30.3062C35.7032 30.4235 35.6451 30.5556 35.6074 30.7028C35.5699 30.85 35.5511 30.9981 35.5511 31.1469C35.5511 31.2996 35.569 31.4487 35.6046 31.5938C35.6403 31.7392 35.6977 31.8696 35.7766 31.9849C35.8553 32.1004 35.9567 32.1925 36.0806 32.2614C36.2045 32.3305 36.3547 32.3649 36.5313 32.3649C36.7828 32.3649 36.9847 32.296 37.1368 32.1583C37.2889 32.0205 37.3854 31.8304 37.4267 31.5883H37.7873C37.7572 31.7484 37.7093 31.8947 37.6436 32.0269C37.5778 32.1592 37.4933 32.2726 37.3903 32.3675C37.2868 32.4626 37.1639 32.5361 37.0213 32.5884C36.8784 32.6405 36.7152 32.6665 36.5313 32.6665C36.2985 32.6665 36.0975 32.6274 35.9285 32.5493C35.7595 32.471 35.6206 32.364 35.5118 32.2281C35.4028 32.0919 35.3222 31.9309 35.2696 31.7447C35.2169 31.5587 35.1907 31.3593 35.1907 31.1469C35.1907 30.946 35.2198 30.7531 35.2781 30.5687C35.3363 30.3845 35.4217 30.2215 35.5342 30.0798C35.647 29.9383 35.7868 29.8258 35.954 29.7418C36.1209 29.658 36.3135 29.6161 36.5313 29.6161C36.8692 29.6161 37.1423 29.6963 37.3507 29.8565C37.5591 30.0166 37.6895 30.2662 37.7422 30.605H37.3986Z" fill="white"/>
<path fill-rule="evenodd" clip-rule="evenodd" d="M40.4626 30.9403C40.4626 30.7987 40.4429 30.6657 40.4035 30.5408C40.364 30.4161 40.3057 30.3079 40.2288 30.2167C40.1519 30.1256 40.0551 30.053 39.9387 29.999C39.8222 29.945 39.6889 29.9178 39.5388 29.9178C39.3886 29.9178 39.2562 29.9459 39.1418 30.0016C39.0272 30.0576 38.9297 30.132 38.8489 30.225C38.7681 30.3182 38.7033 30.4262 38.6547 30.5492C38.6056 30.6721 38.5739 30.8025 38.5588 30.9403H40.4626ZM38.5588 31.2196C38.5588 31.376 38.5794 31.5241 38.6209 31.6637C38.6621 31.8035 38.723 31.9246 38.8038 32.0268C38.8846 32.1294 38.9869 32.2112 39.1108 32.2725C39.2346 32.3341 39.3775 32.3648 39.5388 32.3648C39.7604 32.3648 39.95 32.3072 40.1077 32.1917C40.2654 32.0763 40.3705 31.9122 40.4232 31.7H40.8004C40.7592 31.8378 40.7048 31.9653 40.6372 32.0826C40.5696 32.2001 40.4851 32.3026 40.3837 32.3901C40.2823 32.4776 40.1621 32.5455 40.0232 32.594C39.8843 32.6422 39.7229 32.6666 39.5388 32.6666C39.306 32.6666 39.1052 32.6273 38.9362 32.5492C38.7672 32.4711 38.6283 32.3641 38.5195 32.2279C38.4104 32.092 38.3298 31.9319 38.2773 31.7475C38.2245 31.5631 38.1984 31.3649 38.1984 31.1525C38.1984 30.9403 38.2294 30.741 38.2914 30.5548C38.3532 30.3685 38.4415 30.2057 38.556 30.0659C38.6706 29.9262 38.8105 29.8164 38.9756 29.7363C39.1409 29.6562 39.3286 29.6162 39.5388 29.6162C39.9405 29.6162 40.2561 29.7531 40.4851 30.0268C40.7141 30.3006 40.8268 30.6983 40.8231 31.2196H38.5588Z" fill="white"/>
<path fill-rule="evenodd" clip-rule="evenodd" d="M45.0754 31.1301C45.0754 30.9663 45.0529 30.8109 45.0078 30.6637C44.9628 30.5167 44.898 30.3881 44.8135 30.2783C44.729 30.1683 44.6258 30.0808 44.5038 30.0156C44.3818 29.9506 44.2436 29.9178 44.0898 29.9178C43.9132 29.9178 43.7611 29.9523 43.6335 30.0212C43.5059 30.09 43.4006 30.1842 43.3182 30.3034C43.2355 30.4225 43.1755 30.5613 43.1378 30.7195C43.1003 30.8779 43.0853 31.0483 43.0929 31.2307C43.0929 31.4132 43.1181 31.5742 43.1688 31.714C43.2195 31.8537 43.2899 31.9719 43.3802 32.0688C43.4703 32.1655 43.5754 32.2392 43.6955 32.2895C43.8157 32.3396 43.947 32.3649 44.0898 32.3649C44.2475 32.3649 44.3883 32.3332 44.5121 32.2698C44.6362 32.2066 44.7392 32.12 44.8219 32.0101C44.9045 31.9003 44.9675 31.7699 45.0106 31.619C45.0538 31.4681 45.0754 31.3053 45.0754 31.1301ZM45.0754 28.5659H45.4134V32.5883H45.0754V32.0799H45.0641C45.0154 32.177 44.9524 32.2615 44.8756 32.3341C44.7985 32.4069 44.714 32.4673 44.6221 32.5155C44.53 32.5642 44.4352 32.6012 44.3376 32.6274C44.2399 32.6535 44.1442 32.6666 44.0503 32.6666C43.8138 32.6666 43.6129 32.6274 43.4476 32.5493C43.2825 32.471 43.1464 32.3639 43.0394 32.228C42.9322 32.092 42.8544 31.931 42.8056 31.7448C42.7568 31.5586 42.7324 31.3593 42.7324 31.147C42.7324 30.9459 42.7586 30.7521 42.8114 30.5659C42.8637 30.3798 42.9436 30.2168 43.0507 30.0772C43.1577 29.9373 43.2927 29.8257 43.4561 29.7419C43.6196 29.6581 43.8118 29.6161 44.0335 29.6161C44.2399 29.6161 44.438 29.6618 44.6276 29.7529C44.8173 29.8445 44.9666 29.9793 45.0754 30.1582V28.5659Z" fill="white"/>
<path fill-rule="evenodd" clip-rule="evenodd" d="M48.2633 30.9403C48.2633 30.7987 48.2436 30.6657 48.2042 30.5408C48.1646 30.4161 48.1063 30.3079 48.0294 30.2167C47.9526 30.1256 47.8558 30.053 47.7394 29.999C47.6229 29.945 47.4896 29.9178 47.3395 29.9178C47.1893 29.9178 47.0569 29.9459 46.9425 30.0016C46.8279 30.0576 46.7304 30.132 46.6496 30.225C46.5688 30.3182 46.504 30.4262 46.4553 30.5492C46.4063 30.6721 46.3745 30.8025 46.3595 30.9403H48.2633ZM46.3595 31.2196C46.3595 31.376 46.3801 31.5241 46.4215 31.6637C46.4628 31.8035 46.5237 31.9246 46.6045 32.0268C46.6852 32.1294 46.7876 32.2112 46.9114 32.2725C47.0353 32.3341 47.1781 32.3648 47.3395 32.3648C47.5611 32.3648 47.7507 32.3072 47.9084 32.1917C48.066 32.0763 48.1711 31.9122 48.2239 31.7H48.6011C48.5598 31.8378 48.5054 31.9653 48.4378 32.0826C48.3702 32.2001 48.2857 32.3026 48.1843 32.3901C48.0829 32.4776 47.9628 32.5455 47.8239 32.594C47.6849 32.6422 47.5236 32.6666 47.3395 32.6666C47.1066 32.6666 46.9059 32.6273 46.7369 32.5492C46.5679 32.4711 46.429 32.3641 46.3201 32.2279C46.2111 32.092 46.1305 31.9319 46.078 31.7475C46.0252 31.5631 45.999 31.3649 45.999 31.1525C45.999 30.9403 46.03 30.741 46.0921 30.5548C46.1539 30.3685 46.2421 30.2057 46.3567 30.0659C46.4713 29.9262 46.6111 29.8164 46.7762 29.7363C46.9415 29.6562 47.1293 29.6162 47.3395 29.6162C47.7412 29.6162 48.0567 29.7531 48.2857 30.0268C48.5147 30.3006 48.6274 30.6983 48.6237 31.2196H46.3595Z" fill="white"/>
<path fill-rule="evenodd" clip-rule="evenodd" d="M51.0568 32.2643H51.9748C52.1475 32.2643 52.31 32.254 52.4619 32.2335C52.614 32.2131 52.7689 32.1619 52.9268 32.0799C53.0618 32.0129 53.1727 31.9217 53.259 31.8062C53.3454 31.6909 53.4139 31.5651 53.4646 31.4291C53.5153 31.2932 53.551 31.1508 53.5716 31.0017C53.5922 30.8527 53.6026 30.7094 53.6026 30.5716C53.6026 30.4261 53.5931 30.2783 53.5744 30.1273C53.5556 29.9766 53.52 29.8333 53.4674 29.6972C53.4148 29.5612 53.3435 29.4365 53.2535 29.3228C53.1632 29.2094 53.0468 29.1152 52.9041 29.0408C52.784 28.9774 52.6413 28.9366 52.4762 28.9178C52.3108 28.8992 52.1438 28.8899 51.9748 28.8899H51.0568V32.2643ZM50.6737 32.5883V28.5659H52.0593C52.172 28.5659 52.2827 28.5687 52.3916 28.5744C52.5004 28.5799 52.6075 28.5928 52.7127 28.6134C52.8178 28.6339 52.9201 28.6647 53.0196 28.7055C53.119 28.7464 53.2158 28.8004 53.3097 28.8677C53.4449 28.9645 53.5556 29.0828 53.642 29.2223C53.7283 29.3619 53.7969 29.5093 53.8476 29.6636C53.8983 29.8184 53.9339 29.9746 53.9547 30.133C53.9751 30.2912 53.9855 30.4375 53.9855 30.5716C53.9855 30.7055 53.9772 30.8415 53.9603 30.9793C53.9434 31.1171 53.9161 31.2523 53.8786 31.3845C53.8411 31.5166 53.7913 31.6433 53.7293 31.7642C53.6674 31.8852 53.5894 31.9961 53.4956 32.0967C53.4017 32.2009 53.2993 32.2848 53.1886 32.3481C53.0778 32.4115 52.9613 32.4607 52.8395 32.4962C52.7173 32.5316 52.5906 32.5557 52.4592 32.5686C52.3277 32.5819 52.1945 32.5883 52.0593 32.5883H50.6737Z" fill="white"/>
<path fill-rule="evenodd" clip-rule="evenodd" d="M55.4161 29.3816L56.0413 28.6049H56.4749L55.7033 29.3816H55.4161ZM56.689 30.9403C56.689 30.7987 56.6693 30.6657 56.63 30.5408C56.5904 30.4161 56.5321 30.3079 56.4552 30.2168C56.3783 30.1256 56.2816 30.053 56.1651 29.999C56.0487 29.9451 55.9153 29.9178 55.7653 29.9178C55.615 29.9178 55.4826 29.9458 55.3682 30.0016C55.2536 30.0576 55.1561 30.132 55.0754 30.2251C54.9946 30.3183 54.9298 30.4262 54.8811 30.5493C54.8321 30.6721 54.8003 30.8026 54.7853 30.9403H56.689ZM54.7853 31.2196C54.7853 31.376 54.8059 31.5241 54.8473 31.6637C54.8885 31.8034 54.9494 31.9246 55.0302 32.0268C55.111 32.1294 55.2133 32.2112 55.3372 32.2726C55.4611 32.3341 55.6039 32.3648 55.7653 32.3648C55.9868 32.3648 56.1765 32.3072 56.3341 32.1917C56.4918 32.0764 56.5969 31.9122 56.6497 31.7H57.0268C56.9856 31.8378 56.9312 31.9653 56.8636 32.0826C56.796 32.2002 56.7115 32.3024 56.6101 32.3901C56.5087 32.4776 56.3885 32.5456 56.2496 32.5938C56.1107 32.6423 55.9493 32.6666 55.7653 32.6666C55.5324 32.6666 55.3316 32.6273 55.1626 32.5492C54.9936 32.4709 54.8547 32.3639 54.7459 32.228C54.6369 32.092 54.5563 31.9319 54.5037 31.7476C54.451 31.5632 54.4248 31.3649 54.4248 31.1526C54.4248 30.9403 54.4558 30.741 54.5178 30.5548C54.5797 30.3686 54.6679 30.2057 54.7825 30.0659C54.8971 29.9263 55.0369 29.8165 55.202 29.7363C55.3673 29.6562 55.5551 29.6161 55.7653 29.6161C56.167 29.6161 56.4825 29.7531 56.7115 30.0268C56.9405 30.3006 57.0532 30.6981 57.0495 31.2196H54.7853Z" fill="white"/>
<path fill-rule="evenodd" clip-rule="evenodd" d="M57.2861 29.6944H57.6522L58.5984 32.1749L59.5446 29.6944H59.9108L58.7787 32.5883H58.4013L57.2861 29.6944Z" fill="white"/>
<path fill-rule="evenodd" clip-rule="evenodd" d="M62.4116 30.9403C62.4116 30.7987 62.3919 30.6657 62.3525 30.5408C62.313 30.4161 62.2546 30.3079 62.1778 30.2167C62.1009 30.1256 62.0041 30.053 61.8877 29.999C61.7712 29.945 61.6379 29.9178 61.4878 29.9178C61.3376 29.9178 61.2052 29.9459 61.0908 30.0016C60.9762 30.0576 60.8787 30.132 60.7979 30.225C60.7171 30.3182 60.6523 30.4262 60.6036 30.5492C60.5546 30.6721 60.5229 30.8025 60.5078 30.9403H62.4116ZM60.5078 31.2196C60.5078 31.376 60.5284 31.5241 60.5698 31.6637C60.6111 31.8035 60.672 31.9246 60.7528 32.0268C60.8336 32.1294 60.9359 32.2112 61.0598 32.2725C61.1836 32.3341 61.3264 32.3648 61.4878 32.3648C61.7094 32.3648 61.899 32.3072 62.0567 32.1917C62.2143 32.0763 62.3195 31.9122 62.3722 31.7H62.7494C62.7082 31.8378 62.6537 31.9653 62.5861 32.0826C62.5185 32.2001 62.434 32.3026 62.3326 32.3901C62.2312 32.4776 62.1111 32.5455 61.9722 32.594C61.8333 32.6422 61.6719 32.6666 61.4878 32.6666C61.2549 32.6666 61.0542 32.6273 60.8852 32.5492C60.7162 32.4711 60.5773 32.3641 60.4684 32.2279C60.3594 32.092 60.2788 31.9319 60.2263 31.7475C60.1735 31.5631 60.1473 31.3649 60.1473 31.1525C60.1473 30.9403 60.1784 30.741 60.2404 30.5548C60.3022 30.3685 60.3904 30.2057 60.505 30.0659C60.6196 29.9262 60.7595 29.8164 60.9246 29.7363C61.0898 29.6562 61.2776 29.6162 61.4878 29.6162C61.8895 29.6162 62.2051 29.7531 62.434 30.0268C62.663 30.3006 62.7758 30.6983 62.772 31.2196H60.5078Z" fill="white"/>
<mask id="mask1_218_1260" style="mask-type:luminance" maskUnits="userSpaceOnUse" x="22" y="-1" width="91" height="35">
<path d="M22 33.7727H112.893V-0.315796H22V33.7727Z" fill="white"/>
</mask>
<g mask="url(#mask1_218_1260)">
<path fill-rule="evenodd" clip-rule="evenodd" d="M63.369 32.5882H63.707V28.5658H63.369V32.5882Z" fill="white"/>
</g>
<mask id="mask2_218_1260" style="mask-type:luminance" maskUnits="userSpaceOnUse" x="22" y="-1" width="91" height="35">
<path d="M22 33.7727H112.893V-0.315796H22V33.7727Z" fill="white"/>
</mask>
<g mask="url(#mask2_218_1260)">
<path fill-rule="evenodd" clip-rule="evenodd" d="M66.6075 31.1414C66.6075 30.9701 66.5887 30.8098 66.5512 30.661C66.5137 30.512 66.4554 30.3825 66.3767 30.2725C66.2977 30.1629 66.1963 30.0763 66.0725 30.0128C65.9486 29.9496 65.7965 29.9177 65.6163 29.9177C65.4397 29.9177 65.2886 29.9523 65.1628 30.0212C65.0369 30.0901 64.9348 30.1813 64.8558 30.295C64.7771 30.4084 64.7188 30.5389 64.6813 30.686C64.6438 30.8332 64.625 30.9848 64.625 31.1414C64.625 31.3201 64.6465 31.485 64.6898 31.6358C64.7329 31.7867 64.7959 31.916 64.8783 32.024C64.961 32.1321 65.0642 32.2159 65.1881 32.2754C65.3121 32.3349 65.4548 32.3649 65.6163 32.3649C65.7928 32.3649 65.9438 32.3305 66.0697 32.2614C66.1954 32.1925 66.2977 32.1004 66.3767 31.9849C66.4554 31.8696 66.5137 31.7392 66.5512 31.5938C66.5887 31.4487 66.6075 31.2978 66.6075 31.1414ZM65.6163 32.6665C65.4284 32.6628 65.2531 32.6293 65.0897 32.5659C64.9262 32.5027 64.7836 32.4077 64.6616 32.2811C64.5396 32.1544 64.4428 31.9962 64.3715 31.806C64.3002 31.6161 64.2645 31.3947 64.2645 31.1414C64.2645 30.929 64.2928 30.7308 64.349 30.5464C64.4053 30.362 64.4898 30.201 64.6025 30.063C64.7151 29.9253 64.8558 29.8166 65.0248 29.7363C65.1938 29.6561 65.3909 29.6161 65.6163 29.6161C65.8453 29.6161 66.0442 29.6561 66.2132 29.7363C66.3822 29.8166 66.523 29.9245 66.6357 30.0603C66.7483 30.1962 66.8318 30.3574 66.8863 30.5436C66.9407 30.7299 66.968 30.929 66.968 31.1414C66.968 31.3724 66.936 31.5809 66.8723 31.767C66.8084 31.9532 66.7174 32.1133 66.5991 32.2476C66.4808 32.3815 66.338 32.4849 66.1711 32.5574C66.0039 32.6302 65.819 32.6665 65.6163 32.6665Z" fill="white"/>
</g>
<mask id="mask3_218_1260" style="mask-type:luminance" maskUnits="userSpaceOnUse" x="22" y="-1" width="91" height="35">
<path d="M22 33.7727H112.893V-0.315796H22V33.7727Z" fill="white"/>
</mask>
<g mask="url(#mask3_218_1260)">
<path fill-rule="evenodd" clip-rule="evenodd" d="M67.8521 31.1526C67.8521 31.3166 67.8748 31.4719 67.9197 31.619C67.9648 31.7662 68.0296 31.8946 68.1141 32.0046C68.1984 32.1146 68.3019 32.2019 68.4239 32.2671C68.5457 32.3323 68.6839 32.3649 68.8379 32.3649C69.0104 32.3649 69.1618 32.3306 69.2912 32.2616C69.4206 32.1927 69.5267 32.0987 69.6093 31.9794C69.692 31.8604 69.7521 31.7216 69.7897 31.5632C69.8274 31.405 69.8422 31.2344 69.8346 31.052C69.8346 30.8697 69.8095 30.7085 69.7588 30.5687C69.7079 30.429 69.6375 30.311 69.5473 30.2139C69.4574 30.1172 69.3521 30.0435 69.2321 29.9934C69.1118 29.9431 68.9805 29.9179 68.8379 29.9179C68.6802 29.9179 68.5392 29.9497 68.4154 30.0129C68.2915 30.0763 68.1882 30.1629 68.1056 30.2726C68.023 30.3824 67.96 30.5129 67.9171 30.6637C67.8736 30.8146 67.8521 30.9776 67.8521 31.1526ZM67.8521 33.7279H67.5143V29.6944H67.8521V30.2028H67.8636C67.9121 30.1098 67.975 30.026 68.0521 29.9514C68.129 29.877 68.2135 29.8154 68.3054 29.7672C68.3977 29.7187 68.4923 29.6815 68.5901 29.6554C68.6876 29.6292 68.7835 29.6161 68.8774 29.6161C69.1138 29.6161 69.3148 29.6554 69.4799 29.7336C69.6452 29.8118 69.7813 29.919 69.8883 30.0547C69.9952 30.1907 70.0732 30.3519 70.1219 30.5381C70.1707 30.7243 70.1951 30.9235 70.1951 31.1359C70.1951 31.337 70.1691 31.5306 70.1163 31.7169C70.0638 31.9031 69.9839 32.0659 69.8769 32.2057C69.77 32.3454 69.6348 32.457 69.4715 32.5408C69.3083 32.6246 69.1157 32.6666 68.8941 32.6666C68.6876 32.6666 68.4896 32.621 68.2998 32.5298C68.1104 32.4384 67.9611 32.3034 67.8521 32.1245V33.7279Z" fill="white"/>
</g>
<mask id="mask4_218_1260" style="mask-type:luminance" maskUnits="userSpaceOnUse" x="22" y="-1" width="91" height="35">
<path d="M22 33.7727H112.893V-0.315796H22V33.7727Z" fill="white"/>
</mask>
<g mask="url(#mask4_218_1260)">
<path fill-rule="evenodd" clip-rule="evenodd" d="M71.1809 31.1526C71.1809 31.3166 71.2034 31.4719 71.2483 31.619C71.2934 31.7662 71.3583 31.8946 71.4428 32.0046C71.5273 32.1146 71.6305 32.2019 71.7525 32.2671C71.8744 32.3323 72.0125 32.3649 72.1665 32.3649C72.3392 32.3649 72.4904 32.3306 72.6198 32.2616C72.7494 32.1927 72.8555 32.0987 72.9381 31.9794C73.0206 31.8604 73.0808 31.7216 73.1185 31.5632C73.156 31.405 73.171 31.2344 73.1634 31.052C73.1634 30.8697 73.1381 30.7085 73.0874 30.5687C73.0367 30.429 72.9662 30.311 72.8761 30.2139C72.7862 30.1172 72.6809 30.0435 72.5608 29.9934C72.4406 29.9431 72.3091 29.9179 72.1665 29.9179C72.0088 29.9179 71.868 29.9497 71.744 30.0129C71.6201 30.0763 71.5169 30.1629 71.4342 30.2726C71.3518 30.3824 71.2888 30.5129 71.2457 30.6637C71.2024 30.8146 71.1809 30.9776 71.1809 31.1526ZM71.1809 33.7279H70.8429V29.6944H71.1809V30.2028H71.1922C71.2409 30.1098 71.3038 30.026 71.3807 29.9514C71.4576 29.877 71.5421 29.8154 71.6342 29.7672C71.7263 29.7187 71.8209 29.6815 71.9187 29.6554C72.0162 29.6292 72.1121 29.6161 72.206 29.6161C72.4425 29.6161 72.6434 29.6554 72.8087 29.7336C72.9738 29.8118 73.1099 29.919 73.2169 30.0547C73.3239 30.1907 73.4019 30.3519 73.4507 30.5381C73.4994 30.7243 73.5239 30.9235 73.5239 31.1359C73.5239 31.337 73.4977 31.5306 73.4449 31.7169C73.3924 31.9031 73.3127 32.0659 73.2056 32.2057C73.0986 32.3454 72.9636 32.457 72.8001 32.5408C72.6369 32.6246 72.4443 32.6666 72.2228 32.6666C72.0162 32.6666 71.8183 32.621 71.6286 32.5298C71.439 32.4384 71.2897 32.3034 71.1809 32.1245V33.7279Z" fill="white"/>
</g>
<mask id="mask5_218_1260" style="mask-type:luminance" maskUnits="userSpaceOnUse" x="22" y="-1" width="91" height="35">
<path d="M22 33.7727H112.893V-0.315796H22V33.7727Z" fill="white"/>
</mask>
<g mask="url(#mask5_218_1260)">
<path fill-rule="evenodd" clip-rule="evenodd" d="M76.2443 30.9403C76.2443 30.7987 76.2246 30.6657 76.1852 30.5408C76.1456 30.4161 76.0873 30.3079 76.0105 30.2167C75.9334 30.1256 75.8368 30.053 75.7206 29.999C75.6041 29.945 75.4708 29.9178 75.3205 29.9178C75.1703 29.9178 75.0381 29.9459 74.9235 30.0016C74.8089 30.0576 74.7112 30.132 74.6306 30.225C74.5498 30.3182 74.485 30.4262 74.4363 30.5492C74.3875 30.6721 74.3556 30.8025 74.3405 30.9403H76.2443ZM74.3405 31.2196C74.3405 31.376 74.3611 31.5241 74.4025 31.6637C74.4438 31.8035 74.5049 31.9246 74.5855 32.0268C74.6663 32.1294 74.7686 32.2112 74.8926 32.2725C75.0165 32.3341 75.159 32.3648 75.3205 32.3648C75.5421 32.3648 75.7317 32.3072 75.8894 32.1917C76.047 32.0763 76.1522 31.9122 76.2047 31.7H76.5821C76.5409 31.8378 76.4864 31.9653 76.4188 32.0826C76.3512 32.2001 76.2667 32.3026 76.1653 32.3901C76.0639 32.4776 75.9438 32.5455 75.8051 32.594C75.666 32.6422 75.5046 32.6666 75.3205 32.6666C75.0876 32.6666 74.8867 32.6273 74.7179 32.5492C74.5489 32.4711 74.41 32.3641 74.3011 32.2279C74.1921 32.092 74.1115 31.9319 74.0588 31.7475C74.0062 31.5631 73.9802 31.3649 73.9802 31.1525C73.9802 30.9403 74.0111 30.741 74.0731 30.5548C74.1351 30.3685 74.2231 30.2057 74.3377 30.0659C74.4523 29.9262 74.5922 29.8164 74.7573 29.7363C74.9225 29.6562 75.1103 29.6162 75.3205 29.6162C75.7222 29.6162 76.0378 29.7531 76.2667 30.0268C76.4957 30.3006 76.6085 30.6983 76.6046 31.2196H74.3405Z" fill="white"/>
</g>
<mask id="mask6_218_1260" style="mask-type:luminance" maskUnits="userSpaceOnUse" x="22" y="-1" width="91" height="35">
<path d="M22 33.7727H112.893V-0.315796H22V33.7727Z" fill="white"/>
</mask>
<g mask="url(#mask6_218_1260)">
<path fill-rule="evenodd" clip-rule="evenodd" d="M77.444 32.5883H77.1062V29.6944H77.444V30.1302H77.4553C77.5415 29.9626 77.6654 29.8351 77.8271 29.7474C77.9885 29.6601 78.165 29.6161 78.3564 29.6161C78.4916 29.6161 78.6062 29.631 78.7 29.6609C78.794 29.6909 78.8736 29.7307 78.9394 29.7811C79.0049 29.8312 79.0595 29.89 79.1028 29.9571C79.1459 30.0239 79.1823 30.0967 79.2124 30.1748C79.3101 29.9849 79.4406 29.8443 79.6041 29.753C79.7673 29.6618 79.9541 29.6161 80.1644 29.6161C80.3634 29.6161 80.522 29.6489 80.6403 29.7139C80.7586 29.7791 80.8496 29.8648 80.9135 29.9709C80.9772 30.0772 81.0196 30.1991 81.0402 30.3369C81.0608 30.4747 81.0712 30.6162 81.0712 30.7615V32.5883H80.7332V30.5884C80.7332 30.3798 80.6892 30.2159 80.601 30.0967C80.5126 29.9775 80.3484 29.9178 80.1081 29.9178C79.9842 29.9178 79.8648 29.9449 79.7504 29.9989C79.6358 30.0529 79.5355 30.1359 79.4492 30.2476C79.4115 30.296 79.3806 30.3527 79.3561 30.418C79.3316 30.483 79.3121 30.551 79.2971 30.6217C79.2818 30.6926 79.2716 30.7634 79.2661 30.8343C79.2603 30.9048 79.2577 30.9702 79.2577 31.0295V32.5883H78.9195V30.5884C78.9195 30.3798 78.8755 30.2159 78.7873 30.0967C78.6991 29.9775 78.5347 29.9178 78.2944 29.9178C78.1705 29.9178 78.0515 29.9449 77.9367 29.9989C77.8221 30.0529 77.7218 30.1359 77.6355 30.2476C77.598 30.296 77.567 30.3527 77.5424 30.418C77.5179 30.483 77.4984 30.551 77.4834 30.6217C77.4683 30.6926 77.4581 30.7634 77.4524 30.8343C77.4468 30.9048 77.444 30.9702 77.444 31.0295V32.5883Z" fill="white"/>
</g>
<mask id="mask7_218_1260" style="mask-type:luminance" maskUnits="userSpaceOnUse" x="22" y="-1" width="91" height="35">
<path d="M22 33.7727H112.893V-0.315796H22V33.7727Z" fill="white"/>
</mask>
<g mask="url(#mask7_218_1260)">
<path fill-rule="evenodd" clip-rule="evenodd" d="M83.8422 30.9403C83.8422 30.7987 83.8225 30.6657 83.7831 30.5408C83.7436 30.4161 83.6852 30.3079 83.6084 30.2167C83.5313 30.1256 83.4347 30.053 83.3185 29.999C83.202 29.945 83.0687 29.9178 82.9184 29.9178C82.7682 29.9178 82.636 29.9459 82.5214 30.0016C82.4068 30.0576 82.3091 30.132 82.2285 30.225C82.1477 30.3182 82.0829 30.4262 82.0342 30.5492C81.9854 30.6721 81.9535 30.8025 81.9384 30.9403H83.8422ZM81.9384 31.2196C81.9384 31.376 81.959 31.5241 82.0004 31.6637C82.0417 31.8035 82.1028 31.9246 82.1834 32.0268C82.2642 32.1294 82.3665 32.2112 82.4905 32.2725C82.6144 32.3341 82.7569 32.3648 82.9184 32.3648C83.14 32.3648 83.3296 32.3072 83.4873 32.1917C83.6449 32.0763 83.7501 31.9122 83.8026 31.7H84.18C84.1388 31.8378 84.0843 31.9653 84.0167 32.0826C83.9491 32.2001 83.8646 32.3026 83.7632 32.3901C83.6618 32.4776 83.5417 32.5455 83.403 32.594C83.2639 32.6422 83.1025 32.6666 82.9184 32.6666C82.6855 32.6666 82.4846 32.6273 82.3158 32.5492C82.1468 32.4711 82.0079 32.3641 81.899 32.2279C81.79 32.092 81.7094 31.9319 81.6567 31.7475C81.6041 31.5631 81.5781 31.3649 81.5781 31.1525C81.5781 30.9403 81.609 30.741 81.671 30.5548C81.733 30.3685 81.821 30.2057 81.9356 30.0659C82.0502 29.9262 82.1901 29.8164 82.3552 29.7363C82.5204 29.6562 82.7082 29.6162 82.9184 29.6162C83.3201 29.6162 83.6357 29.7531 83.8646 30.0268C84.0936 30.3006 84.2064 30.6983 84.2025 31.2196H81.9384Z" fill="white"/>
</g>
<mask id="mask8_218_1260" style="mask-type:luminance" maskUnits="userSpaceOnUse" x="22" y="-1" width="91" height="35">
<path d="M22 33.7727H112.893V-0.315796H22V33.7727Z" fill="white"/>
</mask>
<g mask="url(#mask8_218_1260)">
<path fill-rule="evenodd" clip-rule="evenodd" d="M85.087 32.5883H84.7491V29.6944H85.087V30.0967C85.2223 29.9552 85.362 29.8397 85.5067 29.7504C85.6512 29.6609 85.825 29.6161 86.0276 29.6161C86.2077 29.6161 86.3749 29.6469 86.529 29.7084C86.6828 29.7697 86.8124 29.8769 86.9174 30.0296C86.9887 30.1339 87.031 30.2411 87.0442 30.3509C87.0572 30.4607 87.0641 30.5753 87.0641 30.6945V32.5883H86.7261V30.7C86.7261 30.4393 86.6678 30.2437 86.5515 30.1133C86.4351 29.983 86.2417 29.9178 85.9713 29.9178C85.866 29.9178 85.7704 29.9339 85.684 29.9654C85.5977 29.9972 85.5197 30.0389 85.4502 30.091C85.3808 30.1433 85.3217 30.2028 85.2729 30.2699C85.224 30.3369 85.1865 30.4076 85.1603 30.4821C85.1265 30.5753 85.1059 30.6648 85.0983 30.7503C85.0909 30.8359 85.087 30.929 85.087 31.0295V32.5883Z" fill="white"/>
</g>
<mask id="mask9_218_1260" style="mask-type:luminance" maskUnits="userSpaceOnUse" x="22" y="-1" width="91" height="35">
<path d="M22 33.7727H112.893V-0.315796H22V33.7727Z" fill="white"/>
</mask>
<g mask="url(#mask9_218_1260)">
<path fill-rule="evenodd" clip-rule="evenodd" d="M88.7929 32.5995C88.7515 32.6068 88.697 32.6199 88.6296 32.6387C88.562 32.6571 88.4868 32.6665 88.4042 32.6665C88.2354 32.6665 88.1067 32.6247 88.0184 32.5409C87.93 32.4571 87.886 32.3071 87.886 32.091V29.9737H87.4749V29.6943H87.886V28.8898H88.224V29.6943H88.7704V29.9737H88.224V31.9571C88.224 32.0277 88.2259 32.0892 88.2298 32.1415C88.2333 32.1936 88.2446 32.2362 88.2634 32.2699C88.2822 32.3034 88.3113 32.3276 88.3507 32.3425C88.3902 32.3576 88.4456 32.365 88.5169 32.365C88.562 32.365 88.6079 32.3611 88.6549 32.3537C88.7019 32.3462 88.7479 32.3368 88.7929 32.3257V32.5995Z" fill="white"/>
</g>
<mask id="mask10_218_1260" style="mask-type:luminance" maskUnits="userSpaceOnUse" x="22" y="-1" width="91" height="35">
<path d="M22 33.7727H112.893V-0.315796H22V33.7727Z" fill="white"/>
</mask>
<g mask="url(#mask10_218_1260)">
<path fill-rule="evenodd" clip-rule="evenodd" d="M92.9268 31.1301C92.9268 30.9663 92.9044 30.8109 92.8594 30.6637C92.8143 30.5167 92.7495 30.3881 92.665 30.2783C92.5805 30.1683 92.4772 30.0808 92.3552 30.0156C92.2332 29.9506 92.095 29.9178 91.9413 29.9178C91.7646 29.9178 91.6127 29.9523 91.4849 30.0212C91.3574 30.09 91.2521 30.1842 91.1696 30.3034C91.087 30.4225 91.027 30.5613 90.9893 30.7195C90.9518 30.8779 90.9367 31.0483 90.9443 31.2307C90.9443 31.4132 90.9696 31.5742 91.0203 31.714C91.071 31.8537 91.1416 31.9719 91.2316 32.0688C91.3215 32.1655 91.4268 32.2392 91.547 32.2895C91.6671 32.3396 91.7984 32.3649 91.9413 32.3649C92.0989 32.3649 92.2397 32.3332 92.3637 32.2698C92.4876 32.2066 92.5907 32.12 92.6735 32.0101C92.756 31.9003 92.8189 31.7699 92.862 31.619C92.9053 31.4681 92.9268 31.3053 92.9268 31.1301ZM92.9268 28.5659H93.2648V32.5883H92.9268V32.0799H92.9155C92.8668 32.177 92.8039 32.2615 92.727 32.3341C92.6499 32.4069 92.5654 32.4673 92.4735 32.5155C92.3814 32.5642 92.2867 32.6012 92.189 32.6274C92.0913 32.6535 91.9955 32.6666 91.9017 32.6666C91.6653 32.6666 91.4643 32.6274 91.2991 32.5493C91.134 32.471 90.9978 32.3639 90.8908 32.228C90.7839 32.092 90.7059 31.931 90.657 31.7448C90.6084 31.5586 90.5839 31.3593 90.5839 31.147C90.5839 30.9459 90.61 30.7521 90.6628 30.5659C90.7153 30.3798 90.795 30.2168 90.9022 30.0772C91.0092 29.9373 91.1442 29.8257 91.3076 29.7419C91.4708 29.6581 91.6632 29.6161 91.885 29.6161C92.0913 29.6161 92.2895 29.6618 92.4791 29.7529C92.6687 29.8445 92.818 29.9793 92.9268 30.1582V28.5659Z" fill="white"/>
</g>
<mask id="mask11_218_1260" style="mask-type:luminance" maskUnits="userSpaceOnUse" x="22" y="-1" width="91" height="35">
<path d="M22 33.7727H112.893V-0.315796H22V33.7727Z" fill="white"/>
</mask>
<g mask="url(#mask11_218_1260)">
<path fill-rule="evenodd" clip-rule="evenodd" d="M95.9797 29.6944H96.3175V32.5883H95.9797V32.186C95.9346 32.2383 95.8839 32.2923 95.8276 32.3481C95.7711 32.4039 95.7063 32.4551 95.6333 32.5017C95.56 32.5483 95.4745 32.5874 95.377 32.6191C95.2793 32.6506 95.1666 32.6666 95.039 32.6666C94.8437 32.6666 94.6804 32.6393 94.5489 32.5854C94.4175 32.5316 94.3116 32.4561 94.2308 32.3593C94.1498 32.2624 94.0919 32.1497 94.0562 32.0213C94.0204 31.8929 94.0026 31.7522 94.0026 31.5995V29.6944H94.3406V31.5939C94.3406 31.8434 94.3987 32.0344 94.5151 32.1665C94.6316 32.2987 94.8229 32.3649 95.0897 32.3649C95.2285 32.3649 95.3534 32.338 95.4643 32.2838C95.5748 32.23 95.6679 32.1543 95.7431 32.0576C95.8181 31.9609 95.8762 31.8454 95.9176 31.7111C95.9589 31.5772 95.9797 31.43 95.9797 31.2699V29.6944Z" fill="white"/>
</g>
<mask id="mask12_218_1260" style="mask-type:luminance" maskUnits="userSpaceOnUse" x="22" y="-1" width="91" height="35">
<path d="M22 33.7727H112.893V-0.315796H22V33.7727Z" fill="white"/>
</mask>
<g mask="url(#mask12_218_1260)">
<path fill-rule="evenodd" clip-rule="evenodd" d="M98.9083 32.2643H99.8263C99.999 32.2643 100.162 32.254 100.314 32.2335C100.466 32.2131 100.621 32.1619 100.778 32.0799C100.913 32.0129 101.024 31.9217 101.111 31.8062C101.197 31.6909 101.265 31.5651 101.316 31.4291C101.367 31.2932 101.403 31.1508 101.423 31.0017C101.444 30.8527 101.454 30.7094 101.454 30.5716C101.454 30.4261 101.445 30.2783 101.426 30.1273C101.407 29.9766 101.372 29.8333 101.319 29.6972C101.266 29.5612 101.195 29.4365 101.105 29.3228C101.015 29.2094 100.898 29.1152 100.756 29.0408C100.636 28.9774 100.493 28.9366 100.328 28.9178C100.162 28.8992 99.9955 28.8899 99.8263 28.8899H98.9083V32.2643ZM98.5254 32.5883V28.5659H99.9108C100.024 28.5659 100.134 28.5687 100.243 28.5744C100.352 28.5799 100.459 28.5928 100.564 28.6134C100.669 28.6339 100.772 28.6647 100.871 28.7055C100.971 28.7464 101.067 28.8004 101.161 28.8677C101.296 28.9645 101.407 29.0828 101.494 29.2223C101.58 29.3619 101.649 29.5093 101.699 29.6636C101.75 29.8184 101.785 29.9746 101.806 30.133C101.827 30.2912 101.837 30.4375 101.837 30.5716C101.837 30.7055 101.829 30.8415 101.812 30.9793C101.795 31.1171 101.768 31.2523 101.73 31.3845C101.693 31.5166 101.643 31.6433 101.581 31.7642C101.519 31.8852 101.441 31.9961 101.347 32.0967C101.253 32.2009 101.151 32.2848 101.04 32.3481C100.929 32.4115 100.813 32.4607 100.691 32.4962C100.569 32.5316 100.442 32.5557 100.311 32.5686C100.179 32.5819 100.046 32.5883 99.9108 32.5883H98.5254Z" fill="white"/>
</g>
<mask id="mask13_218_1260" style="mask-type:luminance" maskUnits="userSpaceOnUse" x="22" y="-1" width="91" height="35">
<path d="M22 33.7727H112.893V-0.315796H22V33.7727Z" fill="white"/>
</mask>
<g mask="url(#mask13_218_1260)">
<path fill-rule="evenodd" clip-rule="evenodd" d="M102.504 32.5882H102.917V29.6943H102.504V32.5882ZM102.462 29.063H102.917V28.5658H102.462V29.063Z" fill="white"/>
</g>
<mask id="mask14_218_1260" style="mask-type:luminance" maskUnits="userSpaceOnUse" x="22" y="-1" width="91" height="35">
<path d="M22 33.7727H112.893V-0.315796H22V33.7727Z" fill="white"/>
</mask>
<g mask="url(#mask14_218_1260)">
<path fill-rule="evenodd" clip-rule="evenodd" d="M105.819 31.1526C105.819 30.9776 105.797 30.8146 105.754 30.6637C105.711 30.5129 105.648 30.3824 105.566 30.2726C105.483 30.1629 105.38 30.0763 105.256 30.0129C105.132 29.9497 104.991 29.9179 104.833 29.9179C104.691 29.9179 104.559 29.9431 104.439 29.9934C104.319 30.0435 104.214 30.1172 104.124 30.2139C104.034 30.311 103.963 30.429 103.912 30.5687C103.862 30.7085 103.837 30.8697 103.837 31.052C103.829 31.2344 103.844 31.405 103.881 31.5632C103.919 31.7216 103.979 31.8604 104.062 31.9794C104.144 32.0987 104.25 32.1927 104.377 32.2616C104.505 32.3306 104.657 32.3649 104.833 32.3649C104.987 32.3649 105.125 32.3323 105.247 32.2671C105.369 32.2019 105.473 32.1146 105.557 32.0046C105.642 31.8946 105.707 31.7662 105.752 31.619C105.797 31.4719 105.819 31.3166 105.819 31.1526ZM105.819 29.6944H106.157V32.3089C106.157 32.5027 106.137 32.688 106.098 32.8649C106.058 33.0417 105.988 33.1974 105.887 33.3313C105.785 33.4656 105.646 33.5726 105.47 33.6525C105.293 33.7327 105.066 33.7728 104.788 33.7728C104.574 33.7728 104.39 33.7456 104.237 33.6916C104.082 33.6376 103.957 33.5696 103.859 33.4879C103.761 33.4057 103.687 33.3154 103.637 33.2169C103.586 33.1181 103.559 33.026 103.555 32.9404H103.915C103.942 33.0483 103.983 33.1367 104.039 33.2058C104.096 33.2747 104.162 33.3287 104.239 33.3676C104.316 33.4068 104.401 33.4339 104.495 33.4488C104.589 33.4635 104.687 33.4711 104.788 33.4711C105.018 33.4711 105.201 33.4319 105.34 33.3538C105.479 33.2755 105.584 33.173 105.656 33.0465C105.727 32.9197 105.773 32.7763 105.794 32.6162C105.814 32.4561 105.823 32.2923 105.819 32.1245C105.71 32.3034 105.561 32.4384 105.371 32.5298C105.182 32.621 104.984 32.6666 104.777 32.6666C104.555 32.6666 104.363 32.6246 104.2 32.5408C104.036 32.457 103.901 32.3454 103.794 32.2057C103.687 32.0659 103.608 31.9031 103.555 31.7169C103.502 31.5306 103.476 31.337 103.476 31.1359C103.476 30.9235 103.501 30.7243 103.549 30.5381C103.598 30.3519 103.676 30.1907 103.783 30.0547C103.89 29.919 104.026 29.8118 104.191 29.7336C104.357 29.6554 104.557 29.6161 104.794 29.6161C104.888 29.6161 104.984 29.6292 105.081 29.6554C105.179 29.6815 105.274 29.7187 105.366 29.7672C105.458 29.8154 105.542 29.877 105.619 29.9514C105.696 30.026 105.759 30.1098 105.808 30.2028H105.819V29.6944Z" fill="white"/>
</g>
<mask id="mask15_218_1260" style="mask-type:luminance" maskUnits="userSpaceOnUse" x="22" y="-1" width="91" height="35">
<path d="M22 33.7727H112.893V-0.315796H22V33.7727Z" fill="white"/>
</mask>
<g mask="url(#mask15_218_1260)">
<path fill-rule="evenodd" clip-rule="evenodd" d="M106.97 32.5882H107.384V29.6943H106.97V32.5882ZM106.928 29.063H107.383V28.5658H106.928V29.063Z" fill="white"/>
</g>
<mask id="mask16_218_1260" style="mask-type:luminance" maskUnits="userSpaceOnUse" x="22" y="-1" width="91" height="35">
<path d="M22 33.7727H112.893V-0.315796H22V33.7727Z" fill="white"/>
</mask>
<g mask="url(#mask16_218_1260)">
<path fill-rule="evenodd" clip-rule="evenodd" d="M109.057 32.5995C109.016 32.6068 108.962 32.6199 108.894 32.6387C108.827 32.6571 108.751 32.6665 108.669 32.6665C108.5 32.6665 108.371 32.6247 108.283 32.5409C108.195 32.4571 108.151 32.3071 108.151 32.091V29.9737H107.739V29.6943H108.151V28.8898H108.489V29.6943H109.035V29.9737H108.489V31.9571C108.489 32.0277 108.49 32.0892 108.494 32.1415C108.498 32.1936 108.509 32.2362 108.528 32.2699C108.547 32.3034 108.576 32.3276 108.615 32.3425C108.655 32.3576 108.71 32.365 108.781 32.365C108.827 32.365 108.872 32.3611 108.919 32.3537C108.966 32.3462 109.012 32.3368 109.057 32.3257V32.5995Z" fill="white"/>
</g>
<mask id="mask17_218_1260" style="mask-type:luminance" maskUnits="userSpaceOnUse" x="22" y="-1" width="91" height="35">
<path d="M22 33.7727H112.893V-0.315796H22V33.7727Z" fill="white"/>
</mask>
<g mask="url(#mask17_218_1260)">
<path fill-rule="evenodd" clip-rule="evenodd" d="M111.395 31.0688C111.252 31.1283 111.108 31.1675 110.961 31.1861C110.815 31.2047 110.668 31.2195 110.522 31.2307C110.263 31.2493 110.061 31.3071 109.916 31.4039C109.772 31.5009 109.7 31.6479 109.7 31.8454C109.7 31.9346 109.717 32.0119 109.753 32.0771C109.789 32.1424 109.836 32.1963 109.894 32.2392C109.952 32.282 110.02 32.3137 110.097 32.3341C110.174 32.3546 110.252 32.3649 110.33 32.3649C110.466 32.3649 110.597 32.3481 110.725 32.3146C110.852 32.2811 110.966 32.23 111.065 32.161C111.165 32.0921 111.245 32.0046 111.305 31.8985C111.365 31.7924 111.395 31.6665 111.395 31.5212V31.0688ZM110.826 30.9011C110.89 30.8938 110.966 30.8825 111.054 30.8676C111.142 30.8527 111.215 30.8322 111.271 30.8061C111.327 30.7803 111.362 30.7363 111.375 30.6747C111.388 30.6134 111.395 30.5567 111.395 30.5045C111.395 30.3332 111.339 30.1925 111.229 30.0827C111.118 29.9729 110.931 29.9178 110.668 29.9178C110.552 29.9178 110.445 29.9283 110.347 29.9486C110.25 29.969 110.164 30.0046 110.091 30.0547C110.018 30.1052 109.958 30.172 109.911 30.2559C109.864 30.3397 109.833 30.4449 109.818 30.5716H109.474C109.486 30.4003 109.525 30.254 109.593 30.133C109.66 30.0121 109.747 29.9134 109.854 29.837C109.961 29.7605 110.085 29.7047 110.226 29.6691C110.367 29.634 110.516 29.6161 110.674 29.6161C110.82 29.6161 110.958 29.6321 111.088 29.6636C111.218 29.6955 111.33 29.7456 111.426 29.8145C111.522 29.8834 111.597 29.9757 111.651 30.091C111.706 30.2065 111.733 30.3481 111.733 30.5156V32.0911C111.733 32.2216 111.756 32.3045 111.803 32.3396C111.85 32.3752 111.945 32.3667 112.088 32.3146V32.5771C112.061 32.5846 112.023 32.5957 111.972 32.6106C111.922 32.6255 111.872 32.6329 111.823 32.6329C111.77 32.6329 111.72 32.6274 111.671 32.6161C111.615 32.6088 111.569 32.5913 111.536 32.5631C111.502 32.5353 111.475 32.5017 111.454 32.4625C111.433 32.4235 111.419 32.3807 111.412 32.3341C111.404 32.2875 111.4 32.2383 111.4 32.186C111.258 32.3426 111.094 32.4618 110.911 32.5437C110.726 32.6255 110.527 32.6666 110.313 32.6666C110.186 32.6666 110.063 32.6499 109.944 32.6161C109.826 32.5828 109.722 32.5307 109.632 32.4599C109.542 32.3892 109.471 32.3024 109.418 32.2002C109.365 32.0976 109.339 31.9758 109.339 31.834C109.339 31.3425 109.679 31.052 110.359 30.9627L110.826 30.9011Z" fill="white"/>
</g>
<mask id="mask18_218_1260" style="mask-type:luminance" maskUnits="userSpaceOnUse" x="22" y="-1" width="91" height="35">
<path d="M22 33.7727H112.893V-0.315796H22V33.7727Z" fill="white"/>
</mask>
<g mask="url(#mask18_218_1260)">
<path fill-rule="evenodd" clip-rule="evenodd" d="M112.555 32.5882H112.893V28.5658H112.555V32.5882Z" fill="white"/>
</g>
<mask id="mask19_218_1260" style="mask-type:luminance" maskUnits="userSpaceOnUse" x="42" y="-1" width="25" height="26">
<path d="M42.5286 -0.315796H66.6705V24.0455H42.5286V-0.315796Z" fill="white"/>
</mask>
<g mask="url(#mask19_218_1260)">
<path fill-rule="evenodd" clip-rule="evenodd" d="M62.0024 16.0977L54.582 0.686248L47.1618 16.0977H62.0024ZM54.2685 -0.315857H54.9304L66.6705 24.0454H65.8342L62.3506 16.7886H46.8136L43.3299 24.0454H42.5286L54.2685 -0.315857Z" fill="white"/>
</g>
<path fill-rule="evenodd" clip-rule="evenodd" d="M76.5916 23.3542C78.3796 23.3542 80.023 23.0604 81.5212 22.473C83.0189 21.8853 84.3019 21.0794 85.3705 20.0541C86.4383 19.0295 87.2688 17.8314 87.8613 16.4605C88.4533 15.0902 88.7495 13.6098 88.7495 12.0203V11.9512C88.7495 10.3615 88.4533 8.87582 87.8613 7.4935C87.2688 6.11137 86.4329 4.90203 85.3532 3.86529C84.2729 2.82856 82.9842 2.01656 81.4862 1.42929C79.9879 0.841846 78.3334 0.548215 76.5219 0.548215H69.485V23.3542H76.5916ZM68.7184 -0.143127H76.5568C78.4842 -0.143127 80.2375 0.168004 81.817 0.789899C83.3961 1.41198 84.7608 2.2645 85.9103 3.34711C87.0599 4.43008 87.9484 5.70261 88.5753 7.16543C89.2025 8.62843 89.5162 10.2121 89.5162 11.9166V11.9857C89.5162 13.6907 89.2025 15.2744 88.5753 16.7368C87.9484 18.2002 87.0599 19.4727 85.9103 20.5551C84.7608 21.6385 83.3961 22.4903 81.817 23.1125C80.2375 23.7342 78.4842 24.0454 76.5568 24.0454H68.7184V-0.143127Z" fill="white"/>
<path fill-rule="evenodd" clip-rule="evenodd" d="M99.7388 23.3542C101.527 23.3542 103.17 23.0604 104.668 22.473C106.166 21.8853 107.449 21.0794 108.518 20.0541C109.586 19.0295 110.416 17.8314 111.009 16.4605C111.601 15.0902 111.897 13.6098 111.897 12.0203V11.9512C111.897 10.3615 111.601 8.87582 111.009 7.4935C110.416 6.11137 109.58 4.90203 108.5 3.86529C107.42 2.82856 106.131 2.01656 104.633 1.42929C103.135 0.841846 101.481 0.548215 99.6693 0.548215H92.6322V23.3542H99.7388ZM91.8656 -0.143127H99.704C101.631 -0.143127 103.385 0.168004 104.964 0.789899C106.544 1.41198 107.908 2.2645 109.058 3.34711C110.207 4.43008 111.096 5.70261 111.723 7.16543C112.35 8.62843 112.663 10.2121 112.663 11.9166V11.9857C112.663 13.6907 112.35 15.2744 111.723 16.7368C111.096 18.2002 110.207 19.4727 109.058 20.5551C107.908 21.6385 106.544 22.4903 104.964 23.1125C103.385 23.7342 101.631 24.0454 99.704 24.0454H91.8656V-0.143127Z" fill="white"/>
<path fill-rule="evenodd" clip-rule="evenodd" d="M36.2941 1.20627L35.5266 5.65311H31.0744L31.842 1.20627H27.7888L27.0212 5.65311H23.6436V9.55174H26.3456L25.5779 14.0592H22.5687V17.9576H24.9024L24.104 22.5264H28.1572L28.9554 17.9576H33.4079L32.6094 22.5264H36.6628L37.4612 17.9576H40.8386V14.0592H38.1366L38.904 9.55174H41.9133V5.65311H39.5796L40.3473 1.20627H36.2941ZM30.3986 9.55174H34.8508L34.0834 14.0592H29.6311L30.3986 9.55174Z" fill="url(#paint0_linear_218_1260)"/>
</g>
</g>
<defs>
<linearGradient id="paint0_linear_218_1260" x1="39.3469" y1="1.20627" x2="23.9906" y2="23.1031" gradientUnits="userSpaceOnUse">
<stop stop-color="#62CAEB"/>
<stop offset="1" stop-color="#7D4FAF"/>
</linearGradient>
<clipPath id="clip0_218_1260">
<rect width="134" height="34" fill="white"/>
</clipPath>
<clipPath id="clip1_218_1260">
<rect width="91" height="34.6938" fill="white" transform="translate(22 -0.5)"/>
</clipPath>
</defs>
</svg>
