<svg width="166" height="42" viewBox="0 0 166 42" fill="none" xmlns="http://www.w3.org/2000/svg">
<g clip-path="url(#clip0_218_1260)">
<g clip-path="url(#clip1_218_1260)">
<path fill-rule="evenodd" clip-rule="evenodd" d="M29.1454 35.2874L27.1766 40.2562H27.6634L28.2549 38.6963H30.5368L31.1145 40.2562H31.6015L29.6814 35.2874H29.1454ZM29.396 35.6876L30.3769 38.2963H28.415L29.396 35.6876Z" fill="white"/>
<mask id="mask0_218_1260" style="mask-type:luminance" maskUnits="userSpaceOnUse" x="31" y="36" width="5" height="6">
<path d="M31.9633 36.5846H35.275V41.7193H31.9633V36.5846Z" fill="white"/>
</mask>
<g mask="url(#mask0_218_1260)">
<path fill-rule="evenodd" clip-rule="evenodd" d="M34.8575 38.4827C34.8575 38.2665 34.8309 38.0651 34.7775 37.8787C34.7242 37.6924 34.6465 37.5313 34.5444 37.3956C34.4423 37.26 34.315 37.1531 34.1617 37.0748C34.0087 36.9967 33.8348 36.9574 33.64 36.9574C33.4636 36.9574 33.3014 36.9885 33.153 37.0507C33.0046 37.1126 32.8747 37.2036 32.7634 37.323C32.652 37.443 32.565 37.5888 32.5024 37.7613C32.4397 37.934 32.4085 38.1331 32.4085 38.3584C32.3991 38.5837 32.4177 38.7944 32.4641 38.9899C32.5106 39.1856 32.5847 39.3569 32.6868 39.5039C32.7887 39.6514 32.9188 39.7674 33.0764 39.8525C33.234 39.9379 33.4219 39.9802 33.64 39.9802C33.83 39.9802 34.0007 39.9399 34.1514 39.8594C34.3021 39.7788 34.4297 39.6709 34.534 39.5351C34.6384 39.3992 34.7185 39.2406 34.774 39.0588C34.8298 38.877 34.8575 38.6852 34.8575 38.4827ZM34.8575 36.6813H35.275V39.911C35.275 40.1504 35.2507 40.3793 35.2019 40.5978C35.1532 40.8162 35.0663 41.0085 34.941 41.1739C34.8158 41.3398 34.6442 41.472 34.4262 41.5708C34.2081 41.6698 33.9275 41.7194 33.5843 41.7194C33.32 41.7194 33.0927 41.6857 32.9025 41.619C32.7123 41.5524 32.557 41.4684 32.4363 41.3674C32.3156 41.2659 32.2241 41.1544 32.1615 41.0326C32.0988 40.9107 32.0653 40.7969 32.0608 40.6911H32.506C32.5384 40.8244 32.5893 40.9336 32.6591 41.019C32.7286 41.1041 32.8109 41.1708 32.9059 41.2188C33.0011 41.2672 33.1066 41.3007 33.2225 41.3191C33.3384 41.3373 33.459 41.3467 33.5843 41.3467C33.8671 41.3467 34.0945 41.2982 34.2661 41.2017C34.4377 41.105 34.5675 40.9785 34.6559 40.8221C34.7437 40.6656 34.8006 40.4883 34.8263 40.2906C34.8518 40.0928 34.8621 39.8905 34.8575 39.6832C34.7231 39.9042 34.5386 40.071 34.3044 40.1838C34.0702 40.2965 33.8254 40.3529 33.5705 40.3529C33.2966 40.3529 33.0592 40.301 32.8573 40.1975C32.6554 40.094 32.4886 39.9561 32.3565 39.7836C32.2241 39.6109 32.1255 39.4097 32.0608 39.1797C31.9956 38.9496 31.9633 38.7104 31.9633 38.4619C31.9633 38.1996 31.9933 37.9536 32.0536 37.7235C32.114 37.4935 32.2101 37.2944 32.3425 37.1264C32.4746 36.9587 32.6428 36.8263 32.8467 36.7298C33.0509 36.6331 33.2991 36.5846 33.5912 36.5846C33.7072 36.5846 33.8254 36.6008 33.9461 36.6331C34.0667 36.6654 34.1837 36.7114 34.2975 36.7712C34.4111 36.8308 34.5155 36.9068 34.6107 36.9988C34.7056 37.0909 34.7834 37.1945 34.8435 37.3094H34.8575V36.6813Z" fill="white"/>
</g>
<path fill-rule="evenodd" clip-rule="evenodd" d="M38.7954 38.2204C38.7954 38.0454 38.7711 37.8811 38.7224 37.7268C38.6736 37.5728 38.6015 37.4392 38.5066 37.3265C38.4116 37.2139 38.2921 37.1242 38.1482 37.0576C38.0044 36.9909 37.8397 36.9572 37.6543 36.9572C37.4687 36.9572 37.3051 36.992 37.1638 37.0608C37.0223 37.1299 36.9018 37.2219 36.802 37.3368C36.7022 37.4519 36.6222 37.5853 36.5621 37.7373C36.5015 37.8891 36.4623 38.0502 36.4437 38.2204H38.7954ZM36.4437 38.5653C36.4437 38.7585 36.4692 38.9415 36.5203 39.114C36.5713 39.2867 36.6465 39.4362 36.7463 39.5625C36.8461 39.6892 36.9725 39.7903 37.1255 39.866C37.2785 39.9421 37.4549 39.9801 37.6543 39.9801C37.928 39.9801 38.1622 39.9088 38.357 39.7662C38.5518 39.6237 38.6816 39.421 38.7468 39.1588H39.2127C39.1618 39.329 39.0946 39.4865 39.011 39.6314C38.9275 39.7766 38.8232 39.9031 38.6979 40.0112C38.5726 40.1193 38.4242 40.2033 38.2526 40.2631C38.081 40.3227 37.8817 40.3528 37.6543 40.3528C37.3666 40.3528 37.1186 40.3043 36.9099 40.2078C36.7011 40.1114 36.5295 39.9791 36.3951 39.811C36.2604 39.643 36.1608 39.4453 36.0959 39.2175C36.0308 38.9897 35.9984 38.7449 35.9984 38.4825C35.9984 38.2204 36.0367 37.9742 36.1133 37.7441C36.1897 37.514 36.2987 37.3129 36.4403 37.1402C36.5818 36.9677 36.7546 36.8321 36.9585 36.7331C37.1627 36.6341 37.3946 36.5847 37.6543 36.5847C38.1505 36.5847 38.5403 36.7538 38.8232 37.0919C39.106 37.4301 39.2453 37.9214 39.2407 38.5653H36.4437Z" fill="white"/>
<path fill-rule="evenodd" clip-rule="evenodd" d="M40.3329 40.2562H39.9154V36.6813H40.3329V37.1783C40.4999 37.0035 40.6725 36.8608 40.8512 36.7505C41.0299 36.6399 41.2444 36.5846 41.4947 36.5846C41.7174 36.5846 41.9239 36.6226 42.1141 36.6986C42.3043 36.7744 42.4642 36.9068 42.594 37.0955C42.6821 37.2243 42.7344 37.3567 42.7507 37.4923C42.7668 37.6279 42.775 37.7695 42.775 37.9167V40.2562H42.3575V37.9235C42.3575 37.6015 42.2857 37.3599 42.1418 37.1988C41.998 37.0379 41.7592 36.9573 41.4252 36.9573C41.2953 36.9573 41.1772 36.9771 41.0703 37.016C40.9636 37.0554 40.8675 37.1068 40.7817 37.1712C40.6959 37.2359 40.6227 37.3094 40.5623 37.3922C40.5022 37.475 40.4557 37.5624 40.4233 37.6543C40.3816 37.7695 40.3561 37.8801 40.3469 37.9856C40.3375 38.0915 40.3329 38.2064 40.3329 38.3306V40.2562Z" fill="white"/>
<path fill-rule="evenodd" clip-rule="evenodd" d="M46.1983 37.8062C46.124 37.5395 45.9966 37.3313 45.8156 37.1818C45.6346 37.0323 45.405 36.9574 45.1269 36.9574C44.9134 36.9574 44.7303 37.0011 44.5773 37.0885C44.424 37.1758 44.2988 37.2921 44.2015 37.4371C44.104 37.582 44.0322 37.7452 43.9856 37.927C43.9393 38.1088 43.9161 38.2918 43.9161 38.4756C43.9161 38.6643 43.9381 38.8484 43.9822 39.0277C44.0262 39.2072 44.0971 39.3683 44.1946 39.5108C44.2919 39.6535 44.4171 39.7672 44.5702 39.8523C44.7232 39.9377 44.9088 39.9802 45.1269 39.9802C45.4376 39.9802 45.6869 39.8951 45.8748 39.7249C46.0627 39.5547 46.182 39.3199 46.2329 39.0209H46.6785C46.6413 39.2186 46.5821 39.3993 46.5009 39.5627C46.4197 39.726 46.3153 39.8662 46.188 39.9834C46.0602 40.1008 45.9083 40.1916 45.7321 40.2562C45.5557 40.3206 45.3541 40.3527 45.1269 40.3527C44.8393 40.3527 44.591 40.3045 44.3823 40.208C44.1735 40.1113 44.0019 39.9791 43.8675 39.8111C43.7328 39.643 43.6332 39.4441 43.5683 39.214C43.5032 38.9842 43.4708 38.738 43.4708 38.4756C43.4708 38.2274 43.5068 37.9891 43.5789 37.7613C43.6507 37.5338 43.7562 37.3324 43.8952 37.1574C44.0345 36.9826 44.2072 36.8436 44.4137 36.7398C44.6199 36.6363 44.8578 36.5847 45.1269 36.5847C45.5442 36.5847 45.8817 36.6836 46.1391 36.8816C46.3965 37.0794 46.5576 37.3877 46.6227 37.8062H46.1983Z" fill="white"/>
<path fill-rule="evenodd" clip-rule="evenodd" d="M49.9831 38.2204C49.9831 38.0454 49.9588 37.8811 49.9102 37.7268C49.8613 37.5728 49.7893 37.4392 49.6943 37.3265C49.5993 37.2139 49.4798 37.1242 49.336 37.0576C49.1921 36.9909 49.0274 36.9572 48.8421 36.9572C48.6565 36.9572 48.4929 36.992 48.3516 37.0608C48.21 37.1299 48.0896 37.2219 47.9898 37.3368C47.89 37.4519 47.8099 37.5853 47.7498 37.7373C47.6893 37.8891 47.65 38.0502 47.6314 38.2204H49.9831ZM47.6314 38.5653C47.6314 38.7585 47.6569 38.9415 47.7081 39.114C47.759 39.2867 47.8342 39.4362 47.934 39.5625C48.0338 39.6892 48.1602 39.7903 48.3133 39.866C48.4663 39.9421 48.6427 39.9801 48.8421 39.9801C49.1157 39.9801 49.35 39.9088 49.5447 39.7662C49.7395 39.6237 49.8694 39.421 49.9345 39.1588H50.4004C50.3495 39.329 50.2823 39.4865 50.1988 39.6314C50.1153 39.7766 50.0109 39.9031 49.8856 40.0112C49.7604 40.1193 49.612 40.2033 49.4404 40.2631C49.2688 40.3227 49.0694 40.3528 48.8421 40.3528C48.5544 40.3528 48.3064 40.3043 48.0976 40.2078C47.8888 40.1114 47.7172 39.9791 47.5828 39.811C47.4481 39.643 47.3486 39.4453 47.2837 39.2175C47.2185 38.9897 47.1862 38.7449 47.1862 38.4825C47.1862 38.2204 47.2245 37.9742 47.3011 37.7441C47.3775 37.514 47.4865 37.3129 47.628 37.1402C47.7696 36.9677 47.9423 36.8321 48.1462 36.7331C48.3504 36.6341 48.5824 36.5847 48.8421 36.5847C49.3383 36.5847 49.728 36.7538 50.0109 37.0919C50.2938 37.4301 50.433 37.9214 50.4284 38.5653H47.6314Z" fill="white"/>
<path fill-rule="evenodd" clip-rule="evenodd" d="M55.6814 38.4548C55.6814 38.2525 55.6536 38.0605 55.5979 37.8787C55.5423 37.6971 55.4623 37.5382 55.3579 37.4026C55.2535 37.2668 55.126 37.1587 54.9752 37.0781C54.8245 36.9978 54.6538 36.9573 54.4639 36.9573C54.2457 36.9573 54.0578 36.9998 53.9002 37.0849C53.7426 37.17 53.6125 37.2863 53.5107 37.4336C53.4086 37.5808 53.3345 37.7521 53.2879 37.9476C53.2416 38.1433 53.223 38.3538 53.2324 38.5791C53.2324 38.8046 53.2636 39.0035 53.3262 39.1762C53.3889 39.3487 53.4758 39.4947 53.5873 39.6144C53.6986 39.7339 53.8284 39.8249 53.9768 39.887C54.1253 39.9489 54.2875 39.9801 54.4639 39.9801C54.6587 39.9801 54.8325 39.941 54.9856 39.8627C55.1388 39.7846 55.2661 39.6777 55.3682 39.5418C55.4703 39.4062 55.5481 39.2451 55.6013 39.0587C55.6548 38.8724 55.6814 38.6712 55.6814 38.4548ZM55.6814 35.2873H56.0989V40.2561H55.6814V39.6281H55.6674C55.6073 39.748 55.5295 39.8525 55.4345 39.9421C55.3393 40.032 55.2349 40.1066 55.1214 40.1663C55.0076 40.2263 54.8906 40.2721 54.7699 40.3044C54.6492 40.3367 54.5311 40.3528 54.415 40.3528C54.123 40.3528 53.8748 40.3044 53.6706 40.2079C53.4666 40.1112 53.2985 39.979 53.1663 39.811C53.034 39.6431 52.9378 39.4442 52.8775 39.2142C52.8172 38.9841 52.7871 38.7379 52.7871 38.4758C52.7871 38.2273 52.8195 37.9879 52.8846 37.7578C52.9493 37.528 53.048 37.3266 53.1803 37.1541C53.3125 36.9814 53.4792 36.8435 53.6811 36.74C53.883 36.6364 54.1205 36.5845 54.3944 36.5845C54.6492 36.5845 54.894 36.641 55.1283 36.7536C55.3625 36.8667 55.5469 37.0333 55.6814 37.2542V35.2873Z" fill="white"/>
<path fill-rule="evenodd" clip-rule="evenodd" d="M59.6193 38.2204C59.6193 38.0454 59.5949 37.8811 59.5463 37.7268C59.4974 37.5728 59.4254 37.4392 59.3304 37.3265C59.2354 37.2139 59.1159 37.1242 58.9721 37.0576C58.8282 36.9909 58.6635 36.9572 58.4782 36.9572C58.2926 36.9572 58.129 36.992 57.9877 37.0608C57.8461 37.1299 57.7257 37.2219 57.6259 37.3368C57.5261 37.4519 57.446 37.5853 57.3859 37.7373C57.3254 37.8891 57.2861 38.0502 57.2676 38.2204H59.6193ZM57.2676 38.5653C57.2676 38.7585 57.293 38.9415 57.3442 39.114C57.3951 39.2867 57.4704 39.4362 57.5701 39.5625C57.6699 39.6892 57.7963 39.7903 57.9494 39.866C58.1024 39.9421 58.2788 39.9801 58.4782 39.9801C58.7518 39.9801 58.9861 39.9088 59.1808 39.7662C59.3756 39.6237 59.5055 39.421 59.5706 39.1588H60.0366C59.9856 39.329 59.9184 39.4865 59.8349 39.6314C59.7514 39.7766 59.647 39.9031 59.5218 40.0112C59.3965 40.1193 59.2481 40.2033 59.0765 40.2631C58.9049 40.3227 58.7055 40.3528 58.4782 40.3528C58.1905 40.3528 57.9425 40.3043 57.7337 40.2078C57.525 40.1114 57.3534 39.9791 57.2189 39.811C57.0843 39.643 56.9847 39.4453 56.9198 39.2175C56.8546 38.9897 56.8223 38.7449 56.8223 38.4825C56.8223 38.2204 56.8606 37.9742 56.9372 37.7441C57.0136 37.514 57.1226 37.3129 57.2641 37.1402C57.4057 36.9677 57.5784 36.8321 57.7824 36.7331C57.9865 36.6341 58.2185 36.5847 58.4782 36.5847C58.9744 36.5847 59.3641 36.7538 59.647 37.0919C59.9299 37.4301 60.0691 37.9214 60.0645 38.5653H57.2676Z" fill="white"/>
<path fill-rule="evenodd" clip-rule="evenodd" d="M63.0702 39.8559H64.2042C64.4175 39.8559 64.6183 39.8432 64.8059 39.8179C64.9938 39.7927 65.1851 39.7294 65.3801 39.6281C65.5469 39.5453 65.6839 39.4327 65.7906 39.29C65.8972 39.1476 65.9819 38.9921 66.0445 38.8242C66.1072 38.6563 66.1512 38.4804 66.1767 38.2963C66.2021 38.1122 66.215 37.9351 66.215 37.7649C66.215 37.5852 66.2033 37.4027 66.1801 37.2161C66.1569 37.0299 66.1129 36.8529 66.048 36.6847C65.983 36.5168 65.8949 36.3627 65.7837 36.2223C65.6722 36.0822 65.5283 35.9659 65.3522 35.874C65.2037 35.7957 65.0275 35.7452 64.8236 35.722C64.6192 35.699 64.4129 35.6876 64.2042 35.6876H63.0702V39.8559ZM62.5969 40.2562V35.2873H64.3086C64.4478 35.2873 64.5845 35.2907 64.719 35.2978C64.8534 35.3046 64.9858 35.3205 65.1156 35.346C65.2455 35.3713 65.3719 35.4093 65.4949 35.4598C65.6176 35.5103 65.7371 35.577 65.8532 35.6601C66.0202 35.7797 66.1569 35.9258 66.2636 36.0981C66.3703 36.2706 66.4549 36.4526 66.5176 36.6433C66.5802 36.8345 66.6242 37.0274 66.6499 37.2231C66.6752 37.4186 66.688 37.5993 66.688 37.7649C66.688 37.9304 66.6777 38.0983 66.6568 38.2685C66.6359 38.4387 66.6022 38.6057 66.5559 38.7691C66.5095 38.9323 66.4481 39.0888 66.3714 39.2381C66.295 39.3876 66.1987 39.5246 66.0828 39.6489C65.9668 39.7776 65.8403 39.8812 65.7036 39.9595C65.5667 40.0377 65.4228 40.0985 65.2723 40.1424C65.1214 40.1861 64.9649 40.2159 64.8025 40.2318C64.6401 40.2482 64.4756 40.2562 64.3086 40.2562H62.5969Z" fill="white"/>
<path fill-rule="evenodd" clip-rule="evenodd" d="M68.4552 36.2948L69.2274 35.3355H69.7631L68.8099 36.2948H68.4552ZM70.0276 38.2204C70.0276 38.0454 70.0033 37.8811 69.9546 37.7268C69.9058 37.5728 69.8337 37.4392 69.7388 37.3266C69.6438 37.2139 69.5243 37.1243 69.3804 37.0576C69.2366 36.9909 69.0719 36.9573 68.8865 36.9573C68.7009 36.9573 68.5373 36.9918 68.396 37.0608C68.2545 37.13 68.134 37.2219 68.0342 37.3368C67.9344 37.452 67.8544 37.5853 67.7943 37.7373C67.7337 37.8891 67.6945 38.0502 67.6759 38.2204H70.0276ZM67.6759 38.5654C67.6759 38.7586 67.7013 38.9415 67.7525 39.114C67.8034 39.2865 67.8787 39.4362 67.9785 39.5625C68.0783 39.6893 68.2047 39.7903 68.3577 39.8661C68.5107 39.9421 68.6871 39.9801 68.8865 39.9801C69.1602 39.9801 69.3944 39.9089 69.5892 39.7662C69.7839 39.6237 69.9138 39.421 69.9789 39.1588H70.4449C70.394 39.3291 70.3267 39.4865 70.2432 39.6315C70.1597 39.7767 70.0553 39.9029 69.9301 40.0113C69.8048 40.1194 69.6564 40.2033 69.4848 40.2629C69.3132 40.3228 69.1138 40.3528 68.8865 40.3528C68.5988 40.3528 68.3508 40.3044 68.142 40.2079C67.9333 40.1112 67.7617 39.9789 67.6272 39.811C67.4926 39.6431 67.393 39.4453 67.3281 39.2176C67.2629 38.9898 67.2306 38.7449 67.2306 38.4826C67.2306 38.2204 67.2689 37.9742 67.3455 37.7441C67.4219 37.5141 67.5309 37.3129 67.6724 37.1402C67.814 36.9677 67.9867 36.8321 68.1907 36.7331C68.3949 36.6341 68.6268 36.5845 68.8865 36.5845C69.3827 36.5845 69.7725 36.7538 70.0553 37.092C70.3382 37.4301 70.4775 37.9212 70.4729 38.5654H67.6759Z" fill="white"/>
<path fill-rule="evenodd" clip-rule="evenodd" d="M70.7653 36.6813H71.2174L72.3863 39.7455L73.5551 36.6813H74.0075L72.609 40.2562H72.1429L70.7653 36.6813Z" fill="white"/>
<path fill-rule="evenodd" clip-rule="evenodd" d="M77.0967 38.2204C77.0967 38.0454 77.0724 37.8811 77.0237 37.7268C76.9749 37.5728 76.9028 37.4392 76.8078 37.3265C76.7129 37.2139 76.5933 37.1242 76.4495 37.0576C76.3057 36.9909 76.1409 36.9572 75.9556 36.9572C75.77 36.9572 75.6064 36.992 75.4651 37.0608C75.3235 37.1299 75.2031 37.2219 75.1033 37.3368C75.0035 37.4519 74.9235 37.5853 74.8633 37.7373C74.8028 37.8891 74.7636 38.0502 74.745 38.2204H77.0967ZM74.745 38.5653C74.745 38.7585 74.7704 38.9415 74.8216 39.114C74.8725 39.2867 74.9478 39.4362 75.0476 39.5625C75.1474 39.6892 75.2738 39.7903 75.4268 39.866C75.5798 39.9421 75.7562 39.9801 75.9556 39.9801C76.2293 39.9801 76.4635 39.9088 76.6583 39.7662C76.853 39.6237 76.9829 39.421 77.048 39.1588H77.514C77.463 39.329 77.3958 39.4865 77.3123 39.6314C77.2288 39.7766 77.1244 39.9031 76.9992 40.0112C76.8739 40.1193 76.7255 40.2033 76.5539 40.2631C76.3823 40.3227 76.1829 40.3528 75.9556 40.3528C75.6679 40.3528 75.4199 40.3043 75.2111 40.2078C75.0024 40.1114 74.8308 39.9791 74.6963 39.811C74.5617 39.643 74.4621 39.4453 74.3972 39.2175C74.332 38.9897 74.2997 38.7449 74.2997 38.4825C74.2997 38.2204 74.338 37.9742 74.4146 37.7441C74.491 37.514 74.6 37.3129 74.7415 37.1402C74.8831 36.9677 75.0558 36.8321 75.2598 36.7331C75.4639 36.6341 75.6959 36.5847 75.9556 36.5847C76.4518 36.5847 76.8416 36.7538 77.1244 37.0919C77.4073 37.4301 77.5465 37.9214 77.542 38.5653H74.745Z" fill="white"/>
<mask id="mask1_218_1260" style="mask-type:luminance" maskUnits="userSpaceOnUse" x="27" y="-1" width="113" height="43">
<path d="M27.1765 41.7192H139.456V-0.390106H27.1765V41.7192Z" fill="white"/>
</mask>
<g mask="url(#mask1_218_1260)">
<path fill-rule="evenodd" clip-rule="evenodd" d="M78.2794 40.2561H78.6969V35.2872H78.2794V40.2561Z" fill="white"/>
</g>
<mask id="mask2_218_1260" style="mask-type:luminance" maskUnits="userSpaceOnUse" x="27" y="-1" width="113" height="43">
<path d="M27.1765 41.7192H139.456V-0.390106H27.1765V41.7192Z" fill="white"/>
</mask>
<g mask="url(#mask2_218_1260)">
<path fill-rule="evenodd" clip-rule="evenodd" d="M82.2799 38.4688C82.2799 38.2572 82.2567 38.0592 82.2104 37.8753C82.164 37.6912 82.092 37.5313 81.9947 37.3954C81.8972 37.26 81.772 37.1531 81.6189 37.0746C81.4659 36.9965 81.278 36.9572 81.0555 36.9572C80.8373 36.9572 80.6506 36.9999 80.4953 37.085C80.3397 37.1702 80.2136 37.2828 80.1161 37.4232C80.0188 37.5634 79.9468 37.7245 79.9004 37.9063C79.8541 38.0881 79.8309 38.2754 79.8309 38.4688C79.8309 38.6895 79.8575 38.8932 79.911 39.0796C79.9642 39.2659 80.042 39.4257 80.1438 39.559C80.2459 39.6926 80.3735 39.7961 80.5265 39.8696C80.6797 39.9431 80.8559 39.9802 81.0555 39.9802C81.2734 39.9802 81.46 39.9377 81.6155 39.8523C81.7708 39.7672 81.8972 39.6535 81.9947 39.5108C82.092 39.3683 82.164 39.2072 82.2104 39.0277C82.2567 38.8484 82.2799 38.662 82.2799 38.4688ZM81.0555 40.3527C80.8233 40.3482 80.6068 40.3068 80.4049 40.2285C80.203 40.1504 80.0268 40.033 79.8761 39.8767C79.7254 39.7201 79.6059 39.5247 79.5178 39.2898C79.4297 39.0552 79.3856 38.7817 79.3856 38.4688C79.3856 38.2064 79.4205 37.9616 79.49 37.7338C79.5595 37.506 79.6639 37.3071 79.8031 37.1367C79.9422 36.9665 80.1161 36.8322 80.3248 36.733C80.5336 36.634 80.777 36.5847 81.0555 36.5847C81.3384 36.5847 81.5841 36.634 81.7928 36.733C82.0016 36.8322 82.1755 36.9656 82.3148 37.1333C82.4538 37.3012 82.557 37.5003 82.6242 37.7304C82.6914 37.9604 82.7252 38.2064 82.7252 38.4688C82.7252 38.7542 82.6857 39.0117 82.607 39.2416C82.5281 39.4716 82.4157 39.6694 82.2696 39.8353C82.1234 40.0007 81.947 40.1284 81.7408 40.218C81.5343 40.3079 81.3058 40.3527 81.0555 40.3527Z" fill="white"/>
</g>
<mask id="mask3_218_1260" style="mask-type:luminance" maskUnits="userSpaceOnUse" x="27" y="-1" width="113" height="43">
<path d="M27.1765 41.7192H139.456V-0.390106H27.1765V41.7192Z" fill="white"/>
</mask>
<g mask="url(#mask3_218_1260)">
<path fill-rule="evenodd" clip-rule="evenodd" d="M83.8173 38.4827C83.8173 38.6852 83.8453 38.877 83.9008 39.0588C83.9566 39.2406 84.0366 39.3992 84.141 39.5351C84.2452 39.6709 84.373 39.7788 84.5237 39.8594C84.6742 39.9399 84.8449 39.9802 85.035 39.9802C85.2482 39.9802 85.4351 39.9379 85.595 39.8525C85.7549 39.7674 85.8859 39.6514 85.988 39.5039C86.0901 39.3569 86.1644 39.1856 86.2108 38.9899C86.2573 38.7944 86.2757 38.5837 86.2663 38.3584C86.2663 38.1331 86.2353 37.934 86.1727 37.7613C86.1098 37.5888 86.0229 37.443 85.9114 37.323C85.8004 37.2036 85.6703 37.1126 85.5221 37.0507C85.3734 36.9885 85.2112 36.9574 85.035 36.9574C84.8403 36.9574 84.6661 36.9967 84.5131 37.0748C84.3601 37.1531 84.2326 37.26 84.1305 37.3956C84.0284 37.5313 83.9506 37.6924 83.8976 37.8787C83.8439 38.0651 83.8173 38.2665 83.8173 38.4827ZM83.8173 41.6639H83.4V36.6813H83.8173V37.3094H83.8315C83.8914 37.1945 83.9692 37.0909 84.0644 36.9988C84.1594 36.9068 84.2638 36.8308 84.3773 36.7712C84.4913 36.7114 84.6081 36.6654 84.729 36.6331C84.8494 36.6008 84.9678 36.5846 85.0839 36.5846C85.3759 36.5846 85.6242 36.6331 85.8281 36.7298C86.0323 36.8263 86.2004 36.9587 86.3326 37.1264C86.4647 37.2944 86.5611 37.4935 86.6212 37.7235C86.6815 37.9536 86.7116 38.1996 86.7116 38.4619C86.7116 38.7104 86.6795 38.9496 86.6143 39.1797C86.5494 39.4097 86.4507 39.6109 86.3186 39.7836C86.1865 39.9561 86.0194 40.094 85.8178 40.1975C85.6161 40.301 85.3782 40.3529 85.1045 40.3529C84.8494 40.3529 84.6049 40.2965 84.3704 40.1838C84.1364 40.071 83.952 39.9042 83.8173 39.6832V41.6639Z" fill="white"/>
</g>
<mask id="mask4_218_1260" style="mask-type:luminance" maskUnits="userSpaceOnUse" x="27" y="-1" width="113" height="43">
<path d="M27.1765 41.7192H139.456V-0.390106H27.1765V41.7192Z" fill="white"/>
</mask>
<g mask="url(#mask4_218_1260)">
<path fill-rule="evenodd" clip-rule="evenodd" d="M87.9294 38.4827C87.9294 38.6852 87.9571 38.877 88.0126 39.0588C88.0684 39.2406 88.1485 39.3992 88.2528 39.5351C88.3572 39.6709 88.4848 39.7788 88.6355 39.8594C88.786 39.9399 88.9567 39.9802 89.1469 39.9802C89.3602 39.9802 89.547 39.9379 89.7069 39.8525C89.867 39.7674 89.998 39.6514 90.1001 39.5039C90.2019 39.3569 90.2763 39.1856 90.3228 38.9899C90.3692 38.7944 90.3877 38.5837 90.3783 38.3584C90.3783 38.1331 90.3471 37.934 90.2845 37.7613C90.2219 37.5888 90.1347 37.443 90.0234 37.323C89.9124 37.2036 89.7823 37.1126 89.6339 37.0507C89.4855 36.9885 89.323 36.9574 89.1469 36.9574C88.9521 36.9574 88.7782 36.9967 88.6249 37.0748C88.4719 37.1531 88.3444 37.26 88.2423 37.3956C88.1404 37.5313 88.0627 37.6924 88.0094 37.8787C87.956 38.0651 87.9294 38.2665 87.9294 38.4827ZM87.9294 41.6639H87.5118V36.6813H87.9294V37.3094H87.9434C88.0035 37.1945 88.0812 37.0909 88.1762 36.9988C88.2712 36.9068 88.3756 36.8308 88.4894 36.7712C88.6031 36.7114 88.7199 36.6654 88.8408 36.6331C88.9613 36.6008 89.0796 36.5846 89.1957 36.5846C89.4878 36.5846 89.736 36.6331 89.9402 36.7298C90.1441 36.8263 90.3123 36.9587 90.4444 37.1264C90.5766 37.2944 90.6729 37.4935 90.7332 37.7235C90.7933 37.9536 90.8236 38.1996 90.8236 38.4619C90.8236 38.7104 90.7913 38.9496 90.7261 39.1797C90.6612 39.4097 90.5628 39.6109 90.4304 39.7836C90.2983 39.9561 90.1315 40.094 89.9296 40.1975C89.728 40.301 89.4901 40.3529 89.2164 40.3529C88.9613 40.3529 88.7167 40.2965 88.4825 40.1838C88.2482 40.071 88.0638 39.9042 87.9294 39.6832V41.6639Z" fill="white"/>
</g>
<mask id="mask5_218_1260" style="mask-type:luminance" maskUnits="userSpaceOnUse" x="27" y="-1" width="113" height="43">
<path d="M27.1765 41.7192H139.456V-0.390106H27.1765V41.7192Z" fill="white"/>
</mask>
<g mask="url(#mask5_218_1260)">
<path fill-rule="evenodd" clip-rule="evenodd" d="M94.1841 38.2204C94.1841 38.0454 94.1598 37.8811 94.1111 37.7268C94.0623 37.5728 93.9902 37.4392 93.8953 37.3265C93.8001 37.2139 93.6808 37.1242 93.5371 37.0576C93.3933 36.9909 93.2286 36.9572 93.043 36.9572C92.8574 36.9572 92.6941 36.992 92.5525 37.0608C92.411 37.1299 92.2903 37.2219 92.1907 37.3368C92.0909 37.4519 92.0109 37.5853 91.9508 37.7373C91.8904 37.8891 91.851 38.0502 91.8324 38.2204H94.1841ZM91.8324 38.5653C91.8324 38.7585 91.8579 38.9415 91.909 39.114C91.9599 39.2867 92.0354 39.4362 92.135 39.5625C92.2348 39.6892 92.3612 39.7903 92.5144 39.866C92.6674 39.9421 92.8434 39.9801 93.043 39.9801C93.3167 39.9801 93.5509 39.9088 93.7457 39.7662C93.9405 39.6237 94.0703 39.421 94.1352 39.1588H94.6014C94.5505 39.329 94.4832 39.4865 94.3997 39.6314C94.3162 39.7766 94.2118 39.9031 94.0866 40.0112C93.9613 40.1193 93.8129 40.2033 93.6415 40.2631C93.4697 40.3227 93.2703 40.3528 93.043 40.3528C92.7553 40.3528 92.5071 40.3043 92.2985 40.2078C92.0898 40.1114 91.9182 39.9791 91.7837 39.811C91.6491 39.643 91.5495 39.4453 91.4844 39.2175C91.4194 38.9897 91.3873 38.7449 91.3873 38.4825C91.3873 38.2204 91.4254 37.9742 91.502 37.7441C91.5787 37.514 91.6874 37.3129 91.8289 37.1402C91.9705 36.9677 92.1432 36.8321 92.3472 36.7331C92.5514 36.6341 92.7833 36.5847 93.043 36.5847C93.5392 36.5847 93.929 36.7538 94.2118 37.0919C94.4947 37.4301 94.634 37.9214 94.6291 38.5653H91.8324Z" fill="white"/>
</g>
<mask id="mask6_218_1260" style="mask-type:luminance" maskUnits="userSpaceOnUse" x="27" y="-1" width="113" height="43">
<path d="M27.1765 41.7192H139.456V-0.390106H27.1765V41.7192Z" fill="white"/>
</mask>
<g mask="url(#mask6_218_1260)">
<path fill-rule="evenodd" clip-rule="evenodd" d="M95.6661 40.2562H95.2488V36.6813H95.6661V37.2197H95.6801C95.7865 37.0126 95.9395 36.8552 96.1394 36.7468C96.3387 36.639 96.5567 36.5846 96.7932 36.5846C96.9602 36.5846 97.1017 36.603 97.2176 36.6399C97.3337 36.677 97.4321 36.7261 97.5133 36.7885C97.5943 36.8504 97.6617 36.923 97.7152 37.0058C97.7684 37.0884 97.8134 37.1783 97.8505 37.2748C97.9712 37.0402 98.1325 36.8665 98.3344 36.7537C98.536 36.641 98.7668 36.5846 99.0265 36.5846C99.2724 36.5846 99.4684 36.6251 99.6145 36.7054C99.7606 36.786 99.873 36.8918 99.952 37.0229C100.031 37.1542 100.083 37.3048 100.108 37.475C100.134 37.6452 100.147 37.82 100.147 37.9995V40.2562H99.7292V37.7856C99.7292 37.528 99.6748 37.3255 99.5658 37.1783C99.4566 37.0311 99.2539 36.9573 98.957 36.9573C98.804 36.9573 98.6565 36.9908 98.5151 37.0575C98.3736 37.1241 98.2497 37.2268 98.143 37.3647C98.0965 37.4245 98.0584 37.4946 98.0281 37.5751C97.9978 37.6555 97.9737 37.7394 97.9551 37.8268C97.9363 37.9144 97.9237 38.0018 97.9168 38.0894C97.9097 38.1766 97.9065 38.2573 97.9065 38.3306V40.2562H97.4888V37.7856C97.4888 37.528 97.4344 37.3255 97.3254 37.1783C97.2164 37.0311 97.0134 36.9573 96.7166 36.9573C96.5635 36.9573 96.4165 36.9908 96.2747 37.0575C96.1332 37.1241 96.0093 37.2268 95.9026 37.3647C95.8563 37.4245 95.818 37.4946 95.7877 37.5751C95.7574 37.6555 95.7333 37.7394 95.7147 37.8268C95.6961 37.9144 95.6835 38.0018 95.6764 38.0894C95.6695 38.1766 95.6661 38.2573 95.6661 38.3306V40.2562Z" fill="white"/>
</g>
<mask id="mask7_218_1260" style="mask-type:luminance" maskUnits="userSpaceOnUse" x="27" y="-1" width="113" height="43">
<path d="M27.1765 41.7192H139.456V-0.390106H27.1765V41.7192Z" fill="white"/>
</mask>
<g mask="url(#mask7_218_1260)">
<path fill-rule="evenodd" clip-rule="evenodd" d="M103.57 38.2204C103.57 38.0454 103.545 37.8811 103.497 37.7268C103.448 37.5728 103.376 37.4392 103.281 37.3265C103.186 37.2139 103.066 37.1242 102.923 37.0576C102.779 36.9909 102.614 36.9572 102.429 36.9572C102.243 36.9572 102.08 36.992 101.938 37.0608C101.797 37.1299 101.676 37.2219 101.576 37.3368C101.477 37.4519 101.396 37.5853 101.336 37.7373C101.276 37.8891 101.237 38.0502 101.218 38.2204H103.57ZM101.218 38.5653C101.218 38.7585 101.243 38.9415 101.295 39.114C101.346 39.2867 101.421 39.4362 101.521 39.5625C101.62 39.6892 101.747 39.7903 101.9 39.866C102.053 39.9421 102.229 39.9801 102.429 39.9801C102.702 39.9801 102.937 39.9088 103.131 39.7662C103.326 39.6237 103.456 39.421 103.521 39.1588H103.987C103.936 39.329 103.869 39.4865 103.785 39.6314C103.702 39.7766 103.597 39.9031 103.472 40.0112C103.347 40.1193 103.199 40.2033 103.027 40.2631C102.855 40.3227 102.656 40.3528 102.429 40.3528C102.141 40.3528 101.893 40.3043 101.684 40.2078C101.475 40.1114 101.304 39.9791 101.169 39.811C101.035 39.643 100.935 39.4453 100.87 39.2175C100.805 38.9897 100.773 38.7449 100.773 38.4825C100.773 38.2204 100.811 37.9742 100.888 37.7441C100.964 37.514 101.073 37.3129 101.215 37.1402C101.356 36.9677 101.529 36.8321 101.733 36.7331C101.937 36.6341 102.169 36.5847 102.429 36.5847C102.925 36.5847 103.315 36.7538 103.597 37.0919C103.88 37.4301 104.02 37.9214 104.015 38.5653H101.218Z" fill="white"/>
</g>
<mask id="mask8_218_1260" style="mask-type:luminance" maskUnits="userSpaceOnUse" x="27" y="-1" width="113" height="43">
<path d="M27.1765 41.7192H139.456V-0.390106H27.1765V41.7192Z" fill="white"/>
</mask>
<g mask="url(#mask8_218_1260)">
<path fill-rule="evenodd" clip-rule="evenodd" d="M105.107 40.2562H104.69V36.6813H105.107V37.1783C105.275 37.0035 105.447 36.8608 105.626 36.7505C105.804 36.6399 106.019 36.5846 106.269 36.5846C106.492 36.5846 106.698 36.6226 106.889 36.6986C107.079 36.7744 107.239 36.9068 107.369 37.0955C107.457 37.2243 107.509 37.3567 107.525 37.4923C107.541 37.6279 107.55 37.7695 107.55 37.9167V40.2562H107.132V37.9235C107.132 37.6015 107.06 37.3599 106.917 37.1988C106.773 37.0379 106.534 36.9573 106.2 36.9573C106.07 36.9573 105.952 36.9771 105.845 37.016C105.738 37.0554 105.642 37.1068 105.556 37.1712C105.47 37.2359 105.397 37.3094 105.337 37.3922C105.277 37.475 105.23 37.5624 105.198 37.6543C105.156 37.7695 105.131 37.8801 105.121 37.9856C105.112 38.0915 105.107 38.2064 105.107 38.3306V40.2562Z" fill="white"/>
</g>
<mask id="mask9_218_1260" style="mask-type:luminance" maskUnits="userSpaceOnUse" x="27" y="-1" width="113" height="43">
<path d="M27.1765 41.7192H139.456V-0.390106H27.1765V41.7192Z" fill="white"/>
</mask>
<g mask="url(#mask9_218_1260)">
<path fill-rule="evenodd" clip-rule="evenodd" d="M109.685 40.2699C109.634 40.279 109.567 40.2952 109.484 40.3184C109.4 40.3411 109.307 40.3528 109.205 40.3528C108.997 40.3528 108.838 40.3011 108.729 40.1976C108.619 40.094 108.565 39.9088 108.565 39.6419V37.0264H108.057V36.6812H108.565V35.6874H108.983V36.6812H109.658V37.0264H108.983V39.4764C108.983 39.5636 108.985 39.6396 108.99 39.7042C108.994 39.7686 109.008 39.8212 109.031 39.8628C109.054 39.9042 109.09 39.9341 109.139 39.9525C109.188 39.9711 109.256 39.9802 109.344 39.9802C109.4 39.9802 109.457 39.9755 109.515 39.9664C109.573 39.957 109.63 39.9454 109.685 39.9318V40.2699Z" fill="white"/>
</g>
<mask id="mask10_218_1260" style="mask-type:luminance" maskUnits="userSpaceOnUse" x="27" y="-1" width="113" height="43">
<path d="M27.1765 41.7192H139.456V-0.390106H27.1765V41.7192Z" fill="white"/>
</mask>
<g mask="url(#mask10_218_1260)">
<path fill-rule="evenodd" clip-rule="evenodd" d="M114.792 38.4548C114.792 38.2525 114.764 38.0605 114.709 37.8787C114.653 37.6971 114.573 37.5382 114.468 37.4026C114.364 37.2668 114.237 37.1587 114.086 37.0781C113.935 36.9978 113.764 36.9573 113.574 36.9573C113.356 36.9573 113.169 36.9998 113.011 37.0849C112.853 37.17 112.723 37.2863 112.621 37.4336C112.519 37.5808 112.445 37.7521 112.399 37.9476C112.352 38.1433 112.334 38.3538 112.343 38.5791C112.343 38.8046 112.374 39.0035 112.437 39.1762C112.499 39.3487 112.587 39.4947 112.698 39.6144C112.809 39.7339 112.939 39.8249 113.087 39.887C113.236 39.9489 113.398 39.9801 113.574 39.9801C113.769 39.9801 113.943 39.941 114.096 39.8627C114.249 39.7846 114.377 39.6777 114.479 39.5418C114.581 39.4062 114.659 39.2451 114.712 39.0587C114.765 38.8724 114.792 38.6712 114.792 38.4548ZM114.792 35.2873H115.209V40.2561H114.792V39.6281H114.778C114.718 39.748 114.64 39.8525 114.545 39.9421C114.45 40.032 114.346 40.1066 114.232 40.1663C114.118 40.2263 114.001 40.2721 113.881 40.3044C113.76 40.3367 113.641 40.3528 113.526 40.3528C113.234 40.3528 112.985 40.3044 112.781 40.2079C112.577 40.1112 112.409 39.979 112.277 39.811C112.145 39.6431 112.048 39.4442 111.988 39.2142C111.928 38.9841 111.898 38.7379 111.898 38.4758C111.898 38.2273 111.93 37.9879 111.995 37.7578C112.06 37.528 112.159 37.3266 112.291 37.1541C112.423 36.9814 112.59 36.8435 112.792 36.74C112.993 36.6364 113.231 36.5845 113.505 36.5845C113.76 36.5845 114.005 36.641 114.239 36.7536C114.473 36.8667 114.658 37.0333 114.792 37.2542V35.2873Z" fill="white"/>
</g>
<mask id="mask11_218_1260" style="mask-type:luminance" maskUnits="userSpaceOnUse" x="27" y="-1" width="113" height="43">
<path d="M27.1765 41.7192H139.456V-0.390106H27.1765V41.7192Z" fill="white"/>
</mask>
<g mask="url(#mask11_218_1260)">
<path fill-rule="evenodd" clip-rule="evenodd" d="M118.563 36.6813H118.98V40.2562H118.563V39.7592C118.507 39.8238 118.445 39.8905 118.375 39.9594C118.306 40.0284 118.225 40.0916 118.135 40.1492C118.045 40.2068 117.939 40.255 117.819 40.2942C117.698 40.3331 117.559 40.3529 117.401 40.3529C117.16 40.3529 116.958 40.3192 116.796 40.2525C116.633 40.1861 116.503 40.0928 116.403 39.9733C116.303 39.8536 116.231 39.7143 116.187 39.5557C116.143 39.3971 116.121 39.2233 116.121 39.0346V36.6813H116.538V39.0278C116.538 39.3359 116.61 39.5719 116.754 39.7351C116.898 39.8984 117.134 39.9801 117.464 39.9801C117.635 39.9801 117.79 39.9469 117.927 39.88C118.063 39.8136 118.178 39.72 118.271 39.6006C118.364 39.4811 118.435 39.3384 118.487 39.1725C118.537 39.0071 118.563 38.8253 118.563 38.6275V36.6813Z" fill="white"/>
</g>
<mask id="mask12_218_1260" style="mask-type:luminance" maskUnits="userSpaceOnUse" x="27" y="-1" width="113" height="43">
<path d="M27.1765 41.7192H139.456V-0.390106H27.1765V41.7192Z" fill="white"/>
</mask>
<g mask="url(#mask12_218_1260)">
<path fill-rule="evenodd" clip-rule="evenodd" d="M122.181 39.8559H123.315C123.528 39.8559 123.729 39.8432 123.917 39.8179C124.105 39.7927 124.296 39.7294 124.491 39.6281C124.658 39.5453 124.795 39.4327 124.901 39.29C125.008 39.1476 125.093 38.9921 125.155 38.8242C125.218 38.6563 125.262 38.4804 125.288 38.2963C125.313 38.1122 125.326 37.9351 125.326 37.7649C125.326 37.5852 125.314 37.4027 125.291 37.2161C125.268 37.0299 125.224 36.8529 125.159 36.6847C125.094 36.5168 125.006 36.3627 124.894 36.2223C124.783 36.0822 124.639 35.9659 124.463 35.874C124.315 35.7957 124.138 35.7452 123.934 35.722C123.73 35.699 123.524 35.6876 123.315 35.6876H122.181V39.8559ZM121.708 40.2562V35.2873H123.419C123.559 35.2873 123.696 35.2907 123.83 35.2978C123.964 35.3046 124.097 35.3205 124.227 35.346C124.356 35.3713 124.483 35.4093 124.606 35.4598C124.728 35.5103 124.848 35.577 124.964 35.6601C125.131 35.7797 125.268 35.9258 125.375 36.0981C125.481 36.2706 125.566 36.4526 125.628 36.6433C125.691 36.8345 125.735 37.0274 125.761 37.2231C125.786 37.4186 125.799 37.5993 125.799 37.7649C125.799 37.9304 125.789 38.0983 125.768 38.2685C125.747 38.4387 125.713 38.6057 125.667 38.7691C125.62 38.9323 125.559 39.0888 125.482 39.2381C125.406 39.3876 125.31 39.5246 125.194 39.6489C125.078 39.7776 124.951 39.8812 124.814 39.9595C124.678 40.0377 124.534 40.0985 124.383 40.1424C124.232 40.1861 124.076 40.2159 123.913 40.2318C123.751 40.2482 123.587 40.2562 123.419 40.2562H121.708Z" fill="white"/>
</g>
<mask id="mask13_218_1260" style="mask-type:luminance" maskUnits="userSpaceOnUse" x="27" y="-1" width="113" height="43">
<path d="M27.1765 41.7192H139.456V-0.390106H27.1765V41.7192Z" fill="white"/>
</mask>
<g mask="url(#mask13_218_1260)">
<path fill-rule="evenodd" clip-rule="evenodd" d="M126.623 40.2561H127.133V36.6812H126.623V40.2561ZM126.571 35.9014H127.133V35.2872H126.571V35.9014Z" fill="white"/>
</g>
<mask id="mask14_218_1260" style="mask-type:luminance" maskUnits="userSpaceOnUse" x="27" y="-1" width="113" height="43">
<path d="M27.1765 41.7192H139.456V-0.390106H27.1765V41.7192Z" fill="white"/>
</mask>
<g mask="url(#mask14_218_1260)">
<path fill-rule="evenodd" clip-rule="evenodd" d="M130.718 38.4827C130.718 38.2665 130.691 38.0651 130.638 37.8787C130.584 37.6924 130.507 37.5313 130.405 37.3956C130.302 37.26 130.175 37.1531 130.022 37.0748C129.869 36.9967 129.695 36.9574 129.5 36.9574C129.324 36.9574 129.162 36.9885 129.013 37.0507C128.865 37.1126 128.735 37.2036 128.624 37.323C128.512 37.443 128.425 37.5888 128.362 37.7613C128.3 37.934 128.269 38.1331 128.269 38.3584C128.259 38.5837 128.278 38.7944 128.324 38.9899C128.371 39.1856 128.445 39.3569 128.547 39.5039C128.649 39.6514 128.779 39.7674 128.936 39.8525C129.094 39.9379 129.282 39.9802 129.5 39.9802C129.69 39.9802 129.861 39.9399 130.011 39.8594C130.162 39.7788 130.29 39.6709 130.394 39.5351C130.499 39.3992 130.579 39.2406 130.634 39.0588C130.69 38.877 130.718 38.6852 130.718 38.4827ZM130.718 36.6813H131.135V39.911C131.135 40.1504 131.111 40.3793 131.062 40.5978C131.013 40.8162 130.926 41.0085 130.801 41.1739C130.676 41.3398 130.504 41.472 130.286 41.5708C130.068 41.6698 129.788 41.7194 129.444 41.7194C129.18 41.7194 128.953 41.6857 128.763 41.619C128.572 41.5524 128.417 41.4684 128.296 41.3674C128.176 41.2659 128.084 41.1544 128.022 41.0326C127.959 40.9107 127.925 40.7969 127.921 40.6911H128.366C128.398 40.8244 128.449 40.9336 128.519 41.019C128.589 41.1041 128.671 41.1708 128.766 41.2188C128.861 41.2672 128.967 41.3007 129.083 41.3191C129.198 41.3373 129.319 41.3466 129.444 41.3466C129.727 41.3466 129.955 41.2982 130.126 41.2017C130.298 41.105 130.428 40.9785 130.516 40.8221C130.604 40.6656 130.661 40.4883 130.686 40.2906C130.712 40.0928 130.722 39.8905 130.718 39.6832C130.583 39.9042 130.399 40.071 130.165 40.1838C129.93 40.2965 129.686 40.3529 129.431 40.3529C129.157 40.3529 128.919 40.301 128.717 40.1975C128.516 40.094 128.349 39.9561 128.217 39.7836C128.084 39.6109 127.986 39.4097 127.921 39.1797C127.856 38.9496 127.823 38.7104 127.823 38.4619C127.823 38.1996 127.854 37.9536 127.914 37.7235C127.974 37.4935 128.07 37.2944 128.203 37.1264C128.335 36.9587 128.503 36.8263 128.707 36.7298C128.911 36.6331 129.159 36.5846 129.451 36.5846C129.567 36.5846 129.686 36.6008 129.806 36.6331C129.927 36.6654 130.044 36.7114 130.158 36.7712C130.271 36.8308 130.376 36.9068 130.471 36.9988C130.566 37.0909 130.644 37.1945 130.704 37.3094H130.718V36.6813Z" fill="white"/>
</g>
<mask id="mask15_218_1260" style="mask-type:luminance" maskUnits="userSpaceOnUse" x="27" y="-1" width="113" height="43">
<path d="M27.1765 41.7192H139.456V-0.390106H27.1765V41.7192Z" fill="white"/>
</mask>
<g mask="url(#mask15_218_1260)">
<path fill-rule="evenodd" clip-rule="evenodd" d="M132.14 40.2561H132.65V36.6812H132.14V40.2561ZM132.088 35.9014H132.65V35.2872H132.088V35.9014Z" fill="white"/>
</g>
<mask id="mask16_218_1260" style="mask-type:luminance" maskUnits="userSpaceOnUse" x="27" y="-1" width="113" height="43">
<path d="M27.1765 41.7192H139.456V-0.390106H27.1765V41.7192Z" fill="white"/>
</mask>
<g mask="url(#mask16_218_1260)">
<path fill-rule="evenodd" clip-rule="evenodd" d="M134.718 40.2699C134.667 40.279 134.6 40.2952 134.516 40.3184C134.433 40.3411 134.34 40.3528 134.238 40.3528C134.029 40.3528 133.87 40.3011 133.761 40.1976C133.652 40.094 133.598 39.9088 133.598 39.6419V37.0264H133.09V36.6812H133.598V35.6874H134.015V36.6812H134.69V37.0264H134.015V39.4764C134.015 39.5636 134.018 39.6396 134.022 39.7042C134.027 39.7686 134.041 39.8212 134.064 39.8628C134.087 39.9042 134.123 39.9341 134.172 39.9525C134.221 39.9711 134.289 39.9802 134.377 39.9802C134.433 39.9802 134.489 39.9755 134.548 39.9664C134.606 39.957 134.662 39.9454 134.718 39.9318V40.2699Z" fill="white"/>
</g>
<mask id="mask17_218_1260" style="mask-type:luminance" maskUnits="userSpaceOnUse" x="27" y="-1" width="113" height="43">
<path d="M27.1765 41.7192H139.456V-0.390106H27.1765V41.7192Z" fill="white"/>
</mask>
<g mask="url(#mask17_218_1260)">
<path fill-rule="evenodd" clip-rule="evenodd" d="M137.606 38.3791C137.429 38.4526 137.251 38.5011 137.07 38.524C136.889 38.547 136.708 38.5652 136.527 38.5791C136.207 38.6021 135.958 38.6735 135.779 38.793C135.601 38.9129 135.511 39.0945 135.511 39.3385C135.511 39.4486 135.533 39.5442 135.577 39.6247C135.622 39.7053 135.679 39.7719 135.751 39.825C135.823 39.8778 135.907 39.9169 136.002 39.9422C136.097 39.9674 136.193 39.9802 136.291 39.9802C136.458 39.9802 136.62 39.9595 136.778 39.918C136.935 39.8766 137.075 39.8136 137.199 39.7283C137.321 39.6432 137.42 39.5351 137.494 39.404C137.568 39.2729 137.606 39.1175 137.606 38.938V38.3791ZM136.903 38.172C136.982 38.1629 137.075 38.149 137.185 38.1306C137.294 38.1122 137.383 38.0869 137.452 38.0546C137.522 38.0227 137.565 37.9684 137.581 37.8923C137.597 37.8166 137.606 37.7465 137.606 37.6821C137.606 37.4705 137.537 37.2966 137.4 37.161C137.263 37.0254 137.033 36.9573 136.708 36.9573C136.564 36.9573 136.432 36.9703 136.311 36.9953C136.191 37.0206 136.085 37.0645 135.995 37.1264C135.904 37.1888 135.83 37.2714 135.772 37.3749C135.714 37.4784 135.676 37.6084 135.657 37.7649H135.233C135.247 37.5533 135.296 37.3726 135.379 37.2231C135.463 37.0738 135.57 36.9519 135.703 36.8574C135.835 36.763 135.988 36.694 136.162 36.6501C136.336 36.6067 136.52 36.5846 136.715 36.5846C136.896 36.5846 137.066 36.6044 137.226 36.6433C137.386 36.6827 137.525 36.7446 137.644 36.8297C137.762 36.9148 137.855 37.0288 137.922 37.1712C137.989 37.3139 138.023 37.4889 138.023 37.6957V39.642C138.023 39.8031 138.052 39.9055 138.11 39.949C138.168 39.9929 138.285 39.9824 138.461 39.918V40.2423C138.429 40.2516 138.381 40.2653 138.319 40.2837C138.256 40.3021 138.194 40.3112 138.134 40.3112C138.069 40.3112 138.007 40.3044 137.946 40.2905C137.877 40.2814 137.821 40.2598 137.779 40.225C137.738 40.1906 137.704 40.1492 137.678 40.1008C137.653 40.0525 137.636 39.9997 137.626 39.9422C137.617 39.8846 137.612 39.8238 137.612 39.7592C137.436 39.9526 137.234 40.0999 137.007 40.2011C136.78 40.3021 136.534 40.3529 136.27 40.3529C136.112 40.3529 135.96 40.3322 135.814 40.2905C135.668 40.2494 135.539 40.185 135.428 40.0976C135.316 40.0102 135.228 39.903 135.163 39.7767C135.098 39.65 135.066 39.4996 135.066 39.3243C135.066 38.7172 135.486 38.3584 136.325 38.248L136.903 38.172Z" fill="white"/>
</g>
<mask id="mask18_218_1260" style="mask-type:luminance" maskUnits="userSpaceOnUse" x="27" y="-1" width="113" height="43">
<path d="M27.1765 41.7192H139.456V-0.390106H27.1765V41.7192Z" fill="white"/>
</mask>
<g mask="url(#mask18_218_1260)">
<path fill-rule="evenodd" clip-rule="evenodd" d="M139.039 40.2561H139.456V35.2872H139.039V40.2561Z" fill="white"/>
</g>
<mask id="mask19_218_1260" style="mask-type:luminance" maskUnits="userSpaceOnUse" x="52" y="-1" width="31" height="31">
<path d="M52.5353 -0.390106H82.3577V29.7032H52.5353V-0.390106Z" fill="white"/>
</mask>
<g mask="url(#mask19_218_1260)">
<path fill-rule="evenodd" clip-rule="evenodd" d="M76.5912 19.8854L67.4248 0.847727L58.2586 19.8854H76.5912ZM67.0375 -0.390167H67.8552L82.3577 29.7032H81.3246L77.0213 20.7389H57.8285L53.5252 29.7032H52.5353L67.0375 -0.390167Z" fill="white"/>
</g>
<path fill-rule="evenodd" clip-rule="evenodd" d="M94.6131 28.8493C96.8219 28.8493 98.852 28.4864 100.703 27.7607C102.553 27.0348 104.138 26.0392 105.458 24.7727C106.777 23.507 107.803 22.027 108.535 20.3335C109.266 18.6408 109.632 16.8121 109.632 14.8486V14.7633C109.632 12.7995 109.266 10.9642 108.535 9.25667C107.803 7.54933 106.77 6.05544 105.436 4.77476C104.102 3.49409 102.51 2.49103 100.66 1.76558C98.8086 1.03991 96.7648 0.677192 94.5271 0.677192H85.8345V28.8493H94.6131ZM84.8875 -0.176819H94.5702C96.9511 -0.176819 99.1169 0.20752 101.068 0.975743C103.019 1.74419 104.704 2.79731 106.125 4.13465C107.545 5.47244 108.642 7.04439 109.417 8.85139C110.191 10.6586 110.579 12.6149 110.579 14.7205V14.8058C110.579 16.912 110.191 18.8683 109.417 20.6749C108.642 22.4826 107.545 24.0545 106.125 25.3916C104.704 26.7299 103.019 27.7821 101.068 28.5508C99.1169 29.3188 96.9511 29.7031 94.5702 29.7031H84.8875V-0.176819Z" fill="white"/>
<path fill-rule="evenodd" clip-rule="evenodd" d="M123.207 28.8493C125.416 28.8493 127.446 28.4864 129.296 27.7607C131.146 27.0348 132.732 26.0392 134.051 24.7727C135.37 23.507 136.397 22.027 137.128 20.3335C137.86 18.6408 138.225 16.8121 138.225 14.8486V14.7633C138.225 12.7995 137.86 10.9642 137.128 9.25667C136.397 7.54933 135.364 6.05544 134.03 4.77476C132.696 3.49409 131.104 2.49103 129.253 1.76558C127.403 1.03991 125.359 0.677192 123.121 0.677192H114.428V28.8493H123.207ZM113.481 -0.176819H123.164C125.545 -0.176819 127.711 0.20752 129.662 0.975743C131.613 1.74419 133.298 2.79731 134.718 4.13465C136.138 5.47244 137.236 7.04439 138.01 8.85139C138.785 10.6586 139.172 12.6149 139.172 14.7205V14.8058C139.172 16.912 138.785 18.8683 138.01 20.6749C137.236 22.4826 136.138 24.0545 134.718 25.3916C133.298 26.7299 131.613 27.7821 129.662 28.5508C127.711 29.3188 125.545 29.7031 123.164 29.7031H113.481V-0.176819Z" fill="white"/>
<path fill-rule="evenodd" clip-rule="evenodd" d="M44.8339 1.49008L43.8858 6.98324H38.3861L39.3342 1.49008H34.3273L33.3792 6.98324H29.2069V11.7992H32.5446L31.5962 17.3672H27.879V22.1829H30.7618L29.7756 27.8267H34.7825L35.7685 22.1829H41.2686L40.2822 27.8267H45.2893L46.2756 22.1829H50.4476V17.3672H47.1099L48.0579 11.7992H51.7752V6.98324H48.8925L49.8408 1.49008H44.8339ZM37.5513 11.7992H43.0509L42.103 17.3672H36.6031L37.5513 11.7992Z" fill="white"/>
</g>
</g>
<defs>
<clipPath id="clip0_218_1260">
<rect width="165.529" height="42" fill="white"/>
</clipPath>
<clipPath id="clip1_218_1260">
<rect width="112.412" height="42.857" fill="white" transform="translate(27.1765 -0.617645)"/>
</clipPath>
</defs>
</svg>
