<svg width="37" height="37" viewBox="0 0 37 37" fill="none" xmlns="http://www.w3.org/2000/svg">
<path opacity="0.1" fill-rule="evenodd" clip-rule="evenodd" d="M18.5 36C28.165 36 36 28.165 36 18.5C36 8.83502 28.165 1 18.5 1C8.83502 1 1 8.83502 1 18.5C1 28.165 8.83502 36 18.5 36Z" stroke="white" stroke-width="1.5"/>
<path d="M15.0999 23.1666H12.2666V14.6666H15.0999V23.1666ZM13.6838 13.5333C12.9001 13.5333 12.2666 12.8981 12.2666 12.1161C12.2666 11.3341 12.9013 10.7 13.6838 10.7C14.4647 10.7 15.0999 11.3352 15.0999 12.1161C15.0999 12.8981 14.4647 13.5333 13.6838 13.5333ZM25.2999 23.1666H22.576V19.03C22.576 18.0434 22.5573 16.7746 21.1599 16.7746C19.7415 16.7746 19.5233 17.849 19.5233 18.9586V23.1666H16.7999V14.6604H19.4145V15.8226H19.4514C19.8152 15.154 20.7043 14.449 22.0303 14.449C24.7899 14.449 25.2999 16.2108 25.2999 18.5013V23.1666Z" fill="white"/>
</svg>
