<svg width="36" height="36" viewBox="0 0 36 36" fill="none" xmlns="http://www.w3.org/2000/svg">
<rect opacity="0.1" x="0.839233" width="34.9404" height="35.7037" rx="11.2004" fill="#818181" fill-opacity="0.75"/>
<path d="M11.3826 16.93C10.7993 16.8702 10.1967 16.8303 9.57458 16.7705C9.94396 13.6197 11.3826 11.1668 14.0265 9.55154C16.7482 7.89637 19.6059 7.8166 22.5414 9.09288C22.2693 9.67119 22.0165 10.2296 21.7638 10.7879C16.8454 8.51457 11.713 12.1639 11.3826 16.93ZM27.6349 15.9529C27.0517 16.0526 26.4684 16.1722 25.8463 16.272C26.1574 18.4456 25.7297 20.4199 24.4272 22.1349C23.1441 23.8499 21.4139 24.7871 19.2949 25.0264C19.3532 25.6446 19.3921 26.2429 19.4504 26.8411C23.8828 26.6816 28.6263 22.1349 27.6349 15.9529ZM11.3631 18.2263C10.7993 18.2661 10.2161 18.326 9.63291 18.3858C9.76899 22.1947 12.9961 26.4622 17.8757 26.881C17.934 26.2628 17.9729 25.6646 18.0312 25.0863C14.2209 24.4282 12.0047 22.1548 11.3631 18.2263ZM22.8525 11.446C23.4552 11.9047 23.9995 12.4032 24.4466 13.0214C24.8938 13.6197 25.2437 14.2977 25.5159 15.0156C26.0796 14.7963 26.6434 14.5968 27.2266 14.3775C26.5462 12.5428 25.4575 11.0671 23.8828 9.9105C23.5524 10.429 23.2024 10.9275 22.8525 11.446ZM19.0421 23.3912H18.3034C18.0312 23.3912 17.8174 23.1718 17.8174 22.8927V22.1747C17.2147 22.0551 16.6121 21.8158 16.0872 21.4369L15.5817 21.9554C15.3873 22.1548 15.0957 22.1548 14.9013 21.9554L14.3764 21.417C14.182 21.2175 14.182 20.9184 14.3764 20.719L14.8819 20.2005C14.5125 19.6621 14.2792 19.0439 14.1626 18.4257H13.4627C13.1905 18.4257 12.9767 18.2063 12.9767 17.9271V17.1693C12.9767 16.8901 13.1905 16.6708 13.4627 16.6708H14.182C14.2986 16.0526 14.5319 15.4344 14.9013 14.896L14.3958 14.3775C14.2014 14.1781 14.2014 13.8789 14.3958 13.6795L14.9207 13.1411C15.1151 12.9417 15.4068 12.9417 15.6012 13.1411L16.1066 13.6596C16.6315 13.3006 17.2147 13.0414 17.8174 12.9417V12.1839C17.8174 11.9047 18.0312 11.6853 18.3034 11.6853H19.0421C19.3143 11.6853 19.5282 11.9047 19.5282 12.1839V12.9417C20.1308 13.0613 20.714 13.3006 21.2389 13.6795L21.7638 13.1411C21.9582 12.9417 22.2498 12.9417 22.4442 13.1411L22.9691 13.6795C23.1635 13.8789 23.1635 14.1781 22.9691 14.3775L22.4442 14.9159C22.7942 15.4543 23.0469 16.0526 23.1635 16.6708H23.9023C24.1745 16.6708 24.3883 16.8901 24.3883 17.1693V17.9271C24.3883 18.2063 24.1745 18.4257 23.9023 18.4257H23.1635C23.0469 19.0439 22.8136 19.6421 22.4637 20.2005L22.9691 20.719C23.1635 20.9184 23.1635 21.2175 22.9691 21.417L22.4442 21.9554C22.2498 22.1548 21.9582 22.1548 21.7638 21.9554L21.2584 21.4369C20.7335 21.8158 20.1503 22.0551 19.5282 22.1747V22.9126C19.5282 23.1718 19.3143 23.3912 19.0421 23.3912ZM20.4224 19.343C21.3945 18.3459 21.3945 16.7306 20.4224 15.7335C19.4504 14.7364 17.8757 14.7364 16.9037 15.7335C15.9317 16.7306 15.9317 18.3459 16.9037 19.343C17.8951 20.3401 19.4698 20.3401 20.4224 19.343Z" fill="black" fill-opacity="0.37"/>
<path d="M19.0791 23.5689H18.324C18.0458 23.5689 17.8272 23.3447 17.8272 23.0593V22.3255C17.2112 22.2032 16.5952 21.9586 16.0586 21.5713L15.542 22.1013C15.3433 22.3051 15.0452 22.3051 14.8465 22.1013L14.31 21.5509C14.1113 21.3471 14.1113 21.0413 14.31 20.8375L14.8266 20.3075C14.4491 19.7572 14.2106 19.1253 14.0914 18.4934H13.3761C13.0979 18.4934 12.8793 18.2692 12.8793 17.9838V17.2092C12.8793 16.9239 13.0979 16.6996 13.3761 16.6996H14.1113C14.2305 16.0677 14.469 15.4359 14.8465 14.8855L14.3299 14.3555C14.1312 14.1517 14.1312 13.8459 14.3299 13.6421L14.8664 13.0918C15.0651 12.8879 15.3632 12.8879 15.5619 13.0918L16.0785 13.6217C16.615 13.2548 17.2112 12.9898 17.8272 12.8879V12.1133C17.8272 11.828 18.0458 11.6038 18.324 11.6038H19.0791C19.3573 11.6038 19.5758 11.828 19.5758 12.1133V12.8879C20.1918 13.0102 20.788 13.2548 21.3245 13.6421L21.861 13.0918C22.0597 12.8879 22.3578 12.8879 22.5565 13.0918L23.093 13.6421C23.2917 13.8459 23.2917 14.1517 23.093 14.3555L22.5565 14.9059C22.9142 15.4562 23.1725 16.0677 23.2917 16.6996H24.0468C24.325 16.6996 24.5436 16.9239 24.5436 17.2092V17.9838C24.5436 18.2692 24.325 18.4934 24.0468 18.4934H23.2917C23.1725 19.1253 22.9341 19.7368 22.5764 20.3075L23.093 20.8375C23.2917 21.0413 23.2917 21.3471 23.093 21.5509L22.5565 22.1013C22.3578 22.3051 22.0597 22.3051 21.861 22.1013L21.3444 21.5713C20.8078 21.9586 20.2117 22.2032 19.5758 22.3255V23.0797C19.5758 23.3447 19.3573 23.5689 19.0791 23.5689ZM20.4899 19.431C21.4835 18.4119 21.4835 16.7608 20.4899 15.7416C19.4964 14.7224 17.8868 14.7224 16.8932 15.7416C15.8997 16.7608 15.8997 18.4119 16.8932 19.431C17.9067 20.4502 19.5162 20.4502 20.4899 19.431Z" fill="black"/>
</svg>
