<svg width="37" height="37" viewBox="0 0 37 37" fill="none" xmlns="http://www.w3.org/2000/svg">
<path d="M18.8924 23.3188L16.1843 23.2682C15.3075 23.2506 14.4285 23.2858 13.5688 23.103C12.2611 22.83 12.1685 21.4914 12.0715 20.3686C11.938 18.79 11.9897 17.1828 12.2417 15.6175C12.384 14.7391 12.9441 14.215 13.8101 14.158C16.7337 13.951 19.6767 13.9755 22.5938 14.0721C22.9019 14.0809 23.2121 14.1293 23.5158 14.1844C25.0154 14.453 25.052 15.9699 25.1492 17.2469C25.2461 18.537 25.2052 19.8338 25.0199 21.1152C24.8712 22.1761 24.5868 23.0658 23.3866 23.1517C21.8827 23.264 20.4134 23.3544 18.9053 23.3256C18.9054 23.3188 18.8967 23.3188 18.8924 23.3188ZM17.3003 20.6328C18.4336 19.9679 19.5452 19.314 20.672 18.6535C19.5366 17.9886 18.4271 17.3347 17.3003 16.6743V20.6328Z" fill="white"/>
<path opacity="0.1" fill-rule="evenodd" clip-rule="evenodd" d="M18.5 36C28.165 36 36 28.165 36 18.5C36 8.83502 28.165 1 18.5 1C8.83502 1 1 8.83502 1 18.5C1 28.165 8.83502 36 18.5 36Z" stroke="white" stroke-width="1.5"/>
</svg>
