<svg width="36" height="36" viewBox="0 0 36 36" fill="none" xmlns="http://www.w3.org/2000/svg">
<path opacity="0.5" d="M25.1076 17.683C24.4285 20.7365 21.1462 23.06 17.2085 23.06C16.6502 23.06 16.093 23.0097 15.5435 22.9143C16.8936 24.0833 18.9839 24.673 21.1441 24.3535L24.0353 25.781C24.0846 25.8051 24.138 25.8172 24.1914 25.8172C24.2553 25.8172 24.3188 25.7999 24.3751 25.7658C24.4777 25.7031 24.5406 25.5921 24.5406 25.4725V22.8433C25.4424 22.0354 25.9371 21.0167 25.9371 19.9583C25.9371 19.1491 25.6449 18.3674 25.1076 17.683Z" fill="black"/>
<path d="M17.1253 10.4526C13.0136 10.4526 9.66895 13.0826 9.66895 16.3154C9.66895 17.558 10.1593 18.7426 11.0892 19.7503V23.2128C11.0892 23.3325 11.1531 23.4432 11.2575 23.5063C11.3147 23.5405 11.3793 23.5577 11.4443 23.5577C11.4986 23.5577 11.5529 23.5456 11.603 23.5215L14.9157 21.9127C15.6383 22.0889 16.3807 22.1782 17.1253 22.1782C21.2369 22.1782 24.5816 19.5482 24.5816 16.3154C24.5816 13.0826 21.2369 10.4526 17.1253 10.4526Z" fill="black"/>
<rect opacity="0.1" width="35.7" height="35.7" rx="15" fill="#818181" fill-opacity="0.75"/>
</svg>
