<svg width="91" height="35" viewBox="0 0 91 35" fill="none" xmlns="http://www.w3.org/2000/svg">
<g clip-path="url(#clip0_438_1211)">
<path fill-rule="evenodd" clip-rule="evenodd" d="M1.59386 29.0659L6.10352e-05 33.0883H0.394147L0.872918 31.8256H2.72022L3.18785 33.0883H3.58212L2.02769 29.0659H1.59386ZM1.79666 29.3899L2.59078 31.5017H1.00255L1.79666 29.3899Z" fill="white"/>
<mask id="mask0_438_1211" style="mask-type:luminance" maskUnits="userSpaceOnUse" x="3" y="30" width="4" height="5">
<path d="M3.875 30.116H6.55597V34.2726H3.875V30.116Z" fill="white"/>
</mask>
<g mask="url(#mask0_438_1211)">
<path fill-rule="evenodd" clip-rule="evenodd" d="M6.21797 31.6525C6.21797 31.4775 6.19643 31.3144 6.15316 31.1636C6.11007 31.0127 6.04711 30.8823 5.96447 30.7725C5.88183 30.6627 5.77876 30.5761 5.6547 30.5128C5.53083 30.4496 5.39006 30.4177 5.23239 30.4177C5.08957 30.4177 4.95827 30.4429 4.83811 30.4932C4.71796 30.5433 4.61284 30.617 4.52277 30.7137C4.43251 30.8108 4.36213 30.9289 4.31143 31.0685C4.26073 31.2083 4.23547 31.3695 4.23547 31.5519C4.22786 31.7343 4.2429 31.9048 4.28041 32.0631C4.31811 32.2215 4.3781 32.3602 4.46074 32.4792C4.5432 32.5986 4.6485 32.6925 4.77609 32.7614C4.90367 32.8305 5.05577 32.8648 5.23239 32.8648C5.38616 32.8648 5.52433 32.8322 5.64634 32.7669C5.76836 32.7017 5.87161 32.6144 5.95611 32.5044C6.04061 32.3945 6.10543 32.2661 6.15037 32.1189C6.1955 31.9717 6.21797 31.8164 6.21797 31.6525ZM6.21797 30.1943H6.55597V32.8088C6.55597 33.0025 6.53629 33.1879 6.49673 33.3647C6.45736 33.5415 6.38697 33.6972 6.28557 33.8311C6.18417 33.9654 6.04526 34.0724 5.86883 34.1524C5.69221 34.2325 5.46509 34.2727 5.18726 34.2727C4.97331 34.2727 4.78927 34.2454 4.63531 34.1914C4.48136 34.1375 4.35563 34.0695 4.25794 33.9877C4.16026 33.9055 4.08616 33.8153 4.03546 33.7167C3.98476 33.618 3.95764 33.5259 3.95393 33.4402H4.3144C4.34059 33.5482 4.38181 33.6366 4.43827 33.7057C4.49454 33.7746 4.56121 33.8285 4.6381 33.8674C4.71517 33.9067 4.8006 33.9337 4.89439 33.9487C4.98817 33.9634 5.08586 33.9709 5.18726 33.9709C5.41624 33.9709 5.60029 33.9317 5.7392 33.8536C5.87811 33.7753 5.98323 33.6729 6.05473 33.5463C6.12586 33.4196 6.17191 33.2761 6.19271 33.116C6.21333 32.9559 6.22169 32.7922 6.21797 32.6244C6.10914 32.8032 5.95983 32.9383 5.77021 33.0296C5.5806 33.1208 5.38244 33.1665 5.17611 33.1665C4.95437 33.1665 4.76216 33.1245 4.59873 33.0407C4.4353 32.9569 4.30029 32.8452 4.19331 32.7056C4.08616 32.5658 4.0063 32.4029 3.95393 32.2167C3.90119 32.0305 3.875 31.8369 3.875 31.6357C3.875 31.4233 3.89933 31.2242 3.94817 31.0379C3.99701 30.8517 4.07483 30.6905 4.18199 30.5546C4.28896 30.4188 4.42509 30.3116 4.59019 30.2335C4.75547 30.1552 4.95641 30.116 5.19283 30.116C5.2868 30.116 5.38244 30.129 5.48013 30.1552C5.57781 30.1814 5.67253 30.2186 5.76464 30.267C5.85657 30.3153 5.94107 30.3768 6.01814 30.4512C6.09503 30.5258 6.15799 30.6097 6.20664 30.7027H6.21797V30.1943Z" fill="white"/>
</g>
<path fill-rule="evenodd" clip-rule="evenodd" d="M9.40586 31.4401C9.40586 31.2984 9.38618 31.1654 9.3468 31.0405C9.30725 30.9158 9.24893 30.8077 9.17205 30.7165C9.09516 30.6253 8.9984 30.5527 8.88196 30.4988C8.76552 30.4448 8.63217 30.4175 8.48212 30.4175C8.33187 30.4175 8.19946 30.4457 8.08506 30.5013C7.97047 30.5573 7.87297 30.6318 7.79219 30.7248C7.7114 30.818 7.64659 30.9259 7.59793 31.049C7.5489 31.1719 7.51715 31.3023 7.5021 31.4401H9.40586ZM7.5021 31.7193C7.5021 31.8757 7.52272 32.0238 7.56413 32.1635C7.60536 32.3033 7.66627 32.4243 7.74706 32.5265C7.82785 32.6292 7.93017 32.7109 8.05405 32.7723C8.17792 32.8338 8.32073 32.8646 8.48212 32.8646C8.70367 32.8646 8.89329 32.8069 9.05096 32.6914C9.20863 32.5761 9.31375 32.412 9.36649 32.1998H9.74368C9.70245 32.3375 9.64803 32.465 9.58043 32.5824C9.51283 32.6999 9.42833 32.8023 9.32693 32.8898C9.22553 32.9773 9.10537 33.0453 8.96646 33.0937C8.82755 33.142 8.66616 33.1663 8.48212 33.1663C8.24923 33.1663 8.04847 33.1271 7.87947 33.049C7.71047 32.9709 7.57156 32.8638 7.46273 32.7277C7.35372 32.5918 7.27312 32.4317 7.22056 32.2473C7.16782 32.0629 7.14163 31.8647 7.14163 31.6523C7.14163 31.4401 7.17265 31.2408 7.23467 31.0545C7.29652 30.8683 7.38473 30.7054 7.49932 30.5656C7.6139 30.426 7.75375 30.3162 7.91885 30.2361C8.08413 30.1559 8.27189 30.116 8.48212 30.116C8.88382 30.116 9.19935 30.2528 9.42833 30.5266C9.65732 30.8003 9.77005 31.198 9.76633 31.7193H7.5021Z" fill="white"/>
<path fill-rule="evenodd" clip-rule="evenodd" d="M10.6506 33.0882H10.3126V30.1943H10.6506V30.5966C10.7858 30.4551 10.9254 30.3396 11.0701 30.2503C11.2148 30.1607 11.3884 30.116 11.591 30.116C11.7713 30.116 11.9385 30.1467 12.0924 30.2083C12.2464 30.2696 12.3758 30.3768 12.481 30.5295C12.5523 30.6338 12.5946 30.741 12.6078 30.8508C12.6208 30.9606 12.6275 31.0752 12.6275 31.1943V33.0882H12.2895V31.1999C12.2895 30.9392 12.2314 30.7436 12.1149 30.6132C11.9985 30.4829 11.8051 30.4177 11.5347 30.4177C11.4296 30.4177 11.334 30.4337 11.2474 30.4652C11.1611 30.4971 11.0833 30.5387 11.0138 30.5909C10.9444 30.6432 10.8851 30.7027 10.8363 30.7697C10.7876 30.8368 10.7499 30.9075 10.7237 30.9819C10.6899 31.0752 10.6693 31.1647 10.6619 31.2502C10.6543 31.3358 10.6506 31.4288 10.6506 31.5294V33.0882Z" fill="white"/>
<path fill-rule="evenodd" clip-rule="evenodd" d="M15.3986 31.1048C15.3384 30.8889 15.2354 30.7204 15.0888 30.5993C14.9423 30.4783 14.7564 30.4177 14.5313 30.4177C14.3584 30.4177 14.2102 30.4531 14.0863 30.5238C13.9623 30.5945 13.8609 30.6887 13.7821 30.806C13.7032 30.9234 13.6451 31.0554 13.6074 31.2026C13.5699 31.3498 13.5511 31.4979 13.5511 31.6468C13.5511 31.7995 13.5689 31.9485 13.6046 32.0937C13.6403 32.239 13.6976 32.3694 13.7766 32.4847C13.8553 32.6002 13.9567 32.6923 14.0806 32.7612C14.2045 32.8303 14.3547 32.8648 14.5313 32.8648C14.7828 32.8648 14.9846 32.7959 15.1367 32.6581C15.2888 32.5203 15.3854 32.3302 15.4266 32.0881H15.7873C15.7572 32.2482 15.7093 32.3945 15.6436 32.5267C15.5778 32.659 15.4933 32.7725 15.3902 32.8673C15.2868 32.9624 15.1639 33.0359 15.0212 33.0882C14.8784 33.1403 14.7152 33.1663 14.5313 33.1663C14.2984 33.1663 14.0975 33.1273 13.9285 33.0492C13.7595 32.9709 13.6206 32.8638 13.5117 32.7279C13.4027 32.5918 13.3221 32.4308 13.2696 32.2445C13.2168 32.0585 13.1906 31.8592 13.1906 31.6468C13.1906 31.4458 13.2198 31.2529 13.2781 31.0685C13.3362 30.8843 13.4217 30.7213 13.5342 30.5796C13.6469 30.4382 13.7868 30.3256 13.9539 30.2416C14.1209 30.1578 14.3135 30.116 14.5313 30.116C14.8691 30.116 15.1423 30.1961 15.3507 30.3564C15.5591 30.5164 15.6894 30.766 15.7422 31.1048H15.3986Z" fill="white"/>
<path fill-rule="evenodd" clip-rule="evenodd" d="M18.4626 31.4401C18.4626 31.2984 18.4429 31.1654 18.4035 31.0405C18.364 30.9158 18.3057 30.8077 18.2288 30.7165C18.1519 30.6253 18.0551 30.5527 17.9387 30.4988C17.8222 30.4448 17.6889 30.4175 17.5388 30.4175C17.3886 30.4175 17.2562 30.4457 17.1418 30.5013C17.0272 30.5573 16.9297 30.6318 16.8489 30.7248C16.7681 30.818 16.7033 30.9259 16.6547 31.049C16.6056 31.1719 16.5739 31.3023 16.5588 31.4401H18.4626ZM16.5588 31.7193C16.5588 31.8757 16.5794 32.0238 16.6209 32.1635C16.6621 32.3033 16.723 32.4243 16.8038 32.5265C16.8846 32.6292 16.9869 32.7109 17.1108 32.7723C17.2346 32.8338 17.3775 32.8646 17.5388 32.8646C17.7604 32.8646 17.95 32.8069 18.1077 32.6914C18.2654 32.5761 18.3705 32.412 18.4232 32.1998H18.8004C18.7592 32.3375 18.7048 32.465 18.6372 32.5824C18.5696 32.6999 18.4851 32.8023 18.3837 32.8898C18.2823 32.9773 18.1621 33.0453 18.0232 33.0937C17.8843 33.142 17.7229 33.1663 17.5388 33.1663C17.306 33.1663 17.1052 33.1271 16.9362 33.049C16.7672 32.9709 16.6283 32.8638 16.5195 32.7277C16.4104 32.5918 16.3298 32.4317 16.2773 32.2473C16.2245 32.0629 16.1984 31.8647 16.1984 31.6523C16.1984 31.4401 16.2294 31.2408 16.2914 31.0545C16.3532 30.8683 16.4415 30.7054 16.556 30.5656C16.6706 30.426 16.8105 30.3162 16.9756 30.2361C17.1409 30.1559 17.3286 30.116 17.5388 30.116C17.9405 30.116 18.2561 30.2528 18.4851 30.5266C18.7141 30.8003 18.8268 31.198 18.8231 31.7193H16.5588Z" fill="white"/>
<path fill-rule="evenodd" clip-rule="evenodd" d="M23.0754 31.6299C23.0754 31.4661 23.0529 31.3106 23.0078 31.1635C22.9628 31.0165 22.898 30.8879 22.8135 30.7781C22.729 30.6681 22.6258 30.5806 22.5038 30.5154C22.3818 30.4504 22.2436 30.4176 22.0898 30.4176C21.9132 30.4176 21.7611 30.452 21.6335 30.5209C21.5059 30.5898 21.4006 30.684 21.3182 30.8031C21.2355 30.9223 21.1755 31.061 21.1378 31.2193C21.1003 31.3777 21.0853 31.5481 21.0929 31.7305C21.0929 31.913 21.1181 32.074 21.1688 32.2138C21.2195 32.3535 21.2899 32.4717 21.3802 32.5686C21.4703 32.6653 21.5754 32.739 21.6955 32.7893C21.8157 32.8394 21.947 32.8646 22.0898 32.8646C22.2475 32.8646 22.3883 32.833 22.5121 32.7696C22.6362 32.7064 22.7392 32.6198 22.8219 32.5099C22.9045 32.4001 22.9675 32.2696 23.0106 32.1188C23.0538 31.9679 23.0754 31.8051 23.0754 31.6299ZM23.0754 29.0657H23.4134V33.0881H23.0754V32.5797H23.0641C23.0154 32.6768 22.9524 32.7613 22.8756 32.8339C22.7985 32.9066 22.714 32.9671 22.6221 33.0153C22.53 33.064 22.4352 33.101 22.3376 33.1271C22.2399 33.1533 22.1442 33.1664 22.0503 33.1664C21.8138 33.1664 21.6129 33.1271 21.4476 33.049C21.2825 32.9708 21.1464 32.8637 21.0394 32.7278C20.9322 32.5918 20.8544 32.4308 20.8056 32.2446C20.7568 32.0584 20.7324 31.859 20.7324 31.6468C20.7324 31.4457 20.7586 31.2519 20.8114 31.0656C20.8637 30.8796 20.9436 30.7166 21.0507 30.5769C21.1577 30.4371 21.2927 30.3255 21.4561 30.2417C21.6196 30.1579 21.8118 30.1159 22.0335 30.1159C22.2399 30.1159 22.438 30.1615 22.6276 30.2527C22.8173 30.3443 22.9666 30.4791 23.0754 30.658V29.0657Z" fill="white"/>
<path fill-rule="evenodd" clip-rule="evenodd" d="M26.2633 31.4401C26.2633 31.2984 26.2436 31.1654 26.2042 31.0405C26.1646 30.9158 26.1063 30.8077 26.0294 30.7165C25.9526 30.6253 25.8558 30.5527 25.7394 30.4988C25.6229 30.4448 25.4896 30.4175 25.3395 30.4175C25.1893 30.4175 25.0569 30.4457 24.9425 30.5013C24.8279 30.5573 24.7304 30.6318 24.6496 30.7248C24.5688 30.818 24.504 30.9259 24.4553 31.049C24.4063 31.1719 24.3745 31.3023 24.3595 31.4401H26.2633ZM24.3595 31.7193C24.3595 31.8757 24.3801 32.0238 24.4215 32.1635C24.4628 32.3033 24.5237 32.4243 24.6045 32.5265C24.6852 32.6292 24.7876 32.7109 24.9114 32.7723C25.0353 32.8338 25.1781 32.8646 25.3395 32.8646C25.5611 32.8646 25.7507 32.8069 25.9084 32.6914C26.066 32.5761 26.1711 32.412 26.2239 32.1998H26.6011C26.5598 32.3375 26.5054 32.465 26.4378 32.5824C26.3702 32.6999 26.2857 32.8023 26.1843 32.8898C26.0829 32.9773 25.9628 33.0453 25.8239 33.0937C25.6849 33.142 25.5236 33.1663 25.3395 33.1663C25.1066 33.1663 24.9059 33.1271 24.7369 33.049C24.5679 32.9709 24.429 32.8638 24.3201 32.7277C24.2111 32.5918 24.1305 32.4317 24.078 32.2473C24.0252 32.0629 23.999 31.8647 23.999 31.6523C23.999 31.4401 24.03 31.2408 24.0921 31.0545C24.1539 30.8683 24.2421 30.7054 24.3567 30.5656C24.4713 30.426 24.6111 30.3162 24.7762 30.2361C24.9415 30.1559 25.1293 30.116 25.3395 30.116C25.7412 30.116 26.0567 30.2528 26.2857 30.5266C26.5147 30.8003 26.6274 31.198 26.6237 31.7193H24.3595Z" fill="white"/>
<path fill-rule="evenodd" clip-rule="evenodd" d="M29.0569 32.7643H29.9749C30.1476 32.7643 30.3101 32.754 30.462 32.7335C30.6141 32.7131 30.769 32.6619 30.9269 32.5799C31.0619 32.5129 31.1727 32.4217 31.2591 32.3062C31.3455 32.1909 31.414 32.0651 31.4647 31.9291C31.5154 31.7932 31.551 31.6508 31.5717 31.5017C31.5923 31.3527 31.6027 31.2094 31.6027 31.0716C31.6027 30.9261 31.5932 30.7783 31.5744 30.6273C31.5557 30.4766 31.52 30.3333 31.4675 30.1972C31.4149 30.0612 31.3436 29.9365 31.2535 29.8228C31.1633 29.7094 31.0468 29.6152 30.9042 29.5408C30.784 29.4774 30.6414 29.4366 30.4763 29.4178C30.3108 29.3992 30.1439 29.3899 29.9749 29.3899H29.0569V32.7643ZM28.6738 33.0883V29.0659H30.0594C30.1721 29.0659 30.2828 29.0687 30.3916 29.0744C30.5005 29.0799 30.6076 29.0928 30.7127 29.1134C30.8178 29.1339 30.9202 29.1647 31.0197 29.2055C31.1191 29.2464 31.2158 29.3004 31.3098 29.3677C31.445 29.4645 31.5557 29.5828 31.642 29.7223C31.7284 29.8619 31.7969 30.0093 31.8476 30.1636C31.8983 30.3184 31.934 30.4746 31.9548 30.633C31.9752 30.7912 31.9856 30.9375 31.9856 31.0716C31.9856 31.2055 31.9773 31.3415 31.9604 31.4793C31.9435 31.6171 31.9162 31.7523 31.8786 31.8845C31.8411 32.0166 31.7914 32.1433 31.7293 32.2642C31.6675 32.3852 31.5895 32.4961 31.4957 32.5967C31.4017 32.7009 31.2994 32.7848 31.1887 32.8481C31.0778 32.9115 30.9614 32.9607 30.8396 32.9962C30.7174 33.0316 30.5907 33.0557 30.4592 33.0686C30.3277 33.0819 30.1946 33.0883 30.0594 33.0883H28.6738Z" fill="white"/>
<path fill-rule="evenodd" clip-rule="evenodd" d="M33.4162 29.8814L34.0413 29.1047H34.4749L33.7033 29.8814H33.4162ZM34.6891 31.4402C34.6891 31.2985 34.6694 31.1655 34.63 31.0406C34.5905 30.9159 34.5321 30.8078 34.4553 30.7166C34.3784 30.6254 34.2816 30.5528 34.1652 30.4988C34.0487 30.4449 33.9154 30.4176 33.7653 30.4176C33.6151 30.4176 33.4827 30.4456 33.3683 30.5014C33.2537 30.5574 33.1562 30.6318 33.0754 30.7249C32.9946 30.8181 32.9298 30.926 32.8811 31.0491C32.8321 31.1719 32.8003 31.3024 32.7853 31.4402H34.6891ZM32.7853 31.7194C32.7853 31.8758 32.8059 32.0239 32.8473 32.1636C32.8886 32.3032 32.9495 32.4244 33.0303 32.5266C33.1111 32.6292 33.2134 32.711 33.3373 32.7724C33.4611 32.8339 33.6039 32.8647 33.7653 32.8647C33.9869 32.8647 34.1765 32.807 34.3342 32.6915C34.4918 32.5762 34.597 32.4121 34.6497 32.1998H35.0269C34.9857 32.3376 34.9312 32.4651 34.8636 32.5824C34.796 32.7 34.7115 32.8022 34.6101 32.8899C34.5087 32.9774 34.3886 33.0454 34.2497 33.0936C34.1108 33.1421 33.9494 33.1664 33.7653 33.1664C33.5324 33.1664 33.3317 33.1272 33.1627 33.0491C32.9937 32.9708 32.8548 32.8637 32.7459 32.7278C32.6369 32.5918 32.5563 32.4318 32.5038 32.2474C32.451 32.063 32.4248 31.8648 32.4248 31.6524C32.4248 31.4402 32.4559 31.2408 32.5179 31.0546C32.5797 30.8684 32.6679 30.7055 32.7825 30.5657C32.8971 30.4261 33.0369 30.3163 33.202 30.2362C33.3673 30.156 33.5551 30.1159 33.7653 30.1159C34.167 30.1159 34.4826 30.2529 34.7115 30.5267C34.9405 30.8004 35.0533 31.1979 35.0495 31.7194H32.7853Z" fill="white"/>
<path fill-rule="evenodd" clip-rule="evenodd" d="M35.2861 30.1943H35.6521L36.5983 32.6749L37.5445 30.1943H37.9108L36.7787 33.0883H36.4013L35.2861 30.1943Z" fill="white"/>
<path fill-rule="evenodd" clip-rule="evenodd" d="M40.4115 31.4401C40.4115 31.2984 40.3918 31.1654 40.3525 31.0405C40.3129 30.9158 40.2546 30.8077 40.1777 30.7165C40.1008 30.6253 40.0041 30.5527 39.8876 30.4988C39.7712 30.4448 39.6378 30.4175 39.4878 30.4175C39.3375 30.4175 39.2051 30.4457 39.0907 30.5013C38.9762 30.5573 38.8787 30.6318 38.7979 30.7248C38.7171 30.818 38.6523 30.9259 38.6036 31.049C38.5546 31.1719 38.5228 31.3023 38.5078 31.4401H40.4115ZM38.5078 31.7193C38.5078 31.8757 38.5284 32.0238 38.5698 32.1635C38.611 32.3033 38.672 32.4243 38.7527 32.5265C38.8335 32.6292 38.9358 32.7109 39.0597 32.7723C39.1836 32.8338 39.3264 32.8646 39.4878 32.8646C39.7093 32.8646 39.899 32.8069 40.0566 32.6914C40.2143 32.5761 40.3194 32.412 40.3722 32.1998H40.7494C40.7081 32.3375 40.6537 32.465 40.5861 32.5824C40.5185 32.6999 40.434 32.8023 40.3326 32.8898C40.2312 32.9773 40.1111 33.0453 39.9721 33.0937C39.8332 33.142 39.6718 33.1663 39.4878 33.1663C39.2549 33.1663 39.0541 33.1271 38.8851 33.049C38.7161 32.9709 38.5772 32.8638 38.4684 32.7277C38.3594 32.5918 38.2788 32.4317 38.2262 32.2473C38.1735 32.0629 38.1473 31.8647 38.1473 31.6523C38.1473 31.4401 38.1783 31.2408 38.2403 31.0545C38.3022 30.8683 38.3904 30.7054 38.505 30.5656C38.6196 30.426 38.7594 30.3162 38.9245 30.2361C39.0898 30.1559 39.2776 30.116 39.4878 30.116C39.8895 30.116 40.205 30.2528 40.434 30.5266C40.663 30.8003 40.7757 31.198 40.772 31.7193H38.5078Z" fill="white"/>
<mask id="mask1_438_1211" style="mask-type:luminance" maskUnits="userSpaceOnUse" x="0" y="0" width="91" height="35">
<path d="M0 34.2726H90.893V0.184082H0V34.2726Z" fill="white"/>
</mask>
<g mask="url(#mask1_438_1211)">
<path fill-rule="evenodd" clip-rule="evenodd" d="M41.369 33.0881H41.707V29.0657H41.369V33.0881Z" fill="white"/>
</g>
<mask id="mask2_438_1211" style="mask-type:luminance" maskUnits="userSpaceOnUse" x="0" y="0" width="91" height="35">
<path d="M0 34.2726H90.893V0.184082H0V34.2726Z" fill="white"/>
</mask>
<g mask="url(#mask2_438_1211)">
<path fill-rule="evenodd" clip-rule="evenodd" d="M44.6074 31.6412C44.6074 31.4699 44.5887 31.3096 44.5512 31.1608C44.5136 31.0118 44.4553 30.8823 44.3766 30.7723C44.2977 30.6627 44.1963 30.5761 44.0724 30.5126C43.9485 30.4494 43.7964 30.4175 43.6163 30.4175C43.4397 30.4175 43.2885 30.4522 43.1628 30.521C43.0369 30.5899 42.9347 30.6811 42.8558 30.7948C42.777 30.9083 42.7187 31.0387 42.6812 31.1859C42.6437 31.333 42.6249 31.4847 42.6249 31.6412C42.6249 31.8199 42.6465 31.9848 42.6898 32.1356C42.7328 32.2865 42.7958 32.4158 42.8783 32.5238C42.9609 32.6319 43.0641 32.7157 43.188 32.7752C43.3121 32.8347 43.4547 32.8648 43.6163 32.8648C43.7927 32.8648 43.9437 32.8303 44.0696 32.7612C44.1953 32.6923 44.2977 32.6002 44.3766 32.4847C44.4553 32.3694 44.5136 32.239 44.5512 32.0937C44.5887 31.9485 44.6074 31.7976 44.6074 31.6412ZM43.6163 33.1663C43.4283 33.1626 43.253 33.1291 43.0896 33.0657C42.9262 33.0025 42.7835 32.9075 42.6615 32.7809C42.5395 32.6542 42.4428 32.496 42.3714 32.3059C42.3001 32.1159 42.2645 31.8945 42.2645 31.6412C42.2645 31.4288 42.2927 31.2306 42.349 31.0462C42.4052 30.8618 42.4897 30.7008 42.6025 30.5629C42.715 30.4251 42.8558 30.3164 43.0248 30.2361C43.1938 30.1559 43.3908 30.116 43.6163 30.116C43.8453 30.116 44.0442 30.1559 44.2132 30.2361C44.3822 30.3164 44.5229 30.4243 44.6357 30.5601C44.7482 30.696 44.8318 30.8572 44.8862 31.0435C44.9406 31.2297 44.9679 31.4288 44.9679 31.6412C44.9679 31.8722 44.936 32.0808 44.8723 32.2668C44.8084 32.453 44.7174 32.6131 44.5991 32.7474C44.4808 32.8813 44.338 32.9847 44.171 33.0573C44.0039 33.13 43.8189 33.1663 43.6163 33.1663Z" fill="white"/>
</g>
<mask id="mask3_438_1211" style="mask-type:luminance" maskUnits="userSpaceOnUse" x="0" y="0" width="91" height="35">
<path d="M0 34.2726H90.893V0.184082H0V34.2726Z" fill="white"/>
</mask>
<g mask="url(#mask3_438_1211)">
<path fill-rule="evenodd" clip-rule="evenodd" d="M45.8521 31.6525C45.8521 31.8164 45.8748 31.9717 45.9197 32.1189C45.9649 32.2661 46.0297 32.3945 46.1142 32.5044C46.1985 32.6144 46.3019 32.7017 46.4239 32.7669C46.5458 32.8322 46.6839 32.8648 46.8379 32.8648C47.0104 32.8648 47.1618 32.8305 47.2912 32.7614C47.4207 32.6925 47.5267 32.5986 47.6094 32.4792C47.692 32.3602 47.7522 32.2215 47.7897 32.0631C47.8274 31.9048 47.8422 31.7343 47.8346 31.5519C47.8346 31.3695 47.8096 31.2083 47.7589 31.0685C47.708 30.9289 47.6376 30.8108 47.5473 30.7137C47.4574 30.617 47.3521 30.5433 47.2322 30.4932C47.1118 30.4429 46.9805 30.4177 46.8379 30.4177C46.6802 30.4177 46.5393 30.4496 46.4154 30.5128C46.2915 30.5761 46.1883 30.6627 46.1056 30.7725C46.023 30.8823 45.96 31.0127 45.9171 31.1636C45.8737 31.3144 45.8521 31.4775 45.8521 31.6525ZM45.8521 34.2277H45.5143V30.1943H45.8521V30.7027H45.8636C45.9121 30.6097 45.9751 30.5258 46.0521 30.4512C46.129 30.3768 46.2135 30.3153 46.3055 30.267C46.3978 30.2186 46.4923 30.1814 46.5902 30.1552C46.6877 30.129 46.7835 30.116 46.8775 30.116C47.1139 30.116 47.3148 30.1552 47.4799 30.2335C47.6452 30.3116 47.7813 30.4188 47.8883 30.5546C47.9953 30.6905 48.0733 30.8517 48.1219 31.0379C48.1708 31.2242 48.1951 31.4233 48.1951 31.6357C48.1951 31.8369 48.1691 32.0305 48.1164 32.2167C48.0638 32.4029 47.9839 32.5658 47.877 32.7056C47.77 32.8452 47.6348 32.9569 47.4716 33.0407C47.3083 33.1245 47.1157 33.1665 46.8942 33.1665C46.6877 33.1665 46.4897 33.1208 46.2999 33.0296C46.1105 32.9383 45.9611 32.8032 45.8521 32.6244V34.2277Z" fill="white"/>
</g>
<mask id="mask4_438_1211" style="mask-type:luminance" maskUnits="userSpaceOnUse" x="0" y="0" width="91" height="35">
<path d="M0 34.2726H90.893V0.184082H0V34.2726Z" fill="white"/>
</mask>
<g mask="url(#mask4_438_1211)">
<path fill-rule="evenodd" clip-rule="evenodd" d="M49.1808 31.6525C49.1808 31.8164 49.2033 31.9717 49.2482 32.1189C49.2934 32.2661 49.3582 32.3945 49.4427 32.5044C49.5272 32.6144 49.6304 32.7017 49.7525 32.7669C49.8743 32.8322 50.0125 32.8648 50.1664 32.8648C50.3391 32.8648 50.4903 32.8305 50.6197 32.7614C50.7494 32.6925 50.8554 32.5986 50.9381 32.4792C51.0205 32.3602 51.0807 32.2215 51.1184 32.0631C51.1559 31.9048 51.1709 31.7343 51.1633 31.5519C51.1633 31.3695 51.1381 31.2083 51.0874 31.0685C51.0367 30.9289 50.9661 30.8108 50.876 30.7137C50.7861 30.617 50.6808 30.5433 50.5607 30.4932C50.4405 30.4429 50.309 30.4177 50.1664 30.4177C50.0087 30.4177 49.868 30.4496 49.7439 30.5128C49.62 30.5761 49.5168 30.6627 49.4341 30.7725C49.3517 30.8823 49.2887 31.0127 49.2456 31.1636C49.2024 31.3144 49.1808 31.4775 49.1808 31.6525ZM49.1808 34.2277H48.8428V30.1943H49.1808V30.7027H49.1922C49.2408 30.6097 49.3038 30.5258 49.3807 30.4512C49.4575 30.3768 49.542 30.3153 49.6342 30.267C49.7263 30.2186 49.8208 30.1814 49.9187 30.1552C50.0162 30.129 50.112 30.116 50.206 30.116C50.4424 30.116 50.6433 30.1552 50.8086 30.2335C50.9737 30.3116 51.1098 30.4188 51.2168 30.5546C51.3238 30.6905 51.4018 30.8517 51.4506 31.0379C51.4993 31.2242 51.5238 31.4233 51.5238 31.6357C51.5238 31.8369 51.4976 32.0305 51.4449 32.2167C51.3923 32.4029 51.3126 32.5658 51.2055 32.7056C51.0985 32.8452 50.9635 32.9569 50.8001 33.0407C50.6368 33.1245 50.4442 33.1665 50.2227 33.1665C50.0162 33.1665 49.8182 33.1208 49.6286 33.0296C49.439 32.9383 49.2897 32.8032 49.1808 32.6244V34.2277Z" fill="white"/>
</g>
<mask id="mask5_438_1211" style="mask-type:luminance" maskUnits="userSpaceOnUse" x="0" y="0" width="91" height="35">
<path d="M0 34.2726H90.893V0.184082H0V34.2726Z" fill="white"/>
</mask>
<g mask="url(#mask5_438_1211)">
<path fill-rule="evenodd" clip-rule="evenodd" d="M54.2442 31.4401C54.2442 31.2984 54.2245 31.1654 54.1852 31.0405C54.1456 30.9158 54.0873 30.8077 54.0104 30.7165C53.9334 30.6253 53.8368 30.5527 53.7205 30.4988C53.6041 30.4448 53.4707 30.4175 53.3205 30.4175C53.1702 30.4175 53.038 30.4457 52.9234 30.5013C52.8089 30.5573 52.7112 30.6318 52.6306 30.7248C52.5498 30.818 52.485 30.9259 52.4363 31.049C52.3875 31.1719 52.3555 31.3023 52.3405 31.4401H54.2442ZM52.3405 31.7193C52.3405 31.8757 52.3611 32.0238 52.4025 32.1635C52.4437 32.3033 52.5048 32.4243 52.5854 32.5265C52.6662 32.6292 52.7685 32.7109 52.8926 32.7723C53.0165 32.8338 53.1589 32.8646 53.3205 32.8646C53.542 32.8646 53.7317 32.8069 53.8893 32.6914C54.047 32.5761 54.1521 32.412 54.2047 32.1998H54.582C54.5408 32.3375 54.4864 32.465 54.4188 32.5824C54.3512 32.6999 54.2667 32.8023 54.1653 32.8898C54.0639 32.9773 53.9438 33.0453 53.805 33.0937C53.6659 33.142 53.5045 33.1663 53.3205 33.1663C53.0876 33.1663 52.8867 33.1271 52.7178 33.049C52.5488 32.9709 52.4099 32.8638 52.3011 32.7277C52.1921 32.5918 52.1115 32.4317 52.0588 32.2473C52.0062 32.0629 51.9802 31.8647 51.9802 31.6523C51.9802 31.4401 52.011 31.2408 52.073 31.0545C52.1351 30.8683 52.2231 30.7054 52.3377 30.5656C52.4523 30.426 52.5921 30.3162 52.7572 30.2361C52.9225 30.1559 53.1103 30.116 53.3205 30.116C53.7222 30.116 54.0377 30.2528 54.2667 30.5266C54.4957 30.8003 54.6084 31.198 54.6045 31.7193H52.3405Z" fill="white"/>
</g>
<mask id="mask6_438_1211" style="mask-type:luminance" maskUnits="userSpaceOnUse" x="0" y="0" width="91" height="35">
<path d="M0 34.2726H90.893V0.184082H0V34.2726Z" fill="white"/>
</mask>
<g mask="url(#mask6_438_1211)">
<path fill-rule="evenodd" clip-rule="evenodd" d="M55.444 33.0882H55.1062V30.1943H55.444V30.6301H55.4553C55.5415 30.4625 55.6654 30.335 55.8271 30.2473C55.9885 30.16 56.1649 30.116 56.3564 30.116C56.4916 30.116 56.6062 30.1309 56.7 30.1607C56.7939 30.1908 56.8736 30.2305 56.9394 30.281C57.0049 30.3311 57.0595 30.3899 57.1028 30.4569C57.1459 30.5238 57.1823 30.5966 57.2124 30.6747C57.31 30.4848 57.4406 30.3442 57.604 30.2528C57.7673 30.1617 57.9541 30.116 58.1643 30.116C58.3634 30.116 58.522 30.1488 58.6403 30.2138C58.7586 30.279 58.8496 30.3647 58.9135 30.4708C58.9772 30.577 59.0195 30.699 59.0402 30.8368C59.0608 30.9746 59.0712 31.116 59.0712 31.2614V33.0882H58.7332V31.0882C58.7332 30.8797 58.6892 30.7158 58.6009 30.5966C58.5125 30.4774 58.3484 30.4177 58.1081 30.4177C57.9842 30.4177 57.8648 30.4448 57.7504 30.4988C57.6358 30.5527 57.5355 30.6358 57.4491 30.7474C57.4114 30.7959 57.3806 30.8526 57.3561 30.9178C57.3316 30.9829 57.3121 31.0508 57.297 31.1216C57.2818 31.1925 57.2716 31.2632 57.266 31.3342C57.2603 31.4047 57.2577 31.4701 57.2577 31.5294V33.0882H56.9195V31.0882C56.9195 30.8797 56.8755 30.7158 56.7873 30.5966C56.699 30.4774 56.5347 30.4177 56.2944 30.4177C56.1705 30.4177 56.0515 30.4448 55.9367 30.4988C55.8221 30.5527 55.7218 30.6358 55.6355 30.7474C55.5979 30.7959 55.5669 30.8526 55.5424 30.9178C55.5179 30.9829 55.4984 31.0508 55.4834 31.1216C55.4683 31.1925 55.4581 31.2632 55.4523 31.3342C55.4468 31.4047 55.444 31.4701 55.444 31.5294V33.0882Z" fill="white"/>
</g>
<mask id="mask7_438_1211" style="mask-type:luminance" maskUnits="userSpaceOnUse" x="0" y="0" width="91" height="35">
<path d="M0 34.2726H90.893V0.184082H0V34.2726Z" fill="white"/>
</mask>
<g mask="url(#mask7_438_1211)">
<path fill-rule="evenodd" clip-rule="evenodd" d="M61.8422 31.4401C61.8422 31.2984 61.8225 31.1654 61.7831 31.0405C61.7436 30.9158 61.6853 30.8077 61.6084 30.7165C61.5313 30.6253 61.4347 30.5527 61.3185 30.4988C61.202 30.4448 61.0687 30.4175 60.9185 30.4175C60.7682 30.4175 60.636 30.4457 60.5214 30.5013C60.4068 30.5573 60.3091 30.6318 60.2285 30.7248C60.1477 30.818 60.0829 30.9259 60.0343 31.049C59.9854 31.1719 59.9535 31.3023 59.9384 31.4401H61.8422ZM59.9384 31.7193C59.9384 31.8757 59.9591 32.0238 60.0005 32.1635C60.0417 32.3033 60.1028 32.4243 60.1834 32.5265C60.2642 32.6292 60.3665 32.7109 60.4906 32.7723C60.6144 32.8338 60.7569 32.8646 60.9185 32.8646C61.14 32.8646 61.3296 32.8069 61.4873 32.6914C61.645 32.5761 61.7501 32.412 61.8026 32.1998H62.18C62.1388 32.3375 62.0844 32.465 62.0168 32.5824C61.9492 32.6999 61.8647 32.8023 61.7633 32.8898C61.6619 32.9773 61.5417 33.0453 61.403 33.0937C61.2639 33.142 61.1025 33.1663 60.9185 33.1663C60.6856 33.1663 60.4846 33.1271 60.3158 33.049C60.1468 32.9709 60.0079 32.8638 59.8991 32.7277C59.7901 32.5918 59.7095 32.4317 59.6567 32.2473C59.6042 32.0629 59.5782 31.8647 59.5782 31.6523C59.5782 31.4401 59.609 31.2408 59.671 31.0545C59.733 30.8683 59.8211 30.7054 59.9357 30.5656C60.0502 30.426 60.1901 30.3162 60.3552 30.2361C60.5205 30.1559 60.7082 30.116 60.9185 30.116C61.3202 30.116 61.6357 30.2528 61.8647 30.5266C62.0937 30.8003 62.2064 31.198 62.2025 31.7193H59.9384Z" fill="white"/>
</g>
<mask id="mask8_438_1211" style="mask-type:luminance" maskUnits="userSpaceOnUse" x="0" y="0" width="91" height="35">
<path d="M0 34.2726H90.893V0.184082H0V34.2726Z" fill="white"/>
</mask>
<g mask="url(#mask8_438_1211)">
<path fill-rule="evenodd" clip-rule="evenodd" d="M63.0869 33.0882H62.7491V30.1943H63.0869V30.5966C63.2223 30.4551 63.362 30.3396 63.5066 30.2503C63.6511 30.1607 63.825 30.116 64.0276 30.116C64.2077 30.116 64.3749 30.1467 64.529 30.2083C64.6828 30.2696 64.8124 30.3768 64.9173 30.5295C64.9886 30.6338 65.031 30.741 65.0442 30.8508C65.0572 30.9606 65.064 31.0752 65.064 31.1943V33.0882H64.726V31.1999C64.726 30.9392 64.6677 30.7436 64.5515 30.6132C64.435 30.4829 64.2417 30.4177 63.9713 30.4177C63.866 30.4177 63.7704 30.4337 63.684 30.4652C63.5976 30.4971 63.5196 30.5387 63.4502 30.5909C63.3807 30.6432 63.3217 30.7027 63.2728 30.7697C63.224 30.8368 63.1865 30.9075 63.1603 30.9819C63.1265 31.0752 63.1059 31.1647 63.0983 31.2502C63.0908 31.3358 63.0869 31.4288 63.0869 31.5294V33.0882Z" fill="white"/>
</g>
<mask id="mask9_438_1211" style="mask-type:luminance" maskUnits="userSpaceOnUse" x="0" y="0" width="91" height="35">
<path d="M0 34.2726H90.893V0.184082H0V34.2726Z" fill="white"/>
</mask>
<g mask="url(#mask9_438_1211)">
<path fill-rule="evenodd" clip-rule="evenodd" d="M66.7929 33.0993C66.7515 33.1066 66.697 33.1197 66.6296 33.1385C66.562 33.1569 66.4868 33.1663 66.4042 33.1663C66.2354 33.1663 66.1067 33.1245 66.0184 33.0407C65.93 32.9569 65.886 32.8069 65.886 32.5909V30.4735H65.4749V30.1941H65.886V29.3896H66.224V30.1941H66.7704V30.4735H66.224V32.4569C66.224 32.5275 66.2259 32.589 66.2298 32.6413C66.2333 32.6935 66.2446 32.736 66.2634 32.7697C66.2822 32.8033 66.3113 32.8274 66.3507 32.8423C66.3902 32.8574 66.4456 32.8648 66.5169 32.8648C66.562 32.8648 66.6079 32.8609 66.6549 32.8535C66.7019 32.846 66.7479 32.8366 66.7929 32.8255V33.0993Z" fill="white"/>
</g>
<mask id="mask10_438_1211" style="mask-type:luminance" maskUnits="userSpaceOnUse" x="0" y="0" width="91" height="35">
<path d="M0 34.2726H90.893V0.184082H0V34.2726Z" fill="white"/>
</mask>
<g mask="url(#mask10_438_1211)">
<path fill-rule="evenodd" clip-rule="evenodd" d="M70.9268 31.6299C70.9268 31.4661 70.9043 31.3106 70.8594 31.1635C70.8143 31.0165 70.7494 30.8879 70.6649 30.7781C70.5804 30.6681 70.4772 30.5806 70.3552 30.5154C70.2332 30.4504 70.095 30.4176 69.9412 30.4176C69.7646 30.4176 69.6127 30.452 69.4849 30.5209C69.3573 30.5898 69.252 30.684 69.1696 30.8031C69.0869 30.9223 69.0269 31.061 68.9892 31.2193C68.9517 31.3777 68.9367 31.5481 68.9443 31.7305C68.9443 31.913 68.9696 32.074 69.0203 32.2138C69.071 32.3535 69.1415 32.4717 69.2316 32.5686C69.3215 32.6653 69.4268 32.739 69.5469 32.7893C69.6671 32.8394 69.7984 32.8646 69.9412 32.8646C70.0989 32.8646 70.2397 32.833 70.3637 32.7696C70.4876 32.7064 70.5907 32.6198 70.6735 32.5099C70.7559 32.4001 70.8189 32.2696 70.862 32.1188C70.9053 31.9679 70.9268 31.8051 70.9268 31.6299ZM70.9268 29.0657H71.2648V33.0881H70.9268V32.5797H70.9155C70.8668 32.6768 70.8039 32.7613 70.727 32.8339C70.6499 32.9066 70.5654 32.9671 70.4735 33.0153C70.3814 33.064 70.2867 33.101 70.189 33.1271C70.0913 33.1533 69.9954 33.1664 69.9017 33.1664C69.6652 33.1664 69.4643 33.1271 69.299 33.049C69.1339 32.9708 68.9978 32.8637 68.8908 32.7278C68.7838 32.5918 68.7058 32.4308 68.657 32.2446C68.6083 32.0584 68.5838 31.859 68.5838 31.6468C68.5838 31.4457 68.61 31.2519 68.6628 31.0656C68.7153 30.8796 68.795 30.7166 68.9021 30.5769C69.0091 30.4371 69.1441 30.3255 69.3076 30.2417C69.4708 30.1579 69.6632 30.1159 69.8849 30.1159C70.0913 30.1159 70.2894 30.1615 70.479 30.2527C70.6687 30.3443 70.818 30.4791 70.9268 30.658V29.0657Z" fill="white"/>
</g>
<mask id="mask11_438_1211" style="mask-type:luminance" maskUnits="userSpaceOnUse" x="0" y="0" width="91" height="35">
<path d="M0 34.2726H90.893V0.184082H0V34.2726Z" fill="white"/>
</mask>
<g mask="url(#mask11_438_1211)">
<path fill-rule="evenodd" clip-rule="evenodd" d="M73.9797 30.1943H74.3175V33.0883H73.9797V32.686C73.9346 32.7383 73.8839 32.7923 73.8276 32.8481C73.7711 32.9039 73.7063 32.9551 73.6333 33.0017C73.56 33.0483 73.4745 33.0874 73.377 33.119C73.2793 33.1505 73.1666 33.1666 73.039 33.1666C72.8437 33.1666 72.6804 33.1393 72.5489 33.0853C72.4175 33.0315 72.3116 32.956 72.2308 32.8593C72.1498 32.7624 72.0919 32.6497 72.0562 32.5213C72.0204 32.3929 72.0026 32.2522 72.0026 32.0994V30.1943H72.3406V32.0939C72.3406 32.3433 72.3987 32.5344 72.5151 32.6664C72.6316 32.7987 72.8229 32.8648 73.0897 32.8648C73.2285 32.8648 73.3534 32.8379 73.4643 32.7838C73.5748 32.73 73.6679 32.6543 73.7431 32.5576C73.8181 32.4609 73.8762 32.3454 73.9176 32.2111C73.9589 32.0772 73.9797 31.93 73.9797 31.7699V30.1943Z" fill="white"/>
</g>
<mask id="mask12_438_1211" style="mask-type:luminance" maskUnits="userSpaceOnUse" x="0" y="0" width="91" height="35">
<path d="M0 34.2726H90.893V0.184082H0V34.2726Z" fill="white"/>
</mask>
<g mask="url(#mask12_438_1211)">
<path fill-rule="evenodd" clip-rule="evenodd" d="M76.9083 32.7643H77.8263C77.999 32.7643 78.1615 32.754 78.3136 32.7335C78.4657 32.7131 78.6206 32.6619 78.7782 32.5799C78.9134 32.5129 79.0243 32.4217 79.1105 32.3062C79.1968 32.1909 79.2654 32.0651 79.3162 31.9291C79.3668 31.7932 79.4026 31.6508 79.4232 31.5017C79.4436 31.3527 79.454 31.2094 79.454 31.0716C79.454 30.9261 79.4448 30.7783 79.426 30.6273C79.4071 30.4766 79.3716 30.3333 79.3188 30.1972C79.2663 30.0612 79.195 29.9365 79.1049 29.8228C79.0148 29.7094 78.8984 29.6152 78.7558 29.5408C78.6356 29.4774 78.4928 29.4366 78.3277 29.4178C78.1624 29.3992 77.9954 29.3899 77.8263 29.3899H76.9083V32.7643ZM76.5253 33.0883V29.0659H77.9108C78.0235 29.0659 78.1344 29.0687 78.243 29.0744C78.352 29.0799 78.4592 29.0928 78.5643 29.1134C78.6692 29.1339 78.7715 29.1647 78.8711 29.2055C78.9704 29.2464 79.0674 29.3004 79.1614 29.3677C79.2964 29.4645 79.4071 29.5828 79.4936 29.7223C79.58 29.8619 79.6485 30.0093 79.699 30.1636C79.7499 30.3184 79.7854 30.4746 79.8062 30.633C79.8268 30.7912 79.8372 30.9375 79.8372 31.0716C79.8372 31.2055 79.8288 31.3415 79.8117 31.4793C79.7948 31.6171 79.7675 31.7523 79.73 31.8845C79.6925 32.0166 79.6429 32.1433 79.5809 32.2642C79.519 32.3852 79.441 32.4961 79.3471 32.5967C79.2533 32.7009 79.1508 32.7848 79.0401 32.8481C78.9294 32.9115 78.813 32.9607 78.6909 32.9962C78.5687 33.0316 78.4423 33.0557 78.3108 33.0686C78.1793 33.0819 78.0461 33.0883 77.9108 33.0883H76.5253Z" fill="white"/>
</g>
<mask id="mask13_438_1211" style="mask-type:luminance" maskUnits="userSpaceOnUse" x="0" y="0" width="91" height="35">
<path d="M0 34.2726H90.893V0.184082H0V34.2726Z" fill="white"/>
</mask>
<g mask="url(#mask13_438_1211)">
<path fill-rule="evenodd" clip-rule="evenodd" d="M80.504 33.0881H80.9174V30.1941H80.504V33.0881ZM80.4622 29.5629H80.9172V29.0657H80.4622V29.5629Z" fill="white"/>
</g>
<mask id="mask14_438_1211" style="mask-type:luminance" maskUnits="userSpaceOnUse" x="0" y="0" width="91" height="35">
<path d="M0 34.2726H90.893V0.184082H0V34.2726Z" fill="white"/>
</mask>
<g mask="url(#mask14_438_1211)">
<path fill-rule="evenodd" clip-rule="evenodd" d="M83.8191 31.6525C83.8191 31.4775 83.7976 31.3144 83.7543 31.1636C83.7112 31.0127 83.6482 30.8823 83.5658 30.7725C83.483 30.6627 83.3799 30.5761 83.256 30.5128C83.132 30.4496 82.9912 30.4177 82.8335 30.4177C82.6907 30.4177 82.5594 30.4429 82.4393 30.4932C82.3191 30.5433 82.2138 30.617 82.1239 30.7137C82.0338 30.8108 81.9633 30.9289 81.9126 31.0685C81.8619 31.2083 81.8366 31.3695 81.8366 31.5519C81.829 31.7343 81.844 31.9048 81.8815 32.0631C81.9192 32.2215 81.9792 32.3602 82.0619 32.4792C82.1443 32.5986 82.2496 32.6925 82.3772 32.7614C82.505 32.8305 82.6569 32.8648 82.8335 32.8648C82.9873 32.8648 83.1255 32.8322 83.2475 32.7669C83.3695 32.7017 83.4728 32.6144 83.5573 32.5044C83.6418 32.3945 83.7066 32.2661 83.7517 32.1189C83.7966 31.9717 83.8191 31.8164 83.8191 31.6525ZM83.8191 30.1943H84.1571V32.8088C84.1571 33.0025 84.1374 33.1879 84.098 33.3647C84.0585 33.5415 83.9881 33.6972 83.8867 33.8311C83.7853 33.9654 83.6464 34.0724 83.47 34.1524C83.2933 34.2325 83.0662 34.2727 82.7884 34.2727C82.5745 34.2727 82.3904 34.2454 82.2366 34.1914C82.0823 34.1375 81.9568 34.0695 81.8591 33.9877C81.7614 33.9055 81.6873 33.8153 81.6366 33.7167C81.5861 33.618 81.5586 33.5259 81.5551 33.4402H81.9153C81.9417 33.5482 81.9829 33.6366 82.0394 33.7057C82.0957 33.7746 82.1623 33.8285 82.2392 33.8674C82.3161 33.9067 82.4016 33.9337 82.4955 33.9487C82.5893 33.9634 82.687 33.9709 82.7884 33.9709C83.0176 33.9709 83.2014 33.9317 83.3405 33.8536C83.4792 33.7753 83.5844 33.6729 83.6559 33.5463C83.7272 33.4196 83.773 33.2761 83.7937 33.116C83.8145 32.9559 83.823 32.7922 83.8191 32.6244C83.7103 32.8032 83.561 32.9383 83.3713 33.0296C83.1817 33.1208 82.9836 33.1665 82.7772 33.1665C82.5555 33.1665 82.3631 33.1245 82.1999 33.0407C82.0364 32.9569 81.9014 32.8452 81.7944 32.7056C81.6873 32.5658 81.6076 32.4029 81.5551 32.2167C81.5023 32.0305 81.4761 31.8369 81.4761 31.6357C81.4761 31.4233 81.5006 31.2242 81.5493 31.0379C81.5981 30.8517 81.6761 30.6905 81.7831 30.5546C81.8901 30.4188 82.0262 30.3116 82.1913 30.2335C82.3566 30.1552 82.5576 30.116 82.794 30.116C82.8878 30.116 82.9836 30.129 83.0813 30.1552C83.1789 30.1814 83.2737 30.2186 83.3658 30.267C83.4577 30.3153 83.5422 30.3768 83.6193 30.4512C83.6962 30.5258 83.7591 30.6097 83.8078 30.7027H83.8191V30.1943Z" fill="white"/>
</g>
<mask id="mask15_438_1211" style="mask-type:luminance" maskUnits="userSpaceOnUse" x="0" y="0" width="91" height="35">
<path d="M0 34.2726H90.893V0.184082H0V34.2726Z" fill="white"/>
</mask>
<g mask="url(#mask15_438_1211)">
<path fill-rule="evenodd" clip-rule="evenodd" d="M84.9702 33.0881H85.3837V30.1941H84.9702V33.0881ZM84.9284 29.5629H85.3834V29.0657H84.9284V29.5629Z" fill="white"/>
</g>
<mask id="mask16_438_1211" style="mask-type:luminance" maskUnits="userSpaceOnUse" x="0" y="0" width="91" height="35">
<path d="M0 34.2726H90.893V0.184082H0V34.2726Z" fill="white"/>
</mask>
<g mask="url(#mask16_438_1211)">
<path fill-rule="evenodd" clip-rule="evenodd" d="M87.0575 33.0993C87.016 33.1066 86.9616 33.1197 86.8942 33.1385C86.8266 33.1569 86.7514 33.1663 86.6688 33.1663C86.4999 33.1663 86.3712 33.1245 86.283 33.0407C86.1946 32.9569 86.1506 32.8069 86.1506 32.5909V30.4735H85.7394V30.1941H86.1506V29.3896H86.4886V30.1941H87.035V30.4735H86.4886V32.4569C86.4886 32.5275 86.4905 32.589 86.4944 32.6413C86.4979 32.6935 86.5092 32.736 86.528 32.7697C86.5467 32.8033 86.5759 32.8274 86.6153 32.8423C86.6548 32.8574 86.7102 32.8648 86.7815 32.8648C86.8266 32.8648 86.8725 32.8609 86.9195 32.8535C86.9665 32.846 87.0125 32.8366 87.0575 32.8255V33.0993Z" fill="white"/>
</g>
<mask id="mask17_438_1211" style="mask-type:luminance" maskUnits="userSpaceOnUse" x="0" y="0" width="91" height="35">
<path d="M0 34.2726H90.893V0.184082H0V34.2726Z" fill="white"/>
</mask>
<g mask="url(#mask17_438_1211)">
<path fill-rule="evenodd" clip-rule="evenodd" d="M89.3949 31.5687C89.2521 31.6282 89.1076 31.6674 88.9612 31.686C88.8147 31.7046 88.6684 31.7193 88.5218 31.7306C88.2628 31.7492 88.0609 31.807 87.9164 31.9037C87.7719 32.0008 87.6995 32.1478 87.6995 32.3453C87.6995 32.4344 87.7173 32.5118 87.753 32.577C87.7888 32.6422 87.8356 32.6962 87.8939 32.7391C87.9519 32.7819 88.0197 32.8135 88.0967 32.834C88.1736 32.8544 88.2516 32.8648 88.3304 32.8648C88.4656 32.8648 88.5969 32.848 88.7246 32.8145C88.8522 32.7809 88.9657 32.7299 89.0654 32.6608C89.1648 32.5919 89.2446 32.5044 89.3048 32.3983C89.3648 32.2922 89.3949 32.1664 89.3949 32.0211V31.5687ZM88.826 31.401C88.8897 31.3937 88.9657 31.3824 89.0541 31.3675C89.1423 31.3526 89.2145 31.3321 89.271 31.306C89.3273 31.2802 89.3618 31.2362 89.3752 31.1746C89.3882 31.1133 89.3949 31.0565 89.3949 31.0044C89.3949 30.8331 89.3393 30.6924 89.2287 30.5826C89.118 30.4728 88.9311 30.4177 88.6684 30.4177C88.5519 30.4177 88.4449 30.4282 88.3473 30.4485C88.2496 30.4689 88.1641 30.5045 88.091 30.5546C88.0178 30.605 87.9576 30.6719 87.9108 30.7557C87.8638 30.8395 87.8328 30.9447 87.8178 31.0715H87.4742C87.4855 30.9002 87.5249 30.7539 87.5925 30.6329C87.6601 30.512 87.7474 30.4133 87.8544 30.3368C87.9613 30.2604 88.0852 30.2046 88.2262 30.169C88.3669 30.1338 88.5163 30.116 88.6739 30.116C88.8203 30.116 88.9583 30.132 89.0879 30.1635C89.2175 30.1954 89.3301 30.2455 89.4259 30.3144C89.5217 30.3833 89.5967 30.4755 89.6512 30.5909C89.7056 30.7064 89.7327 30.848 89.7327 31.0155V32.591C89.7327 32.7214 89.7561 32.8043 89.8031 32.8395C89.8501 32.8751 89.945 32.8666 90.0876 32.8145V33.077C90.0614 33.0845 90.023 33.0956 89.9721 33.1105C89.9216 33.1254 89.8716 33.1328 89.8229 33.1328C89.7702 33.1328 89.7195 33.1273 89.6708 33.116C89.6146 33.1087 89.5694 33.0912 89.5356 33.063C89.5018 33.0352 89.4745 33.0016 89.4539 32.9624C89.4333 32.9233 89.4192 32.8806 89.4118 32.834C89.4042 32.7874 89.4004 32.7382 89.4004 32.6859C89.2578 32.8425 89.0944 32.9617 88.9105 33.0436C88.7263 33.1254 88.5274 33.1665 88.3135 33.1665C88.1857 33.1665 88.0627 33.1497 87.9444 33.116C87.8263 33.0827 87.722 33.0305 87.6319 32.9598C87.5418 32.8891 87.4705 32.8023 87.4178 32.7001C87.3652 32.5975 87.3392 32.4757 87.3392 32.3339C87.3392 31.8424 87.6789 31.5519 88.3586 31.4625L88.826 31.401Z" fill="white"/>
</g>
<mask id="mask18_438_1211" style="mask-type:luminance" maskUnits="userSpaceOnUse" x="0" y="0" width="91" height="35">
<path d="M0 34.2726H90.893V0.184082H0V34.2726Z" fill="white"/>
</mask>
<g mask="url(#mask18_438_1211)">
<path fill-rule="evenodd" clip-rule="evenodd" d="M90.5552 33.0881H90.893V29.0657H90.5552V33.0881Z" fill="white"/>
</g>
<mask id="mask19_438_1211" style="mask-type:luminance" maskUnits="userSpaceOnUse" x="20" y="0" width="25" height="25">
<path d="M20.5286 0.184082H44.6705V24.5453H20.5286V0.184082Z" fill="white"/>
</mask>
<g mask="url(#mask19_438_1211)">
<path fill-rule="evenodd" clip-rule="evenodd" d="M40.0024 16.5976L32.582 1.18619L25.1618 16.5976H40.0024ZM32.2685 0.184082H32.9304L44.6705 24.5454H43.8342L40.3506 17.2886H24.8136L21.3299 24.5454H20.5286L32.2685 0.184082Z" fill="white"/>
</g>
<path fill-rule="evenodd" clip-rule="evenodd" d="M54.5916 23.854C56.3796 23.854 58.023 23.5602 59.5212 22.9728C61.019 22.3851 62.3019 21.5792 63.3705 20.5539C64.4383 19.5293 65.2689 18.3312 65.8613 16.9603C66.4533 15.59 66.7496 14.1097 66.7496 12.5201V12.451C66.7496 10.8613 66.4533 9.37564 65.8613 7.99332C65.2689 6.61119 64.433 5.40185 63.3532 4.36511C62.2729 3.32837 60.9842 2.51637 59.4863 1.92911C57.9879 1.34166 56.3334 1.04803 54.5219 1.04803H47.485V23.854H54.5916ZM46.7184 0.356689H54.5569C56.4842 0.356689 58.2375 0.667821 59.817 1.28972C61.3962 1.91179 62.7608 2.76432 63.9104 3.84693C65.0599 4.9299 65.9484 6.20243 66.5754 7.66524C67.2025 9.12824 67.5162 10.7119 67.5162 12.4164V12.4855C67.5162 14.1905 67.2025 15.7742 66.5754 17.2366C65.9484 18.7 65.0599 19.9725 63.9104 21.055C62.7608 22.1383 61.3962 22.9901 59.817 23.6123C58.2375 24.2341 56.4842 24.5452 54.5569 24.5452H46.7184V0.356689Z" fill="white"/>
<path fill-rule="evenodd" clip-rule="evenodd" d="M77.7388 23.854C79.527 23.854 81.1702 23.5602 82.6684 22.9728C84.1662 22.3851 85.4494 21.5792 86.5177 20.5539C87.5855 19.5293 88.4162 18.3312 89.0087 16.9603C89.6007 15.59 89.8967 14.1097 89.8967 12.5201V12.451C89.8967 10.8613 89.6007 9.37564 89.0087 7.99332C88.4162 6.61119 87.5803 5.40185 86.5004 4.36511C85.4203 3.32837 84.1314 2.51637 82.6335 1.92911C81.1355 1.34166 79.4808 1.04803 77.6693 1.04803H70.6322V23.854H77.7388ZM69.8656 0.356689H77.704C79.6314 0.356689 81.3847 0.667821 82.9644 1.28972C84.5435 1.91179 85.908 2.76432 87.0577 3.84693C88.2073 4.9299 89.0958 6.20243 89.7225 7.66524C90.3499 9.12824 90.6634 10.7119 90.6634 12.4164V12.4855C90.6634 14.1905 90.3499 15.7742 89.7225 17.2366C89.0958 18.7 88.2073 19.9725 87.0577 21.055C85.908 22.1383 84.5435 22.9901 82.9644 23.6123C81.3847 24.2341 79.6314 24.5452 77.704 24.5452H69.8656V0.356689Z" fill="white"/>
<path fill-rule="evenodd" clip-rule="evenodd" d="M14.2942 1.7063L13.5266 6.15314H9.07447L9.84203 1.7063H5.78881L5.02126 6.15314H1.64367V10.0518H4.34563L3.57788 14.5592H0.568756V18.4577H2.90244L2.10406 23.0265H6.15727L6.95547 18.4577H11.408L10.6094 23.0265H14.6628L15.4612 18.4577H18.8386V14.5592H16.1366L16.904 10.0518H19.9133V6.15314H17.5796L18.3474 1.7063H14.2942ZM8.39866 10.0518H12.8508L12.0834 14.5592H7.6311L8.39866 10.0518Z" fill="white"/>
</g>
<defs>
<clipPath id="clip0_438_1211">
<rect width="91" height="34.6938" fill="white"/>
</clipPath>
</defs>
</svg>
