<svg width="1440" height="103" viewBox="0 0 1440 103" fill="none" xmlns="http://www.w3.org/2000/svg">
<g filter="url(#filter0_b_218_1440)">
<rect width="1440" height="103" fill="url(#paint0_linear_218_1440)" fill-opacity="0.95"/>
</g>
<g clip-path="url(#clip0_218_1440)">
<g clip-path="url(#clip1_218_1440)">
<path fill-rule="evenodd" clip-rule="evenodd" d="M87.5939 65.5659L86.0001 69.5884H86.3942L86.873 68.3256H88.7203L89.1879 69.5884H89.5822L88.0278 65.5659H87.5939ZM87.7967 65.89L88.5908 68.0018H87.0026L87.7967 65.89Z" fill="white"/>
<mask id="mask0_218_1440" style="mask-type:luminance" maskUnits="userSpaceOnUse" x="89" y="66" width="4" height="5">
<path d="M89.875 66.6161H92.556V70.7728H89.875V66.6161Z" fill="white"/>
</mask>
<g mask="url(#mask0_218_1440)">
<path fill-rule="evenodd" clip-rule="evenodd" d="M92.218 68.1526C92.218 67.9776 92.1964 67.8146 92.1532 67.6637C92.1101 67.5129 92.0471 67.3824 91.9645 67.2726C91.8818 67.1629 91.7788 67.0763 91.6547 67.0129C91.5308 66.9497 91.3901 66.9179 91.2324 66.9179C91.0896 66.9179 90.9583 66.9431 90.8381 66.9934C90.718 67.0435 90.6128 67.1172 90.5228 67.2139C90.4325 67.311 90.3621 67.429 90.3114 67.5687C90.2607 67.7085 90.2355 67.8697 90.2355 68.052C90.2279 68.2344 90.2429 68.405 90.2804 68.5632C90.3181 68.7216 90.3781 68.8604 90.4607 68.9794C90.5432 69.0987 90.6485 69.1927 90.7761 69.2616C90.9037 69.3306 91.0558 69.3649 91.2324 69.3649C91.3862 69.3649 91.5243 69.3323 91.6463 69.2671C91.7684 69.2019 91.8716 69.1146 91.9561 69.0046C92.0406 68.8946 92.1054 68.7662 92.1504 68.619C92.1955 68.4719 92.218 68.3166 92.218 68.1526ZM92.218 66.6944H92.556V69.3089C92.556 69.5027 92.5363 69.688 92.4967 69.8649C92.4574 70.0417 92.387 70.1974 92.2856 70.3313C92.1842 70.4656 92.0453 70.5726 91.8688 70.6525C91.6922 70.7327 91.4651 70.7728 91.1873 70.7728C90.9733 70.7728 90.7893 70.7456 90.6353 70.6916C90.4814 70.6376 90.3556 70.5696 90.2579 70.4879C90.1603 70.4057 90.0862 70.3154 90.0355 70.2169C89.9848 70.1181 89.9576 70.026 89.9539 69.9404H90.3144C90.3406 70.0483 90.3818 70.1368 90.4383 70.2058C90.4945 70.2747 90.5612 70.3287 90.6381 70.3676C90.7152 70.4068 90.8006 70.4339 90.8944 70.4488C90.9882 70.4635 91.0859 70.4711 91.1873 70.4711C91.4162 70.4711 91.6003 70.4319 91.7392 70.3538C91.8781 70.2755 91.9832 70.173 92.0547 70.0465C92.1259 69.9198 92.1719 69.7763 92.1927 69.6162C92.2133 69.4561 92.2217 69.2923 92.218 69.1245C92.1091 69.3034 91.9598 69.4384 91.7702 69.5298C91.5806 69.621 91.3824 69.6666 91.1761 69.6666C90.9544 69.6666 90.7622 69.6246 90.5987 69.5408C90.4353 69.457 90.3003 69.3454 90.1933 69.2058C90.0862 69.0659 90.0063 68.9031 89.9539 68.7169C89.9012 68.5306 89.875 68.337 89.875 68.1359C89.875 67.9235 89.8993 67.7243 89.9482 67.5381C89.997 67.3519 90.0748 67.1907 90.182 67.0547C90.289 66.919 90.4251 66.8118 90.5902 66.7336C90.7555 66.6554 90.9564 66.6161 91.1928 66.6161C91.2868 66.6161 91.3824 66.6292 91.4801 66.6554C91.5778 66.6815 91.6725 66.7187 91.7646 66.7672C91.8566 66.8154 91.9411 66.877 92.0181 66.9514C92.095 67.026 92.158 67.1098 92.2066 67.2028H92.218V66.6944Z" fill="white"/>
</g>
<path fill-rule="evenodd" clip-rule="evenodd" d="M95.4058 67.9403C95.4058 67.7987 95.3861 67.6657 95.3468 67.5408C95.3072 67.4161 95.2489 67.3079 95.172 67.2167C95.0951 67.1256 94.9984 67.053 94.8819 66.999C94.7655 66.945 94.6321 66.9178 94.4821 66.9178C94.3318 66.9178 94.1994 66.9459 94.085 67.0016C93.9704 67.0576 93.8729 67.132 93.7922 67.225C93.7114 67.3182 93.6466 67.4262 93.5979 67.5492C93.5489 67.6721 93.5171 67.8025 93.5021 67.9403H95.4058ZM93.5021 68.2196C93.5021 68.376 93.5227 68.5241 93.5641 68.6637C93.6053 68.8035 93.6662 68.9246 93.747 69.0268C93.8278 69.1294 93.9301 69.2112 94.054 69.2725C94.1779 69.3341 94.3207 69.3648 94.4821 69.3648C94.7036 69.3648 94.8933 69.3072 95.0509 69.1917C95.2086 69.0763 95.3137 68.9122 95.3665 68.7H95.7436C95.7024 68.8378 95.648 68.9653 95.5804 69.0826C95.5128 69.2001 95.4283 69.3026 95.3269 69.3901C95.2255 69.4776 95.1053 69.5455 94.9664 69.594C94.8275 69.6422 94.6661 69.6666 94.4821 69.6666C94.2492 69.6666 94.0484 69.6273 93.8794 69.5492C93.7104 69.4711 93.5715 69.3641 93.4627 69.2279C93.3537 69.092 93.2731 68.9319 93.2205 68.7475C93.1678 68.5631 93.1416 68.3649 93.1416 68.1525C93.1416 67.9403 93.1726 67.741 93.2346 67.5548C93.2965 67.3685 93.3847 67.2057 93.4993 67.0659C93.6139 66.9262 93.7537 66.8164 93.9188 66.7363C94.0841 66.6562 94.2719 66.6162 94.4821 66.6162C94.8838 66.6162 95.1993 66.7531 95.4283 67.0268C95.6573 67.3006 95.77 67.6983 95.7663 68.2196H93.5021Z" fill="white"/>
<path fill-rule="evenodd" clip-rule="evenodd" d="M96.6505 69.5883H96.3125V66.6944H96.6505V67.0967C96.7857 66.9552 96.9254 66.8397 97.07 66.7504C97.2147 66.6609 97.3883 66.6161 97.591 66.6161C97.7713 66.6161 97.9384 66.6469 98.0924 66.7084C98.2463 66.7697 98.3758 66.8769 98.4809 67.0296C98.5522 67.1339 98.5946 67.2411 98.6077 67.3509C98.6207 67.4607 98.6274 67.5753 98.6274 67.6945V69.5883H98.2894V67.7C98.2894 67.4393 98.2313 67.2437 98.1149 67.1133C97.9984 66.983 97.8051 66.9178 97.5347 66.9178C97.4296 66.9178 97.3339 66.9339 97.2474 66.9654C97.161 66.9972 97.0832 67.0389 97.0138 67.091C96.9443 67.1433 96.8851 67.2028 96.8362 67.2699C96.7876 67.3369 96.7499 67.4076 96.7237 67.4821C96.6899 67.5753 96.6693 67.6648 96.6618 67.7503C96.6542 67.8359 96.6505 67.929 96.6505 68.0295V69.5883Z" fill="white"/>
<path fill-rule="evenodd" clip-rule="evenodd" d="M101.399 67.605C101.338 67.3891 101.235 67.2205 101.089 67.0995C100.942 66.9785 100.756 66.9179 100.531 66.9179C100.358 66.9179 100.21 66.9533 100.086 67.024C99.9623 67.0947 99.8609 67.1889 99.7822 67.3062C99.7032 67.4235 99.6451 67.5556 99.6074 67.7028C99.5699 67.85 99.5511 67.9981 99.5511 68.1469C99.5511 68.2996 99.569 68.4487 99.6046 68.5938C99.6403 68.7392 99.6977 68.8696 99.7766 68.9849C99.8553 69.1004 99.9567 69.1925 100.081 69.2614C100.204 69.3305 100.355 69.3649 100.531 69.3649C100.783 69.3649 100.985 69.296 101.137 69.1583C101.289 69.0205 101.385 68.8304 101.427 68.5883H101.787C101.757 68.7484 101.709 68.8947 101.644 69.0269C101.578 69.1592 101.493 69.2726 101.39 69.3675C101.287 69.4626 101.164 69.5361 101.021 69.5884C100.878 69.6405 100.715 69.6665 100.531 69.6665C100.298 69.6665 100.098 69.6274 99.9285 69.5493C99.7595 69.471 99.6206 69.364 99.5118 69.2281C99.4028 69.0919 99.3222 68.9309 99.2696 68.7447C99.2169 68.5587 99.1907 68.3593 99.1907 68.1469C99.1907 67.946 99.2198 67.7531 99.2781 67.5687C99.3363 67.3845 99.4217 67.2215 99.5342 67.0798C99.647 66.9383 99.7868 66.8258 99.954 66.7418C100.121 66.658 100.314 66.6161 100.531 66.6161C100.869 66.6161 101.142 66.6963 101.351 66.8565C101.559 67.0166 101.689 67.2662 101.742 67.605H101.399Z" fill="white"/>
<path fill-rule="evenodd" clip-rule="evenodd" d="M104.463 67.9403C104.463 67.7987 104.443 67.6657 104.404 67.5408C104.364 67.4161 104.306 67.3079 104.229 67.2167C104.152 67.1256 104.055 67.053 103.939 66.999C103.822 66.945 103.689 66.9178 103.539 66.9178C103.389 66.9178 103.256 66.9459 103.142 67.0016C103.027 67.0576 102.93 67.132 102.849 67.225C102.768 67.3182 102.703 67.4262 102.655 67.5492C102.606 67.6721 102.574 67.8025 102.559 67.9403H104.463ZM102.559 68.2196C102.559 68.376 102.579 68.5241 102.621 68.6637C102.662 68.8035 102.723 68.9246 102.804 69.0268C102.885 69.1294 102.987 69.2112 103.111 69.2725C103.235 69.3341 103.377 69.3648 103.539 69.3648C103.76 69.3648 103.95 69.3072 104.108 69.1917C104.265 69.0763 104.37 68.9122 104.423 68.7H104.8C104.759 68.8378 104.705 68.9653 104.637 69.0826C104.57 69.2001 104.485 69.3026 104.384 69.3901C104.282 69.4776 104.162 69.5455 104.023 69.594C103.884 69.6422 103.723 69.6666 103.539 69.6666C103.306 69.6666 103.105 69.6273 102.936 69.5492C102.767 69.4711 102.628 69.3641 102.519 69.2279C102.41 69.092 102.33 68.9319 102.277 68.7475C102.225 68.5631 102.198 68.3649 102.198 68.1525C102.198 67.9403 102.229 67.741 102.291 67.5548C102.353 67.3685 102.441 67.2057 102.556 67.0659C102.671 66.9262 102.81 66.8164 102.976 66.7363C103.141 66.6562 103.329 66.6162 103.539 66.6162C103.941 66.6162 104.256 66.7531 104.485 67.0268C104.714 67.3006 104.827 67.6983 104.823 68.2196H102.559Z" fill="white"/>
<path fill-rule="evenodd" clip-rule="evenodd" d="M109.075 68.1301C109.075 67.9663 109.053 67.8109 109.008 67.6637C108.963 67.5167 108.898 67.3881 108.814 67.2783C108.729 67.1683 108.626 67.0808 108.504 67.0156C108.382 66.9506 108.244 66.9178 108.09 66.9178C107.913 66.9178 107.761 66.9523 107.634 67.0212C107.506 67.09 107.401 67.1842 107.318 67.3034C107.236 67.4225 107.176 67.5613 107.138 67.7195C107.1 67.8779 107.085 68.0483 107.093 68.2307C107.093 68.4132 107.118 68.5742 107.169 68.714C107.22 68.8537 107.29 68.9719 107.38 69.0688C107.47 69.1655 107.575 69.2392 107.696 69.2895C107.816 69.3396 107.947 69.3649 108.09 69.3649C108.247 69.3649 108.388 69.3332 108.512 69.2698C108.636 69.2066 108.739 69.12 108.822 69.0101C108.905 68.9003 108.967 68.7699 109.011 68.619C109.054 68.4681 109.075 68.3053 109.075 68.1301ZM109.075 65.5659H109.413V69.5883H109.075V69.0799H109.064C109.015 69.177 108.952 69.2615 108.876 69.3341C108.798 69.4069 108.714 69.4673 108.622 69.5155C108.53 69.5642 108.435 69.6012 108.338 69.6274C108.24 69.6535 108.144 69.6666 108.05 69.6666C107.814 69.6666 107.613 69.6274 107.448 69.5493C107.283 69.471 107.146 69.3639 107.039 69.228C106.932 69.092 106.854 68.931 106.806 68.7448C106.757 68.5586 106.732 68.3593 106.732 68.147C106.732 67.9459 106.759 67.7521 106.811 67.5659C106.864 67.3798 106.944 67.2168 107.051 67.0772C107.158 66.9373 107.293 66.8257 107.456 66.7419C107.62 66.6581 107.812 66.6161 108.034 66.6161C108.24 66.6161 108.438 66.6618 108.628 66.7529C108.817 66.8445 108.967 66.9793 109.075 67.1582V65.5659Z" fill="white"/>
<path fill-rule="evenodd" clip-rule="evenodd" d="M112.263 67.9403C112.263 67.7987 112.244 67.6657 112.204 67.5408C112.165 67.4161 112.106 67.3079 112.029 67.2167C111.953 67.1256 111.856 67.053 111.739 66.999C111.623 66.945 111.49 66.9178 111.34 66.9178C111.189 66.9178 111.057 66.9459 110.942 67.0016C110.828 67.0576 110.73 67.132 110.65 67.225C110.569 67.3182 110.504 67.4262 110.455 67.5492C110.406 67.6721 110.375 67.8025 110.359 67.9403H112.263ZM110.359 68.2196C110.359 68.376 110.38 68.5241 110.422 68.6637C110.463 68.8035 110.524 68.9246 110.604 69.0268C110.685 69.1294 110.788 69.2112 110.911 69.2725C111.035 69.3341 111.178 69.3648 111.34 69.3648C111.561 69.3648 111.751 69.3072 111.908 69.1917C112.066 69.0763 112.171 68.9122 112.224 68.7H112.601C112.56 68.8378 112.505 68.9653 112.438 69.0826C112.37 69.2001 112.286 69.3026 112.184 69.3901C112.083 69.4776 111.963 69.5455 111.824 69.594C111.685 69.6422 111.524 69.6666 111.34 69.6666C111.107 69.6666 110.906 69.6273 110.737 69.5492C110.568 69.4711 110.429 69.3641 110.32 69.2279C110.211 69.092 110.131 68.9319 110.078 68.7475C110.025 68.5631 109.999 68.3649 109.999 68.1525C109.999 67.9403 110.03 67.741 110.092 67.5548C110.154 67.3685 110.242 67.2057 110.357 67.0659C110.471 66.9262 110.611 66.8164 110.776 66.7363C110.942 66.6562 111.129 66.6162 111.34 66.6162C111.741 66.6162 112.057 66.7531 112.286 67.0268C112.515 67.3006 112.627 67.6983 112.624 68.2196H110.359Z" fill="white"/>
<path fill-rule="evenodd" clip-rule="evenodd" d="M115.057 69.2643H115.975C116.148 69.2643 116.31 69.254 116.462 69.2335C116.614 69.2131 116.769 69.1619 116.927 69.0799C117.062 69.0129 117.173 68.9217 117.259 68.8062C117.345 68.6909 117.414 68.5651 117.465 68.4291C117.515 68.2932 117.551 68.1508 117.572 68.0017C117.592 67.8527 117.603 67.7094 117.603 67.5716C117.603 67.4261 117.593 67.2783 117.574 67.1273C117.556 66.9766 117.52 66.8333 117.467 66.6972C117.415 66.5612 117.344 66.4365 117.253 66.3228C117.163 66.2094 117.047 66.1152 116.904 66.0408C116.784 65.9774 116.641 65.9366 116.476 65.9178C116.311 65.8992 116.144 65.8899 115.975 65.8899H115.057V69.2643ZM114.674 69.5883V65.5659H116.059C116.172 65.5659 116.283 65.5687 116.392 65.5744C116.5 65.5799 116.608 65.5928 116.713 65.6134C116.818 65.6339 116.92 65.6647 117.02 65.7055C117.119 65.7464 117.216 65.8004 117.31 65.8677C117.445 65.9645 117.556 66.0828 117.642 66.2223C117.728 66.3619 117.797 66.5093 117.848 66.6636C117.898 66.8184 117.934 66.9746 117.955 67.133C117.975 67.2912 117.986 67.4375 117.986 67.5716C117.986 67.7055 117.977 67.8415 117.96 67.9793C117.943 68.1171 117.916 68.2523 117.879 68.3845C117.841 68.5166 117.791 68.6433 117.729 68.7642C117.667 68.8852 117.589 68.9961 117.496 69.0967C117.402 69.2009 117.299 69.2848 117.189 69.3481C117.078 69.4115 116.961 69.4607 116.84 69.4962C116.717 69.5316 116.591 69.5557 116.459 69.5686C116.328 69.5819 116.195 69.5883 116.059 69.5883H114.674Z" fill="white"/>
<path fill-rule="evenodd" clip-rule="evenodd" d="M119.416 66.3816L120.041 65.6049H120.475L119.703 66.3816H119.416ZM120.689 67.9403C120.689 67.7987 120.669 67.6657 120.63 67.5408C120.59 67.4161 120.532 67.3079 120.455 67.2168C120.378 67.1256 120.282 67.053 120.165 66.999C120.049 66.9451 119.915 66.9178 119.765 66.9178C119.615 66.9178 119.483 66.9458 119.368 67.0016C119.254 67.0576 119.156 67.132 119.075 67.2251C118.995 67.3183 118.93 67.4262 118.881 67.5493C118.832 67.6721 118.8 67.8026 118.785 67.9403H120.689ZM118.785 68.2196C118.785 68.376 118.806 68.5241 118.847 68.6637C118.889 68.8034 118.949 68.9246 119.03 69.0268C119.111 69.1294 119.213 69.2112 119.337 69.2726C119.461 69.3341 119.604 69.3648 119.765 69.3648C119.987 69.3648 120.176 69.3072 120.334 69.1917C120.492 69.0764 120.597 68.9122 120.65 68.7H121.027C120.986 68.8378 120.931 68.9653 120.864 69.0826C120.796 69.2002 120.712 69.3024 120.61 69.3901C120.509 69.4776 120.389 69.5456 120.25 69.5938C120.111 69.6423 119.949 69.6666 119.765 69.6666C119.532 69.6666 119.332 69.6273 119.163 69.5492C118.994 69.4709 118.855 69.3639 118.746 69.228C118.637 69.092 118.556 68.9319 118.504 68.7476C118.451 68.5632 118.425 68.3649 118.425 68.1526C118.425 67.9403 118.456 67.741 118.518 67.5548C118.58 67.3686 118.668 67.2057 118.782 67.0659C118.897 66.9263 119.037 66.8165 119.202 66.7363C119.367 66.6562 119.555 66.6161 119.765 66.6161C120.167 66.6161 120.483 66.7531 120.712 67.0268C120.94 67.3006 121.053 67.6981 121.05 68.2196H118.785Z" fill="white"/>
<path fill-rule="evenodd" clip-rule="evenodd" d="M121.286 66.6944H121.652L122.598 69.1749L123.545 66.6944H123.911L122.779 69.5883H122.401L121.286 66.6944Z" fill="white"/>
<path fill-rule="evenodd" clip-rule="evenodd" d="M126.412 67.9403C126.412 67.7987 126.392 67.6657 126.353 67.5408C126.313 67.4161 126.255 67.3079 126.178 67.2167C126.101 67.1256 126.004 67.053 125.888 66.999C125.771 66.945 125.638 66.9178 125.488 66.9178C125.338 66.9178 125.205 66.9459 125.091 67.0016C124.976 67.0576 124.879 67.132 124.798 67.225C124.717 67.3182 124.652 67.4262 124.604 67.5492C124.555 67.6721 124.523 67.8025 124.508 67.9403H126.412ZM124.508 68.2196C124.508 68.376 124.528 68.5241 124.57 68.6637C124.611 68.8035 124.672 68.9246 124.753 69.0268C124.834 69.1294 124.936 69.2112 125.06 69.2725C125.184 69.3341 125.326 69.3648 125.488 69.3648C125.709 69.3648 125.899 69.3072 126.057 69.1917C126.214 69.0763 126.319 68.9122 126.372 68.7H126.749C126.708 68.8378 126.654 68.9653 126.586 69.0826C126.519 69.2001 126.434 69.3026 126.333 69.3901C126.231 69.4776 126.111 69.5455 125.972 69.594C125.833 69.6422 125.672 69.6666 125.488 69.6666C125.255 69.6666 125.054 69.6273 124.885 69.5492C124.716 69.4711 124.577 69.3641 124.468 69.2279C124.359 69.092 124.279 68.9319 124.226 68.7475C124.174 68.5631 124.147 68.3649 124.147 68.1525C124.147 67.9403 124.178 67.741 124.24 67.5548C124.302 67.3685 124.39 67.2057 124.505 67.0659C124.62 66.9262 124.759 66.8164 124.925 66.7363C125.09 66.6562 125.278 66.6162 125.488 66.6162C125.89 66.6162 126.205 66.7531 126.434 67.0268C126.663 67.3006 126.776 67.6983 126.772 68.2196H124.508Z" fill="white"/>
<mask id="mask1_218_1440" style="mask-type:luminance" maskUnits="userSpaceOnUse" x="86" y="36" width="91" height="35">
<path d="M86 70.7727H176.893V36.6842H86V70.7727Z" fill="white"/>
</mask>
<g mask="url(#mask1_218_1440)">
<path fill-rule="evenodd" clip-rule="evenodd" d="M127.369 69.5882H127.707V65.5658H127.369V69.5882Z" fill="white"/>
</g>
<mask id="mask2_218_1440" style="mask-type:luminance" maskUnits="userSpaceOnUse" x="86" y="36" width="91" height="35">
<path d="M86 70.7727H176.893V36.6842H86V70.7727Z" fill="white"/>
</mask>
<g mask="url(#mask2_218_1440)">
<path fill-rule="evenodd" clip-rule="evenodd" d="M130.607 68.1414C130.607 67.9701 130.589 67.8098 130.551 67.661C130.514 67.512 130.455 67.3825 130.377 67.2725C130.298 67.1629 130.196 67.0763 130.072 67.0128C129.949 66.9496 129.796 66.9177 129.616 66.9177C129.44 66.9177 129.289 66.9523 129.163 67.0212C129.037 67.0901 128.935 67.1813 128.856 67.295C128.777 67.4084 128.719 67.5389 128.681 67.686C128.644 67.8332 128.625 67.9848 128.625 68.1414C128.625 68.3201 128.647 68.485 128.69 68.6358C128.733 68.7867 128.796 68.916 128.878 69.024C128.961 69.1321 129.064 69.2159 129.188 69.2754C129.312 69.3349 129.455 69.3649 129.616 69.3649C129.793 69.3649 129.944 69.3305 130.07 69.2614C130.195 69.1925 130.298 69.1004 130.377 68.9849C130.455 68.8696 130.514 68.7392 130.551 68.5938C130.589 68.4487 130.607 68.2978 130.607 68.1414ZM129.616 69.6665C129.428 69.6628 129.253 69.6293 129.09 69.5659C128.926 69.5027 128.784 69.4077 128.662 69.2811C128.54 69.1544 128.443 68.9962 128.371 68.806C128.3 68.6161 128.265 68.3947 128.265 68.1414C128.265 67.929 128.293 67.7308 128.349 67.5464C128.405 67.362 128.49 67.201 128.603 67.063C128.715 66.9253 128.856 66.8166 129.025 66.7363C129.194 66.6561 129.391 66.6161 129.616 66.6161C129.845 66.6161 130.044 66.6561 130.213 66.7363C130.382 66.8166 130.523 66.9245 130.636 67.0603C130.748 67.1962 130.832 67.3574 130.886 67.5436C130.941 67.7299 130.968 67.929 130.968 68.1414C130.968 68.3724 130.936 68.5809 130.872 68.767C130.808 68.9532 130.717 69.1133 130.599 69.2476C130.481 69.3815 130.338 69.4849 130.171 69.5574C130.004 69.6302 129.819 69.6665 129.616 69.6665Z" fill="white"/>
</g>
<mask id="mask3_218_1440" style="mask-type:luminance" maskUnits="userSpaceOnUse" x="86" y="36" width="91" height="35">
<path d="M86 70.7727H176.893V36.6842H86V70.7727Z" fill="white"/>
</mask>
<g mask="url(#mask3_218_1440)">
<path fill-rule="evenodd" clip-rule="evenodd" d="M131.852 68.1526C131.852 68.3166 131.875 68.4719 131.92 68.619C131.965 68.7662 132.03 68.8946 132.114 69.0046C132.198 69.1146 132.302 69.2019 132.424 69.2671C132.546 69.3323 132.684 69.3649 132.838 69.3649C133.01 69.3649 133.162 69.3306 133.291 69.2616C133.421 69.1927 133.527 69.0987 133.609 68.9794C133.692 68.8604 133.752 68.7216 133.79 68.5632C133.827 68.405 133.842 68.2344 133.835 68.052C133.835 67.8697 133.81 67.7085 133.759 67.5687C133.708 67.429 133.638 67.311 133.547 67.2139C133.457 67.1172 133.352 67.0435 133.232 66.9934C133.112 66.9431 132.98 66.9179 132.838 66.9179C132.68 66.9179 132.539 66.9497 132.415 67.0129C132.291 67.0763 132.188 67.1629 132.106 67.2726C132.023 67.3824 131.96 67.5129 131.917 67.6637C131.874 67.8146 131.852 67.9776 131.852 68.1526ZM131.852 70.7279H131.514V66.6944H131.852V67.2028H131.864C131.912 67.1098 131.975 67.026 132.052 66.9514C132.129 66.877 132.213 66.8154 132.305 66.7672C132.398 66.7187 132.492 66.6815 132.59 66.6554C132.688 66.6292 132.783 66.6161 132.877 66.6161C133.114 66.6161 133.315 66.6554 133.48 66.7336C133.645 66.8118 133.781 66.919 133.888 67.0547C133.995 67.1907 134.073 67.3519 134.122 67.5381C134.171 67.7243 134.195 67.9235 134.195 68.1359C134.195 68.337 134.169 68.5306 134.116 68.7169C134.064 68.9031 133.984 69.0659 133.877 69.2057C133.77 69.3454 133.635 69.457 133.472 69.5408C133.308 69.6246 133.116 69.6666 132.894 69.6666C132.688 69.6666 132.49 69.621 132.3 69.5298C132.11 69.4384 131.961 69.3034 131.852 69.1245V70.7279Z" fill="white"/>
</g>
<mask id="mask4_218_1440" style="mask-type:luminance" maskUnits="userSpaceOnUse" x="86" y="36" width="91" height="35">
<path d="M86 70.7727H176.893V36.6842H86V70.7727Z" fill="white"/>
</mask>
<g mask="url(#mask4_218_1440)">
<path fill-rule="evenodd" clip-rule="evenodd" d="M135.181 68.1526C135.181 68.3166 135.203 68.4719 135.248 68.619C135.293 68.7662 135.358 68.8946 135.443 69.0046C135.527 69.1146 135.631 69.2019 135.753 69.2671C135.874 69.3323 136.013 69.3649 136.166 69.3649C136.339 69.3649 136.49 69.3306 136.62 69.2616C136.749 69.1927 136.855 69.0987 136.938 68.9794C137.021 68.8604 137.081 68.7216 137.118 68.5632C137.156 68.405 137.171 68.2344 137.163 68.052C137.163 67.8697 137.138 67.7085 137.087 67.5687C137.037 67.429 136.966 67.311 136.876 67.2139C136.786 67.1172 136.681 67.0435 136.561 66.9934C136.441 66.9431 136.309 66.9179 136.166 66.9179C136.009 66.9179 135.868 66.9497 135.744 67.0129C135.62 67.0763 135.517 67.1629 135.434 67.2726C135.352 67.3824 135.289 67.5129 135.246 67.6637C135.202 67.8146 135.181 67.9776 135.181 68.1526ZM135.181 70.7279H134.843V66.6944H135.181V67.2028H135.192C135.241 67.1098 135.304 67.026 135.381 66.9514C135.458 66.877 135.542 66.8154 135.634 66.7672C135.726 66.7187 135.821 66.6815 135.919 66.6554C136.016 66.6292 136.112 66.6161 136.206 66.6161C136.442 66.6161 136.643 66.6554 136.809 66.7336C136.974 66.8118 137.11 66.919 137.217 67.0547C137.324 67.1907 137.402 67.3519 137.451 67.5381C137.499 67.7243 137.524 67.9235 137.524 68.1359C137.524 68.337 137.498 68.5306 137.445 68.7169C137.392 68.9031 137.313 69.0659 137.206 69.2057C137.099 69.3454 136.964 69.457 136.8 69.5408C136.637 69.6246 136.444 69.6666 136.223 69.6666C136.016 69.6666 135.818 69.621 135.629 69.5298C135.439 69.4384 135.29 69.3034 135.181 69.1245V70.7279Z" fill="white"/>
</g>
<mask id="mask5_218_1440" style="mask-type:luminance" maskUnits="userSpaceOnUse" x="86" y="36" width="91" height="35">
<path d="M86 70.7727H176.893V36.6842H86V70.7727Z" fill="white"/>
</mask>
<g mask="url(#mask5_218_1440)">
<path fill-rule="evenodd" clip-rule="evenodd" d="M140.244 67.9403C140.244 67.7987 140.225 67.6657 140.185 67.5408C140.146 67.4161 140.087 67.3079 140.01 67.2167C139.933 67.1256 139.837 67.053 139.721 66.999C139.604 66.945 139.471 66.9178 139.321 66.9178C139.17 66.9178 139.038 66.9459 138.923 67.0016C138.809 67.0576 138.711 67.132 138.631 67.225C138.55 67.3182 138.485 67.4262 138.436 67.5492C138.387 67.6721 138.356 67.8025 138.341 67.9403H140.244ZM138.341 68.2196C138.341 68.376 138.361 68.5241 138.403 68.6637C138.444 68.8035 138.505 68.9246 138.585 69.0268C138.666 69.1294 138.769 69.2112 138.893 69.2725C139.017 69.3341 139.159 69.3648 139.321 69.3648C139.542 69.3648 139.732 69.3072 139.889 69.1917C140.047 69.0763 140.152 68.9122 140.205 68.7H140.582C140.541 68.8378 140.486 68.9653 140.419 69.0826C140.351 69.2001 140.267 69.3026 140.165 69.3901C140.064 69.4776 139.944 69.5455 139.805 69.594C139.666 69.6422 139.505 69.6666 139.321 69.6666C139.088 69.6666 138.887 69.6273 138.718 69.5492C138.549 69.4711 138.41 69.3641 138.301 69.2279C138.192 69.092 138.112 68.9319 138.059 68.7475C138.006 68.5631 137.98 68.3649 137.98 68.1525C137.98 67.9403 138.011 67.741 138.073 67.5548C138.135 67.3685 138.223 67.2057 138.338 67.0659C138.452 66.9262 138.592 66.8164 138.757 66.7363C138.923 66.6562 139.11 66.6162 139.321 66.6162C139.722 66.6162 140.038 66.7531 140.267 67.0268C140.496 67.3006 140.608 67.6983 140.605 68.2196H138.341Z" fill="white"/>
</g>
<mask id="mask6_218_1440" style="mask-type:luminance" maskUnits="userSpaceOnUse" x="86" y="36" width="91" height="35">
<path d="M86 70.7727H176.893V36.6842H86V70.7727Z" fill="white"/>
</mask>
<g mask="url(#mask6_218_1440)">
<path fill-rule="evenodd" clip-rule="evenodd" d="M141.444 69.5883H141.106V66.6944H141.444V67.1302H141.455C141.542 66.9626 141.665 66.8351 141.827 66.7474C141.989 66.6601 142.165 66.6161 142.356 66.6161C142.492 66.6161 142.606 66.631 142.7 66.6609C142.794 66.6909 142.874 66.7307 142.939 66.7811C143.005 66.8312 143.06 66.89 143.103 66.9571C143.146 67.0239 143.182 67.0967 143.212 67.1748C143.31 66.9849 143.441 66.8443 143.604 66.753C143.767 66.6618 143.954 66.6161 144.164 66.6161C144.363 66.6161 144.522 66.6489 144.64 66.7139C144.759 66.7791 144.85 66.8648 144.914 66.9709C144.977 67.0772 145.02 67.1991 145.04 67.3369C145.061 67.4747 145.071 67.6162 145.071 67.7615V69.5883H144.733V67.5884C144.733 67.3798 144.689 67.2159 144.601 67.0967C144.513 66.9775 144.348 66.9178 144.108 66.9178C143.984 66.9178 143.865 66.9449 143.75 66.9989C143.636 67.0529 143.536 67.1359 143.449 67.2476C143.411 67.296 143.381 67.3527 143.356 67.418C143.332 67.483 143.312 67.551 143.297 67.6217C143.282 67.6926 143.272 67.7634 143.266 67.8343C143.26 67.9048 143.258 67.9702 143.258 68.0295V69.5883H142.92V67.5884C142.92 67.3798 142.876 67.2159 142.787 67.0967C142.699 66.9775 142.535 66.9178 142.294 66.9178C142.171 66.9178 142.051 66.9449 141.937 66.9989C141.822 67.0529 141.722 67.1359 141.635 67.2476C141.598 67.296 141.567 67.3527 141.542 67.418C141.518 67.483 141.498 67.551 141.483 67.6217C141.468 67.6926 141.458 67.7634 141.452 67.8343C141.447 67.9048 141.444 67.9702 141.444 68.0295V69.5883Z" fill="white"/>
</g>
<mask id="mask7_218_1440" style="mask-type:luminance" maskUnits="userSpaceOnUse" x="86" y="36" width="91" height="35">
<path d="M86 70.7727H176.893V36.6842H86V70.7727Z" fill="white"/>
</mask>
<g mask="url(#mask7_218_1440)">
<path fill-rule="evenodd" clip-rule="evenodd" d="M147.842 67.9403C147.842 67.7987 147.822 67.6657 147.783 67.5408C147.744 67.4161 147.685 67.3079 147.608 67.2167C147.531 67.1256 147.435 67.053 147.318 66.999C147.202 66.945 147.069 66.9178 146.918 66.9178C146.768 66.9178 146.636 66.9459 146.521 67.0016C146.407 67.0576 146.309 67.132 146.229 67.225C146.148 67.3182 146.083 67.4262 146.034 67.5492C145.985 67.6721 145.953 67.8025 145.938 67.9403H147.842ZM145.938 68.2196C145.938 68.376 145.959 68.5241 146 68.6637C146.042 68.8035 146.103 68.9246 146.183 69.0268C146.264 69.1294 146.366 69.2112 146.491 69.2725C146.614 69.3341 146.757 69.3648 146.918 69.3648C147.14 69.3648 147.33 69.3072 147.487 69.1917C147.645 69.0763 147.75 68.9122 147.803 68.7H148.18C148.139 68.8378 148.084 68.9653 148.017 69.0826C147.949 69.2001 147.865 69.3026 147.763 69.3901C147.662 69.4776 147.542 69.5455 147.403 69.594C147.264 69.6422 147.102 69.6666 146.918 69.6666C146.686 69.6666 146.485 69.6273 146.316 69.5492C146.147 69.4711 146.008 69.3641 145.899 69.2279C145.79 69.092 145.709 68.9319 145.657 68.7475C145.604 68.5631 145.578 68.3649 145.578 68.1525C145.578 67.9403 145.609 67.741 145.671 67.5548C145.733 67.3685 145.821 67.2057 145.936 67.0659C146.05 66.9262 146.19 66.8164 146.355 66.7363C146.52 66.6562 146.708 66.6162 146.918 66.6162C147.32 66.6162 147.636 66.7531 147.865 67.0268C148.094 67.3006 148.206 67.6983 148.202 68.2196H145.938Z" fill="white"/>
</g>
<mask id="mask8_218_1440" style="mask-type:luminance" maskUnits="userSpaceOnUse" x="86" y="36" width="91" height="35">
<path d="M86 70.7727H176.893V36.6842H86V70.7727Z" fill="white"/>
</mask>
<g mask="url(#mask8_218_1440)">
<path fill-rule="evenodd" clip-rule="evenodd" d="M149.087 69.5883H148.749V66.6944H149.087V67.0967C149.222 66.9552 149.362 66.8397 149.507 66.7504C149.651 66.6609 149.825 66.6161 150.028 66.6161C150.208 66.6161 150.375 66.6469 150.529 66.7084C150.683 66.7697 150.812 66.8769 150.917 67.0296C150.989 67.1339 151.031 67.2411 151.044 67.3509C151.057 67.4607 151.064 67.5753 151.064 67.6945V69.5883H150.726V67.7C150.726 67.4393 150.668 67.2437 150.552 67.1133C150.435 66.983 150.242 66.9178 149.971 66.9178C149.866 66.9178 149.77 66.9339 149.684 66.9654C149.598 66.9972 149.52 67.0389 149.45 67.091C149.381 67.1433 149.322 67.2028 149.273 67.2699C149.224 67.3369 149.187 67.4076 149.16 67.4821C149.127 67.5753 149.106 67.6648 149.098 67.7503C149.091 67.8359 149.087 67.929 149.087 68.0295V69.5883Z" fill="white"/>
</g>
<mask id="mask9_218_1440" style="mask-type:luminance" maskUnits="userSpaceOnUse" x="86" y="36" width="91" height="35">
<path d="M86 70.7727H176.893V36.6842H86V70.7727Z" fill="white"/>
</mask>
<g mask="url(#mask9_218_1440)">
<path fill-rule="evenodd" clip-rule="evenodd" d="M152.793 69.5995C152.751 69.6068 152.697 69.6199 152.63 69.6387C152.562 69.6571 152.487 69.6665 152.404 69.6665C152.235 69.6665 152.107 69.6247 152.018 69.5409C151.93 69.4571 151.886 69.3071 151.886 69.091V66.9737H151.475V66.6943H151.886V65.8898H152.224V66.6943H152.77V66.9737H152.224V68.9571C152.224 69.0277 152.226 69.0892 152.23 69.1415C152.233 69.1936 152.245 69.2362 152.263 69.2699C152.282 69.3034 152.311 69.3276 152.351 69.3425C152.39 69.3576 152.446 69.365 152.517 69.365C152.562 69.365 152.608 69.3611 152.655 69.3537C152.702 69.3462 152.748 69.3368 152.793 69.3257V69.5995Z" fill="white"/>
</g>
<mask id="mask10_218_1440" style="mask-type:luminance" maskUnits="userSpaceOnUse" x="86" y="36" width="91" height="35">
<path d="M86 70.7727H176.893V36.6842H86V70.7727Z" fill="white"/>
</mask>
<g mask="url(#mask10_218_1440)">
<path fill-rule="evenodd" clip-rule="evenodd" d="M156.927 68.1301C156.927 67.9663 156.904 67.8109 156.859 67.6637C156.814 67.5167 156.749 67.3881 156.665 67.2783C156.58 67.1683 156.477 67.0808 156.355 67.0156C156.233 66.9506 156.095 66.9178 155.941 66.9178C155.765 66.9178 155.613 66.9523 155.485 67.0212C155.357 67.09 155.252 67.1842 155.17 67.3034C155.087 67.4225 155.027 67.5613 154.989 67.7195C154.952 67.8779 154.937 68.0483 154.944 68.2307C154.944 68.4132 154.97 68.5742 155.02 68.714C155.071 68.8537 155.142 68.9719 155.232 69.0688C155.322 69.1655 155.427 69.2392 155.547 69.2895C155.667 69.3396 155.798 69.3649 155.941 69.3649C156.099 69.3649 156.24 69.3332 156.364 69.2698C156.488 69.2066 156.591 69.12 156.674 69.0101C156.756 68.9003 156.819 68.7699 156.862 68.619C156.905 68.4681 156.927 68.3053 156.927 68.1301ZM156.927 65.5659H157.265V69.5883H156.927V69.0799H156.916C156.867 69.177 156.804 69.2615 156.727 69.3341C156.65 69.4069 156.565 69.4673 156.474 69.5155C156.381 69.5642 156.287 69.6012 156.189 69.6274C156.091 69.6535 155.995 69.6666 155.902 69.6666C155.665 69.6666 155.464 69.6274 155.299 69.5493C155.134 69.471 154.998 69.3639 154.891 69.228C154.784 69.092 154.706 68.931 154.657 68.7448C154.608 68.5586 154.584 68.3593 154.584 68.147C154.584 67.9459 154.61 67.7521 154.663 67.5659C154.715 67.3798 154.795 67.2168 154.902 67.0772C155.009 66.9373 155.144 66.8257 155.308 66.7419C155.471 66.6581 155.663 66.6161 155.885 66.6161C156.091 66.6161 156.289 66.6618 156.479 66.7529C156.669 66.8445 156.818 66.9793 156.927 67.1582V65.5659Z" fill="white"/>
</g>
<mask id="mask11_218_1440" style="mask-type:luminance" maskUnits="userSpaceOnUse" x="86" y="36" width="91" height="35">
<path d="M86 70.7727H176.893V36.6842H86V70.7727Z" fill="white"/>
</mask>
<g mask="url(#mask11_218_1440)">
<path fill-rule="evenodd" clip-rule="evenodd" d="M159.98 66.6944H160.317V69.5883H159.98V69.186C159.935 69.2383 159.884 69.2923 159.828 69.3481C159.771 69.4039 159.706 69.4551 159.633 69.5017C159.56 69.5483 159.475 69.5874 159.377 69.6191C159.279 69.6506 159.167 69.6666 159.039 69.6666C158.844 69.6666 158.68 69.6393 158.549 69.5854C158.417 69.5316 158.312 69.4561 158.231 69.3593C158.15 69.2624 158.092 69.1497 158.056 69.0213C158.02 68.8929 158.003 68.7522 158.003 68.5995V66.6944H158.341V68.5939C158.341 68.8434 158.399 69.0344 158.515 69.1665C158.632 69.2987 158.823 69.3649 159.09 69.3649C159.228 69.3649 159.353 69.338 159.464 69.2838C159.575 69.23 159.668 69.1543 159.743 69.0576C159.818 68.9609 159.876 68.8454 159.918 68.7111C159.959 68.5772 159.98 68.43 159.98 68.2699V66.6944Z" fill="white"/>
</g>
<mask id="mask12_218_1440" style="mask-type:luminance" maskUnits="userSpaceOnUse" x="86" y="36" width="91" height="35">
<path d="M86 70.7727H176.893V36.6842H86V70.7727Z" fill="white"/>
</mask>
<g mask="url(#mask12_218_1440)">
<path fill-rule="evenodd" clip-rule="evenodd" d="M162.908 69.2643H163.826C163.999 69.2643 164.162 69.254 164.314 69.2335C164.466 69.2131 164.621 69.1619 164.778 69.0799C164.913 69.0129 165.024 68.9217 165.111 68.8062C165.197 68.6909 165.265 68.5651 165.316 68.4291C165.367 68.2932 165.403 68.1508 165.423 68.0017C165.444 67.8527 165.454 67.7094 165.454 67.5716C165.454 67.4261 165.445 67.2783 165.426 67.1273C165.407 66.9766 165.372 66.8333 165.319 66.6972C165.266 66.5612 165.195 66.4365 165.105 66.3228C165.015 66.2094 164.898 66.1152 164.756 66.0408C164.636 65.9774 164.493 65.9366 164.328 65.9178C164.162 65.8992 163.996 65.8899 163.826 65.8899H162.908V69.2643ZM162.525 69.5883V65.5659H163.911C164.024 65.5659 164.134 65.5687 164.243 65.5744C164.352 65.5799 164.459 65.5928 164.564 65.6134C164.669 65.6339 164.772 65.6647 164.871 65.7055C164.971 65.7464 165.067 65.8004 165.161 65.8677C165.296 65.9645 165.407 66.0828 165.494 66.2223C165.58 66.3619 165.649 66.5093 165.699 66.6636C165.75 66.8184 165.785 66.9746 165.806 67.133C165.827 67.2912 165.837 67.4375 165.837 67.5716C165.837 67.7055 165.829 67.8415 165.812 67.9793C165.795 68.1171 165.768 68.2523 165.73 68.3845C165.693 68.5166 165.643 68.6433 165.581 68.7642C165.519 68.8852 165.441 68.9961 165.347 69.0967C165.253 69.2009 165.151 69.2848 165.04 69.3481C164.929 69.4115 164.813 69.4607 164.691 69.4962C164.569 69.5316 164.442 69.5557 164.311 69.5686C164.179 69.5819 164.046 69.5883 163.911 69.5883H162.525Z" fill="white"/>
</g>
<mask id="mask13_218_1440" style="mask-type:luminance" maskUnits="userSpaceOnUse" x="86" y="36" width="91" height="35">
<path d="M86 70.7727H176.893V36.6842H86V70.7727Z" fill="white"/>
</mask>
<g mask="url(#mask13_218_1440)">
<path fill-rule="evenodd" clip-rule="evenodd" d="M166.504 69.5882H166.917V66.6943H166.504V69.5882ZM166.462 66.063H166.917V65.5658H166.462V66.063Z" fill="white"/>
</g>
<mask id="mask14_218_1440" style="mask-type:luminance" maskUnits="userSpaceOnUse" x="86" y="36" width="91" height="35">
<path d="M86 70.7727H176.893V36.6842H86V70.7727Z" fill="white"/>
</mask>
<g mask="url(#mask14_218_1440)">
<path fill-rule="evenodd" clip-rule="evenodd" d="M169.819 68.1526C169.819 67.9776 169.797 67.8146 169.754 67.6637C169.711 67.5129 169.648 67.3824 169.566 67.2726C169.483 67.1629 169.38 67.0763 169.256 67.0129C169.132 66.9497 168.991 66.9179 168.833 66.9179C168.691 66.9179 168.559 66.9431 168.439 66.9934C168.319 67.0435 168.214 67.1172 168.124 67.2139C168.034 67.311 167.963 67.429 167.912 67.5687C167.862 67.7085 167.837 67.8697 167.837 68.052C167.829 68.2344 167.844 68.405 167.881 68.5632C167.919 68.7216 167.979 68.8604 168.062 68.9794C168.144 69.0987 168.25 69.1927 168.377 69.2616C168.505 69.3306 168.657 69.3649 168.833 69.3649C168.987 69.3649 169.125 69.3323 169.247 69.2671C169.369 69.2019 169.473 69.1146 169.557 69.0046C169.642 68.8946 169.707 68.7662 169.752 68.619C169.797 68.4719 169.819 68.3166 169.819 68.1526ZM169.819 66.6944H170.157V69.3089C170.157 69.5027 170.137 69.688 170.098 69.8649C170.058 70.0417 169.988 70.1974 169.887 70.3313C169.785 70.4656 169.646 70.5726 169.47 70.6525C169.293 70.7327 169.066 70.7728 168.788 70.7728C168.574 70.7728 168.39 70.7456 168.237 70.6916C168.082 70.6376 167.957 70.5696 167.859 70.4879C167.761 70.4057 167.687 70.3154 167.637 70.2169C167.586 70.1181 167.559 70.026 167.555 69.9404H167.915C167.942 70.0483 167.983 70.1367 168.039 70.2058C168.096 70.2747 168.162 70.3287 168.239 70.3676C168.316 70.4068 168.401 70.4339 168.495 70.4488C168.589 70.4635 168.687 70.4711 168.788 70.4711C169.018 70.4711 169.201 70.4319 169.34 70.3538C169.479 70.2755 169.584 70.173 169.656 70.0465C169.727 69.9197 169.773 69.7763 169.794 69.6162C169.814 69.4561 169.823 69.2923 169.819 69.1245C169.71 69.3034 169.561 69.4384 169.371 69.5298C169.182 69.621 168.984 69.6666 168.777 69.6666C168.555 69.6666 168.363 69.6246 168.2 69.5408C168.036 69.457 167.901 69.3454 167.794 69.2057C167.687 69.0659 167.608 68.9031 167.555 68.7169C167.502 68.5306 167.476 68.337 167.476 68.1359C167.476 67.9235 167.501 67.7243 167.549 67.5381C167.598 67.3519 167.676 67.1907 167.783 67.0547C167.89 66.919 168.026 66.8118 168.191 66.7336C168.357 66.6554 168.557 66.6161 168.794 66.6161C168.888 66.6161 168.984 66.6292 169.081 66.6554C169.179 66.6815 169.274 66.7187 169.366 66.7672C169.458 66.8154 169.542 66.877 169.619 66.9514C169.696 67.026 169.759 67.1098 169.808 67.2028H169.819V66.6944Z" fill="white"/>
</g>
<mask id="mask15_218_1440" style="mask-type:luminance" maskUnits="userSpaceOnUse" x="86" y="36" width="91" height="35">
<path d="M86 70.7727H176.893V36.6842H86V70.7727Z" fill="white"/>
</mask>
<g mask="url(#mask15_218_1440)">
<path fill-rule="evenodd" clip-rule="evenodd" d="M170.97 69.5882H171.384V66.6943H170.97V69.5882ZM170.928 66.063H171.383V65.5658H170.928V66.063Z" fill="white"/>
</g>
<mask id="mask16_218_1440" style="mask-type:luminance" maskUnits="userSpaceOnUse" x="86" y="36" width="91" height="35">
<path d="M86 70.7727H176.893V36.6842H86V70.7727Z" fill="white"/>
</mask>
<g mask="url(#mask16_218_1440)">
<path fill-rule="evenodd" clip-rule="evenodd" d="M173.057 69.5995C173.016 69.6068 172.962 69.6199 172.894 69.6387C172.827 69.6571 172.751 69.6665 172.669 69.6665C172.5 69.6665 172.371 69.6247 172.283 69.5409C172.195 69.4571 172.151 69.3071 172.151 69.091V66.9737H171.739V66.6943H172.151V65.8898H172.489V66.6943H173.035V66.9737H172.489V68.9571C172.489 69.0277 172.49 69.0892 172.494 69.1415C172.498 69.1936 172.509 69.2362 172.528 69.2699C172.547 69.3034 172.576 69.3276 172.615 69.3425C172.655 69.3576 172.71 69.365 172.781 69.365C172.827 69.365 172.872 69.3611 172.919 69.3537C172.966 69.3462 173.012 69.3368 173.057 69.3257V69.5995Z" fill="white"/>
</g>
<mask id="mask17_218_1440" style="mask-type:luminance" maskUnits="userSpaceOnUse" x="86" y="36" width="91" height="35">
<path d="M86 70.7727H176.893V36.6842H86V70.7727Z" fill="white"/>
</mask>
<g mask="url(#mask17_218_1440)">
<path fill-rule="evenodd" clip-rule="evenodd" d="M175.395 68.0688C175.252 68.1283 175.108 68.1675 174.961 68.1861C174.815 68.2047 174.668 68.2195 174.522 68.2307C174.263 68.2493 174.061 68.3071 173.916 68.4039C173.772 68.5009 173.7 68.6479 173.7 68.8454C173.7 68.9346 173.717 69.0119 173.753 69.0771C173.789 69.1424 173.836 69.1963 173.894 69.2392C173.952 69.282 174.02 69.3137 174.097 69.3341C174.174 69.3546 174.252 69.3649 174.33 69.3649C174.466 69.3649 174.597 69.3481 174.725 69.3146C174.852 69.2811 174.966 69.23 175.065 69.161C175.165 69.0921 175.245 69.0046 175.305 68.8985C175.365 68.7924 175.395 68.6665 175.395 68.5212V68.0688ZM174.826 67.9011C174.89 67.8938 174.966 67.8825 175.054 67.8676C175.142 67.8527 175.215 67.8322 175.271 67.8061C175.327 67.7803 175.362 67.7363 175.375 67.6747C175.388 67.6134 175.395 67.5567 175.395 67.5045C175.395 67.3332 175.339 67.1925 175.229 67.0827C175.118 66.9729 174.931 66.9178 174.668 66.9178C174.552 66.9178 174.445 66.9283 174.347 66.9486C174.25 66.969 174.164 67.0046 174.091 67.0547C174.018 67.1052 173.958 67.172 173.911 67.2559C173.864 67.3397 173.833 67.4449 173.818 67.5716H173.474C173.486 67.4003 173.525 67.254 173.593 67.133C173.66 67.0121 173.747 66.9134 173.854 66.837C173.961 66.7605 174.085 66.7047 174.226 66.6691C174.367 66.634 174.516 66.6161 174.674 66.6161C174.82 66.6161 174.958 66.6321 175.088 66.6636C175.218 66.6955 175.33 66.7456 175.426 66.8145C175.522 66.8834 175.597 66.9757 175.651 67.091C175.706 67.2065 175.733 67.3481 175.733 67.5156V69.0911C175.733 69.2216 175.756 69.3045 175.803 69.3396C175.85 69.3752 175.945 69.3667 176.088 69.3146V69.5771C176.061 69.5846 176.023 69.5957 175.972 69.6106C175.922 69.6255 175.872 69.6329 175.823 69.6329C175.77 69.6329 175.72 69.6274 175.671 69.6161C175.615 69.6088 175.569 69.5913 175.536 69.5631C175.502 69.5353 175.475 69.5017 175.454 69.4625C175.433 69.4235 175.419 69.3807 175.412 69.3341C175.404 69.2875 175.4 69.2383 175.4 69.186C175.258 69.3426 175.094 69.4618 174.911 69.5437C174.726 69.6255 174.527 69.6666 174.313 69.6666C174.186 69.6666 174.063 69.6499 173.944 69.6161C173.826 69.5828 173.722 69.5307 173.632 69.4599C173.542 69.3892 173.471 69.3024 173.418 69.2002C173.365 69.0976 173.339 68.9758 173.339 68.834C173.339 68.3425 173.679 68.052 174.359 67.9627L174.826 67.9011Z" fill="white"/>
</g>
<mask id="mask18_218_1440" style="mask-type:luminance" maskUnits="userSpaceOnUse" x="86" y="36" width="91" height="35">
<path d="M86 70.7727H176.893V36.6842H86V70.7727Z" fill="white"/>
</mask>
<g mask="url(#mask18_218_1440)">
<path fill-rule="evenodd" clip-rule="evenodd" d="M176.555 69.5882H176.893V65.5658H176.555V69.5882Z" fill="white"/>
</g>
<mask id="mask19_218_1440" style="mask-type:luminance" maskUnits="userSpaceOnUse" x="106" y="36" width="25" height="26">
<path d="M106.529 36.6842H130.67V61.0455H106.529V36.6842Z" fill="white"/>
</mask>
<g mask="url(#mask19_218_1440)">
<path fill-rule="evenodd" clip-rule="evenodd" d="M126.002 53.0977L118.582 37.6862L111.162 53.0977H126.002ZM118.268 36.6841H118.93L130.67 61.0454H129.834L126.351 53.7886H110.814L107.33 61.0454H106.529L118.268 36.6841Z" fill="white"/>
</g>
<path fill-rule="evenodd" clip-rule="evenodd" d="M140.592 60.3542C142.38 60.3542 144.023 60.0604 145.521 59.473C147.019 58.8853 148.302 58.0794 149.37 57.0541C150.438 56.0295 151.269 54.8314 151.861 53.4605C152.453 52.0902 152.75 50.6098 152.75 49.0203V48.9512C152.75 47.3615 152.453 45.8758 151.861 44.4935C151.269 43.1114 150.433 41.902 149.353 40.8653C148.273 39.8286 146.984 39.0166 145.486 38.4293C143.988 37.8418 142.333 37.5482 140.522 37.5482H133.485V60.3542H140.592ZM132.718 36.8569H140.557C142.484 36.8569 144.238 37.168 145.817 37.7899C147.396 38.412 148.761 39.2645 149.91 40.3471C151.06 41.4301 151.948 42.7026 152.575 44.1654C153.202 45.6284 153.516 47.2121 153.516 48.9166V48.9857C153.516 50.6907 153.202 52.2744 152.575 53.7368C151.948 55.2002 151.06 56.4727 149.91 57.5551C148.761 58.6385 147.396 59.4903 145.817 60.1125C144.238 60.7342 142.484 61.0454 140.557 61.0454H132.718V36.8569Z" fill="white"/>
<path fill-rule="evenodd" clip-rule="evenodd" d="M163.739 60.3542C165.527 60.3542 167.17 60.0604 168.668 59.473C170.166 58.8853 171.449 58.0794 172.518 57.0541C173.586 56.0295 174.416 54.8314 175.009 53.4605C175.601 52.0902 175.897 50.6098 175.897 49.0203V48.9512C175.897 47.3615 175.601 45.8758 175.009 44.4935C174.416 43.1114 173.58 41.902 172.5 40.8653C171.42 39.8286 170.131 39.0166 168.633 38.4293C167.135 37.8418 165.481 37.5482 163.669 37.5482H156.632V60.3542H163.739ZM155.866 36.8569H163.704C165.631 36.8569 167.385 37.168 168.964 37.7899C170.544 38.412 171.908 39.2645 173.058 40.3471C174.207 41.4301 175.096 42.7026 175.723 44.1654C176.35 45.6284 176.663 47.2121 176.663 48.9166V48.9857C176.663 50.6907 176.35 52.2744 175.723 53.7368C175.096 55.2002 174.207 56.4727 173.058 57.5551C171.908 58.6385 170.544 59.4903 168.964 60.1125C167.385 60.7342 165.631 61.0454 163.704 61.0454H155.866V36.8569Z" fill="white"/>
<path fill-rule="evenodd" clip-rule="evenodd" d="M100.294 38.2063L99.5266 42.6531H95.0744L95.842 38.2063H91.7888L91.0212 42.6531H87.6436V46.5517H90.3456L89.5779 51.0592H86.5687V54.9576H88.9024L88.104 59.5264H92.1572L92.9554 54.9576H97.4079L96.6094 59.5264H100.663L101.461 54.9576H104.839V51.0592H102.137L102.904 46.5517H105.913V42.6531H103.58L104.347 38.2063H100.294ZM94.3986 46.5517H98.8508L98.0834 51.0592H93.6311L94.3986 46.5517Z" fill="url(#paint1_linear_218_1440)"/>
</g>
</g>
<rect x="1204" y="29" width="158" height="40" rx="12" fill="#3563E9"/>
<path d="M1231.43 54.168C1230.46 54.168 1229.62 53.958 1228.91 53.538C1228.21 53.1087 1227.67 52.516 1227.29 51.76C1226.9 50.9947 1226.71 50.1127 1226.71 49.114C1226.71 48.106 1226.9 47.224 1227.29 46.468C1227.67 45.7027 1228.21 45.1053 1228.91 44.676C1229.62 44.2467 1230.46 44.032 1231.43 44.032C1232.58 44.032 1233.52 44.312 1234.24 44.872C1234.97 45.432 1235.43 46.216 1235.63 47.224H1233.98C1233.85 46.6547 1233.57 46.202 1233.14 45.866C1232.71 45.53 1232.13 45.362 1231.42 45.362C1230.44 45.362 1229.66 45.698 1229.09 46.37C1228.52 47.0327 1228.24 47.9473 1228.24 49.114C1228.24 50.2713 1228.52 51.1813 1229.09 51.844C1229.66 52.5067 1230.44 52.838 1231.42 52.838C1232.13 52.838 1232.71 52.6793 1233.14 52.362C1233.57 52.0447 1233.85 51.6107 1233.98 51.06H1235.63C1235.43 52.0307 1234.97 52.7913 1234.24 53.342C1233.52 53.8927 1232.58 54.168 1231.43 54.168ZM1240.91 54.168C1240.25 54.168 1239.65 54.0187 1239.12 53.72C1238.6 53.412 1238.18 52.9873 1237.87 52.446C1237.57 51.8953 1237.41 51.256 1237.41 50.528C1237.41 49.8 1237.57 49.1653 1237.87 48.624C1238.19 48.0733 1238.62 47.6487 1239.15 47.35C1239.68 47.042 1240.27 46.888 1240.93 46.888C1241.59 46.888 1242.18 47.042 1242.7 47.35C1243.24 47.6487 1243.66 48.0733 1243.96 48.624C1244.28 49.1653 1244.44 49.8 1244.44 50.528C1244.44 51.256 1244.28 51.8953 1243.96 52.446C1243.66 52.9873 1243.24 53.412 1242.7 53.72C1242.17 54.0187 1241.58 54.168 1240.91 54.168ZM1240.91 52.894C1241.27 52.894 1241.59 52.8053 1241.89 52.628C1242.2 52.4507 1242.45 52.1893 1242.63 51.844C1242.82 51.4893 1242.91 51.0507 1242.91 50.528C1242.91 50.0053 1242.82 49.5713 1242.63 49.226C1242.46 48.8713 1242.21 48.6053 1241.91 48.428C1241.61 48.2507 1241.28 48.162 1240.93 48.162C1240.57 48.162 1240.24 48.2507 1239.93 48.428C1239.63 48.6053 1239.39 48.8713 1239.2 49.226C1239.02 49.5713 1238.92 50.0053 1238.92 50.528C1238.92 51.0507 1239.02 51.4893 1239.2 51.844C1239.39 52.1893 1239.63 52.4507 1239.93 52.628C1240.23 52.8053 1240.56 52.894 1240.91 52.894ZM1246.51 54V47.056H1247.82L1247.93 48.274C1248.15 47.8447 1248.46 47.5087 1248.87 47.266C1249.29 47.014 1249.77 46.888 1250.31 46.888C1251.15 46.888 1251.81 47.1493 1252.29 47.672C1252.77 48.1947 1253.02 48.974 1253.02 50.01V54H1251.55V50.164C1251.55 48.82 1251 48.148 1249.89 48.148C1249.34 48.148 1248.89 48.344 1248.52 48.736C1248.17 49.128 1247.99 49.688 1247.99 50.416V54H1246.51ZM1258.14 54C1257.45 54 1256.91 53.8367 1256.51 53.51C1256.11 53.174 1255.91 52.5813 1255.91 51.732V48.302H1254.72V47.056H1255.91L1256.09 45.292H1257.39V47.056H1259.35V48.302H1257.39V51.732C1257.39 52.1147 1257.47 52.3807 1257.63 52.53C1257.8 52.67 1258.08 52.74 1258.49 52.74H1259.28V54H1258.14ZM1263.7 54.168C1263.11 54.168 1262.62 54.07 1262.24 53.874C1261.86 53.678 1261.57 53.4213 1261.39 53.104C1261.2 52.7773 1261.11 52.4227 1261.11 52.04C1261.11 51.368 1261.37 50.836 1261.89 50.444C1262.41 50.052 1263.16 49.856 1264.13 49.856H1265.95V49.73C1265.95 49.1887 1265.8 48.7827 1265.5 48.512C1265.21 48.2413 1264.83 48.106 1264.37 48.106C1263.96 48.106 1263.6 48.2087 1263.29 48.414C1262.99 48.61 1262.81 48.904 1262.74 49.296H1261.26C1261.31 48.792 1261.47 48.3627 1261.76 48.008C1262.06 47.644 1262.44 47.3687 1262.88 47.182C1263.34 46.986 1263.84 46.888 1264.38 46.888C1265.35 46.888 1266.1 47.1447 1266.64 47.658C1267.17 48.162 1267.43 48.8527 1267.43 49.73V54H1266.15L1266.02 52.81C1265.82 53.1927 1265.54 53.5147 1265.17 53.776C1264.79 54.0373 1264.3 54.168 1263.7 54.168ZM1263.99 52.964C1264.39 52.964 1264.73 52.8707 1265 52.684C1265.28 52.488 1265.49 52.2313 1265.64 51.914C1265.8 51.5967 1265.9 51.2467 1265.94 50.864H1264.28C1263.7 50.864 1263.28 50.9667 1263.02 51.172C1262.78 51.3773 1262.66 51.634 1262.66 51.942C1262.66 52.2593 1262.78 52.5113 1263.01 52.698C1263.25 52.8753 1263.58 52.964 1263.99 52.964ZM1272.91 54.168C1272.23 54.168 1271.62 54.014 1271.08 53.706C1270.55 53.398 1270.13 52.9733 1269.82 52.432C1269.52 51.8813 1269.37 51.2467 1269.37 50.528C1269.37 49.8093 1269.52 49.1793 1269.82 48.638C1270.13 48.0873 1270.55 47.658 1271.08 47.35C1271.62 47.042 1272.23 46.888 1272.91 46.888C1273.77 46.888 1274.49 47.112 1275.07 47.56C1275.66 48.008 1276.04 48.6147 1276.2 49.38H1274.65C1274.56 48.9973 1274.35 48.6987 1274.03 48.484C1273.72 48.2693 1273.34 48.162 1272.91 48.162C1272.55 48.162 1272.21 48.2553 1271.91 48.442C1271.6 48.6193 1271.35 48.8853 1271.16 49.24C1270.98 49.5853 1270.88 50.0147 1270.88 50.528C1270.88 51.0413 1270.98 51.4753 1271.16 51.83C1271.35 52.1753 1271.6 52.4413 1271.91 52.628C1272.21 52.8147 1272.55 52.908 1272.91 52.908C1273.34 52.908 1273.72 52.8007 1274.03 52.586C1274.35 52.3713 1274.56 52.068 1274.65 51.676H1276.2C1276.05 52.4227 1275.67 53.0247 1275.08 53.482C1274.5 53.9393 1273.77 54.168 1272.91 54.168ZM1281.05 54C1280.37 54 1279.83 53.8367 1279.42 53.51C1279.02 53.174 1278.82 52.5813 1278.82 51.732V48.302H1277.63V47.056H1278.82L1279 45.292H1280.31V47.056H1282.27V48.302H1280.31V51.732C1280.31 52.1147 1280.39 52.3807 1280.54 52.53C1280.71 52.67 1281 52.74 1281.4 52.74H1282.2V54H1281.05ZM1287.33 54.168C1286.65 54.168 1286.04 54.0187 1285.51 53.72C1284.98 53.412 1284.57 52.9873 1284.28 52.446C1283.98 51.9047 1283.83 51.2747 1283.83 50.556C1283.83 49.828 1283.97 49.1887 1284.26 48.638C1284.56 48.0873 1284.97 47.658 1285.49 47.35C1286.03 47.042 1286.64 46.888 1287.34 46.888C1288.02 46.888 1288.62 47.042 1289.12 47.35C1289.62 47.6487 1290.02 48.05 1290.3 48.554C1290.58 49.058 1290.72 49.6133 1290.72 50.22C1290.72 50.3133 1290.71 50.416 1290.7 50.528C1290.7 50.6307 1290.7 50.7473 1290.69 50.878H1285.28C1285.33 51.55 1285.55 52.0633 1285.94 52.418C1286.34 52.7633 1286.8 52.936 1287.33 52.936C1287.75 52.936 1288.1 52.8427 1288.38 52.656C1288.67 52.46 1288.88 52.1987 1289.02 51.872H1290.51C1290.32 52.5253 1289.95 53.0713 1289.39 53.51C1288.83 53.9487 1288.15 54.168 1287.33 54.168ZM1287.33 48.106C1286.83 48.106 1286.39 48.2553 1286.01 48.554C1285.63 48.8433 1285.4 49.282 1285.31 49.87H1289.23C1289.2 49.3287 1289.01 48.8993 1288.66 48.582C1288.3 48.2647 1287.86 48.106 1287.33 48.106ZM1292.25 54V52.796L1295.96 48.288H1292.31V47.056H1297.64V48.26L1293.9 52.768H1297.71V54H1292.25ZM1299.56 50.556V49.31H1305.25V50.556H1299.56ZM1307.43 54V47.056H1308.75L1308.86 48.274C1309.07 47.8447 1309.39 47.5087 1309.8 47.266C1310.22 47.014 1310.7 46.888 1311.24 46.888C1312.08 46.888 1312.74 47.1493 1313.21 47.672C1313.7 48.1947 1313.94 48.974 1313.94 50.01V54H1312.47V50.164C1312.47 48.82 1311.92 48.148 1310.82 48.148C1310.27 48.148 1309.81 48.344 1309.45 48.736C1309.09 49.128 1308.91 49.688 1308.91 50.416V54H1307.43ZM1319.4 54.168C1318.73 54.168 1318.14 54.0187 1317.6 53.72C1317.08 53.412 1316.67 52.9873 1316.36 52.446C1316.05 51.8953 1315.9 51.256 1315.9 50.528C1315.9 49.8 1316.05 49.1653 1316.36 48.624C1316.67 48.0733 1317.1 47.6487 1317.63 47.35C1318.16 47.042 1318.76 46.888 1319.41 46.888C1320.07 46.888 1320.66 47.042 1321.19 47.35C1321.72 47.6487 1322.14 48.0733 1322.45 48.624C1322.76 49.1653 1322.92 49.8 1322.92 50.528C1322.92 51.256 1322.76 51.8953 1322.45 52.446C1322.14 52.9873 1321.72 53.412 1321.19 53.72C1320.66 54.0187 1320.06 54.168 1319.4 54.168ZM1319.4 52.894C1319.75 52.894 1320.08 52.8053 1320.38 52.628C1320.68 52.4507 1320.93 52.1893 1321.12 51.844C1321.3 51.4893 1321.4 51.0507 1321.4 50.528C1321.4 50.0053 1321.3 49.5713 1321.12 49.226C1320.94 48.8713 1320.7 48.6053 1320.39 48.428C1320.09 48.2507 1319.76 48.162 1319.41 48.162C1319.05 48.162 1318.72 48.2507 1318.42 48.428C1318.12 48.6053 1317.87 48.8713 1317.69 49.226C1317.5 49.5713 1317.41 50.0053 1317.41 50.528C1317.41 51.0507 1317.5 51.4893 1317.69 51.844C1317.87 52.1893 1318.12 52.4507 1318.42 52.628C1318.71 52.8053 1319.04 52.894 1319.4 52.894ZM1327.55 54.168C1326.71 54.168 1326.05 53.9067 1325.56 53.384C1325.09 52.8613 1324.85 52.082 1324.85 51.046V47.056H1326.33V50.892C1326.33 52.236 1326.88 52.908 1327.98 52.908C1328.54 52.908 1328.99 52.712 1329.34 52.32C1329.7 51.928 1329.87 51.368 1329.87 50.64V47.056H1331.36V54H1330.04L1329.93 52.782C1329.72 53.2113 1329.4 53.552 1328.98 53.804C1328.57 54.0467 1328.09 54.168 1327.55 54.168ZM1336.48 54.168C1335.6 54.168 1334.88 53.9533 1334.31 53.524C1333.74 53.0947 1333.41 52.5253 1333.33 51.816H1334.83C1334.9 52.1333 1335.08 52.4087 1335.36 52.642C1335.64 52.866 1336.01 52.978 1336.46 52.978C1336.91 52.978 1337.24 52.8847 1337.44 52.698C1337.65 52.5113 1337.75 52.2967 1337.75 52.054C1337.75 51.6993 1337.61 51.4613 1337.32 51.34C1337.04 51.2093 1336.65 51.0927 1336.14 50.99C1335.75 50.906 1335.36 50.794 1334.97 50.654C1334.58 50.514 1334.26 50.318 1334 50.066C1333.75 49.8047 1333.62 49.4547 1333.62 49.016C1333.62 48.4093 1333.86 47.9053 1334.32 47.504C1334.79 47.0933 1335.44 46.888 1336.28 46.888C1337.06 46.888 1337.68 47.0747 1338.16 47.448C1338.64 47.8213 1338.93 48.3487 1339.01 49.03H1337.58C1337.54 48.7313 1337.4 48.498 1337.16 48.33C1336.94 48.162 1336.64 48.078 1336.25 48.078C1335.88 48.078 1335.59 48.1573 1335.39 48.316C1335.18 48.4653 1335.08 48.6613 1335.08 48.904C1335.08 49.1467 1335.22 49.338 1335.5 49.478C1335.79 49.618 1336.17 49.744 1336.63 49.856C1337.1 49.9587 1337.53 50.08 1337.92 50.22C1338.32 50.3507 1338.64 50.5467 1338.89 50.808C1339.13 51.0693 1339.25 51.452 1339.25 51.956C1339.26 52.5907 1339.01 53.118 1338.51 53.538C1338.01 53.958 1337.34 54.168 1336.48 54.168Z" fill="white"/>
<path fill-rule="evenodd" clip-rule="evenodd" d="M1157.37 41.1621C1159.41 41.1621 1161.03 42.8342 1161.03 44.9766C1161.03 47.0667 1159.41 48.791 1157.37 48.791C1155.33 48.791 1153.66 47.0667 1153.66 44.9766C1153.66 42.8342 1155.33 41.1621 1157.37 41.1621ZM1157.53 56.8378H1153.67C1151.63 56.8378 1149.81 55.1136 1150.65 53.2602C1151.99 50.2859 1155.15 49.573 1157.53 49.7315C1159.86 49.573 1163.01 50.2859 1164.35 53.26C1165.19 55.1139 1163.37 56.8378 1161.33 56.8378H1157.53Z" fill="white"/>
<path d="M1173 46.125L1178.75 51.875L1184.5 46.125" stroke="white" stroke-width="1.91667" stroke-linecap="round" stroke-linejoin="round"/>
<path d="M401.439 58L405.567 46.8H407.423L411.519 58H409.727L408.767 55.264H404.191L403.231 58H401.439ZM404.671 53.92H408.287L406.479 48.816L404.671 53.92ZM407.247 46.144L403.759 44.352V42.944L407.247 44.928V46.144ZM417.049 61.52V50.064H418.569L418.745 51.296C419.001 50.9227 419.353 50.592 419.801 50.304C420.249 50.016 420.825 49.872 421.529 49.872C422.297 49.872 422.974 50.0533 423.561 50.416C424.147 50.7787 424.606 51.2747 424.937 51.904C425.278 52.5333 425.449 53.248 425.449 54.048C425.449 54.848 425.278 55.5627 424.937 56.192C424.606 56.8107 424.147 57.3013 423.561 57.664C422.974 58.016 422.291 58.192 421.513 58.192C420.894 58.192 420.345 58.0693 419.865 57.824C419.395 57.5787 419.022 57.232 418.745 56.784V61.52H417.049ZM421.225 56.72C421.95 56.72 422.547 56.4747 423.017 55.984C423.486 55.4827 423.721 54.832 423.721 54.032C423.721 53.5093 423.614 53.0453 423.401 52.64C423.187 52.2347 422.894 51.92 422.521 51.696C422.147 51.4613 421.715 51.344 421.225 51.344C420.499 51.344 419.902 51.5947 419.433 52.096C418.974 52.5973 418.745 53.2427 418.745 54.032C418.745 54.832 418.974 55.4827 419.433 55.984C419.902 56.4747 420.499 56.72 421.225 56.72ZM427.283 58V50.064H428.803L428.947 51.568C429.224 51.0453 429.608 50.6347 430.099 50.336C430.6 50.0267 431.203 49.872 431.907 49.872V51.648H431.443C430.974 51.648 430.552 51.728 430.179 51.888C429.816 52.0373 429.523 52.2987 429.299 52.672C429.086 53.0347 428.979 53.5413 428.979 54.192V58H427.283ZM436.854 58.192C436.097 58.192 435.414 58.0213 434.806 57.68C434.209 57.328 433.734 56.8427 433.382 56.224C433.03 55.5947 432.854 54.864 432.854 54.032C432.854 53.2 433.03 52.4747 433.382 51.856C433.745 51.2267 434.23 50.7413 434.838 50.4C435.446 50.048 436.124 49.872 436.87 49.872C437.628 49.872 438.305 50.048 438.902 50.4C439.51 50.7413 439.99 51.2267 440.342 51.856C440.705 52.4747 440.886 53.2 440.886 54.032C440.886 54.864 440.705 55.5947 440.342 56.224C439.99 56.8427 439.51 57.328 438.902 57.68C438.294 58.0213 437.612 58.192 436.854 58.192ZM436.854 56.736C437.26 56.736 437.633 56.6347 437.974 56.432C438.326 56.2293 438.609 55.9307 438.822 55.536C439.036 55.1307 439.142 54.6293 439.142 54.032C439.142 53.4347 439.036 52.9387 438.822 52.544C438.62 52.1387 438.342 51.8347 437.99 51.632C437.649 51.4293 437.276 51.328 436.87 51.328C436.465 51.328 436.086 51.4293 435.734 51.632C435.393 51.8347 435.116 52.1387 434.902 52.544C434.689 52.9387 434.582 53.4347 434.582 54.032C434.582 54.6293 434.689 55.1307 434.902 55.536C435.116 55.9307 435.393 56.2293 435.734 56.432C436.076 56.6347 436.449 56.736 436.854 56.736ZM442.72 61.52V50.064H444.24L444.416 51.296C444.672 50.9227 445.024 50.592 445.472 50.304C445.92 50.016 446.496 49.872 447.2 49.872C447.968 49.872 448.646 50.0533 449.232 50.416C449.819 50.7787 450.278 51.2747 450.608 51.904C450.95 52.5333 451.12 53.248 451.12 54.048C451.12 54.848 450.95 55.5627 450.608 56.192C450.278 56.8107 449.819 57.3013 449.232 57.664C448.646 58.016 447.963 58.192 447.184 58.192C446.566 58.192 446.016 58.0693 445.536 57.824C445.067 57.5787 444.694 57.232 444.416 56.784V61.52H442.72ZM446.896 56.72C447.622 56.72 448.219 56.4747 448.688 55.984C449.158 55.4827 449.392 54.832 449.392 54.032C449.392 53.5093 449.286 53.0453 449.072 52.64C448.859 52.2347 448.566 51.92 448.192 51.696C447.819 51.4613 447.387 51.344 446.896 51.344C446.171 51.344 445.574 51.5947 445.104 52.096C444.646 52.5973 444.416 53.2427 444.416 54.032C444.416 54.832 444.646 55.4827 445.104 55.984C445.574 56.4747 446.171 56.72 446.896 56.72ZM456.667 58.192C455.909 58.192 455.227 58.0213 454.619 57.68C454.021 57.328 453.547 56.8427 453.195 56.224C452.843 55.5947 452.667 54.864 452.667 54.032C452.667 53.2 452.843 52.4747 453.195 51.856C453.557 51.2267 454.043 50.7413 454.651 50.4C455.259 50.048 455.936 49.872 456.683 49.872C457.44 49.872 458.117 50.048 458.715 50.4C459.323 50.7413 459.803 51.2267 460.155 51.856C460.517 52.4747 460.699 53.2 460.699 54.032C460.699 54.864 460.517 55.5947 460.155 56.224C459.803 56.8427 459.323 57.328 458.715 57.68C458.107 58.0213 457.424 58.192 456.667 58.192ZM456.667 56.736C457.072 56.736 457.445 56.6347 457.787 56.432C458.139 56.2293 458.421 55.9307 458.635 55.536C458.848 55.1307 458.955 54.6293 458.955 54.032C458.955 53.4347 458.848 52.9387 458.635 52.544C458.432 52.1387 458.155 51.8347 457.803 51.632C457.461 51.4293 457.088 51.328 456.683 51.328C456.277 51.328 455.899 51.4293 455.547 51.632C455.205 51.8347 454.928 52.1387 454.715 52.544C454.501 52.9387 454.395 53.4347 454.395 54.032C454.395 54.6293 454.501 55.1307 454.715 55.536C454.928 55.9307 455.205 56.2293 455.547 56.432C455.888 56.6347 456.261 56.736 456.667 56.736ZM465.701 58.192C464.698 58.192 463.872 57.9467 463.221 57.456C462.57 56.9653 462.197 56.3147 462.101 55.504H463.813C463.898 55.8667 464.101 56.1813 464.421 56.448C464.741 56.704 465.162 56.832 465.685 56.832C466.197 56.832 466.57 56.7253 466.805 56.512C467.04 56.2987 467.157 56.0533 467.157 55.776C467.157 55.3707 466.992 55.0987 466.661 54.96C466.341 54.8107 465.893 54.6773 465.317 54.56C464.869 54.464 464.421 54.336 463.973 54.176C463.536 54.016 463.168 53.792 462.869 53.504C462.581 53.2053 462.437 52.8053 462.437 52.304C462.437 51.6107 462.704 51.0347 463.237 50.576C463.77 50.1067 464.517 49.872 465.477 49.872C466.362 49.872 467.077 50.0853 467.621 50.512C468.176 50.9387 468.501 51.5413 468.597 52.32H466.965C466.912 51.9787 466.752 51.712 466.485 51.52C466.229 51.328 465.882 51.232 465.445 51.232C465.018 51.232 464.688 51.3227 464.453 51.504C464.218 51.6747 464.101 51.8987 464.101 52.176C464.101 52.4533 464.261 52.672 464.581 52.832C464.912 52.992 465.344 53.136 465.877 53.264C466.41 53.3813 466.901 53.52 467.349 53.68C467.808 53.8293 468.176 54.0533 468.453 54.352C468.73 54.6507 468.869 55.088 468.869 55.664C468.88 56.3893 468.597 56.992 468.021 57.472C467.456 57.952 466.682 58.192 465.701 58.192Z" fill="#3563E9"/>
<path d="M477 53L480.5 56.5L484 53" stroke="#3065FF" stroke-width="1.16667" stroke-linecap="round" stroke-linejoin="round"/>
<path d="M521.159 58V46.8H523.159L526.951 54.256L530.727 46.8H532.727V58H531.031V49.728L527.607 56.4H526.295L522.855 49.744V58H521.159ZM537.627 58.192C536.955 58.192 536.401 58.08 535.963 57.856C535.526 57.632 535.201 57.3387 534.987 56.976C534.774 56.6027 534.667 56.1973 534.667 55.76C534.667 54.992 534.966 54.384 535.563 53.936C536.161 53.488 537.014 53.264 538.123 53.264H540.203V53.12C540.203 52.5013 540.033 52.0373 539.691 51.728C539.361 51.4187 538.929 51.264 538.395 51.264C537.926 51.264 537.515 51.3813 537.163 51.616C536.822 51.84 536.614 52.176 536.539 52.624H534.843C534.897 52.048 535.089 51.5573 535.419 51.152C535.761 50.736 536.187 50.4213 536.699 50.208C537.222 49.984 537.793 49.872 538.411 49.872C539.521 49.872 540.379 50.1653 540.987 50.752C541.595 51.328 541.899 52.1173 541.899 53.12V58H540.427L540.283 56.64C540.059 57.0773 539.734 57.4453 539.307 57.744C538.881 58.0427 538.321 58.192 537.627 58.192ZM537.963 56.816C538.422 56.816 538.806 56.7093 539.115 56.496C539.435 56.272 539.681 55.9787 539.851 55.616C540.033 55.2533 540.145 54.8533 540.187 54.416H538.299C537.627 54.416 537.147 54.5333 536.859 54.768C536.582 55.0027 536.443 55.296 536.443 55.648C536.443 56.0107 536.577 56.2987 536.843 56.512C537.121 56.7147 537.494 56.816 537.963 56.816ZM543.877 58V50.064H545.397L545.541 51.568C545.818 51.0453 546.202 50.6347 546.693 50.336C547.194 50.0267 547.797 49.872 548.501 49.872V51.648H548.037C547.567 51.648 547.146 51.728 546.773 51.888C546.41 52.0373 546.117 52.2987 545.893 52.672C545.679 53.0347 545.573 53.5413 545.573 54.192V58H543.877ZM549.955 58V46.48H551.651V53.344L554.691 50.064H556.723L553.347 53.664L557.219 58H555.075L551.651 53.936V58H549.955ZM561.636 58.192C560.857 58.192 560.164 58.0213 559.556 57.68C558.958 57.328 558.489 56.8427 558.148 56.224C557.806 55.6053 557.636 54.8853 557.636 54.064C557.636 53.232 557.801 52.5013 558.132 51.872C558.473 51.2427 558.942 50.752 559.54 50.4C560.148 50.048 560.852 49.872 561.652 49.872C562.43 49.872 563.108 50.048 563.684 50.4C564.26 50.7413 564.708 51.2 565.028 51.776C565.348 52.352 565.508 52.9867 565.508 53.68C565.508 53.7867 565.502 53.904 565.492 54.032C565.492 54.1493 565.486 54.2827 565.476 54.432H559.3C559.353 55.2 559.604 55.7867 560.052 56.192C560.51 56.5867 561.038 56.784 561.636 56.784C562.116 56.784 562.516 56.6773 562.836 56.464C563.166 56.24 563.412 55.9413 563.572 55.568H565.268C565.054 56.3147 564.628 56.9387 563.988 57.44C563.358 57.9413 562.574 58.192 561.636 58.192ZM561.636 51.264C561.07 51.264 560.569 51.4347 560.132 51.776C559.694 52.1067 559.428 52.608 559.332 53.28H563.812C563.78 52.6613 563.561 52.1707 563.156 51.808C562.75 51.4453 562.244 51.264 561.636 51.264ZM570.392 58C569.614 58 568.995 57.8133 568.536 57.44C568.078 57.056 567.848 56.3787 567.848 55.408V51.488H566.488V50.064H567.848L568.056 48.048H569.544V50.064H571.784V51.488H569.544V55.408C569.544 55.8453 569.635 56.1493 569.816 56.32C570.008 56.48 570.334 56.56 570.792 56.56H571.704V58H570.392ZM573.533 61.52V50.064H575.053L575.229 51.296C575.485 50.9227 575.837 50.592 576.285 50.304C576.733 50.016 577.309 49.872 578.013 49.872C578.781 49.872 579.458 50.0533 580.045 50.416C580.632 50.7787 581.09 51.2747 581.421 51.904C581.762 52.5333 581.933 53.248 581.933 54.048C581.933 54.848 581.762 55.5627 581.421 56.192C581.09 56.8107 580.632 57.3013 580.045 57.664C579.458 58.016 578.776 58.192 577.997 58.192C577.378 58.192 576.829 58.0693 576.349 57.824C575.88 57.5787 575.506 57.232 575.229 56.784V61.52H573.533ZM577.709 56.72C578.434 56.72 579.032 56.4747 579.501 55.984C579.97 55.4827 580.205 54.832 580.205 54.032C580.205 53.5093 580.098 53.0453 579.885 52.64C579.672 52.2347 579.378 51.92 579.005 51.696C578.632 51.4613 578.2 51.344 577.709 51.344C576.984 51.344 576.386 51.5947 575.917 52.096C575.458 52.5973 575.229 53.2427 575.229 54.032C575.229 54.832 575.458 55.4827 575.917 55.984C576.386 56.4747 576.984 56.72 577.709 56.72ZM583.767 58V46.48H585.463V58H583.767ZM590.299 58.192C589.627 58.192 589.072 58.08 588.635 57.856C588.198 57.632 587.872 57.3387 587.659 56.976C587.446 56.6027 587.339 56.1973 587.339 55.76C587.339 54.992 587.638 54.384 588.235 53.936C588.832 53.488 589.686 53.264 590.795 53.264H592.875V53.12C592.875 52.5013 592.704 52.0373 592.363 51.728C592.032 51.4187 591.6 51.264 591.067 51.264C590.598 51.264 590.187 51.3813 589.835 51.616C589.494 51.84 589.286 52.176 589.211 52.624H587.515C587.568 52.048 587.76 51.5573 588.091 51.152C588.432 50.736 588.859 50.4213 589.371 50.208C589.894 49.984 590.464 49.872 591.083 49.872C592.192 49.872 593.051 50.1653 593.659 50.752C594.267 51.328 594.571 52.1173 594.571 53.12V58H593.099L592.955 56.64C592.731 57.0773 592.406 57.4453 591.979 57.744C591.552 58.0427 590.992 58.192 590.299 58.192ZM590.635 56.816C591.094 56.816 591.478 56.7093 591.787 56.496C592.107 56.272 592.352 55.9787 592.523 55.616C592.704 55.2533 592.816 54.8533 592.859 54.416H590.971C590.299 54.416 589.819 54.5333 589.531 54.768C589.254 55.0027 589.115 55.296 589.115 55.648C589.115 56.0107 589.248 56.2987 589.515 56.512C589.792 56.7147 590.166 56.816 590.635 56.816ZM600.309 58.192C599.53 58.192 598.831 58.016 598.213 57.664C597.605 57.312 597.125 56.8267 596.773 56.208C596.431 55.5787 596.261 54.8533 596.261 54.032C596.261 53.2107 596.431 52.4907 596.773 51.872C597.125 51.2427 597.605 50.752 598.213 50.4C598.831 50.048 599.53 49.872 600.309 49.872C601.29 49.872 602.111 50.128 602.773 50.64C603.445 51.152 603.877 51.8453 604.069 52.72H602.293C602.186 52.2827 601.951 51.9413 601.589 51.696C601.226 51.4507 600.799 51.328 600.309 51.328C599.893 51.328 599.509 51.4347 599.157 51.648C598.805 51.8507 598.522 52.1547 598.309 52.56C598.095 52.9547 597.989 53.4453 597.989 54.032C597.989 54.6187 598.095 55.1147 598.309 55.52C598.522 55.9147 598.805 56.2187 599.157 56.432C599.509 56.6453 599.893 56.752 600.309 56.752C600.799 56.752 601.226 56.6293 601.589 56.384C601.951 56.1387 602.186 55.792 602.293 55.344H604.069C603.887 56.1973 603.461 56.8853 602.789 57.408C602.117 57.9307 601.29 58.192 600.309 58.192ZM609.62 58.192C608.841 58.192 608.148 58.0213 607.54 57.68C606.943 57.328 606.473 56.8427 606.132 56.224C605.791 55.6053 605.62 54.8853 605.62 54.064C605.62 53.232 605.785 52.5013 606.116 51.872C606.457 51.2427 606.927 50.752 607.524 50.4C608.132 50.048 608.836 49.872 609.636 49.872C610.415 49.872 611.092 50.048 611.668 50.4C612.244 50.7413 612.692 51.2 613.012 51.776C613.332 52.352 613.492 52.9867 613.492 53.68C613.492 53.7867 613.487 53.904 613.476 54.032C613.476 54.1493 613.471 54.2827 613.46 54.432H607.284C607.337 55.2 607.588 55.7867 608.036 56.192C608.495 56.5867 609.023 56.784 609.62 56.784C610.1 56.784 610.5 56.6773 610.82 56.464C611.151 56.24 611.396 55.9413 611.556 55.568H613.252C613.039 56.3147 612.612 56.9387 611.972 57.44C611.343 57.9413 610.559 58.192 609.62 58.192ZM609.62 51.264C609.055 51.264 608.553 51.4347 608.116 51.776C607.679 52.1067 607.412 52.608 607.316 53.28H611.796C611.764 52.6613 611.545 52.1707 611.14 51.808C610.735 51.4453 610.228 51.264 609.62 51.264Z" fill="white"/>
<path d="M651.783 58V48.176H648.471V46.8H656.775V48.176H653.479V58H651.783ZM659.721 58.192C659.049 58.192 658.494 58.08 658.057 57.856C657.62 57.632 657.294 57.3387 657.081 56.976C656.868 56.6027 656.761 56.1973 656.761 55.76C656.761 54.992 657.06 54.384 657.657 53.936C658.254 53.488 659.108 53.264 660.217 53.264H662.297V53.12C662.297 52.5013 662.126 52.0373 661.785 51.728C661.454 51.4187 661.022 51.264 660.489 51.264C660.02 51.264 659.609 51.3813 659.257 51.616C658.916 51.84 658.708 52.176 658.633 52.624H656.937C656.99 52.048 657.182 51.5573 657.513 51.152C657.854 50.736 658.281 50.4213 658.793 50.208C659.316 49.984 659.886 49.872 660.505 49.872C661.614 49.872 662.473 50.1653 663.081 50.752C663.689 51.328 663.993 52.1173 663.993 53.12V58H662.521L662.377 56.64C662.153 57.0773 661.828 57.4453 661.401 57.744C660.974 58.0427 660.414 58.192 659.721 58.192ZM660.057 56.816C660.516 56.816 660.9 56.7093 661.209 56.496C661.529 56.272 661.774 55.9787 661.945 55.616C662.126 55.2533 662.238 54.8533 662.281 54.416H660.393C659.721 54.416 659.241 54.5333 658.953 54.768C658.676 55.0027 658.537 55.296 658.537 55.648C658.537 56.0107 658.67 56.2987 658.937 56.512C659.214 56.7147 659.588 56.816 660.057 56.816ZM670.434 58.192C669.816 58.192 669.266 58.0693 668.786 57.824C668.317 57.5787 667.944 57.232 667.666 56.784L667.49 58H665.97V46.48H667.666V51.296C667.922 50.9227 668.274 50.592 668.722 50.304C669.17 50.016 669.746 49.872 670.45 49.872C671.218 49.872 671.896 50.0533 672.482 50.416C673.069 50.7787 673.528 51.2747 673.858 51.904C674.2 52.5333 674.37 53.248 674.37 54.048C674.37 54.848 674.2 55.5627 673.858 56.192C673.528 56.8107 673.069 57.3013 672.482 57.664C671.896 58.016 671.213 58.192 670.434 58.192ZM670.146 56.72C670.872 56.72 671.469 56.4747 671.938 55.984C672.408 55.4827 672.642 54.832 672.642 54.032C672.642 53.5093 672.536 53.0453 672.322 52.64C672.109 52.2347 671.816 51.92 671.442 51.696C671.069 51.4613 670.637 51.344 670.146 51.344C669.421 51.344 668.824 51.5947 668.354 52.096C667.896 52.5973 667.666 53.2427 667.666 54.032C667.666 54.832 667.896 55.4827 668.354 55.984C668.824 56.4747 669.421 56.72 670.146 56.72ZM676.205 58V46.48H677.901V58H676.205ZM683.761 58.192C682.982 58.192 682.289 58.0213 681.681 57.68C681.083 57.328 680.614 56.8427 680.273 56.224C679.931 55.6053 679.761 54.8853 679.761 54.064C679.761 53.232 679.926 52.5013 680.257 51.872C680.598 51.2427 681.067 50.752 681.665 50.4C682.273 50.048 682.977 49.872 683.777 49.872C684.555 49.872 685.233 50.048 685.809 50.4C686.385 50.7413 686.833 51.2 687.153 51.776C687.473 52.352 687.633 52.9867 687.633 53.68C687.633 53.7867 687.627 53.904 687.617 54.032C687.617 54.1493 687.611 54.2827 687.601 54.432H681.425C681.478 55.2 681.729 55.7867 682.177 56.192C682.635 56.5867 683.163 56.784 683.761 56.784C684.241 56.784 684.641 56.6773 684.961 56.464C685.291 56.24 685.537 55.9413 685.697 55.568H687.393C687.179 56.3147 686.753 56.9387 686.113 57.44C685.483 57.9413 684.699 58.192 683.761 58.192ZM683.761 51.264C683.195 51.264 682.694 51.4347 682.257 51.776C681.819 52.1067 681.553 52.608 681.457 53.28H685.937C685.905 52.6613 685.686 52.1707 685.281 51.808C684.875 51.4453 684.369 51.264 683.761 51.264ZM692.08 58.192C691.408 58.192 690.854 58.08 690.416 57.856C689.979 57.632 689.654 57.3387 689.44 56.976C689.227 56.6027 689.12 56.1973 689.12 55.76C689.12 54.992 689.419 54.384 690.016 53.936C690.614 53.488 691.467 53.264 692.576 53.264H694.656V53.12C694.656 52.5013 694.486 52.0373 694.144 51.728C693.814 51.4187 693.382 51.264 692.848 51.264C692.379 51.264 691.968 51.3813 691.616 51.616C691.275 51.84 691.067 52.176 690.992 52.624H689.296C689.35 52.048 689.542 51.5573 689.872 51.152C690.214 50.736 690.64 50.4213 691.152 50.208C691.675 49.984 692.246 49.872 692.864 49.872C693.974 49.872 694.832 50.1653 695.44 50.752C696.048 51.328 696.352 52.1173 696.352 53.12V58H694.88L694.736 56.64C694.512 57.0773 694.187 57.4453 693.76 57.744C693.334 58.0427 692.774 58.192 692.08 58.192ZM692.416 56.816C692.875 56.816 693.259 56.7093 693.568 56.496C693.888 56.272 694.134 55.9787 694.304 55.616C694.486 55.2533 694.598 54.8533 694.64 54.416H692.752C692.08 54.416 691.6 54.5333 691.312 54.768C691.035 55.0027 690.896 55.296 690.896 55.648C690.896 56.0107 691.03 56.2987 691.296 56.512C691.574 56.7147 691.947 56.816 692.416 56.816ZM701.258 58.192C700.298 58.192 699.54 57.8933 698.986 57.296C698.442 56.6987 698.17 55.808 698.17 54.624V50.064H699.866V54.448C699.866 55.984 700.495 56.752 701.754 56.752C702.383 56.752 702.9 56.528 703.306 56.08C703.711 55.632 703.914 54.992 703.914 54.16V50.064H705.61V58H704.106L703.978 56.608C703.732 57.0987 703.37 57.488 702.89 57.776C702.42 58.0533 701.876 58.192 701.258 58.192ZM715.415 58.192C714.647 58.192 713.969 58.0107 713.383 57.648C712.796 57.2853 712.337 56.7893 712.007 56.16C711.676 55.5307 711.511 54.816 711.511 54.016C711.511 53.216 711.676 52.5067 712.007 51.888C712.337 51.2587 712.796 50.768 713.383 50.416C713.98 50.0533 714.663 49.872 715.431 49.872C716.06 49.872 716.609 49.9947 717.079 50.24C717.559 50.4853 717.932 50.832 718.199 51.28V46.48H719.895V58H718.375L718.199 56.768C717.943 57.1413 717.591 57.472 717.143 57.76C716.695 58.048 716.119 58.192 715.415 58.192ZM715.719 56.72C716.444 56.72 717.036 56.4693 717.495 55.968C717.964 55.4667 718.199 54.8213 718.199 54.032C718.199 53.232 717.964 52.5867 717.495 52.096C717.036 51.5947 716.444 51.344 715.719 51.344C714.993 51.344 714.396 51.5947 713.927 52.096C713.457 52.5867 713.223 53.232 713.223 54.032C713.223 54.5547 713.329 55.0187 713.543 55.424C713.756 55.8293 714.049 56.1493 714.423 56.384C714.807 56.608 715.239 56.72 715.719 56.72ZM725.745 58.192C724.966 58.192 724.273 58.0213 723.665 57.68C723.068 57.328 722.598 56.8427 722.257 56.224C721.916 55.6053 721.745 54.8853 721.745 54.064C721.745 53.232 721.91 52.5013 722.241 51.872C722.582 51.2427 723.052 50.752 723.649 50.4C724.257 50.048 724.961 49.872 725.761 49.872C726.54 49.872 727.217 50.048 727.793 50.4C728.369 50.7413 728.817 51.2 729.137 51.776C729.457 52.352 729.617 52.9867 729.617 53.68C729.617 53.7867 729.612 53.904 729.601 54.032C729.601 54.1493 729.596 54.2827 729.585 54.432H723.409C723.462 55.2 723.713 55.7867 724.161 56.192C724.62 56.5867 725.148 56.784 725.745 56.784C726.225 56.784 726.625 56.6773 726.945 56.464C727.276 56.24 727.521 55.9413 727.681 55.568H729.377C729.164 56.3147 728.737 56.9387 728.097 57.44C727.468 57.9413 726.684 58.192 725.745 58.192ZM725.745 51.264C725.18 51.264 724.678 51.4347 724.241 51.776C723.804 52.1067 723.537 52.608 723.441 53.28H727.921C727.889 52.6613 727.67 52.1707 727.265 51.808C726.86 51.4453 726.353 51.264 725.745 51.264ZM739.872 58.192C739.253 58.192 738.704 58.0693 738.224 57.824C737.755 57.5787 737.381 57.232 737.104 56.784L736.928 58H735.408V46.48H737.104V51.296C737.36 50.9227 737.712 50.592 738.16 50.304C738.608 50.016 739.184 49.872 739.888 49.872C740.656 49.872 741.333 50.0533 741.92 50.416C742.507 50.7787 742.965 51.2747 743.296 51.904C743.637 52.5333 743.808 53.248 743.808 54.048C743.808 54.848 743.637 55.5627 743.296 56.192C742.965 56.8107 742.507 57.3013 741.92 57.664C741.333 58.016 740.651 58.192 739.872 58.192ZM739.584 56.72C740.309 56.72 740.907 56.4747 741.376 55.984C741.845 55.4827 742.08 54.832 742.08 54.032C742.08 53.5093 741.973 53.0453 741.76 52.64C741.547 52.2347 741.253 51.92 740.88 51.696C740.507 51.4613 740.075 51.344 739.584 51.344C738.859 51.344 738.261 51.5947 737.792 52.096C737.333 52.5973 737.104 53.2427 737.104 54.032C737.104 54.832 737.333 55.4827 737.792 55.984C738.261 56.4747 738.859 56.72 739.584 56.72ZM749.354 58.192C748.597 58.192 747.914 58.0213 747.306 57.68C746.709 57.328 746.234 56.8427 745.882 56.224C745.53 55.5947 745.354 54.864 745.354 54.032C745.354 53.2 745.53 52.4747 745.882 51.856C746.245 51.2267 746.73 50.7413 747.338 50.4C747.946 50.048 748.624 49.872 749.37 49.872C750.128 49.872 750.805 50.048 751.402 50.4C752.01 50.7413 752.49 51.2267 752.842 51.856C753.205 52.4747 753.386 53.2 753.386 54.032C753.386 54.864 753.205 55.5947 752.842 56.224C752.49 56.8427 752.01 57.328 751.402 57.68C750.794 58.0213 750.112 58.192 749.354 58.192ZM749.354 56.736C749.76 56.736 750.133 56.6347 750.474 56.432C750.826 56.2293 751.109 55.9307 751.322 55.536C751.536 55.1307 751.642 54.6293 751.642 54.032C751.642 53.4347 751.536 52.9387 751.322 52.544C751.12 52.1387 750.842 51.8347 750.49 51.632C750.149 51.4293 749.776 51.328 749.37 51.328C748.965 51.328 748.586 51.4293 748.234 51.632C747.893 51.8347 747.616 52.1387 747.402 52.544C747.189 52.9387 747.082 53.4347 747.082 54.032C747.082 54.6293 747.189 55.1307 747.402 55.536C747.616 55.9307 747.893 56.2293 748.234 56.432C748.576 56.6347 748.949 56.736 749.354 56.736ZM755.22 58V50.064H756.74L756.884 51.568C757.162 51.0453 757.546 50.6347 758.036 50.336C758.538 50.0267 759.14 49.872 759.844 49.872V51.648H759.38C758.911 51.648 758.49 51.728 758.116 51.888C757.754 52.0373 757.46 52.2987 757.236 52.672C757.023 53.0347 756.916 53.5413 756.916 54.192V58H755.22ZM764.696 58.192C763.928 58.192 763.25 58.0107 762.664 57.648C762.077 57.2853 761.618 56.7893 761.288 56.16C760.957 55.5307 760.792 54.816 760.792 54.016C760.792 53.216 760.957 52.5067 761.288 51.888C761.618 51.2587 762.077 50.768 762.664 50.416C763.261 50.0533 763.944 49.872 764.712 49.872C765.341 49.872 765.89 49.9947 766.36 50.24C766.84 50.4853 767.213 50.832 767.48 51.28V46.48H769.176V58H767.656L767.48 56.768C767.224 57.1413 766.872 57.472 766.424 57.76C765.976 58.048 765.4 58.192 764.696 58.192ZM765 56.72C765.725 56.72 766.317 56.4693 766.776 55.968C767.245 55.4667 767.48 54.8213 767.48 54.032C767.48 53.232 767.245 52.5867 766.776 52.096C766.317 51.5947 765.725 51.344 765 51.344C764.274 51.344 763.677 51.5947 763.208 52.096C762.738 52.5867 762.504 53.232 762.504 54.032C762.504 54.5547 762.61 55.0187 762.824 55.424C763.037 55.8293 763.33 56.1493 763.704 56.384C764.088 56.608 764.52 56.72 765 56.72Z" fill="white"/>
<path d="M810.151 58.192C809.042 58.192 808.082 57.952 807.271 57.472C806.471 56.9813 805.853 56.304 805.415 55.44C804.978 54.5653 804.759 53.5573 804.759 52.416C804.759 51.264 804.978 50.256 805.415 49.392C805.853 48.5173 806.471 47.8347 807.271 47.344C808.082 46.8533 809.042 46.608 810.151 46.608C811.463 46.608 812.535 46.928 813.367 47.568C814.199 48.208 814.727 49.104 814.951 50.256H813.063C812.914 49.6053 812.594 49.088 812.103 48.704C811.613 48.32 810.957 48.128 810.135 48.128C809.015 48.128 808.13 48.512 807.479 49.28C806.829 50.0373 806.503 51.0827 806.503 52.416C806.503 53.7387 806.829 54.7787 807.479 55.536C808.13 56.2933 809.015 56.672 810.135 56.672C810.957 56.672 811.613 56.4907 812.103 56.128C812.594 55.7653 812.914 55.2693 813.063 54.64H814.951C814.727 55.7493 814.199 56.6187 813.367 57.248C812.535 57.8773 811.463 58.192 810.151 58.192ZM820.464 58.192C819.706 58.192 819.024 58.0213 818.416 57.68C817.818 57.328 817.344 56.8427 816.992 56.224C816.64 55.5947 816.464 54.864 816.464 54.032C816.464 53.2 816.64 52.4747 816.992 51.856C817.354 51.2267 817.84 50.7413 818.448 50.4C819.056 50.048 819.733 49.872 820.48 49.872C821.237 49.872 821.914 50.048 822.512 50.4C823.12 50.7413 823.6 51.2267 823.952 51.856C824.314 52.4747 824.496 53.2 824.496 54.032C824.496 54.864 824.314 55.5947 823.952 56.224C823.6 56.8427 823.12 57.328 822.512 57.68C821.904 58.0213 821.221 58.192 820.464 58.192ZM820.464 56.736C820.869 56.736 821.242 56.6347 821.584 56.432C821.936 56.2293 822.218 55.9307 822.432 55.536C822.645 55.1307 822.752 54.6293 822.752 54.032C822.752 53.4347 822.645 52.9387 822.432 52.544C822.229 52.1387 821.952 51.8347 821.6 51.632C821.258 51.4293 820.885 51.328 820.48 51.328C820.074 51.328 819.696 51.4293 819.344 51.632C819.002 51.8347 818.725 52.1387 818.512 52.544C818.298 52.9387 818.192 53.4347 818.192 54.032C818.192 54.6293 818.298 55.1307 818.512 55.536C818.725 55.9307 819.002 56.2293 819.344 56.432C819.685 56.6347 820.058 56.736 820.464 56.736ZM826.33 58V50.064H827.834L827.962 51.456C828.207 50.9653 828.564 50.5813 829.034 50.304C829.514 50.016 830.063 49.872 830.682 49.872C831.642 49.872 832.394 50.1707 832.938 50.768C833.492 51.3653 833.77 52.256 833.77 53.44V58H832.09V53.616C832.09 52.08 831.46 51.312 830.202 51.312C829.572 51.312 829.05 51.536 828.634 51.984C828.228 52.432 828.026 53.072 828.026 53.904V58H826.33ZM835.767 58V50.064H837.271L837.399 51.456C837.645 50.9653 838.002 50.5813 838.471 50.304C838.951 50.016 839.501 49.872 840.119 49.872C841.079 49.872 841.831 50.1707 842.375 50.768C842.93 51.3653 843.207 52.256 843.207 53.44V58H841.527V53.616C841.527 52.08 840.898 51.312 839.639 51.312C839.01 51.312 838.487 51.536 838.071 51.984C837.666 52.432 837.463 53.072 837.463 53.904V58H835.767ZM847.893 58.192C847.221 58.192 846.666 58.08 846.229 57.856C845.791 57.632 845.466 57.3387 845.253 56.976C845.039 56.6027 844.933 56.1973 844.933 55.76C844.933 54.992 845.231 54.384 845.829 53.936C846.426 53.488 847.279 53.264 848.389 53.264H850.469V53.12C850.469 52.5013 850.298 52.0373 849.957 51.728C849.626 51.4187 849.194 51.264 848.661 51.264C848.191 51.264 847.781 51.3813 847.429 51.616C847.087 51.84 846.879 52.176 846.805 52.624H845.109C845.162 52.048 845.354 51.5573 845.685 51.152C846.026 50.736 846.453 50.4213 846.965 50.208C847.487 49.984 848.058 49.872 848.677 49.872C849.786 49.872 850.645 50.1653 851.253 50.752C851.861 51.328 852.165 52.1173 852.165 53.12V58H850.693L850.549 56.64C850.325 57.0773 849.999 57.4453 849.573 57.744C849.146 58.0427 848.586 58.192 847.893 58.192ZM848.229 56.816C848.687 56.816 849.071 56.7093 849.381 56.496C849.701 56.272 849.946 55.9787 850.117 55.616C850.298 55.2533 850.41 54.8533 850.453 54.416H848.565C847.893 54.416 847.413 54.5333 847.125 54.768C846.847 55.0027 846.709 55.296 846.709 55.648C846.709 56.0107 846.842 56.2987 847.109 56.512C847.386 56.7147 847.759 56.816 848.229 56.816ZM855.102 48.56C854.782 48.56 854.516 48.464 854.302 48.272C854.1 48.0693 853.998 47.8187 853.998 47.52C853.998 47.2213 854.1 46.976 854.302 46.784C854.516 46.5813 854.782 46.48 855.102 46.48C855.422 46.48 855.684 46.5813 855.886 46.784C856.1 46.976 856.206 47.2213 856.206 47.52C856.206 47.8187 856.1 48.0693 855.886 48.272C855.684 48.464 855.422 48.56 855.102 48.56ZM854.254 58V50.064H855.95V58H854.254ZM861.357 58.192C860.355 58.192 859.528 57.9467 858.877 57.456C858.227 56.9653 857.853 56.3147 857.757 55.504H859.469C859.555 55.8667 859.757 56.1813 860.077 56.448C860.397 56.704 860.819 56.832 861.341 56.832C861.853 56.832 862.227 56.7253 862.461 56.512C862.696 56.2987 862.813 56.0533 862.813 55.776C862.813 55.3707 862.648 55.0987 862.317 54.96C861.997 54.8107 861.549 54.6773 860.973 54.56C860.525 54.464 860.077 54.336 859.629 54.176C859.192 54.016 858.824 53.792 858.525 53.504C858.237 53.2053 858.093 52.8053 858.093 52.304C858.093 51.6107 858.36 51.0347 858.893 50.576C859.427 50.1067 860.173 49.872 861.133 49.872C862.019 49.872 862.733 50.0853 863.277 50.512C863.832 50.9387 864.157 51.5413 864.253 52.32H862.621C862.568 51.9787 862.408 51.712 862.141 51.52C861.885 51.328 861.539 51.232 861.101 51.232C860.675 51.232 860.344 51.3227 860.109 51.504C859.875 51.6747 859.757 51.8987 859.757 52.176C859.757 52.4533 859.917 52.672 860.237 52.832C860.568 52.992 861 53.136 861.533 53.264C862.067 53.3813 862.557 53.52 863.005 53.68C863.464 53.8293 863.832 54.0533 864.109 54.352C864.387 54.6507 864.525 55.088 864.525 55.664C864.536 56.3893 864.253 56.992 863.677 57.472C863.112 57.952 862.339 58.192 861.357 58.192ZM869.545 58.192C868.542 58.192 867.715 57.9467 867.065 57.456C866.414 56.9653 866.041 56.3147 865.945 55.504H867.657C867.742 55.8667 867.945 56.1813 868.265 56.448C868.585 56.704 869.006 56.832 869.529 56.832C870.041 56.832 870.414 56.7253 870.649 56.512C870.883 56.2987 871.001 56.0533 871.001 55.776C871.001 55.3707 870.835 55.0987 870.505 54.96C870.185 54.8107 869.737 54.6773 869.161 54.56C868.713 54.464 868.265 54.336 867.817 54.176C867.379 54.016 867.011 53.792 866.713 53.504C866.425 53.2053 866.281 52.8053 866.281 52.304C866.281 51.6107 866.547 51.0347 867.081 50.576C867.614 50.1067 868.361 49.872 869.321 49.872C870.206 49.872 870.921 50.0853 871.465 50.512C872.019 50.9387 872.345 51.5413 872.441 52.32H870.809C870.755 51.9787 870.595 51.712 870.329 51.52C870.073 51.328 869.726 51.232 869.289 51.232C868.862 51.232 868.531 51.3227 868.297 51.504C868.062 51.6747 867.945 51.8987 867.945 52.176C867.945 52.4533 868.105 52.672 868.425 52.832C868.755 52.992 869.187 53.136 869.721 53.264C870.254 53.3813 870.745 53.52 871.193 53.68C871.651 53.8293 872.019 54.0533 872.297 54.352C872.574 54.6507 872.713 55.088 872.713 55.664C872.723 56.3893 872.441 56.992 871.865 57.472C871.299 57.952 870.526 58.192 869.545 58.192ZM877.252 58.192C876.58 58.192 876.026 58.08 875.588 57.856C875.151 57.632 874.826 57.3387 874.612 56.976C874.399 56.6027 874.292 56.1973 874.292 55.76C874.292 54.992 874.591 54.384 875.188 53.936C875.786 53.488 876.639 53.264 877.748 53.264H879.828V53.12C879.828 52.5013 879.658 52.0373 879.316 51.728C878.986 51.4187 878.554 51.264 878.02 51.264C877.551 51.264 877.14 51.3813 876.788 51.616C876.447 51.84 876.239 52.176 876.164 52.624H874.468C874.522 52.048 874.714 51.5573 875.044 51.152C875.386 50.736 875.812 50.4213 876.324 50.208C876.847 49.984 877.418 49.872 878.036 49.872C879.146 49.872 880.004 50.1653 880.612 50.752C881.22 51.328 881.524 52.1173 881.524 53.12V58H880.052L879.908 56.64C879.684 57.0773 879.359 57.4453 878.932 57.744C878.506 58.0427 877.946 58.192 877.252 58.192ZM877.588 56.816C878.047 56.816 878.431 56.7093 878.74 56.496C879.06 56.272 879.306 55.9787 879.476 55.616C879.658 55.2533 879.77 54.8533 879.812 54.416H877.924C877.252 54.416 876.772 54.5333 876.484 54.768C876.207 55.0027 876.068 55.296 876.068 55.648C876.068 56.0107 876.202 56.2987 876.468 56.512C876.746 56.7147 877.119 56.816 877.588 56.816ZM883.502 58V50.064H885.006L885.134 51.456C885.379 50.9653 885.736 50.5813 886.206 50.304C886.686 50.016 887.235 49.872 887.854 49.872C888.814 49.872 889.566 50.1707 890.11 50.768C890.664 51.3653 890.942 52.256 890.942 53.44V58H889.262V53.616C889.262 52.08 888.632 51.312 887.374 51.312C886.744 51.312 886.222 51.536 885.806 51.984C885.4 52.432 885.198 53.072 885.198 53.904V58H883.502ZM896.699 58.192C895.921 58.192 895.222 58.016 894.603 57.664C893.995 57.312 893.515 56.8267 893.163 56.208C892.822 55.5787 892.651 54.8533 892.651 54.032C892.651 53.2107 892.822 52.4907 893.163 51.872C893.515 51.2427 893.995 50.752 894.603 50.4C895.222 50.048 895.921 49.872 896.699 49.872C897.681 49.872 898.502 50.128 899.163 50.64C899.835 51.152 900.267 51.8453 900.459 52.72H898.683C898.577 52.2827 898.342 51.9413 897.979 51.696C897.617 51.4507 897.19 51.328 896.699 51.328C896.283 51.328 895.899 51.4347 895.547 51.648C895.195 51.8507 894.913 52.1547 894.699 52.56C894.486 52.9547 894.379 53.4453 894.379 54.032C894.379 54.6187 894.486 55.1147 894.699 55.52C894.913 55.9147 895.195 56.2187 895.547 56.432C895.899 56.6453 896.283 56.752 896.699 56.752C897.19 56.752 897.617 56.6293 897.979 56.384C898.342 56.1387 898.577 55.792 898.683 55.344H900.459C900.278 56.1973 899.851 56.8853 899.179 57.408C898.507 57.9307 897.681 58.192 896.699 58.192ZM906.011 58.192C905.232 58.192 904.539 58.0213 903.931 57.68C903.333 57.328 902.864 56.8427 902.523 56.224C902.181 55.6053 902.011 54.8853 902.011 54.064C902.011 53.232 902.176 52.5013 902.507 51.872C902.848 51.2427 903.317 50.752 903.915 50.4C904.523 50.048 905.227 49.872 906.027 49.872C906.805 49.872 907.483 50.048 908.059 50.4C908.635 50.7413 909.083 51.2 909.403 51.776C909.723 52.352 909.883 52.9867 909.883 53.68C909.883 53.7867 909.877 53.904 909.867 54.032C909.867 54.1493 909.861 54.2827 909.851 54.432H903.675C903.728 55.2 903.979 55.7867 904.427 56.192C904.885 56.5867 905.413 56.784 906.011 56.784C906.491 56.784 906.891 56.6773 907.211 56.464C907.541 56.24 907.787 55.9413 907.947 55.568H909.643C909.429 56.3147 909.003 56.9387 908.363 57.44C907.733 57.9413 906.949 58.192 906.011 58.192ZM906.011 51.264C905.445 51.264 904.944 51.4347 904.507 51.776C904.069 52.1067 903.803 52.608 903.707 53.28H908.187C908.155 52.6613 907.936 52.1707 907.531 51.808C907.125 51.4453 906.619 51.264 906.011 51.264Z" fill="white"/>
<path d="M922.977 52L926.477 55.5L929.977 52" stroke="white" stroke-width="1.16667" stroke-linecap="round" stroke-linejoin="round"/>
<path d="M963.255 59V47.3636H964.954V51.6875H965.056C965.155 51.5057 965.297 51.2955 965.482 51.0568C965.668 50.8182 965.925 50.6098 966.255 50.4318C966.585 50.25 967.02 50.1591 967.562 50.1591C968.266 50.1591 968.895 50.3371 969.448 50.6932C970.001 51.0492 970.435 51.5625 970.749 52.233C971.067 52.9034 971.227 53.7102 971.227 54.6534C971.227 55.5966 971.069 56.4053 970.755 57.0795C970.441 57.75 970.009 58.267 969.46 58.6307C968.91 58.9905 968.283 59.1705 967.579 59.1705C967.049 59.1705 966.615 59.0814 966.278 58.9034C965.944 58.7254 965.683 58.517 965.494 58.2784C965.304 58.0398 965.158 57.8277 965.056 57.642H964.914V59H963.255ZM964.92 54.6364C964.92 55.25 965.009 55.7879 965.187 56.25C965.365 56.7121 965.622 57.0739 965.96 57.3352C966.297 57.5928 966.71 57.7216 967.198 57.7216C967.706 57.7216 968.13 57.5871 968.471 57.3182C968.812 57.0455 969.069 56.6761 969.244 56.2102C969.422 55.7443 969.511 55.2197 969.511 54.6364C969.511 54.0606 969.424 53.5436 969.249 53.0852C969.079 52.6269 968.821 52.2652 968.477 52C968.136 51.7348 967.71 51.6023 967.198 51.6023C966.706 51.6023 966.289 51.7292 965.948 51.983C965.611 52.2367 965.355 52.5909 965.181 53.0455C965.007 53.5 964.92 54.0303 964.92 54.6364ZM975.033 47.3636V59H973.334V47.3636H975.033ZM981.195 59.1761C980.377 59.1761 979.663 58.9886 979.053 58.6136C978.443 58.2386 977.969 57.714 977.632 57.0398C977.295 56.3655 977.127 55.5777 977.127 54.6761C977.127 53.7708 977.295 52.9792 977.632 52.3011C977.969 51.6231 978.443 51.0966 979.053 50.7216C979.663 50.3466 980.377 50.1591 981.195 50.1591C982.013 50.1591 982.727 50.3466 983.337 50.7216C983.947 51.0966 984.42 51.6231 984.757 52.3011C985.094 52.9792 985.263 53.7708 985.263 54.6761C985.263 55.5777 985.094 56.3655 984.757 57.0398C984.42 57.714 983.947 58.2386 983.337 58.6136C982.727 58.9886 982.013 59.1761 981.195 59.1761ZM981.2 57.75C981.731 57.75 982.17 57.6098 982.519 57.3295C982.867 57.0492 983.125 56.6761 983.291 56.2102C983.462 55.7443 983.547 55.2311 983.547 54.6705C983.547 54.1136 983.462 53.6023 983.291 53.1364C983.125 52.6667 982.867 52.2898 982.519 52.0057C982.17 51.7216 981.731 51.5795 981.2 51.5795C980.666 51.5795 980.223 51.7216 979.871 52.0057C979.522 52.2898 979.263 52.6667 979.092 53.1364C978.926 53.6023 978.842 54.1136 978.842 54.6705C978.842 55.2311 978.926 55.7443 979.092 56.2102C979.263 56.6761 979.522 57.0492 979.871 57.3295C980.223 57.6098 980.666 57.75 981.2 57.75ZM991.018 62.4545C990.325 62.4545 989.729 62.3636 989.229 62.1818C988.732 62 988.327 61.7595 988.013 61.4602C987.698 61.161 987.463 60.8333 987.308 60.4773L988.768 59.875C988.871 60.0417 989.007 60.2178 989.177 60.4034C989.352 60.5928 989.587 60.7538 989.882 60.8864C990.181 61.0189 990.566 61.0852 991.035 61.0852C991.679 61.0852 992.212 60.928 992.632 60.6136C993.052 60.303 993.263 59.8068 993.263 59.125V57.4091H993.155C993.052 57.5947 992.905 57.8011 992.712 58.0284C992.522 58.2557 992.261 58.4527 991.927 58.6193C991.594 58.786 991.16 58.8693 990.626 58.8693C989.937 58.8693 989.316 58.7083 988.763 58.3864C988.213 58.0606 987.778 57.5814 987.456 56.9489C987.138 56.3125 986.979 55.5303 986.979 54.6023C986.979 53.6742 987.136 52.8788 987.45 52.2159C987.768 51.553 988.204 51.0455 988.757 50.6932C989.31 50.3371 989.937 50.1591 990.638 50.1591C991.179 50.1591 991.617 50.25 991.95 50.4318C992.283 50.6098 992.543 50.8182 992.729 51.0568C992.918 51.2955 993.064 51.5057 993.166 51.6875H993.291V50.2727H994.956V59.1932C994.956 59.9432 994.782 60.5587 994.433 61.0398C994.085 61.5208 993.613 61.8769 993.018 62.108C992.427 62.339 991.761 62.4545 991.018 62.4545ZM991.001 57.4602C991.49 57.4602 991.903 57.3466 992.24 57.1193C992.581 56.8883 992.838 56.5587 993.013 56.1307C993.191 55.6989 993.28 55.1818 993.28 54.5795C993.28 53.9924 993.193 53.4754 993.018 53.0284C992.844 52.5814 992.588 52.233 992.251 51.983C991.914 51.7292 991.497 51.6023 991.001 51.6023C990.49 51.6023 990.064 51.7348 989.723 52C989.382 52.2614 989.124 52.6174 988.95 53.0682C988.78 53.5189 988.694 54.0227 988.694 54.5795C988.694 55.1515 988.782 55.6534 988.956 56.0852C989.13 56.517 989.388 56.8542 989.729 57.0966C990.073 57.339 990.497 57.4602 991.001 57.4602Z" fill="white"/>
<defs>
<filter id="filter0_b_218_1440" x="-28" y="-28" width="1496" height="159" filterUnits="userSpaceOnUse" color-interpolation-filters="sRGB">
<feFlood flood-opacity="0" result="BackgroundImageFix"/>
<feGaussianBlur in="BackgroundImageFix" stdDeviation="14"/>
<feComposite in2="SourceAlpha" operator="in" result="effect1_backgroundBlur_218_1440"/>
<feBlend mode="normal" in="SourceGraphic" in2="effect1_backgroundBlur_218_1440" result="shape"/>
</filter>
<linearGradient id="paint0_linear_218_1440" x1="-218" y1="0.000170032" x2="1549.32" y2="309.29" gradientUnits="userSpaceOnUse">
<stop stop-color="#000A27"/>
<stop offset="1" stop-color="#000A27" stop-opacity="0.9"/>
</linearGradient>
<linearGradient id="paint1_linear_218_1440" x1="103.347" y1="38.2063" x2="87.9906" y2="60.1031" gradientUnits="userSpaceOnUse">
<stop stop-color="#62CAEB"/>
<stop offset="1" stop-color="#7D4FAF"/>
</linearGradient>
<clipPath id="clip0_218_1440">
<rect width="134" height="34" fill="white" transform="translate(64 37)"/>
</clipPath>
<clipPath id="clip1_218_1440">
<rect width="91" height="34.6938" fill="white" transform="translate(86 36.5)"/>
</clipPath>
</defs>
</svg>
