<svg width="65" height="68" viewBox="0 0 65 68" fill="none" xmlns="http://www.w3.org/2000/svg">
<g filter="url(#filter0_dddddd_877_3071)">
<path d="M12.2939 8.39674C12.2939 3.75935 16.0533 0 20.6907 0H44.4078C49.0452 0 52.8045 3.75935 52.8045 8.39674V32.1138C52.8045 36.7512 49.0452 40.5106 44.4078 40.5106H20.6907C16.0533 40.5106 12.2939 36.7512 12.2939 32.1138V8.39674Z" fill="#F5F5FA"/>
</g>
<g filter="url(#filter1_i_877_3071)">
<path d="M32.6218 10.7412C27.3273 10.7412 23.0347 15.0339 23.0347 20.3284C23.0347 22.1269 23.5399 23.8037 24.4016 25.2421L23.1205 29.9155L27.8938 28.6625C29.2898 29.4562 30.9013 29.9155 32.6218 29.9155C37.9163 29.9155 42.209 25.6229 42.209 20.3284C42.209 15.0339 37.9163 10.7412 32.6218 10.7412ZM29.3403 15.8562C29.4961 15.8562 29.6561 15.8553 29.7944 15.8625C29.9653 15.8665 30.1514 15.879 30.3296 16.2729C30.5413 16.741 31.0023 17.9155 31.0614 18.0346C31.1205 18.1536 31.1624 18.2938 31.0801 18.4496C31.0018 18.6094 30.9611 18.7061 30.8461 18.8475C30.727 18.9849 30.5966 19.1556 30.4887 19.2595C30.3697 19.3785 30.2468 19.509 30.3842 19.7463C30.5216 19.9836 30.9988 20.7615 31.7043 21.3894C32.6111 22.1995 33.3762 22.4485 33.6142 22.5675C33.8523 22.6866 33.9902 22.668 34.1276 22.5082C34.269 22.3525 34.7215 21.8179 34.8813 21.5798C35.0371 21.3417 35.1961 21.3829 35.4118 21.4612C35.6307 21.5395 36.7981 22.1146 37.0362 22.2336C37.2743 22.3527 37.4304 22.4116 37.4903 22.5082C37.5518 22.6081 37.5519 23.0835 37.3545 23.638C37.1572 24.1916 36.1882 24.727 35.7536 24.7646C35.3149 24.8053 34.9056 24.9617 32.9027 24.1732C30.4867 23.2217 28.9631 20.7472 28.8441 20.5874C28.725 20.4316 27.8766 19.3009 27.8766 18.1344C27.8766 16.964 28.4903 16.3908 28.7052 16.1527C28.9241 15.9146 29.1805 15.8562 29.3403 15.8562Z" fill="#3563E9"/>
</g>
<defs>
<filter id="filter0_dddddd_877_3071" x="0.509049" y="0" width="64.0803" height="67.0268" filterUnits="userSpaceOnUse" color-interpolation-filters="sRGB">
<feFlood flood-opacity="0" result="BackgroundImageFix"/>
<feColorMatrix in="SourceAlpha" type="matrix" values="0 0 0 0 0 0 0 0 0 0 0 0 0 0 0 0 0 0 127 0" result="hardAlpha"/>
<feOffset dy="0.407648"/>
<feGaussianBlur stdDeviation="0.163059"/>
<feColorMatrix type="matrix" values="0 0 0 0 0 0 0 0 0 0 0 0 0 0 0 0 0 0 0.0196802 0"/>
<feBlend mode="normal" in2="BackgroundImageFix" result="effect1_dropShadow_877_3071"/>
<feColorMatrix in="SourceAlpha" type="matrix" values="0 0 0 0 0 0 0 0 0 0 0 0 0 0 0 0 0 0 127 0" result="hardAlpha"/>
<feOffset dy="0.979635"/>
<feGaussianBlur stdDeviation="0.391854"/>
<feColorMatrix type="matrix" values="0 0 0 0 0 0 0 0 0 0 0 0 0 0 0 0 0 0 0.0282725 0"/>
<feBlend mode="normal" in2="effect1_dropShadow_877_3071" result="effect2_dropShadow_877_3071"/>
<feColorMatrix in="SourceAlpha" type="matrix" values="0 0 0 0 0 0 0 0 0 0 0 0 0 0 0 0 0 0 127 0" result="hardAlpha"/>
<feOffset dy="1.84456"/>
<feGaussianBlur stdDeviation="0.737826"/>
<feColorMatrix type="matrix" values="0 0 0 0 0 0 0 0 0 0 0 0 0 0 0 0 0 0 0.035 0"/>
<feBlend mode="normal" in2="effect2_dropShadow_877_3071" result="effect3_dropShadow_877_3071"/>
<feColorMatrix in="SourceAlpha" type="matrix" values="0 0 0 0 0 0 0 0 0 0 0 0 0 0 0 0 0 0 127 0" result="hardAlpha"/>
<feOffset dy="3.29039"/>
<feGaussianBlur stdDeviation="1.31616"/>
<feColorMatrix type="matrix" values="0 0 0 0 0 0 0 0 0 0 0 0 0 0 0 0 0 0 0.0417275 0"/>
<feBlend mode="normal" in2="effect3_dropShadow_877_3071" result="effect4_dropShadow_877_3071"/>
<feColorMatrix in="SourceAlpha" type="matrix" values="0 0 0 0 0 0 0 0 0 0 0 0 0 0 0 0 0 0 127 0" result="hardAlpha"/>
<feOffset dy="6.15431"/>
<feGaussianBlur stdDeviation="2.46172"/>
<feColorMatrix type="matrix" values="0 0 0 0 0 0 0 0 0 0 0 0 0 0 0 0 0 0 0.0503198 0"/>
<feBlend mode="normal" in2="effect4_dropShadow_877_3071" result="effect5_dropShadow_877_3071"/>
<feColorMatrix in="SourceAlpha" type="matrix" values="0 0 0 0 0 0 0 0 0 0 0 0 0 0 0 0 0 0 127 0" result="hardAlpha"/>
<feOffset dy="14.7311"/>
<feGaussianBlur stdDeviation="5.89245"/>
<feColorMatrix type="matrix" values="0 0 0 0 0 0 0 0 0 0 0 0 0 0 0 0 0 0 0.07 0"/>
<feBlend mode="normal" in2="effect5_dropShadow_877_3071" result="effect6_dropShadow_877_3071"/>
<feBlend mode="normal" in="SourceGraphic" in2="effect6_dropShadow_877_3071" result="shape"/>
</filter>
<filter id="filter1_i_877_3071" x="20.6379" y="8.34473" width="23.9678" height="24.557" filterUnits="userSpaceOnUse" color-interpolation-filters="sRGB">
<feFlood flood-opacity="0" result="BackgroundImageFix"/>
<feBlend mode="normal" in="SourceGraphic" in2="BackgroundImageFix" result="shape"/>
<feColorMatrix in="SourceAlpha" type="matrix" values="0 0 0 0 0 0 0 0 0 0 0 0 0 0 0 0 0 0 127 0" result="hardAlpha"/>
<feOffset dy="0.589245"/>
<feGaussianBlur stdDeviation="1.10483"/>
<feComposite in2="hardAlpha" operator="arithmetic" k2="-1" k3="1"/>
<feColorMatrix type="matrix" values="0 0 0 0 0 0 0 0 0 0 0 0 0 0 0 0 0 0 0.2 0"/>
<feBlend mode="normal" in2="shape" result="effect1_innerShadow_877_3071"/>
</filter>
</defs>
</svg>
